<svg width="400" height="400" viewBox="0 0 400 400" xmlns="http://www.w3.org/2000/svg">
  <rect width="400" height="400" fill="#af4e80"/>
  <path d="M0 0L0 198.5L49.5 200L51 0L0 0Z" fill="#ee0f80" stroke="none"/>
  <path d="M200.5 0L200 198.5L248.5 200L250 0L201 0Z" fill="#6f8e80" stroke="none"/>
  <path d="M0 326L0 348.5L0 350L400 350L400 347.5L400 326.5L400 325L0 325.5Z" fill="#80ae50" stroke="none"/>
  <path d="M0 276L0 298.5L0 300L400 300L400 297.5L400 276.5L400 275L0 275.5Z" fill="#806e90" stroke="none"/>
  <path d="M250.5 0L250 198.5L298.5 200L300 0L251 0Z" fill="#4fae80" stroke="none"/>
  <path d="M300.5 0L300 198.5L348.5 200L350 0L301 0Z" fill="#2fce80" stroke="none"/>
  <path d="M350.5 0L350 198.5L400 200L400 0L351 0Z" fill="#0fee80" stroke="none"/>
  <path d="M0 226L0 248.5L0 250L400 250L400 247.5L400 226.5L400 225L0 225.5Z" fill="#802ed0" stroke="none"/>
  <path d="M0 351L0 373.5L0 375L400 375L400 372.5L400 351.5L400 350L0 350.5Z" fill="#80ce30" stroke="none"/>
  <path d="M0 201L0 223.5L0 225L400 225L400 222.5L400 201.5L400 200L0 200.5Z" fill="#800ef0" stroke="none"/>
  <path d="M150.5 0L150 198.5L198.5 200L200 0L151 0Z" fill="#8f6e80" stroke="none"/>
  <path d="M0 301L0 323.5L0 325L400 325L400 322.5L400 301.5L400 300L0 300.5Z" fill="#808e70" stroke="none"/>
  <path d="M0 251L0 273.5L0 275L400 275L400 272.5L400 251.5L400 250L0 250.5Z" fill="#804eb0" stroke="none"/>
  <path d="M0 376L0 400L400 400L400 376.5L400 375L0 375.5Z" fill="#80ed11" stroke="none"/>
  <path d="M51.5 0L51 198.5L97.5 200L99 0L52 0Z" fill="#cf2f80" stroke="none"/>
</svg>
