<svg width="512" height="512" viewBox="0 0 512 512" xmlns="http://www.w3.org/2000/svg">
  <rect width="512" height="512" fill="#ae424d"/>
  <path d="M61.5 0L59 129.5L62.5 229.5L64 6.5L61.5 0Z M95.5 0L95.5 5L98.5 5.5L98.5 0L96 0Z M105.5 0L103.5 13.5L106.5 15L104.5 21.5L108.5 24L108.5 30.5L104.5 34.5L108.5 43.5L107.5 46.5L104 46L106.5 53L103.5 56.5L107 57.5L106.5 65L107.5 62.5L110.5 66L110.5 75L113 77.5L107.5 78L109.5 89L112.5 88.5L112.5 92.5L109.5 91.5L109.5 101.5L112.5 104.5L106.5 111.5L111.5 114.5L110.5 111.5L113 112L112.5 116.5L115.5 117.5L109.5 126.5L112.5 130.5L111.5 138L118.5 135.5L116.5 127.5L120.5 126.5L117.5 117L123.5 115L122.5 111L126.5 110.5L122.5 112.5L128 113.5L138.5 96.5L134 108L140 99.5L144.5 99.5L145.5 109.5L149.5 109.5L149.5 113.5L145.5 114L149.5 119.5L145.5 126.5L149 128.5L153.5 121.5L155 124.5L143.5 135.5L150 135L150.5 137.5L157.5 134L153.5 138.5L154.5 145L151.5 143.5L148.5 146.5L153 148L153.5 151.5L158.5 150L154.5 160.5L161 159.5L164.5 153.5L168 155.5L173 147.5L180 143.5L183.5 132.5L174.5 136.5L172 134.5L175.5 135L179.5 122.5L176.5 123.5L174.5 117.5L167.5 126.5L164.5 123.5L167.5 124L168 119.5L171.5 121L168.5 117.5L171 112.5L176.5 114.5L174.5 110L180.5 104.5L177 105.5L176.5 102L190.5 88L187.5 85L193.5 82.5L185.5 80.5L189.5 72.5L182.5 79.5L179.5 78.5L185.5 72.5L184 58L169.5 64.5L162.5 61.5L196 49.5L193 45.5L195.5 43.5L199.5 48.5L224.5 44L243 46.5L262 53.5L280.5 65.5L287 65.5L289 69.5L300 70L304 76.5L308.5 77.5L321 68.5L316.5 62.5L322 62L322.5 55.5L326.5 58L324.5 47.5L327 42.5L329.5 48.5L333.5 112.5L336.5 129L338.5 130L334.5 78.5L336 43.5L333 19L324 0L321.5 0L321 4.5L328 16.5L329.5 32.5L326 34.5L329 39L324.5 39L326.5 30L319.5 25.5L323 18.5L322 12L316.5 11.5L318.5 8.5L316 0L305 0L303.5 4.5L302.5 0L301.5 4.5L300 0L296.5 0L291.5 5.5L287.5 0L285.5 7.5L282.5 0L279.5 5.5L276.5 0L274.5 6.5L272.5 0L270.5 9.5L267.5 0L264.5 5.5L262.5 0L261.5 7L265.5 11.5L268 8L269 14.5L263.5 12.5L262.5 15.5L266.5 17.5L260.5 30.5L263.5 38.5L252.5 42.5L251.5 40L255.5 39L249.5 37.5L248.5 33.5L256 35.5L252.5 30.5L254.5 29.5L248.5 31.5L244 24L239 24L242 21L237 21L236.5 15.5L230.5 18L232.5 21.5L227.5 19.5L226 23.5L221.5 21.5L215.5 23.5L215.5 20.5L206.5 23.5L205.5 19.5L201 32L189.5 37.5L189.5 29L185.5 28.5L190.5 25.5L184.5 21.5L179.5 25.5L179.5 30.5L181.5 36.5L185.5 37.5L180.5 40.5L175.5 38L176.5 30.5L168.5 36.5L165.5 33.5L155.5 36.5L156 31L153.5 33.5L147 22L142.5 27.5L145.5 20.5L144 16.5L140.5 26.5L140.5 15.5L137.5 15L144.5 10L142.5 6L142.5 9.5L134.5 9.5L135.5 0L133.5 6.5L131.5 0L129.5 7.5L125 0L106 0Z M145.5 0L145.5 6.5L148 0L146 0Z M149.5 0L152.5 6.5L152.5 0L150 0Z M154.5 0L154.5 13L150.5 16.5L155.5 16.5L156.5 19.5L158.5 18L156.5 13.5L159.5 6.5L154.5 0Z M214 0L214.5 7L217.5 7.5L213 11.5L216.5 10.5L217.5 15.5L222.5 14.5L217.5 17.5L218.5 20.5L225.5 19L226 11.5L229.5 15.5L231 11.5L232.5 16.5L236.5 14L236 5.5L230.5 5.5L232.5 10.5L227.5 9L223 12.5L227.5 5.5L226 0L224.5 6.5L222 0L221.5 7.5L217.5 0L216.5 4.5L214.5 0Z M431.5 0L433 15L438.5 15L439.5 23.5L448.5 34.5L448.5 39.5L454.5 43L451.5 51.5L454.5 61.5L456 54.5L465.5 45L463.5 38L466.5 40.5L466.5 34.5L469 36L476.5 27L470 20.5L476.5 24.5L480.5 18.5L497.5 9.5L482.5 28.5L507.5 6.5L502.5 0L487.5 0L485.5 4.5L483.5 0L453.5 0L451.5 4.5L449.5 0L432 0Z M160 8L159.5 13.5L162 14.5L160.5 7.5Z M239 8L238.5 11.5L243.5 10.5L239.5 7.5Z M151 8.5L147.5 11.5L149.5 14.5L151.5 8Z M275.5 12.5L275.5 20.5L271.5 15.5L275 12.5Z M291.5 14.5L292 18.5L297 18L294.5 21.5L288.5 18L291 14.5Z M162 18L157.5 23.5L148.5 20.5L152.5 23.5L152 27.5L159.5 26.5L158.5 29.5L156 27L157 34.5L162 30.5L162.5 25L159.5 24.5L162.5 17.5Z M170 18.5L165.5 25.5L173.5 32.5L174.5 26.5L170.5 25L170.5 18.5Z M259 22.5L255.5 23.5L257 25.5L262.5 24L259.5 22.5Z M163.5 26.5L165 31.5L168 31L164 26.5Z M243.5 29.5L246.5 31.5L243.5 34.5L243 29.5Z M160.5 38.5L166.5 42.5L160.5 41.5L160 38.5Z M172.5 44.5L176.5 49L177 45L180 44L179.5 50.5L174.5 52.5L173.5 48L168.5 45.5L172 44.5Z M281.5 44.5L284.5 50.5L274 50L274.5 46.5L279 49.5L281 44.5Z M154.5 48.5L158.5 51L158.5 58.5L154.5 54.5L157 50.5L150.5 53L149.5 50.5L154 48.5Z M166 49.5L168.5 49.5L165 53.5L160.5 52L164 52.5L165 49.5Z M147.5 50.5L147 54.5L141.5 56.5L147 50.5Z M26 55.5L20.5 60L0 94.5L4.5 92L21.5 62L26 60.5L26.5 159.5L22.5 183.5L24.5 184L28 226.5L28.5 349.5L32 312.5L30 203.5L27.5 187.5L30 151.5L29.5 69.5L26.5 55.5Z M159.5 62.5L162.5 65.5L161 68.5L156.5 68L159 62.5Z M154.5 70.5L156.5 74L145.5 85.5L154 71Z M322 70.5L317.5 73.5L321.5 74.5L322.5 70.5Z M167.5 73.5L165.5 79.5L159 80.5L157.5 86.5L155.5 85L155 90.5L153.5 86.5L152 91.5L150 89L149.5 97.5L144.5 96L143.5 92L145.5 89.5L146.5 92L153 82L167 73.5Z M367 73.5L361.5 77.5L363.5 106.5L360.5 135.5L363.5 134.5L365.5 123.5L367 78.5L375 82.5L390 108.5L396.5 110.5L376.5 80L367.5 73Z M192 88.5L185.5 94.5L192.5 92.5L192.5 88.5Z M212 106.5L193 120.5L192 124.5L182 127.5L182.5 129.5L189.5 126L185 134.5L189.5 129.5L196 128.5L196.5 123.5L203 118.5L211 116L210 110.5L214 113.5L220.5 109L218.5 106L214.5 110.5L212.5 106.5Z M144 117L143.5 123.5L147.5 119.5L144.5 116.5Z M132 129.5L129.5 136.5L132.5 150L135 150L136.5 154.5L140.5 154L137.5 155.5L142.5 159L146 171.5L149.5 165L144 163L143.5 151L138 150.5L135.5 147L132.5 129.5Z M188 153.5L179.5 164.5L177 162.5L175.5 167.5L172.5 167L173.5 170.5L170.5 173.5L165.5 174.5L151.5 195L157.5 206.5L147.5 203.5L148.5 207.5L144.5 215.5L148.5 223.5L143 223L142.5 226.5L139.5 225L139.5 239.5L142.5 238L143.5 243.5L147.5 239.5L144.5 235L146.5 230.5L153 235.5L155 231.5L159.5 234L155 227L150.5 228.5L150 226L158.5 223.5L158.5 229L166 224.5L167.5 220L163.5 219.5L166 214L175.5 209.5L168.5 208.5L162.5 213L159.5 208.5L166.5 203.5L178 206.5L198.5 181L195.5 179.5L183.5 194.5L180.5 192L183.5 184.5L181.5 181L185 182.5L188.5 176.5L190.5 179L193 169.5L165.5 194.5L168.5 194.5L164.5 199.5L168.5 202.5L161.5 203.5L162 199L158.5 202.5L153.5 198L188.5 157L188.5 153.5Z M152 172L147 173.5L147.5 180L152 178.5L151.5 181.5L145 182.5L150.5 190L149.5 194.5L161.5 175.5L152.5 171.5Z M138 182.5L138.5 189L143.5 183.5L138.5 182.5Z M176.5 187.5L176.5 193L178.5 191.5L181.5 197.5L179.5 199.5L173.5 192L176.5 187.5Z M116 208.5L111 220.5L114.5 227.5L107.5 232.5L112.5 233.5L109 237.5L111.5 241.5L107.5 241.5L109.5 247.5L107.5 250.5L112.5 252.5L113.5 257L131 243.5L136.5 235.5L132.5 226.5L132.5 231.5L122.5 222.5L116.5 208.5Z M177 212.5L169 223.5L177.5 222L177.5 212.5Z M246 225.5L238 237.5L247.5 228L246.5 225.5Z M61.5 231.5L63.5 357.5L65.5 355.5L65.5 322.5L62 231Z M157 239L147.5 245.5L148.5 250.5L153 244.5L153.5 247.5L156 245L157.5 238.5Z M261 247.5L255.5 254L267 255L258.5 252.5L261.5 247.5Z M293 253L292.5 255.5L286.5 255.5L292.5 258.5L289 264.5L290.5 270L286 266.5L284.5 274L289.5 273L289.5 281.5L298.5 276.5L293.5 252.5Z M242 268.5L234.5 275L226 290.5L227.5 315.5L225 339.5L234.5 361L243.5 366L244 371.5L254 381.5L266.5 385.5L254.5 388L272.5 387.5L270 383.5L253.5 375L254.5 368.5L251 370L250.5 361L243 349L241.5 351.5L239.5 348.5L237.5 353.5L233.5 349L233.5 340L239.5 336.5L234.5 335.5L238.5 332.5L233.5 320.5L234.5 310.5L231.5 299.5L235.5 297.5L234.5 281.5L237.5 276.5L244 275L244 271L250.5 272.5L242.5 268.5Z M259 269.5L257.5 276.5L265.5 280.5L259.5 269.5Z M83 273.5L80.5 278.5L83.5 281.5L87.5 277.5L83.5 273.5Z M328 276.5L325.5 280.5L335.5 285.5L341.5 299L330.5 341.5L342 315.5L346 292.5L343 284L328.5 276.5Z M89 279.5L88.5 287.5L84 287L81.5 292.5L93.5 289L89.5 279.5Z M101 283.5L94.5 287.5L101 287.5L101.5 283.5Z M201 292L190.5 314L193 316.5L204.5 292.5L201.5 291.5Z M84 294.5L79.5 296.5L86.5 304.5L89.5 300.5L84.5 294Z M299 298.5L295 310.5L302.5 318L301.5 322.5L307.5 326.5L298.5 326L305.5 330L311.5 326L299.5 298.5Z M289 311.5L284 316.5L284.5 321L287.5 327L293.5 329.5L293.5 326.5L297.5 326.5L288.5 324L291.5 313.5L289.5 311.5Z M81 314.5L81.5 335.5L86.5 330.5L83.5 328.5L87 326.5L83.5 321.5L88.5 317.5L81.5 314.5Z M86 335.5L81 342L85 341L86.5 335.5Z M319 345.5L318.5 350L312.5 348.5L317.5 352.5L321.5 346.5L319.5 345Z M295 347.5L299.5 350.5L295.5 352.5L298 353.5L313.5 351.5L295.5 347.5Z M265 348.5L265 352.5L270.5 353.5L273 358.5L283 365.5L293.5 367.5L303.5 365L284.5 362L265.5 348.5Z M285 348.5L274.5 349.5L284.5 351L276.5 354L282.5 358L283 354L291.5 352.5L286.5 351.5L291 348.5L285.5 348Z M27 351L26 382.5L32 399.5L33.5 427.5L34 398.5L29 381.5L30.5 366.5L27.5 350.5Z M155 353.5L152 361.5L153.5 368.5L155.5 353.5Z M82 354.5L80.5 367.5L85 357.5L82.5 354.5Z M450 357.5L448.5 376.5L451 372.5L450.5 357.5Z M447 384L444.5 388.5L446.5 392.5L447.5 383.5Z M387.5 386L388 394.5L390.5 392.5L389 388.5L394.5 390.5L391.5 394.5L396 397.5L409 399.5L414.5 405L427 409L430 413.5L434.5 415.5L438.5 412.5L439 416L444 418L439.5 398.5L431.5 409.5L405.5 396L415.5 394.5L426.5 397.5L430 394.5L388 385.5Z M246.5 389L242.5 398.5L242 415.5L245 419.5L243 442.5L237.5 461.5L247.5 443.5L246 431.5L250.5 418L264.5 403.5L262.5 399.5L258.5 404.5L260.5 393.5L255.5 391L253.5 393.5L253 388L247 388.5Z M230 414.5L227 422.5L231.5 425.5L230.5 414.5Z M493.5 416L479.5 435L477.5 440.5L479.5 443.5L483.5 442L491.5 423L496.5 419L493.5 415.5Z M433 420.5L425.5 426.5L427.5 430.5L423.5 431L425.5 433.5L421.5 439.5L424 443.5L428 441L433.5 420.5Z M233 428.5L222 436.5L219 453.5L203.5 483.5L205.5 485.5L218 476.5L228 462.5L233 445.5L233.5 428.5Z M462 436L450.5 469.5L459 459L458.5 454L465.5 449L462.5 435.5Z M33 438L34.5 512L36.5 504.5L33.5 437.5Z M63 461L66.5 469.5L67 464L63.5 460.5Z M236 463L220.5 487L210 491.5L203.5 496L204 498.5L196.5 499L194.5 501.5L198 505L192.5 512L194 512L227.5 512L224.5 512L224.5 496.5L227 496.5L228 502.5L231.5 492.5L228.5 490L231.5 483.5L229.5 478.5L232.5 475.5L234 479L236.5 462.5Z M490 482.5L483 493L481 492L479.5 500.5L484.5 493.5L487.5 494L485.5 491L490 488L490.5 482.5Z M419 486L420.5 494L425 495.5L427.5 493.5L422 492.5L419.5 485.5Z M412 492.5L395.5 498L404 512L411.5 512L414 512L422.5 512L429.5 507.5L432 512L435 512L436.5 499.5L423.5 504.5L420 494.5L412.5 492Z M235 493.5L231.5 496.5L233 500.5L235.5 493.5Z" fill="#be565f" stroke="none"/>
  <path d="M512 7.5L495 19.5L492 27.5L487.5 27L458 56.5L436 87.5L441.5 91.5L433.5 91L417.5 114L419 135.5L408.5 171L402 182.5L372.5 210L369.5 225.5L380.5 223L387 206.5L398.5 198.5L397.5 194L401 193.5L411 181.5L415 181.5L410.5 186.5L412.5 190.5L409.5 201L411.5 203L405.5 205.5L402.5 221.5L400 221L399.5 225L400.5 230.5L397.5 229.5L402.5 236L401.5 232.5L404.5 232L412.5 215.5L416.5 203.5L415 199L417 200L421.5 188L419.5 184.5L415.5 184.5L418.5 181.5L422.5 185L428.5 171.5L425.5 165.5L423.5 172.5L416.5 171.5L422.5 167.5L422.5 161L425.5 158.5L425 155.5L421 159.5L418.5 156.5L427 152L426.5 155L430.5 157L425.5 163.5L430.5 166.5L437.5 156.5L435.5 166.5L439.5 169L443 157.5L439.5 152.5L446.5 144.5L442 143.5L446.5 140L446.5 133L454.5 125L453.5 122.5L456 123L460.5 112L471.5 102L472.5 97L476.5 96.5L477.5 91.5L478 95.5L482 95L484 85.5L512 59.5L512 36L504 40.5L498.5 40.5L501 45.5L494.5 53.5L490.5 52.5L488.5 59L476 72.5L470.5 74.5L469.5 80.5L456.5 94L454.5 102.5L448.5 109L449.5 112.5L454.5 109L482 71L496.5 61L444.5 129L440.5 124.5L433.5 129L440 131L438.5 140.5L425.5 131.5L431 126.5L429.5 118.5L432.5 108.5L450.5 87L451.5 81.5L454.5 84.5L455.5 80.5L456.5 82.5L460.5 79L460.5 72.5L465.5 71.5L465.5 67L470 64L471.5 57.5L480.5 52.5L483.5 40.5L485.5 42.5L487.5 38.5L492.5 37.5L488.5 32.5L495.5 34.5L512 24L512 13.5L512 7.5Z M499.5 53.5L502.5 53.5L495.5 58.5L494.5 56.5L499 53.5Z M512 64.5L500.5 77L499 83.5L512 71L512 64.5Z M371 90L372.5 112.5L369 129.5L389.5 114.5L374 97L376.5 96.5L371.5 89.5Z M475 103L472.5 108.5L470 105L469.5 112.5L465 115L462 122L464.5 124.5L455.5 132L454.5 139.5L459.5 137L466.5 122L476.5 111L478.5 105.5L475.5 102.5Z M445 119L440.5 121.5L442 124.5L445.5 118.5Z M425.5 136.5L426.5 141.5L428.5 139.5L435.5 143.5L431.5 147.5L433.5 154.5L429.5 154L428.5 146L423.5 144.5L425 137Z M448 149L446 155L449.5 153L448.5 148.5Z M433 172L427.5 185.5L429.5 190.5L435.5 177.5L433.5 171.5Z M288.5 175.5L287 178.5L279.5 177.5L272.5 182L272.5 194.5L290.5 180L289 175.5Z M267 188.5L257.5 198L255 207.5L263 196.5L262.5 203L265.5 202L267.5 188.5Z M235 191L233.5 194.5L229.5 191.5L223 204.5L223.5 211.5L230.5 206.5L231.5 196.5L235.5 195L235.5 190.5Z M249 190.5L244.5 194.5L250 194.5L249.5 190.5Z M223 193.5L220.5 196L221.5 198.5L226.5 195L223.5 193Z M426 193.5L422.5 196L423.5 199.5L421.5 199L421 205.5L428.5 196.5L426.5 193.5Z M238 199.5L236.5 205.5L238.5 207.5L243.5 201.5L238.5 199.5Z M217 201.5L210.5 205L210.5 213.5L215.5 212L219.5 202.5L217.5 201.5Z M419 207L403.5 245L406 250.5L416 227.5L419.5 206.5Z M230 209L227 214.5L234.5 221L229 223.5L232.5 235.5L250 212.5L242.5 212L241.5 215.5L241 211.5L230.5 208.5Z M348 214L352.5 248.5L356 251.5L354.5 260L356.5 260L355.5 267L353.5 265.5L351.5 270.5L353.5 273.5L352 298.5L322.5 360L319.5 379.5L327.5 379L332.5 371.5L331 367L335.5 361.5L334 358.5L331 364L332 355.5L336.5 348.5L336 359.5L339 362.5L343.5 348.5L336.5 346L338.5 342.5L341 347.5L345 345.5L349.5 320L352 321L354 316.5L352.5 314.5L350.5 317L350.5 311.5L354 311.5L354 287.5L356 273.5L361 270.5L361.5 251.5L358 230.5L348.5 213.5Z M197 214.5L188.5 222L187 230.5L191 230.5L195.5 222.5L197.5 225.5L200 223L196.5 239L191 245.5L194.5 251.5L198.5 246L195.5 255L207.5 265.5L203.5 267.5L198 264.5L186.5 252L184 259.5L188.5 266.5L184.5 276.5L182 265.5L176.5 260.5L174 264.5L173 252L170.5 253L168 270.5L169.5 273.5L173.5 270L171.5 281.5L175.5 283.5L171 287.5L177.5 290L183 308.5L180.5 314.5L176 309L165.5 330.5L169 326L180.5 325L210.5 270L209.5 266.5L230 239.5L228 233.5L224 233.5L220.5 243L224.5 243L215.5 252.5L212 249L214.5 257L208 253.5L200.5 245.5L199.5 235L205.5 225.5L197.5 214.5Z M219 215L219.5 225.5L222 219.5L219.5 214.5Z M182 224.5L176 232.5L176 239.5L180.5 235.5L175 247.5L181.5 262.5L181.5 251L184.5 247.5L182.5 240.5L179 248L180 241.5L182.5 237.5L187.5 238.5L182.5 224.5Z M207 226.5L202 239.5L204.5 246.5L207.5 226.5Z M195 229.5L189.5 234.5L190.5 236.5L195.5 229.5Z M169.5 233.5L163.5 252.5L172 243.5L170 233.5Z M209 235L208.5 247L211 244.5L209.5 234.5Z M395 236.5L393.5 249.5L390 250L386.5 262.5L389.5 269L392.5 267L393.5 254L398.5 250.5L395.5 248.5L396 236.5Z M134.5 246L135.5 251L139.5 253.5L140.5 245.5L135 245.5Z M402 254.5L400.5 262.5L393.5 267.5L397.5 268.5L396.5 278.5L405 260.5L402.5 254.5Z M147 256.5L126 270.5L126.5 275L133.5 274L147.5 256.5Z M276 257.5L281 264.5L285.5 263L276.5 257.5Z M264.5 262L266 266.5L267.5 261.5L265 261.5Z M326 262.5L323.5 264.5L328.5 267.5L326.5 262.5Z M154 263.5L155.5 269.5L158 264.5L155 263.5Z M178.5 265.5L179.5 272.5L176.5 274.5L178 266Z M191.5 269.5L191.5 274L195.5 277L193.5 281.5L192.5 276L188.5 274.5L191 270Z M383 272.5L386 295.5L391.5 272.5L383.5 272.5Z M142 273.5L138.5 278.5L143.5 281.5L136 291.5L139.5 293.5L135 300.5L139.5 303.5L139.5 299.5L145.5 299L142 311.5L146.5 314.5L139.5 321L137.5 319L142.5 314L135.5 309.5L133 313.5L140 333.5L143 332.5L141.5 323.5L146.5 318.5L155.5 333.5L160 326.5L151.5 318L152.5 313L149.5 313.5L156 301.5L159 304.5L161.5 303L159.5 298.5L153 301.5L152 295.5L148.5 299.5L150.5 294L144 289L146 274.5L142.5 273.5Z M121 274.5L116.5 277L121.5 278.5L116.5 282L115 289L122 281.5L125 283.5L121.5 274.5Z M393.5 279.5L389.5 301.5L383.5 311.5L384 295.5L379 285.5L377 298.5L383.5 331.5L397 285.5L397.5 280.5L394 279Z M188 281L193 288L190.5 288L187.5 281.5Z M363.5 284.5L362.5 309.5L367 325.5L369 357.5L373.5 363.5L364 284.5Z M168 291.5L162 294.5L164.5 305.5L167.5 303.5L168.5 291.5Z M219 291.5L190.5 333.5L199.5 334.5L201.5 327.5L210 330L213.5 361.5L215 338.5L212.5 328.5L219.5 291.5Z M160 319.5L157.5 320.5L160.5 323.5L163.5 320.5L160.5 319Z M107 320.5L101.5 332.5L107.5 325L107.5 320.5Z M107 334.5L106.5 339.5L111 338L107.5 334.5Z M189 335.5L171.5 360.5L178 360.5L175.5 357L185 351L185.5 383.5L179.5 414.5L182.5 435.5L177.5 439.5L180.5 441L184.5 438.5L185 441.5L188.5 419.5L185.5 413L188 409.5L188 363.5L191.5 359.5L188 344.5L192 337.5L195.5 339.5L197.5 336.5L189.5 335Z M149.5 339.5L145.5 344.5L147.5 347.5L152.5 342.5L149.5 339.5Z M196 341L197 353L194 345.5L192.5 348.5L199.5 360.5L196.5 340.5Z M95 349L95.5 355.5L98.5 351.5L95.5 348.5Z M99 354.5L94 367.5L99.5 382.5L104 356.5L99.5 354.5Z M168 365.5L164.5 370L163 383L160.5 381.5L159.5 384.5L173.5 401.5L176.5 381.5L173.5 379.5L174.5 373L178.5 370.5L176 366.5L168.5 365.5Z M317 368L312 380.5L313 388L317.5 367.5Z M196.5 369.5L202.5 389.5L207.5 394L209 391.5L205.5 389L203 372L197 369.5Z M4 371L0 371.5L0 389L7 389.5L16.5 398L18.5 393.5L17.5 384.5L13.5 382.5L15.5 377L12.5 374.5L8.5 376L4.5 370.5Z M104 371L104.5 392L110 392.5L111.5 395.5L113 384.5L109.5 378.5L110 387L107 385L104.5 370.5Z M171 370.5L171.5 380.5L167 380.5L165.5 377L171.5 375.5L167.5 372.5L170.5 370.5Z M192 373L192 379L198 381.5L192.5 372.5Z M194 379.5L192.5 399.5L194 405.5L195.5 392.5L198 391.5L196.5 401L199.5 405.5L201 403L202.5 410.5L201.5 429L204 422L206 425.5L207.5 423.5L203.5 413L205.5 408L194.5 379.5Z M79.5 381.5L82.5 391L79.5 393L73.5 405.5L76.5 411.5L72 412.5L69.5 438.5L73 429.5L73.5 434L76.5 434L87.5 416L79.5 412L90 408.5L83.5 382L79.5 381.5Z M167 382L173 382.5L172.5 386L171.5 383.5L166 385L166.5 382.5Z M512 383.5L496 389.5L484.5 402.5L512 387.5L512 383.5Z M339.5 387L337 396L330.5 395.5L346.5 407.5L339.5 386.5Z M209.5 388L207.5 397.5L213.5 393.5L209.5 387.5Z M97 396L96 404.5L99.5 406L102 402.5L97.5 395.5Z M214 397L211 403L218 408.5L214.5 396.5Z M114.5 398L115.5 407.5L119.5 403.5L115 397.5Z M25.5 405L28 453.5L30 425.5L25.5 404.5Z M121 408.5L118.5 412.5L127.5 423.5L121.5 408Z M234 409L237.5 428.5L238 412.5L234.5 408.5Z M370.5 409L369 421.5L366.5 423.5L364.5 420.5L363.5 426.5L355 412.5L367.5 451.5L370.5 408.5Z M93.5 410L97.5 421L94 423.5L94.5 419.5L91.5 420.5L90 417.5L87 432L84.5 427.5L82.5 433.5L70.5 442.5L73.5 455.5L73 447L76.5 448.5L68 495.5L73.5 503.5L72 506.5L69 501L69.5 512L75 512L76 498.5L78.5 512L80.5 503.5L82.5 506.5L83 485.5L85 491.5L89 483.5L90.5 492L94.5 492.5L96 496L92 481.5L96 479.5L92.5 478.5L94 472L85.5 478.5L78.5 478.5L93 467.5L101.5 452.5L101.5 439.5L93.5 445.5L90 444.5L100 432.5L103.5 416.5L103 413.5L96.5 415L94 409.5Z M113 412.5L117.5 435.5L120 427L122 432L124 429.5L117.5 413L113.5 412Z M215 415.5L212.5 417.5L218 422.5L214.5 424.5L212.5 422L212 428.5L215.5 432.5L218.5 428.5L215.5 426L219.5 425L220.5 420.5L219.5 416L215.5 415Z M169 418L171.5 425.5L172.5 421.5L169.5 417.5Z M0 419L0 474.5L10.5 470.5L7 433.5L0 418.5Z M109 418.5L107.5 438.5L111.5 446.5L115 437.5L109.5 418.5Z M167.5 426L168.5 431L173 432.5L173.5 428.5L167.5 425.5Z M127.5 430L128.5 434L124 433.5L123.5 440.5L121.5 434.5L120 436.5L121 446L124.5 445.5L122 449.5L124.5 456.5L128.5 453L130.5 445.5L131 431.5L128 429.5Z M200 431L200.5 434.5L205.5 430.5L200.5 430.5Z M143 440.5L145.5 447.5L147.5 445L143.5 440.5Z M117 443L111.5 451.5L120.5 458.5L117.5 442.5Z M132.5 442.5L132.5 453.5L135.5 447.5L133 442.5Z M167 443.5L170.5 451.5L170.5 445L167.5 443.5Z M209 444.5L198.5 457.5L196.5 451L193 460.5L188 462.5L185 474L182.5 472.5L189.5 448.5L170.5 480.5L173.5 469L169.5 466.5L166.5 470L167 499.5L172 512L176.5 507L180.5 498.5L212.5 487L225 476.5L230.5 463.5L211 484.5L187.5 491L199 472.5L200.5 464L207 458L209.5 444.5Z M96.5 445.5L99.5 445.5L94.5 454L81 459L84 449.5L87.5 453L96 445.5Z M173.5 445.5L174.5 453.5L178.5 445.5L174 445Z M180 446.5L176.5 467L182 457L183.5 447.5L180.5 446Z M144.5 453L157.5 466.5L156.5 460L144.5 452.5Z M109 453.5L106.5 455.5L108.5 459.5L111.5 454.5L109.5 453Z M129 455L122.5 461L114 461.5L123.5 473.5L119 478.5L129.5 492.5L127.5 496.5L135.5 512L136.5 504.5L131.5 494L129.5 479L138 482.5L124 465L131.5 469L137.5 478.5L138.5 470.5L142.5 479L148 477.5L137 465.5L133.5 468L133.5 460.5L129 465L129.5 454.5Z M135.5 457L138.5 462.5L138.5 458L135.5 456.5Z M163 457L163.5 465.5L166 457.5L163.5 456.5Z M105 461.5L104.5 475.5L108 468.5L105.5 461.5Z M99 464L96 469.5L98.5 493.5L105.5 512L105.5 485.5L109.5 479.5L100.5 479L99.5 463.5Z M409 470.5L406.5 476L415.5 481.5L417.5 475L409.5 470.5Z M117 481L112 498.5L114.5 512L118 503.5L115.5 503.5L118 499.5L117.5 480.5Z M140 487L135.5 488L136 491.5L147 505.5L139.5 490.5L140.5 486.5Z M150.5 497L158.5 512L155.5 501L150.5 496.5Z M0 506.5L0 512L7 512L7 507L0 506.5Z M143 507L143 512L149.5 512L143.5 506.5Z" fill="#55113c" stroke="none"/>
  <path d="M20 0L26 17.5L32.5 11.5L27.5 11L31.5 7.5L26.5 5.5L25 9.5L20.5 0Z M56.5 0L53.5 127.5L56.5 137.5L58.5 322.5L61.5 356.5L63 283.5L57.5 109.5L60.5 32.5L56.5 0Z M344.5 0L348 9.5L351.5 10.5L355.5 7L355.5 0L355 6L352.5 0L350.5 7.5L350.5 0L348 5.5L347.5 0L345 0Z M364.5 0L364.5 7L370.5 8L374 14.5L372.5 8.5L376.5 9L374.5 6L379 5L378.5 0L375 0L372.5 4.5L371 0L367.5 4.5L365 0Z M381.5 0L380.5 9.5L391 18.5L390 20.5L387.5 18L386.5 27L390 22.5L392.5 26.5L398.5 22L393.5 20.5L393.5 13.5L388.5 9.5L388.5 13.5L382.5 9L385.5 7L384.5 0L382 0Z M384 15.5L381.5 18.5L383.5 19.5L386.5 17L384.5 15.5Z M4 22.5L0 26.5L5 26L4.5 22.5Z M407.5 34L404 40.5L397 38.5L396.5 43.5L390.5 46.5L388.5 42.5L387 48L382 46.5L380.5 50.5L380.5 42.5L386 44.5L386 41L380.5 37.5L377.5 48.5L374.5 40.5L374 48.5L367.5 46L369.5 51.5L373.5 50.5L365.5 62.5L372 68L371 70.5L377.5 72L375.5 76L382.5 84L383.5 92L393 107.5L414.5 113L419.5 107L417.5 104L421 104.5L427 96.5L424.5 93.5L426.5 88L437.5 75.5L435.5 68L432.5 68L432.5 72.5L430.5 66.5L431.5 61L435.5 61L432.5 56.5L429.5 61.5L426.5 60.5L424 49.5L420.5 51.5L422.5 55.5L415.5 57L412 53.5L405 64L407.5 56.5L405 58L403 46.5L400.5 49.5L407 40.5L409 47L410.5 39.5L407.5 33.5Z M413 39.5L412 51.5L415.5 48.5L416.5 40.5L413.5 39.5Z M421 40.5L417.5 41.5L419.5 43.5L416.5 46.5L423.5 43L421.5 40.5Z M35 44L21.5 46.5L19.5 55L0 87.5L0 92.5L20.5 60L28.5 56L29 110.5L31.5 116.5L29.5 119.5L27.5 187.5L31.5 219.5L30.5 275.5L31.5 300L33.5 301.5L35.5 252L32.5 241.5L35.5 231.5L32.5 159.5L35 151.5L33 143L36.5 138.5L33 65.5L35.5 43.5Z M340 53L340 57.5L346 58.5L346.5 55L341.5 55.5L340.5 52.5Z M355 56.5L349.5 61.5L343.5 58.5L335.5 62.5L338.5 65.5L336.5 66.5L338.5 75.5L336.5 110.5L340 126.5L340 119L342.5 121.5L344.5 119.5L346 123.5L351.5 112.5L351 109.5L348.5 110.5L350.5 104L348 102.5L344.5 107.5L342.5 102.5L345 88.5L342.5 80.5L346 74.5L349.5 73.5L352.5 78.5L349.5 82.5L347.5 78.5L345.5 81.5L346.5 88L354.5 92.5L359.5 100.5L355.5 106.5L356.5 99L353.5 95.5L351.5 97.5L352 93L349.5 94L353 109.5L355 108.5L359.5 114.5L353 113L355.5 119.5L350.5 118L354.5 121.5L349.5 131.5L347.5 124.5L346.5 129.5L343.5 126.5L338.5 128L345.5 144.5L356.5 138L363 120.5L362.5 95.5L361.5 90L359.5 90.5L361.5 87.5L360.5 73.5L351.5 65.5L356 66L353.5 63.5L355.5 56.5Z M420.5 63.5L423 64.5L421.5 70.5L420.5 63.5Z M128 137L128 151L131.5 154.5L135 150.5L131.5 149L128.5 136.5Z M135 153L131.5 159L136.5 168.5L142.5 159.5L139.5 160.5L135.5 152.5Z M140 165.5L135.5 177L142.5 171.5L139.5 176.5L141 179.5L145.5 169.5L140.5 165.5Z M146 172L143 178.5L147 178.5L146.5 171.5Z M125 249.5L124.5 255L129 258.5L128.5 251L125.5 249.5Z M119 255.5L116.5 265.5L123 268.5L122.5 263L127 259.5L122.5 259.5L119.5 255.5Z M298 256.5L294.5 261.5L296.5 267L300.5 268.5L298.5 270.5L300.5 275.5L296.5 277.5L301.5 279.5L298.5 286.5L301 291.5L296.5 291.5L297.5 285L292 280.5L293.5 283.5L287.5 288L277.5 316.5L280 328.5L285.5 330.5L284.5 336L282.5 333.5L279.5 337L280 340.5L276 336.5L269.5 336.5L269 327L263 327L263.5 322L259.5 319.5L261 315L252.5 308.5L251 311L251.5 302L245.5 295.5L242.5 284.5L234.5 293L235.5 299.5L232.5 299L235.5 307L232 307.5L235.5 309.5L236.5 330.5L239.5 333.5L234.5 335.5L239.5 336.5L233.5 342.5L240.5 342.5L233.5 349L236.5 351.5L242.5 348.5L248.5 358L253 358.5L253.5 362.5L252 360.5L250.5 362.5L254.5 368.5L253.5 375L262 377L263.5 381L269.5 381L270 377.5L265.5 378.5L273 370.5L272.5 375L276.5 376.5L278.5 371.5L282.5 373.5L282.5 370.5L285.5 373.5L286 370.5L290.5 369.5L264.5 350.5L268.5 347L277 348.5L282.5 343.5L282 336.5L283.5 339.5L287.5 337L294 339.5L302 330L298.5 326.5L293.5 326.5L294.5 330.5L290.5 330L283 319L280.5 319L296 308L292.5 304.5L296 304.5L303 294.5L300.5 298.5L305.5 309.5L305 316.5L313 326L306.5 301.5L305 262.5L298.5 256.5Z M335 287.5L331 291.5L330.5 288.5L328 289L327.5 294.5L333.5 296L328.5 298.5L332.5 305.5L333.5 302.5L339.5 308.5L335.5 303.5L340 300.5L337.5 301.5L338.5 295L337 290.5L334.5 291L335.5 287.5Z M32.5 305.5L33.5 327.5L36 321.5L33 305Z M328 305.5L329.5 312.5L332.5 307.5L328.5 305.5Z M294.5 311.5L288.5 322.5L290.5 325.5L295.5 321L302.5 321L302.5 318L295 311.5Z M328 313.5L325.5 322.5L328.5 324.5L330.5 323L328.5 313.5Z M286 339.5L283.5 346.5L279 349L298.5 347.5L305.5 350L314.5 347.5L287.5 346.5L286.5 339.5Z M153 352.5L149.5 354.5L151.5 360.5L153.5 352Z M318 353L317.5 359.5L321.5 353.5L318.5 352.5Z M284 353.5L283 358L276 354.5L274.5 356.5L297.5 364.5L306 363.5L313.5 354.5L310 353.5L306.5 359.5L297.5 359.5L290.5 356.5L297 353L284.5 353.5Z M60 363.5L59.5 395.5L63 381.5L60.5 363.5Z M34 375.5L32 391.5L36.5 409.5L34.5 375.5Z M274 381L269.5 382.5L275 384.5L274.5 380.5Z M276 396L272.5 398.5L271.5 407L274 410L268.5 408.5L271.5 403.5L270.5 397.5L262.5 407.5L263.5 411L260 409.5L256 418.5L252.5 416.5L250.5 419L250.5 426.5L246 431.5L249.5 436.5L245.5 440.5L247.5 444L243.5 447L243.5 454L233.5 472L234 479L232.5 475.5L230.5 478L231 495L235.5 493.5L236.5 496.5L233.5 501.5L231 498L230.5 505.5L225.5 503L227.5 505.5L225 512L230.5 512L228.5 512L316.5 512L321.5 507.5L317.5 506.5L318.5 503.5L325.5 505.5L325.5 500.5L320.5 501L321.5 490.5L318.5 490.5L317.5 485L319.5 483.5L308.5 473.5L312.5 471.5L312 467.5L308.5 467L310 460L306 465.5L308 457.5L301 451.5L302.5 446L296.5 448L294.5 435.5L298 432L295.5 433.5L292.5 422.5L285.5 420.5L292.5 419.5L288.5 418.5L286.5 413.5L288 407.5L282.5 412.5L280.5 405.5L284.5 406L278.5 400.5L276.5 408.5L276.5 395.5Z M61 400.5L59 418.5L62.5 440.5L64.5 433.5L61.5 400.5Z M33.5 425.5L35 467.5L37.5 469.5L37 426.5L34 425Z M60 442L62.5 471.5L63 444.5L60.5 441.5Z M37.5 489L36.5 512L39 506.5L37.5 488.5Z" fill="#df7168" stroke="none"/>
  <path d="M228 45.5L222.5 49.5L219 48.5L220.5 51.5L214 50.5L210.5 53.5L221.5 55.5L215 66L221 61.5L223.5 66.5L220.5 70.5L224.5 69.5L221.5 72.5L231 74L231 78L223.5 81.5L228.5 79.5L223.5 86.5L229.5 82.5L226.5 94.5L230.5 94.5L227.5 100.5L238 90.5L241.5 93L249.5 88.5L241.5 91.5L240.5 87L231.5 92.5L235 89.5L232.5 82.5L235.5 79.5L230.5 80.5L234.5 77L232.5 72.5L235.5 73L235.5 69.5L230.5 70.5L232.5 67.5L227 69.5L225.5 61.5L234.5 62L242.5 56.5L232.5 60L241.5 54.5L237.5 51L235.5 57L228.5 58.5L226 54.5L221 59.5L228.5 45.5Z M256 83.5L250.5 86.5L259.5 84.5L256.5 83.5Z M512 92.5L497.5 112.5L484 124L462 159L461.5 166.5L458.5 166.5L459.5 169.5L448.5 184L437.5 210.5L438 218L446.5 223.5L457.5 223.5L468.5 228.5L471.5 226.5L479.5 231.5L485 230L487.5 225.5L485.5 221L491 216L485.5 215.5L489.5 206L485.5 207.5L486 203.5L476 204L481.5 200.5L476.5 201.5L470.5 198L470.5 194.5L475.5 195L476 190.5L472.5 190L469.5 182.5L474 183L469.5 180.5L472 176.5L466.5 178.5L468.5 173.5L465.5 170.5L470 172.5L467.5 169.5L469 165L489.5 157.5L485.5 157.5L487.5 153.5L485.5 145.5L490.5 139.5L482.5 140L484.5 135.5L489 137.5L490 129.5L494.5 130L489 125.5L494.5 124.5L496.5 131.5L498.5 127.5L501 130.5L505 115L512 117L505.5 112.5L512 116L512 92.5Z M248 110L225 126L230 131.5L234.5 129.5L228.5 125L232.5 120.5L236.5 124L235 126.5L239.5 126L236.5 119.5L248.5 109.5Z M216 113.5L197 130.5L201.5 134L216 131L223.5 123.5L216.5 113.5Z M225.5 115L227 118.5L230.5 118L230.5 114.5L225.5 114.5Z M214.5 117.5L217.5 119.5L209.5 125.5L209 122.5L214 118Z M223 125.5L214.5 133.5L216.5 136.5L213 134.5L206 141L208.5 144.5L203.5 144.5L208.5 149.5L213.5 145.5L215.5 147.5L212.5 153L218 158.5L218 151L222 155.5L233.5 147L229.5 142.5L234.5 143.5L232.5 140.5L234.5 139L229 135.5L218.5 141L219.5 146.5L215.5 145.5L218.5 138.5L224.5 136L220.5 130.5L223.5 125.5Z M255 129.5L252.5 134.5L258.5 130.5L256 129.5Z M233 132.5L240 141.5L243.5 139L233.5 132.5Z M250 132.5L248.5 137.5L251.5 140L246.5 142.5L253.5 144.5L252.5 148.5L244 141.5L241.5 143.5L243.5 146.5L236.5 146L233.5 154.5L230 151.5L223.5 157L224 160.5L229.5 161.5L234.5 167.5L235.5 161.5L236 165.5L239.5 163.5L247.5 168L271.5 157.5L251.5 170L252 172.5L265.5 176L269.5 175.5L264 173.5L264.5 171L279.5 174.5L277.5 167.5L281 171.5L291.5 173L288.5 166.5L295.5 171.5L296.5 168.5L305 167L305.5 162.5L313 165.5L315.5 164L315.5 157.5L310.5 161.5L303 152.5L302.5 157.5L299 156.5L298.5 159.5L293.5 157.5L291.5 162.5L284 154.5L283.5 157.5L281 156.5L281 152.5L273.5 154L273 149.5L268.5 150.5L264 147.5L252 137.5L250.5 132.5Z M494 139L493 150L489.5 150L488.5 154.5L493 153L492 159.5L494.5 152.5L498.5 152.5L494.5 149.5L496.5 141.5L494.5 138.5Z M289 139.5L282.5 142L287.5 143L289.5 139.5Z M279 142.5L274 149L284.5 146.5L279.5 142.5Z M332 147.5L329 152.5L335.5 148.5L332.5 147.5Z M323.5 150L320.5 157.5L322.5 158.5L327.5 153.5L323.5 149.5Z M396 151L389.5 158.5L395.5 154.5L396.5 156.5L390.5 165.5L399.5 156L396.5 150.5Z M501.5 154.5L500.5 164.5L504.5 158L504.5 154.5L502 154.5Z M403.5 156L401.5 163L393 169.5L405 166L403.5 155.5Z M488 159.5L483.5 161L484.5 165.5L486 162.5L489.5 164L488.5 159.5Z M324 161.5L301.5 175.5L306.5 177L321 167.5L324.5 161.5Z M216 163.5L212.5 170L218 171.5L216.5 167.5L221.5 170.5L221.5 166L216.5 163.5Z M387 168.5L379.5 175.5L383 175.5L387.5 168.5Z M244 173.5L241.5 176.5L245.5 179L248 176.5L244.5 173.5Z M391 182.5L380.5 189L382 193.5L374.5 191.5L377.5 192.5L374.5 195.5L376.5 196L365 205L365 211.5L367 206.5L385.5 193L391.5 182.5Z M312 198.5L310.5 201L315.5 203.5L312.5 198.5Z M306 199.5L291.5 213L292 210L287.5 209.5L282 213.5L266 241.5L277.5 233.5L273.5 242L295 251.5L298.5 255.5L301 254.5L302 258.5L305.5 256L307.5 264.5L304.5 269.5L305.5 286.5L313.5 323.5L307 275.5L309.5 252.5L301.5 243L303.5 240.5L299.5 232.5L304.5 219L310.5 213.5L306.5 212.5L309.5 202.5L306.5 199.5Z M331.5 202.5L340.5 223.5L336 206.5L331.5 202.5Z M479.5 205.5L483.5 206L480.5 210.5L479.5 205.5Z M297.5 213.5L293.5 222.5L296.5 222.5L292 229L279.5 236.5L288.5 226.5L292 215L297 213.5Z M492 216L493 222.5L496.5 215.5L492.5 215.5Z M258 220L244 238L241.5 237L221 268.5L226.5 268.5L235 252L243 244L244.5 248.5L247 243.5L251 246L251 230.5L259.5 229L258.5 219.5Z M364.5 221L365.5 243.5L368 237.5L365 220.5Z M432 224.5L417 269L419 264.5L419.5 267.5L421.5 266L422 258.5L428.5 260L426.5 256.5L432.5 248.5L431.5 245.5L427.5 247L438 244.5L437.5 241.5L441.5 239.5L438.5 237.5L443 238L441.5 242L451 248.5L457 247L458 251.5L461.5 247.5L460 240.5L453.5 236L442.5 236.5L441 232.5L433.5 230L432.5 224.5Z M266 227.5L265.5 236.5L268.5 228.5L266.5 227.5Z M342 233L343 244.5L338 249L344.5 244L342.5 232.5Z M243 249.5L243.5 257.5L245.5 254.5L243.5 249.5Z M324 253.5L322 260.5L326.5 255L324.5 253.5Z M367 259L368.5 275.5L370 259.5L368.5 264.5L367.5 258.5Z M337 267L335 275L338.5 272L337.5 266.5Z M512 269.5L483 283.5L467.5 304.5L485 284.5L506.5 276.5L512 269.5Z M222 270.5L217 273L208.5 291.5L212.5 284.5L218.5 281L222.5 270.5Z M315 273L320.5 288.5L320 311L322 308.5L322 313L325 313.5L327.5 286.5L319.5 281L320.5 277.5L315.5 272.5Z M281 275.5L270.5 284L241.5 283.5L249.5 298.5L254.5 300L256.5 309L259.5 307.5L264.5 310.5L266.5 316.5L270.5 312.5L274 318.5L276.5 316.5L272.5 312.5L278.5 309.5L277.5 300.5L285 294L283.5 289.5L286.5 281.5L278 279.5L285.5 277L281.5 275.5Z M415 277.5L412 281.5L416.5 280L415.5 277.5Z M369 281L369 302.5L374.5 333.5L373 289.5L370 288.5L369.5 280.5Z M51 282.5L47.5 287L51.5 286.5L53.5 289.5L51.5 282.5Z M409.5 289L405.5 302L403.5 301.5L403.5 309.5L405 306.5L409.5 307L409.5 288.5Z M50.5 293L50.5 300.5L55.5 300.5L50.5 292.5Z M46 294.5L43.5 297L45.5 301.5L46.5 294.5Z M402 311L401.5 316.5L405 313L402.5 310.5Z M45.5 318L46.5 326.5L41 325L40.5 328L50.5 328.5L45.5 317.5Z M185 318.5L182.5 324L191 328L185.5 323.5L192.5 320L185.5 318Z M319 322.5L316 328.5L316.5 344L309 346.5L317.5 345L323 328.5L319.5 322.5Z M307 329.5L303.5 333.5L306.5 342.5L307.5 329.5Z M301 331.5L293.5 342L295 344.5L298 343.5L301.5 331.5Z M51.5 332.5L49.5 338.5L54.5 334L52 332.5Z M42.5 345.5L43.5 354.5L46.5 348.5L43 345.5Z M52 345.5L49.5 348.5L53.5 352.5L52.5 345.5Z M377 352L378.5 389.5L381 372.5L377.5 351.5Z M49.5 354L50.5 359L47 364.5L44.5 363L45.5 368.5L50.5 366.5L50.5 361.5L55.5 365.5L61.5 361.5L58 357.5L53 359.5L54 355L49.5 353.5Z M305.5 353.5L307 356.5L302.5 358.5L306.5 359.5L309 354.5L306 353Z M296.5 355L294.5 358.5L301.5 358L302 354L297 354.5Z M43 359.5L39.5 361.5L40.5 368.5L43.5 366L42.5 361.5L47.5 360.5L43.5 359.5Z M50 369L49.5 373.5L53 375.5L54.5 371L50.5 368.5Z M302.5 369L300.5 373.5L293.5 369L286.5 374L279.5 372.5L276.5 377.5L286.5 385.5L278.5 388.5L282.5 392.5L284.5 389.5L296.5 391L297.5 395.5L291.5 412.5L293 416.5L295 414.5L302.5 421L302.5 431L306.5 431.5L307.5 435L302.5 434L307.5 444L312.5 443L307.5 447.5L311 446.5L308.5 451.5L314.5 454L314 464L319 460.5L318.5 464.5L321.5 465.5L317.5 466.5L321.5 469L319.5 473.5L322.5 471.5L325.5 473.5L324.5 481.5L329.5 490.5L325.5 489.5L329.5 492.5L329.5 500L332.5 499.5L330.5 512L333.5 512L348 512L348 502.5L343.5 500.5L346.5 498.5L341.5 495L343.5 491L324.5 452.5L325.5 447L322.5 446.5L321.5 433.5L317.5 428.5L319.5 423L315.5 425.5L317.5 417.5L303 408L303.5 388.5L293.5 386.5L304 381L302.5 368.5Z M44 380L45 384.5L39.5 390.5L43.5 391.5L40.5 393.5L42.5 394.5L45 391.5L42 388L48.5 384.5L44.5 379.5Z M57 396L50.5 399.5L51 402L54 403.5L54 399.5L60 398L57.5 395.5Z M43.5 414.5L51 426.5L52 420L50 421L43.5 414.5Z M41 417.5L39.5 422.5L42.5 423.5L41.5 420.5L44.5 420L41.5 417.5Z M47.5 425.5L42.5 429.5L49 429L48 425.5Z M52 427L51.5 431.5L48.5 430.5L52.5 434.5L53.5 431.5L56.5 432.5L52.5 426.5Z M45 442L41.5 443.5L47.5 447L48 450.5L56.5 443.5L45.5 441.5Z M50 453L48.5 457.5L51.5 459.5L50.5 452.5Z M51 480.5L47.5 481.5L50.5 485.5L51.5 480.5Z M48.5 486.5L49.5 491.5L54.5 489.5L49 486.5Z M44 488L44.5 492.5L47.5 490.5L44.5 487.5Z M56 488L55 495.5L53 492.5L45 494.5L43.5 500L48 505.5L49.5 502.5L53.5 504L50.5 497.5L57.5 497L56.5 487.5Z M46 507L45 512L57.5 512L53.5 506L50.5 512L46.5 506.5Z" fill="#de9186" stroke="none"/>
  <path d="M4.5 0L0 7.5L0 24L5.5 22.5L0 28.5L0 83.5L6.5 78L21.5 46.5L36.5 44.5L33 65.5L36.5 138.5L33 143L35 151.5L32.5 159.5L34.5 280.5L36.5 286.5L34 348L37.5 345.5L32.5 358.5L36.5 369.5L36.5 384.5L34.5 385.5L37 406.5L41.5 408L41 410.5L36.5 410.5L36 436.5L38 512L42.5 512L46.5 506.5L51 512L53.5 505.5L42.5 501.5L49 490.5L47.5 488.5L44.5 492.5L43.5 489L49.5 483.5L43.5 479.5L45.5 476.5L46 481.5L53 481L48.5 477L49.5 473.5L55.5 476L52.5 483.5L54 493L56.5 487.5L57.5 491.5L57.5 501.5L54 502.5L58.5 503.5L56 512L62 496.5L60.5 400.5L55.5 401L50.5 407.5L52.5 403L50.5 400.5L59 395L60 367.5L58.5 364.5L54.5 367L54 376.5L49.5 377.5L47 372.5L45.5 375.5L42 374.5L43 380.5L45 377.5L47 379.5L46.5 383.5L50.5 380.5L52.5 384.5L52.5 381.5L55.5 382.5L52.5 388.5L54.5 392L50.5 395.5L51 384.5L42 388L48.5 400.5L41.5 403.5L39.5 400L44.5 398.5L40.5 395.5L41.5 392L38.5 392.5L41 388.5L39.5 381L44 370.5L39.5 371L40.5 360.5L37.5 360.5L41.5 357.5L48.5 360.5L51 358.5L36.5 352.5L38.5 347.5L41.5 353L40.5 347.5L47 344L46.5 340L50.5 336L47.5 334L49 328.5L42.5 326.5L41.5 331.5L40.5 327.5L41.5 325L46.5 326.5L43.5 323.5L47.5 311.5L47 318L53.5 317.5L49.5 320L48.5 326.5L51.5 326L50 322L53.5 320.5L53 326L55.5 326L49.5 332.5L54.5 333.5L52.5 337.5L54.5 339.5L49.5 341.5L55.5 348.5L52.5 359L60 356.5L56.5 137.5L53.5 127.5L53 71.5L55.5 61.5L53.5 39.5L55.5 30.5L55 20L52.5 19.5L56 0L39.5 0L37.5 4.5L34.5 0L34.5 6L29 0L30.5 9.5L35.5 8L31.5 13.5L27.5 13.5L28.5 17.5L23 16L23 20.5L27.5 19.5L24.5 22.5L20.5 20.5L22.5 13.5L25.5 15.5L26 13L20.5 6.5L12 7.5L19.5 5.5L19.5 0L12 0L10.5 5.5L9.5 0L8.5 4.5L5 0Z M23.5 0L25.5 9.5L27 0L24 0Z M335.5 0L335.5 8L341.5 17.5L338.5 18.5L342.5 24.5L339.5 25.5L340.5 28.5L343.5 28L343.5 34L349 40.5L352.5 40L352 44L356 43L361 51.5L368 50L366.5 40.5L371.5 38.5L368.5 43.5L374 46L375.5 39.5L376.5 47.5L381.5 35.5L384.5 41.5L391.5 42L390.5 46.5L397 43L396.5 38L402.5 37.5L401 32.5L395.5 31.5L396 27L392.5 29.5L385 26L387.5 25.5L387 18L383.5 19.5L377 16L380.5 13.5L380 7.5L377 12.5L374 12L375 15.5L372.5 10.5L370.5 13.5L370.5 8.5L364.5 7L362.5 0L362 7.5L354 8.5L352.5 12.5L349.5 9.5L347.5 12.5L343.5 0L339.5 5.5L339.5 0L336 0Z M356.5 0L356.5 7.5L360 0L357 0Z M379.5 0L379.5 5L382 6L379.5 0Z M385.5 0L387.5 11.5L389.5 6.5L393.5 9.5L399 7.5L398 0L386 0Z M385.5 21.5L379.5 28.5L381 23L385 21.5Z M413.5 22.5L420.5 35.5L421.5 32.5L413.5 22.5Z M386 29L390.5 30.5L387.5 33.5L385.5 29.5Z M437 71L437.5 76L429.5 83L429.5 87.5L439 76.5L437.5 70.5Z M348.5 73.5L343 78.5L345.5 80.5L347.5 78.5L349.5 82.5L352.5 78.5L349 73.5Z M345 88L342.5 99.5L345.5 92.5L352.5 92.5L345.5 87.5Z M348.5 94L348.5 101.5L351.5 99.5L348.5 93.5Z M349 118.5L346 123.5L342 123L342.5 126L347 125L349.5 118.5Z M350.5 120.5L349.5 131.5L354 123.5L351 120.5Z M127 142L124.5 151.5L128.5 148L127.5 141.5Z M127 153.5L126.5 159.5L129.5 156.5L127.5 153.5Z M130 157.5L122.5 163L124.5 166.5L130.5 157.5Z M131 161.5L124 171.5L131.5 168L131.5 161.5Z M136 169.5L128.5 174.5L134.5 189.5L134.5 178L138.5 173.5L133.5 176L136.5 169.5Z M372 192.5L363.5 194.5L366 204.5L374.5 199.5L377.5 192.5L372.5 192Z M137.5 194L134.5 199.5L139.5 205.5L141.5 203.5L137.5 202.5L138.5 197.5L144.5 202.5L137.5 193.5Z M43.5 235.5L42.5 241.5L38.5 237.5L43 236Z M44.5 244.5L48.5 249.5L53.5 249L49 252.5L42.5 248L44 245Z M54.5 265.5L54.5 270.5L51.5 270.5L53 278L48.5 277.5L54.5 283L55.5 288.5L53.5 292.5L47.5 288L45.5 302L41.5 302.5L44.5 311.5L42.5 317.5L40.5 298.5L45.5 294.5L45 289L41.5 291.5L40.5 287L45.5 286L47.5 272.5L43.5 269.5L49 271.5L48.5 268.5L53.5 268.5L54 265.5Z M50.5 292.5L54.5 294.5L55.5 300.5L50.5 300.5L50.5 293Z M279.5 298L276.5 306.5L279.5 308.5L274.5 314.5L276.5 315.5L282.5 302.5L279.5 297.5Z M250.5 299.5L250.5 305.5L254.5 305.5L251 299.5Z M257 309.5L256 312L261 314L262.5 310L257.5 309.5Z M264 314.5L263.5 326L266 320L270.5 322.5L266.5 322.5L267 327L269.5 329.5L277.5 328.5L277.5 331L273.5 330.5L279 337.5L282.5 332.5L279 325.5L274 325L277.5 320L274 316.5L268 315.5L268.5 317.5L264.5 314.5Z M44 346L53.5 354L50 346.5L44.5 345.5Z M46 367L45 371L49.5 370.5L50.5 367.5L46.5 366.5Z M45.5 407.5L48 411.5L45.5 416.5L50.5 416L51.5 411.5L52.5 416L48 418.5L50.5 421.5L53 417.5L55.5 418.5L52.5 420L51.5 424.5L55.5 424L53.5 428.5L56.5 432.5L46.5 436.5L41.5 433L45.5 431L41 430.5L38.5 424.5L43.5 417L39.5 414L46.5 410.5L45 408Z M291 410L288.5 413.5L292.5 419.5L290.5 422L299.5 436.5L297 435.5L295.5 438L299 438.5L301.5 442.5L298 443L298.5 446.5L303.5 443.5L302.5 429.5L299.5 431.5L297.5 428.5L302.5 424.5L299.5 422.5L295.5 426L297.5 421.5L294.5 421.5L298.5 416.5L295.5 418.5L295 414.5L292.5 416L291.5 409.5Z M44.5 419L42 428L47 424.5L51.5 431.5L52 427L44.5 422.5L44.5 418.5Z M439 422.5L436 427.5L443.5 422.5L439.5 422Z M52.5 436.5L52 440L46.5 442.5L56.5 442.5L51 453.5L55.5 455L53.5 461.5L55.5 465.5L52 464.5L49.5 468.5L51.5 460.5L46 457L45.5 452.5L47.5 455.5L49.5 453L48 448L44.5 450.5L45 446.5L42.5 451.5L39 447.5L46.5 440L44 437.5L52 436.5Z M457.5 439L442.5 478.5L453 458.5L457.5 438.5Z M305.5 442L305.5 449.5L301.5 448.5L301 451.5L309 458.5L313 457.5L305.5 441.5Z M428 448L437.5 460.5L438.5 454L428.5 447.5Z M310.5 460L312.5 463.5L310 467L314.5 473.5L310.5 474.5L323.5 486.5L320.5 492L326 500.5L325 505.5L317.5 506L321.5 507L319.5 512L331.5 512L329.5 492.5L324.5 493.5L327.5 487.5L319.5 479.5L325 480.5L326.5 477.5L323.5 477L325.5 474L318.5 473L319.5 465.5L311 459.5Z M435 464L432 471.5L429.5 467.5L424.5 469.5L428.5 470.5L429.5 481L432.5 480.5L432.5 477L429.5 476.5L433.5 475.5L435.5 463.5Z M52.5 467.5L56.5 473.5L51.5 471L52 468Z M440 479.5L432.5 482.5L430.5 488L440.5 479.5Z" fill="#e68d70" stroke="none"/>
  <path d="M428.5 28L427.5 31.5L432 32L428.5 27.5Z M433 32.5L427.5 35.5L445 67.5L451 58.5L433.5 32.5Z M265 59.5L255.5 63.5L263 62L259.5 66L266 64.5L261.5 67.5L265 69L252.5 75.5L267.5 71L255 79.5L259.5 77L260 80.5L272.5 74.5L269.5 79.5L283.5 74.5L242.5 96L254 107.5L255 103.5L261.5 105.5L249.5 112L257.5 118.5L252.5 122.5L255.5 121.5L260.5 125.5L264.5 124L258.5 114.5L266 122.5L272 121L280.5 132.5L270.5 123.5L265.5 126.5L268 130.5L262.5 128.5L269 134.5L271 132.5L271 136.5L276 136.5L272.5 137.5L276.5 145.5L279 141.5L291 137.5L295.5 130.5L303 129.5L301.5 135.5L294.5 140.5L299.5 140.5L299.5 137.5L304 140.5L302.5 143L308 148.5L315.5 141.5L320 148.5L326 149.5L324.5 144.5L331.5 147L329.5 139.5L336 148.5L337.5 144.5L339.5 147.5L344 146.5L340 134.5L332.5 128L319.5 104L309 95.5L297 78.5L276 68L277 65L269 64L271.5 61.5L265.5 59Z M239.5 97.5L247 107.5L252 108L240 97.5Z M236 99.5L235 104.5L243.5 112.5L239.5 106.5L242.5 104L236.5 99Z M399 111.5L326 158L369 136.5L401.5 115.5L366 142.5L323 166.5L321.5 172.5L317.5 169.5L310 173.5L314.5 176.5L312.5 185.5L316.5 185L317.5 175L321 174.5L318.5 186.5L321.5 188.5L327.5 183.5L323 187.5L325.5 190.5L332.5 185.5L327.5 191.5L327.5 198.5L331 200.5L377 176.5L397.5 147.5L401 155L405.5 154L408.5 158.5L398 177.5L397.5 182.5L400.5 182L416 146.5L418 124.5L412 112.5L399.5 111Z M243 123.5L240.5 125L245.5 129.5L243.5 123.5Z M297 143.5L303.5 151.5L302.5 144L297.5 143.5Z M287.5 145.5L295 155.5L299.5 153.5L293 145.5L288 145.5Z M336.5 164.5L341.5 168L335 172.5L330 171.5L331 174.5L323.5 173L327.5 165.5L336 164.5Z M308 176.5L306 183.5L303.5 179.5L297.5 183.5L304 187L305.5 192.5L312.5 183.5L308.5 176.5Z M324 199.5L318 202L319.5 205.5L322 202.5L323.5 204L324.5 199.5Z M328 206.5L324.5 211.5L325.5 219.5L319.5 211.5L318.5 219.5L316.5 211.5L313.5 224.5L316 230L312.5 228L312 223.5L310.5 227.5L314 237.5L316.5 237.5L315.5 235.5L319 237.5L319.5 242.5L329.5 244L330.5 246L328 246.5L333.5 248.5L342 240.5L335 219L325.5 214.5L333.5 213.5L328.5 206.5Z M131 214L138.5 233.5L133 219.5L135.5 218L131.5 213.5Z M270.5 226L267.5 237.5L273.5 230.5L270.5 225.5Z M255 238.5L253 248.5L244.5 260.5L260.5 245L259 240.5L255.5 243L255.5 238.5Z M241 249.5L210 299.5L206.5 298.5L202.5 303.5L204 296L196.5 315.5L204.5 310L230.5 273L238.5 268L236.5 265L240.5 265L238.5 259.5L241.5 249.5Z M315 259L308.5 272.5L308.5 282.5L316.5 324.5L321 315.5L315 278.5L318.5 260.5L315.5 258.5Z M273.5 264L269.5 272.5L276.5 274L280 267.5L274 263.5Z M512 314.5L506.5 318.5L505 315.5L498.5 324.5L493 324.5L496.5 335.5L487.5 347.5L487.5 354.5L483 352L483 355.5L474 360L469.5 369.5L467.5 365.5L465 369L460.5 359L455 389.5L462 382.5L465 372.5L472 371.5L472.5 373.5L476.5 370.5L481.5 372L482 376.5L486.5 375.5L487.5 373.5L485.5 371.5L484 373.5L482.5 369.5L483.5 365.5L499 357.5L512 356L512 326L505.5 332.5L498.5 329.5L508 323.5L512 324L512 314.5Z M310 329.5L308.5 342L304.5 342.5L302.5 334.5L300 343.5L313.5 342.5L310.5 329.5Z M171 337.5L167.5 344.5L173.5 338L171.5 337Z M157.5 345.5L154.5 371.5L156.5 376.5L159 358.5L167 346.5L158 345Z M477 374L475.5 376.5L472.5 375L473.5 379L481.5 382.5L483.5 378L477.5 373.5Z M315.5 392.5L322.5 396.5L324 402.5L329.5 403L328.5 405.5L334.5 413.5L333 416.5L336.5 422.5L333.5 426.5L333.5 438.5L337.5 445.5L334.5 447.5L335.5 452L340.5 458.5L341.5 471.5L347.5 474.5L344.5 475.5L344.5 479.5L347.5 480L358.5 512L363.5 512L381 512L371 467.5L355 420.5L339 403.5L315.5 392.5Z M177 415L175.5 433.5L180 424.5L177.5 414.5Z M436 434L433 435.5L434.5 439.5L438.5 436.5L436.5 433.5Z M448.5 435L446.5 447.5L450.5 440.5L448.5 434.5Z M21 498.5L17.5 512L26 512L27 500.5L21.5 498Z" fill="#e4c3b5" stroke="none"/>
  <path d="M209 46.5L206.5 51.5L197.5 49L187.5 57.5L192.5 58.5L192.5 53.5L194.5 58.5L201.5 57L201 62.5L210 61L206.5 61.5L209.5 65.5L208 68L216.5 68.5L210.5 73L216.5 70.5L213.5 75.5L220.5 69.5L217.5 63.5L215.5 66.5L211.5 64L218.5 60.5L213.5 59.5L215.5 56L207.5 56.5L215.5 49.5L209.5 46.5Z M175 57.5L171 58L170.5 61L179.5 57.5L175.5 57Z M220.5 62L219.5 66L222.5 67.5L224 63L220.5 61.5Z M223 72.5L213.5 78.5L215.5 80.5L220.5 78.5L219 85.5L225.5 78.5L222.5 76.5L226.5 75L223.5 72.5Z M507 80.5L491.5 99L492 104L501.5 99L505.5 92.5L507.5 80.5Z M221 85.5L217.5 90L223 91.5L224 94.5L226.5 90.5L224 87.5L220.5 90L221.5 85.5Z M503 98.5L491.5 114.5L498.5 110.5L503.5 98.5Z M488 103L466.5 131L452.5 156L454.5 160.5L450.5 159.5L457.5 164.5L452.5 164.5L454.5 168.5L451.5 172.5L453.5 168.5L449 162L441 175.5L440.5 183.5L437.5 184L440.5 187.5L436.5 187L433 194.5L432.5 201L436.5 201.5L434.5 197.5L439.5 200L424.5 234.5L402.5 300.5L412 287.5L408 304.5L415.5 309L413.5 311.5L404.5 310L397.5 331.5L399.5 322.5L397 321L395 330.5L398 335L393 336L386 382.5L415.5 387.5L421.5 391.5L431.5 390.5L427.5 388.5L433.5 385L427.5 382.5L429.5 377.5L433.5 379.5L431.5 376L433.5 372L438.5 370.5L431.5 366L438.5 360.5L435.5 357.5L442 353.5L440 350.5L437.5 355.5L437.5 350.5L432.5 351.5L436.5 348.5L435.5 342L439 344.5L442 337.5L439 333.5L441.5 330L437 329.5L444.5 327.5L436.5 325.5L448.5 317.5L444.5 317.5L444 311L448.5 314.5L446.5 311L448.5 309.5L442.5 308L442.5 301.5L447.5 301.5L448.5 296.5L448.5 299.5L452.5 300.5L459 298.5L458 289.5L464 285L464.5 278.5L491 269.5L493.5 267L489 263.5L503.5 261.5L507.5 258L501.5 251.5L501.5 244.5L505.5 240.5L512 244.5L512 243.5L512 235.5L512 232.5L512 230.5L512 225.5L512 166.5L512 154.5L501.5 165.5L501.5 158.5L491 163L492.5 167.5L489.5 164.5L485 165.5L487.5 169.5L483.5 170.5L484.5 174.5L481.5 171L482.5 168L477.5 167.5L481.5 165.5L478.5 162.5L468.5 165.5L471.5 170.5L470 176L474.5 174.5L469.5 180.5L474 181.5L470.5 183.5L476 190.5L473.5 193.5L477.5 194.5L477.5 190.5L481 190.5L480.5 198L477.5 199.5L481.5 200.5L478.5 203L484 204L484 201.5L489.5 206L485.5 216L489.5 212.5L491 217L485 221.5L489 229.5L486.5 226L484 231.5L476.5 231.5L471.5 226.5L471.5 229.5L457.5 223.5L457.5 225.5L446.5 223.5L436.5 216L444 192.5L462.5 158L491.5 117L489 115L479.5 126L488.5 111L490.5 104.5L488.5 102.5Z M505 115L506.5 122.5L512 124.5L512 119.5L505.5 114.5Z M507.5 124.5L505.5 130.5L502.5 125.5L499.5 131.5L496.5 131.5L495.5 127.5L494 134L489.5 136.5L492.5 140.5L497.5 137.5L495.5 149L499.5 152.5L501.5 150L505 158.5L512 150.5L512 158.5L512 135.5L507.5 124.5Z M489 142.5L485.5 145.5L488 150.5L492.5 150.5L493.5 147L490.5 146.5L493.5 144L489.5 142.5Z M462.5 147.5L465.5 148.5L462.5 152.5L460.5 148.5L462.5 147.5Z M203 153.5L197.5 155L204.5 161.5L201 157.5L203.5 153.5Z M495.5 154L495.5 159.5L500.5 155L496 153.5Z M394 156L382.5 172.5L396.5 157L394.5 155.5Z M306 164L300.5 168L300.5 172.5L312.5 164L306.5 163.5Z M450.5 167.5L449 173L445.5 173.5L450 167.5Z M208 171.5L206 175.5L209.5 179.5L208 175L211.5 177.5L213 175.5L208.5 171.5Z M439.5 191.5L442.5 192.5L439.5 196.5L439.5 191.5Z M471 196L474.5 199.5L478.5 197.5L471.5 195.5Z M361.5 200.5L363 216.5L366 220L362 200Z M479.5 205.5L480.5 210.5L483.5 206L479.5 205.5Z M492.5 215.5L496.5 215.5L491.5 225.5L492 216Z M432.5 224.5L433.5 230L441 232.5L442.5 236.5L453.5 236L460.5 241L461.5 247.5L457.5 252L460.5 254.5L456.5 255.5L457 247L451.5 248.5L438 241.5L439.5 246.5L432.5 246L433.5 255.5L429.5 254.5L431.5 258L429.5 262.5L424 259.5L422.5 269.5L417 269L432 224.5Z M486.5 236.5L489.5 240.5L482.5 240.5L486.5 237Z M497.5 241.5L500.5 248.5L494.5 245L497 241.5Z M247 243.5L243.5 253.5L249.5 246.5L247.5 243.5Z M415.5 277.5L416.5 280L412 282.5L415 277.5Z M450 301.5L445.5 304.5L447 307.5L455 304L450.5 301.5Z M438.5 311.5L442.5 312.5L443 317L438.5 311.5Z M373 314L377.5 321.5L378 316L373.5 313.5Z M166 335.5L162.5 338.5L163.5 343.5L166.5 335.5Z M424.5 335.5L430.5 339L427 339.5L424.5 336Z M383 400L375.5 452.5L376.5 442L377.5 445.5L381 444.5L386.5 433.5L392.5 432.5L387.5 431.5L386.5 425L389.5 417.5L391.5 420L389.5 422L392.5 421L394.5 416L391.5 415.5L394.5 411.5L391 403L383.5 399.5Z M395 406L397 419.5L394.5 421.5L397.5 422.5L400.5 418.5L397.5 409L402 410.5L395.5 405.5Z M381 446L377 450.5L381.5 454.5L385 450.5L381.5 445.5Z M391 449L385.5 455.5L390 455.5L392.5 451.5L391.5 457.5L395.5 455.5L397.5 459.5L406.5 459.5L403.5 455.5L399 457.5L400.5 454L391.5 448.5Z M421 460.5L414.5 463L420.5 466.5L421.5 460.5Z" fill="#c6807f" stroke="none"/>
  <path d="M404.5 0L404.5 6L428.5 48L444.5 71L452.5 63L453.5 58L420.5 0L418 0L416.5 4.5L414.5 0L412.5 4.5L411 0L405 0Z M427.5 22.5L451 58.5L445 67.5L427.5 35.5L432.5 32.5L427.5 31.5L427.5 27.5L425 28.5L427 23Z M261 56.5L241.5 61.5L241.5 65.5L245 64.5L246.5 67.5L241 67.5L241.5 71L249.5 65.5L248.5 69.5L253.5 69.5L248.5 73L265 69L261.5 68.5L264 65L255.5 64.5L255.5 67.5L253.5 65.5L261.5 56Z M233 62.5L234 69L239.5 67L240 62.5L233.5 62.5Z M239 71.5L232.5 79.5L250 80.5L250.5 84.5L247.5 83.5L249.5 86.5L255.5 84L253.5 82.5L257.5 79.5L252.5 78.5L257 75L250.5 77L254.5 73.5L248.5 74.5L243.5 78.5L242.5 75.5L247.5 73.5L239.5 71.5Z M272 74.5L259.5 82L265 82L272.5 74.5Z M240 81.5L233.5 83.5L235 90.5L237.5 85.5L237.5 88.5L242.5 87.5L241.5 91.5L245.5 88.5L240.5 81.5Z M236.5 107L234.5 110.5L230.5 110.5L233.5 115.5L239 115L238 110.5L242.5 113L236.5 106.5Z M131 108L123.5 133L121.5 164.5L125.5 159.5L122.5 160.5L131.5 107.5Z M226 109.5L218 115L225.5 117.5L223.5 114.5L226.5 109.5Z M244 116L236.5 121L240.5 124L248.5 123L249.5 120L247 121.5L244.5 115.5Z M214 118L212.5 122.5L217.5 119.5L214.5 117.5Z M270 121L267.5 124L273 125.5L270.5 120.5Z M233 121.5L228.5 125L234.5 128.5L231.5 132.5L244 132.5L239 126.5L234 125.5L236.5 124L233.5 121.5Z M250.5 122L250.5 128.5L254.5 125.5L250.5 121.5Z M224 127L220.5 130L222 132.5L228.5 129L224.5 126.5Z M255 126.5L254 130.5L258.5 128.5L255.5 126.5Z M262 130L263.5 136.5L255.5 133.5L251.5 136L268 145.5L263.5 138.5L267 137.5L269.5 141.5L271.5 137L262.5 129.5Z M376.5 131.5L369.5 136.5L376 135.5L377 131.5Z M293 140L299.5 152.5L296.5 156L301.5 156.5L301.5 151L295.5 142.5L304.5 140.5L293.5 139.5Z M290 141.5L271.5 153L275.5 154.5L281 149.5L287.5 159L293 162L292.5 157L285.5 150.5L293.5 152L287.5 146L292.5 144L290.5 141.5Z M316 143L314 146.5L309.5 146L309.5 149.5L312.5 150.5L311.5 147.5L318.5 151.5L319.5 145.5L316.5 142.5Z M324.5 145L328.5 150.5L331.5 149L324.5 144.5Z M350 146.5L346.5 148.5L350.5 149.5L352.5 147.5L350.5 146Z M397 147.5L395 151.5L399 151L397.5 147.5Z M305 149.5L304.5 155.5L310.5 161.5L314.5 156.5L305.5 149.5Z M320.5 149.5L320.5 156.5L323.5 153.5L321 149.5Z M338 152.5L333 157.5L329 157.5L329.5 160L326 159.5L321.5 166L334 160.5L338.5 152Z M403.5 154.5L406.5 163.5L408.5 158.5L404 154Z M119 164L125 196.5L130.5 201.5L128.5 205.5L131.5 204.5L137 214.5L131.5 212.5L137 227.5L142 207.5L132.5 201.5L136 195L130.5 199.5L134.5 192.5L127.5 197.5L133.5 190L127.5 193.5L132.5 182L127.5 185.5L125.5 182.5L129.5 177.5L127.5 177L128.5 173.5L123.5 176.5L128.5 169L124 171.5L125.5 167.5L119.5 163.5Z M327 166L324 173.5L328.5 174.5L330 171.5L335 172.5L340.5 168.5L339.5 165.5L327.5 165.5Z M311 174.5L311.5 183L314.5 176.5L311.5 174.5Z M318 174.5L317.5 179.5L322 176L318.5 174Z M397 177.5L385.5 193L367 208.5L382 200L397 182.5L397.5 177.5Z M318 181L316 185.5L310 186.5L305.5 192.5L300.5 184.5L292 187.5L287.5 196.5L283 195.5L280.5 200.5L284 202.5L283.5 207L279 201.5L274.5 203.5L271 213.5L277.5 210.5L276.5 213L268.5 217.5L265.5 215.5L264 218.5L269.5 222.5L273.5 218.5L272.5 225.5L277 223L275.5 219L278 220.5L290 207.5L298.5 209L305.5 197.5L309.5 201.5L314 198.5L316 203L309.5 203L307.5 208.5L311.5 212L304.5 219L299.5 232L303.5 240.5L301.5 243L307.5 246.5L309.5 252.5L308.5 271.5L313 260L318.5 258.5L318 265.5L324 253.5L339.5 246.5L327 248.5L324 242.5L319.5 242L319 237.5L313.5 237L312.5 230.5L311.5 238L308.5 239L310.5 235.5L307.5 232L310.5 224L314.5 223L313.5 212.5L316 212.5L317.5 205.5L323.5 218.5L327.5 205L331.5 207L333.5 213.5L326.5 215.5L335 219L342 240.5L340.5 245.5L343 243.5L336 210.5L330.5 204.5L339.5 196.5L330.5 200.5L326 198L328.5 197L327.5 191.5L330.5 187L323 194L324.5 185.5L320 190.5L318.5 180.5Z M317.5 198.5L325 200L324.5 206.5L322.5 202.5L319.5 205L317 199Z M297 213.5L291.5 215.5L289 224.5L294.5 221L297.5 213.5Z M252.5 229L250.5 236.5L256 239L256.5 243.5L261 239.5L259.5 231L257.5 232.5L252.5 228.5Z M266 236L264 241L260 242.5L261 245.5L266 242L266.5 235.5Z M252 241L250.5 247.5L252.5 249.5L252.5 240.5Z M243 244L235 252L227 268.5L238.5 251L244 248L243.5 243.5Z M241 252L239.5 263.5L244.5 258.5L241.5 251.5Z M113 259.5L110 265.5L112.5 267.5L113.5 259.5Z M512 272.5L478.5 290L462 316.5L446 420.5L432.5 431L430 436.5L429.5 448L438.5 454L439 458.5L432.5 480.5L428 479.5L428 470.5L422 475.5L424 489.5L429 489.5L432.5 482.5L443.5 476L473.5 404L488 388.5L512 378L512 368.5L501.5 368.5L512 366L512 356L499.5 357.5L482.5 369L487.5 369.5L487.5 374L479 384.5L474.5 384L476.5 382.5L472.5 381.5L472.5 374L467.5 371.5L461.5 379L462.5 384L455.5 392.5L454.5 390.5L456.5 369.5L460.5 359L464 357.5L463.5 363L467.5 364.5L469.5 361L468.5 368.5L471.5 361.5L482 355.5L483 352L487.5 354.5L487.5 347.5L496.5 333.5L494.5 333L495 329.5L492.5 331L492.5 323.5L498.5 324.5L502 316.5L512 313.5L512 272.5Z M315 278L318.5 302.5L320.5 288.5L315.5 277.5Z M217 281.5L211.5 287L212 290.5L217.5 281.5Z M210 290.5L206.5 296.5L208.5 300L210.5 290.5Z M196 319.5L187.5 321.5L187.5 325.5L192 327L196.5 319.5Z M314 322L311.5 343.5L316.5 344.5L314.5 321.5Z M506 326L499.5 329L504.5 331.5L506.5 325.5Z M490.5 369.5L497.5 370.5L490.5 374.5L490 370Z M476 370.5L475.5 376.5L481.5 373L476.5 370.5Z M303.5 389.5L303 408L317.5 417.5L316 424L319.5 423L317.5 428.5L325.5 447L324.5 452.5L328 458L331.5 458.5L329 461.5L343.5 491L341.5 495L346.5 498L350 512L361 512L347 484L347.5 480L344.5 479.5L345.5 473.5L342.5 473.5L340.5 468.5L340.5 458L336.5 455.5L332.5 428.5L334.5 421L329.5 403L317 400.5L315.5 397.5L318.5 397L314.5 395L314.5 391.5L304 389.5Z M436.5 433.5L438.5 436.5L434.5 439.5L433 435.5L436 434Z M448.5 434.5L450.5 440.5L445.5 448.5L448.5 435Z M20 466L18 470.5L22 475.5L19.5 485.5L22.5 494L24.5 482.5L20.5 465.5Z" fill="#e8ba98" stroke="none"/>
  <path d="M487 41.5L485 48L492.5 52.5L496.5 50L495 44L487.5 41.5Z M481.5 52.5L477 55.5L481.5 55.5L480 59.5L483.5 55.5L482 52.5Z M501 69L501.5 71.5L506.5 68.5L501.5 68.5Z M484 70L481.5 73.5L484.5 76L487.5 74.5L484.5 69.5Z M494.5 73L498 76.5L496.5 86.5L499.5 84.5L499.5 72.5L494.5 72.5Z M493 76L488 86.5L496.5 76.5L493.5 75.5Z M485.5 88.5L481.5 90.5L483 97.5L480 94.5L474.5 97.5L478.5 98.5L477.5 105L483.5 101.5L478.5 103.5L479 100.5L485 99L486 88.5Z M309.5 92.5L316 97.5L319.5 96.5L310 92.5Z M68 122L69.5 129.5L70 125L72.5 125.5L68.5 121.5Z M428.5 129L430 132.5L433.5 132L433 128.5L429 128.5Z M427.5 140L424 145L429.5 144L427.5 139.5Z M437 167.5L435.5 173.5L439 171.5L437.5 167.5Z M235 185.5L231.5 188.5L232.5 194.5L234.5 188L239.5 187.5L235.5 185Z M195 212L192.5 216.5L198 214.5L201 218.5L200.5 214L195.5 211.5Z M393 211.5L390.5 212.5L393 215.5L397.5 214.5L393.5 211.5Z M396 216.5L395.5 219.5L388.5 218L392.5 221L381 232L382.5 239.5L379 243L380.5 235.5L373.5 241.5L372.5 237L371 245L375.5 248.5L372.5 246.5L372 251.5L378.5 250.5L380.5 253.5L380.5 271.5L389.5 252.5L389.5 246L385.5 244.5L390.5 245.5L394.5 240.5L393 233L396.5 231L393.5 228.5L398.5 226.5L396.5 222.5L400.5 217.5L396.5 216.5Z M419 217.5L415.5 221.5L416.5 226.5L419.5 217.5Z M213 225L211.5 229L215 230.5L213.5 224.5Z M202 229L199.5 235.5L202 237.5L206.5 228.5L202.5 228.5Z M67.5 239L67 252.5L69.5 249.5L67.5 238.5Z M379.5 244.5L381.5 250.5L377.5 247.5L379 244.5Z M401 247.5L401.5 251.5L398.5 252.5L403 253.5L405.5 259.5L404.5 249.5L401.5 247.5Z M375.5 261.5L377.5 268.5L379 263.5L376 261Z M365 279L363.5 283.5L366.5 289.5L365.5 278.5Z M16 296.5L12.5 302L9.5 301.5L13 298.5L7.5 301.5L0 299.5L0 303.5L0 311.5L10 306.5L13.5 309L6.5 309.5L0 316L12 315.5L8.5 320.5L14 323.5L14.5 313.5L21.5 309.5L17.5 306.5L20.5 305.5L19.5 303L15.5 301.5L19.5 297.5L16.5 296.5Z M359 297L356.5 303.5L359.5 308.5L359.5 296.5Z M134 301L131.5 307L136.5 309.5L134.5 300.5Z M355 306.5L356.5 324.5L358 319.5L361 323L358.5 314.5L361.5 312.5L355.5 306.5Z M349.5 323L349 331.5L353.5 334.5L355.5 327L350.5 329.5L350 322.5Z M23 328L18 333.5L25.5 329L23.5 327.5Z M202.5 330.5L199.5 332.5L204 335.5L205.5 332L203 330.5Z M356.5 334L359.5 337.5L362.5 334L356.5 333.5Z M0 334.5L0 338.5L0 339.5L5.5 334.5L0 334Z M351 334.5L346.5 338.5L348.5 348.5L344 349L343.5 355.5L352.5 349L354.5 342.5L351.5 334.5Z M204 336.5L207 363.5L210.5 366.5L211.5 359.5L206.5 345.5L209 344.5L204.5 336.5Z M356 339L356 342L362.5 344L363 340.5L360.5 343.5L356.5 338.5Z M356 345L353.5 359.5L354.5 354.5L356 357.5L358 356.5L356.5 344.5Z M179 355L175.5 357.5L179.5 360.5L174.5 361.5L178 363.5L172 361.5L169 364L176 366.5L184 374.5L178.5 366.5L184.5 362.5L179.5 354.5Z M190 361.5L188.5 364L192 365.5L193.5 363L190.5 361.5Z M197 362.5L200.5 369L208.5 368.5L200.5 367.5L202 364.5L206.5 366.5L205 362.5L197.5 362.5Z M337 364.5L334.5 365.5L339.5 372.5L337.5 364.5Z M221 365.5L225.5 373.5L225.5 367L221.5 365.5Z M359.5 366L358 379L363 374.5L365 381.5L367.5 380.5L366 372.5L360 365.5Z M334 370L329.5 374L327.5 387.5L323 388.5L322.5 392.5L326.5 389.5L335.5 390.5L338.5 388L332.5 387.5L336.5 382.5L334.5 380L334 383.5L331.5 382L337.5 375.5L334.5 376L337.5 372.5L334.5 369.5Z M170.5 370.5L167.5 372.5L172.5 374.5L171 370.5Z M180 374L178.5 379.5L183.5 380.5L180.5 373.5Z M67 376L69.5 384.5L72 384.5L72 379.5L67.5 375.5Z M231 375.5L230.5 386L238.5 386.5L231.5 375.5Z M81.5 377L78 384L84.5 380L81.5 376.5Z M166.5 376.5L166 380.5L171.5 380.5L167 376Z M189.5 378L189.5 385.5L192.5 383.5L189.5 377.5Z M227 378L225.5 384.5L222 385.5L227.5 390L227.5 377.5Z M373 377.5L372 387L369.5 384.5L367 386.5L374.5 392.5L373.5 377.5Z M359.5 380.5L360.5 395.5L363 381.5L360 380.5Z M178 381.5L175.5 384.5L179.5 385.5L175 388L183 388.5L182.5 383.5L185.5 383.5L178.5 381.5Z M320 382L314 388L311.5 385.5L311.5 388L318.5 389.5L320 385.5L321.5 388.5L324 387L320.5 381.5Z M347 383.5L346 389.5L349.5 388L347.5 383.5Z M219 385.5L217.5 392.5L222.5 388.5L219.5 385.5Z M0 390.5L0 395.5L19.5 402L19 399.5L15 400.5L0 390Z M178 390.5L174 392L174 395.5L179 401.5L175.5 406.5L179.5 408.5L181.5 405.5L178.5 390.5Z M512 390.5L502.5 393.5L512 395L512 391L512 390.5Z M24 391.5L22.5 394.5L27.5 395.5L24.5 391Z M91.5 391.5L96 397.5L95 392L92 391.5Z M219 392.5L221.5 397L218.5 399.5L223.5 399.5L223.5 393.5L219.5 392.5Z M331 392.5L327.5 394.5L337.5 395L331.5 392.5Z M344.5 393.5L348 403.5L349.5 400.5L345 393.5Z M363 394.5L360.5 406.5L356.5 405L354.5 397L354 409.5L359.5 411L361 408.5L368.5 415.5L369.5 401.5L372.5 397.5L366 398L366 406L368.5 406.5L366.5 410.5L363.5 406.5L363.5 394.5Z M501 395L496.5 400.5L488 401.5L487 405L494 408.5L503.5 396.5L501.5 394.5Z M222 400.5L218.5 401.5L222.5 404.5L218.5 409L207.5 404.5L210.5 401.5L204.5 402.5L207 409.5L203.5 413L214.5 424.5L215.5 418.5L213 417L220.5 414L221.5 409.5L226.5 410.5L231.5 406L228 400.5L222.5 400.5Z M192 402L190 418.5L193.5 420L194.5 425.5L198.5 418.5L191.5 416L195.5 416.5L195.5 413.5L200.5 416.5L202 412.5L198 403.5L195.5 402.5L193.5 405.5L192.5 401.5Z M193.5 407.5L198 411L193 412L193.5 408Z M213.5 409.5L216.5 410.5L212.5 414.5L213 409.5Z M109.5 412L108.5 418.5L112.5 413L109.5 411.5Z M223.5 412L222.5 419.5L227 415.5L223.5 411.5Z M210 424.5L208 432.5L212 430.5L210.5 424.5Z M123 426L126 429.5L129.5 428.5L123.5 425.5Z M193 427L192 434.5L197 437.5L197.5 429.5L194.5 430.5L193.5 426.5Z M120.5 431L123.5 440.5L123.5 433.5L120.5 430.5Z M77 433L72 435L72 442.5L79.5 434.5L77.5 432.5Z M187 433L187.5 441.5L189.5 436.5L187.5 432.5Z M201 434.5L200 440L197 439L195 444L202.5 441L201.5 434.5Z M68 445L68.5 457.5L72.5 451.5L68.5 444.5Z M106 447.5L101.5 458.5L105 457L103.5 461.5L107 460.5L108.5 464.5L105.5 454L111.5 452.5L106.5 447.5Z M191 449L192.5 455.5L196.5 450L191.5 448.5Z M376 460.5L372.5 467.5L377.5 464.5L376.5 460.5Z M474 460.5L472.5 464L476 464.5L474.5 460.5Z M207 461.5L204.5 463.5L206 467.5L207.5 461.5Z M379 464L389.5 469.5L393.5 467.5L379.5 463.5Z M506 464L504.5 470.5L507.5 470L506.5 463.5Z M395.5 467L398.5 468.5L394 469L395.5 474L407 468.5L395.5 466.5Z M118 468L118.5 470.5L113.5 472.5L110.5 469.5L108.5 476L109.5 479L112.5 475L113.5 483.5L115 478.5L116 481.5L118.5 479L117.5 472.5L122 474L118.5 467.5Z M95 468.5L92.5 470.5L95.5 487.5L97.5 483.5L95.5 468.5Z M128.5 469L132.5 475.5L131.5 469L128.5 468.5Z M466 471.5L461.5 476.5L456 476L456.5 481.5L466.5 477L465.5 474.5L468.5 473L466.5 471.5Z M503 472L501.5 478.5L504 477.5L505.5 480.5L507.5 476.5L503.5 471.5Z M6.5 473.5L0 475.5L10.5 475.5L7 473.5Z M512 476.5L512 483L501 483L492.5 502.5L496.5 502L500 495L506 496.5L502.5 492.5L512 490.5L512 476.5Z M408 478.5L404.5 480.5L406.5 484.5L408.5 478.5Z M480 478.5L470.5 488L474 495.5L478.5 490L477.5 482L484.5 479.5L481 478.5Z M418 479.5L417.5 483L410 482.5L409.5 485L416 485.5L418.5 479.5Z M453 480L452 485L449.5 484L442.5 489.5L437 488L440.5 490.5L433.5 493L446.5 491L451.5 493.5L459.5 484.5L453.5 487.5L453.5 479.5Z M88 483.5L86.5 489.5L89.5 487.5L88.5 483.5Z M502.5 484.5L503.5 490.5L500.5 489.5L502.5 484.5Z M467 491L463 495L471.5 499.5L474 498L467.5 493.5L472.5 492L467.5 490.5Z M83.5 492.5L84.5 496.5L89.5 496L84 492Z M6 495L0 502.5L6.5 500.5L9.5 504.5L8 512L9.5 506.5L13.5 512L13 503.5L6.5 494.5Z M463 496.5L457.5 502.5L465 512L468.5 505.5L463 502.5L467.5 500L468.5 504L470.5 500.5L463.5 496.5Z M68.5 498L64.5 501.5L66.5 506.5L68.5 497.5Z M87 498L84 503.5L85 512L87.5 505.5L89.5 512L93.5 500.5L87.5 497.5Z M507 504L506 507L512 504.5L507.5 503.5Z M76.5 506L74.5 512L78 512L76.5 505.5Z M100 505.5L98.5 512L101.5 512L100.5 505.5Z M503 505.5L503.5 512L505.5 512L503.5 505.5Z" fill="#6c2348" stroke="none"/>
  <path d="M137.5 0L137 7L143 6.5L144.5 14L148.5 14.5L145 0L142.5 4.5L141 0L138 0Z M156.5 0L156.5 5L159 5.5L159.5 0L157 0Z M161.5 0L161.5 11L163.5 14.5L168.5 13L167.5 10.5L169.5 12L171.5 26L177 18.5L179.5 20.5L182.5 16.5L187.5 16.5L188.5 8L184.5 8.5L182.5 5.5L189.5 7L189.5 13L192.5 10.5L193.5 16.5L197 16L195 23.5L202.5 21L202.5 15.5L208.5 23.5L211.5 18.5L216.5 21.5L217.5 17L220.5 17L220.5 14.5L215 13.5L215 17L212.5 16L212.5 9.5L217.5 7.5L212.5 6L212.5 0L208.5 4.5L205.5 0L172 0L171.5 6.5L179.5 7L175.5 10.5L167.5 6L169 0L162 0Z M218.5 0L221.5 7.5L221.5 0L219 0Z M228.5 0L228 6.5L235.5 4L235 0L229 0Z M237.5 0L238 9L242.5 6.5L243.5 10.5L236.5 10.5L236.5 15L239 13.5L241.5 17.5L239.5 18.5L242 22L239 24L243.5 23.5L249.5 28.5L262 29.5L260 24.5L253.5 26.5L254 23L260.5 21.5L256.5 18.5L254 21L255.5 14.5L253 11L244.5 9L247.5 9L247.5 5.5L251 8L248.5 0L238 0Z M254.5 0L252.5 8.5L261 9.5L261.5 16.5L264.5 11.5L260.5 0L255 0Z M325.5 0L333 18.5L336.5 48.5L334.5 53.5L338.5 58.5L336.5 60L344.5 58L340 57.5L337.5 52.5L349 56.5L345.5 59.5L349 61.5L355.5 56.5L360 63.5L355 61L355.5 71L359.5 70.5L362.5 75.5L371.5 73.5L377 78.5L375 75.5L377.5 72L371 70.5L367.5 62.5L361.5 64L366.5 57.5L362 53.5L362 58.5L357.5 50.5L353.5 51.5L353.5 48.5L355.5 50.5L357.5 48L352.5 46L352 41.5L348.5 42.5L339.5 29L337.5 11.5L332.5 6.5L334 0L332.5 4.5L331 0L326 0Z M400.5 5.5L402.5 11L393 17L395.5 19.5L400.5 15.5L394.5 26.5L401.5 22.5L399.5 28.5L406.5 26.5L409.5 31.5L404.5 29.5L404 39L408.5 33.5L410.5 39L421 40.5L413.5 24L411.5 21.5L408.5 23L407.5 14L401 5.5Z M207.5 7.5L211.5 7.5L205.5 15.5L200.5 9.5L203 11.5L207 7.5Z M181.5 8.5L183.5 10.5L180.5 11.5L180.5 16.5L174.5 18.5L174 15L181 9Z M494.5 10L492.5 14.5L480 19L474 30.5L480 29.5L494.5 15L497.5 11L494.5 9.5Z M157.5 10.5L158.5 18.5L155.5 19.5L152.5 16.5L145.5 21.5L159.5 22.5L162.5 17.5L164.5 25.5L167.5 16L159.5 15.5L158 10.5Z M138 13L138 15.5L143.5 12.5L138.5 12.5Z M227 13.5L223.5 23.5L226.5 23.5L227.5 19.5L229.5 22.5L231.5 20.5L229.5 19.5L231.5 15L227.5 13.5Z M188.5 24L193.5 27.5L188.5 27L188.5 32L192 31.5L192.5 34.5L200.5 31.5L198.5 29.5L195 31.5L197.5 25.5L188.5 23.5Z M161.5 26.5L164 33.5L173.5 34L172.5 31.5L165 31.5L161.5 26.5Z M255.5 30L257.5 40.5L259.5 33.5L255.5 29.5Z M181 31.5L177.5 34L180 36L175.5 37.5L180.5 40.5L183.5 37.5L181.5 31.5Z M406 40.5L404.5 51L408.5 53.5L415.5 51.5L416.5 57L418.5 54.5L422.5 55.5L420.5 51.5L424 49.5L426.5 51.5L424 53.5L426.5 60L430 61L428.5 57L432 56.5L423.5 43.5L412 51.5L409.5 44.5L409.5 49.5L406.5 50.5L407 40.5Z M416 42L415.5 46.5L419.5 43.5L416.5 41.5Z M279.5 46L280 49.5L285 50L279.5 45.5Z M432 62.5L432.5 72.5L432.5 68L436.5 70.5L438 66.5L432.5 62.5Z M335.5 73L336.5 84.5L338.5 75.5L336 72.5Z M217 86.5L213.5 90L213.5 94.5L217.5 86.5Z M204 88.5L203 95L192 99L192.5 102.5L183.5 109.5L180.5 107.5L178.5 111.5L181.5 112.5L175.5 117.5L180.5 118.5L180 114.5L203 96.5L205.5 98.5L205 105.5L200 107.5L196 103.5L193 110.5L197.5 108.5L197 111.5L202 112.5L213 99.5L218.5 99.5L218.5 103.5L224.5 99.5L220.5 99.5L219.5 95.5L207.5 101.5L209.5 98.5L207.5 92.5L211.5 93L204.5 88.5Z M197 91.5L193.5 94.5L195.5 96.5L201.5 93.5L196.5 94.5L197.5 91.5Z M218.5 92L223 97L223 92L218.5 91.5Z M188 112.5L181.5 116.5L185.5 118L188.5 112.5Z M198 113.5L179 126.5L176 134L181.5 127L199.5 116L198.5 113Z M171.5 118.5L166 126.5L173.5 121.5L172 118.5Z M187 127.5L182.5 131L184.5 133.5L187.5 127.5Z M199 134.5L185.5 147.5L181.5 142.5L183.5 148L180 144.5L180.5 149L174 150.5L159 166L163.5 169.5L170.5 160.5L173.5 165.5L181.5 155.5L185 156L183.5 150.5L185.5 152.5L192 149.5L195.5 141L200.5 138L199.5 134.5Z M186 138.5L183.5 141.5L185.5 144.5L188.5 140.5L186.5 138.5Z M200 146.5L197.5 149L199 150.5L202.5 149L200.5 146.5Z M195 149.5L192.5 153.5L197.5 156.5L195.5 149.5Z M208.5 150.5L204 157L206.5 157L207 153.5L211.5 154L209 150.5Z M191 154.5L155 199L158.5 201L162 198.5L171.5 185L178.5 182L179.5 176.5L182 178.5L197.5 165.5L197.5 160L191.5 154.5Z M219 158.5L208.5 167.5L219 162.5L219.5 158.5Z M202 165.5L201 168.5L207.5 169.5L202.5 165Z M156.5 168L157 171.5L161 173L156.5 167.5Z M199 169L198.5 174L203.5 174.5L199.5 168.5Z M205 175L191.5 189L189.5 194.5L200.5 197L200.5 190L208.5 180.5L205.5 174.5Z M185 198.5L186.5 203L191.5 200L186 198.5Z M175 210.5L164.5 219.5L172 214.5L174 216.5L175.5 210.5Z M149 232L147.5 235L152 235.5L149.5 231.5Z M243.5 271.5L249.5 277L237.5 276.5L237.5 284.5L242.5 279.5L251.5 278.5L258.5 283L258.5 278L254 278.5L248 271.5L244 271Z M323 277.5L319.5 279.5L328 285.5L327.5 282.5L330.5 281.5L323.5 277.5Z M266 280L266.5 283.5L272.5 282L266.5 279.5Z M288 280.5L286.5 290.5L291.5 282.5L288.5 280.5Z M331 284.5L326.5 288.5L330.5 288.5L330.5 291.5L335.5 286L331.5 284.5Z M328 300L326.5 303.5L329.5 302.5L329.5 304.5L331.5 300.5L328.5 299.5Z M333 303L330.5 305.5L333.5 308.5L333.5 302.5Z M394.5 312L383 346.5L382.5 358.5L386.5 348.5L387.5 351.5L385.5 377.5L392.5 344.5L390.5 341.5L393.5 339.5L395 321.5L398.5 317L394.5 311.5Z M321 314L321.5 323L325 326.5L320.5 331L318 344.5L322 346.5L320.5 356.5L333.5 329L331.5 325.5L335.5 325.5L331.5 316.5L331 323L324.5 323.5L322.5 318.5L325.5 318.5L322.5 315.5L327.5 315.5L321.5 313.5Z M31 325L29.5 337.5L31.5 342.5L31.5 324.5Z M292 337.5L287.5 339.5L288.5 345.5L292.5 337.5Z M30.5 344L30.5 379.5L34.5 368.5L32.5 364.5L32.5 344L30.5 343.5Z M315 351.5L313.5 357.5L307.5 362.5L309.5 369.5L306.5 371.5L309.5 378.5L320.5 359L317 359L315.5 351.5Z M271 371.5L267 378L272 375.5L271.5 371.5Z M272 376.5L269.5 379.5L272.5 382L274.5 379.5L272.5 376.5Z M307 376.5L299.5 387L307.5 387L307.5 376.5Z M32 379.5L29 381.5L32 393.5L32.5 379.5Z M270.5 383.5L273 387.5L270 390.5L258.5 388L253 389.5L252.5 392L258.5 389.5L265.5 403.5L271.5 395.5L273.5 397.5L277.5 394.5L277 403L278.5 400.5L289 411L296.5 392.5L279.5 392.5L278.5 383.5L271 383.5Z M378 393L379.5 405.5L381 394.5L378.5 392.5Z M437 415.5L430.5 431.5L437.5 423L443.5 421L437.5 415.5Z M372.5 425.5L371.5 460.5L376.5 432L373 425.5Z M427 443L425.5 455.5L420.5 459.5L424.5 465.5L419 467L422.5 471.5L428.5 467L432 471.5L437 459.5L429 451.5L427.5 442.5Z M429.5 462.5L433.5 465.5L428 465.5L429 462.5Z" fill="#d3736b" stroke="none"/>
  <path d="M505 25L506.5 29L503 27L494 38L498 36.5L499 40L504 40.5L501.5 37L507.5 37.5L503.5 33.5L512 25.5L505.5 24.5Z M512 33L505.5 34.5L512 36.5L512 32.5Z M488.5 51.5L482 60.5L485 61L490.5 54L489 51Z M477 58.5L474.5 60.5L476.5 63.5L479.5 59.5L477.5 58.5Z M512 59L502 68.5L512 64L512 58.5Z M474.5 64.5L476.5 67.5L473 70.5L475.5 73L479.5 67.5L474.5 64.5Z M470 72L460.5 72.5L459.5 81.5L463 85.5L467.5 82.5L467.5 76.5L470.5 77L470.5 71.5Z M475 79L470.5 87.5L478 83L475.5 78.5Z M457 82.5L454.5 86.5L452.5 84L453 88L459 85L457.5 82.5Z M369 84.5L371 121.5L370.5 91.5L376 90.5L369.5 84Z M451 89.5L446.5 90.5L443.5 95.5L445.5 100.5L449 96L451.5 102L449.5 104.5L448 100.5L445.5 103.5L441 100L434.5 108.5L438.5 112L437 116L442 117.5L442 111L444 112.5L447.5 105.5L451.5 106L456.5 95.5L456.5 91L451.5 89.5Z M465 93L462.5 96.5L466.5 98.5L468.5 95.5L465.5 92.5Z M378 97.5L384.5 109L390 113.5L378.5 97.5Z M461 98L458 104.5L461.5 105.5L460.5 102.5L464.5 101.5L461.5 97.5Z M320.5 100L331 120.5L328 106.5L320.5 99.5Z M450.5 116L446.5 119L449 121.5L452 120L450.5 115.5Z M436 118.5L434.5 121.5L439 122L436.5 118.5Z M459.5 118.5L456.5 122.5L458.5 125.5L463.5 119.5L460 118.5Z M443 124.5L443.5 130L446.5 125.5L443.5 124.5Z M454 128.5L449 135.5L446.5 135L444.5 141.5L447.5 144.5L455 135.5L452.5 133.5L456.5 130.5L454.5 128.5Z M433.5 130.5L434.5 138L437.5 139.5L440 131L434 130Z M441.5 147.5L439.5 153.5L442.5 155.5L445.5 151L441.5 147.5Z M437 157L434.5 162.5L437.5 162.5L437.5 156.5Z M67.5 167L67.5 186.5L70.5 174.5L67.5 166.5Z M428.5 173L424.5 180.5L427.5 184.5L432.5 173.5L428.5 172.5Z M409 184.5L404.5 190.5L408.5 195.5L411.5 189.5L409.5 184.5Z M420 191.5L415 211.5L420.5 201.5L419.5 198L425.5 193.5L420.5 191.5Z M404.5 192.5L406 199L410 199.5L405 192.5Z M67 194L66.5 200.5L69.5 204.5L67.5 193.5Z M401.5 194L387 207.5L384.5 212.5L388 214L388 217.5L393.5 217.5L390.5 212.5L393.5 211.5L398 214.5L400.5 212.5L399.5 216L402 215.5L401.5 207.5L404 210.5L407 202.5L399.5 206.5L400.5 198.5L404.5 200.5L401.5 193.5Z M374 207.5L371 209.5L371 218.5L374.5 207.5Z M70 208.5L66.5 213.5L68.5 216.5L71.5 212.5L69.5 212L70.5 208.5Z M412 212L409.5 224.5L406.5 224.5L404.5 232L401.5 232.5L403.5 236.5L397.5 239L401.5 240.5L400.5 246.5L415.5 216L412.5 211.5Z M383 216.5L382 226L377.5 225.5L382.5 232.5L385.5 228.5L384 223.5L387.5 227.5L389.5 224.5L387.5 218L383.5 216.5Z M351 238L346.5 249.5L351.5 251L350 256L338.5 255.5L327.5 259.5L333.5 262.5L342 261.5L349.5 269L347 270.5L342.5 265.5L341.5 275L335.5 278.5L347.5 276.5L347.5 308.5L353 292.5L351.5 270L356.5 263.5L354.5 256.5L350.5 258.5L356 253.5L352.5 248.5L351.5 237.5Z M133 246L132.5 253L135 251.5L133.5 245.5Z M395.5 251.5L398.5 260.5L401.5 254.5L396 251.5Z M269 254.5L249 258.5L244.5 263.5L254.5 272.5L257 264.5L262.5 265L276.5 257.5L283.5 259.5L279.5 255.5L272.5 257L269.5 254.5Z M385 260L383.5 266L387 268L385.5 259.5Z M69 260.5L66.5 265.5L68.5 269L69.5 260.5Z M24 265.5L23.5 280.5L16.5 295.5L21.5 304.5L17.5 306.5L21.5 309.5L14.5 317L17.5 319.5L14.5 320L13.5 339.5L10.5 336.5L7 339.5L4.5 335L0 341L8 343L0 343.5L0 348.5L0 351.5L0 355.5L4.5 355.5L0 357.5L0 368L7.5 375.5L8.5 369.5L16.5 370.5L16.5 378.5L23.5 336.5L22 331L17.5 333L20.5 328.5L17.5 326.5L25 327.5L28 318.5L24.5 265.5Z M104 267.5L98 274.5L106.5 269.5L104.5 267.5Z M392.5 268L393.5 275.5L396.5 268.5L392.5 267.5Z M355 280L354 291.5L356.5 289.5L357.5 292.5L361 285.5L357.5 287L355.5 279.5Z M392.5 281L389 282L385.5 293.5L386.5 300.5L389.5 298.5L392.5 280.5Z M224 284.5L219.5 290L217 303.5L219.5 322.5L224.5 284.5Z M358 293.5L354 295L355 303.5L358.5 302L358.5 293.5Z M67.5 308L68.5 318.5L71.5 311.5L67.5 307.5Z M359.5 314L361.5 316.5L360.5 333.5L362.5 334L359.5 343L363.5 340.5L360 348.5L361.5 360.5L365 354.5L364 344L367 347L368 340.5L364 335.5L366.5 324.5L359.5 313.5Z M354 317.5L352.5 325.5L355.5 321.5L354.5 317.5Z M204.5 329.5L205 334.5L210.5 334.5L209.5 329.5L207.5 332.5L205 329.5Z M198 336.5L199.5 353.5L197.5 355.5L204.5 360.5L198 360.5L188.5 346.5L191.5 361L205.5 363L206.5 366.5L200.5 367.5L208.5 368.5L202.5 369.5L208.5 371.5L203.5 372.5L205 380L213.5 380.5L209.5 383L212.5 390L217 390.5L214.5 383.5L221.5 379.5L219.5 384.5L222.5 388.5L219.5 392L226.5 392.5L223.5 401L228 395.5L226.5 399.5L229.5 399.5L231.5 407.5L235.5 409.5L237.5 406.5L236 393L230.5 393.5L234.5 400L234.5 406.5L228.5 393.5L237.5 389.5L232.5 386.5L230.5 388.5L231 373L234.5 380.5L238 378.5L244.5 384L243 385.5L236.5 380.5L239.5 388.5L257.5 384.5L249 383.5L233 370.5L229.5 371.5L226 356.5L225.5 373.5L215 363.5L208.5 366.5L201 355.5L203.5 350.5L207.5 356.5L203.5 348.5L203.5 336.5L201.5 342.5L198.5 336.5Z M68 337.5L69.5 346L71.5 338.5L68.5 337.5Z M192 338L189.5 341.5L192.5 346.5L192.5 337.5Z M14.5 341.5L11.5 351.5L12.5 347L8.5 346.5L14.5 341.5Z M215 343L213.5 355.5L216 359.5L215.5 342.5Z M350 350L347.5 355.5L351 353.5L350.5 349.5Z M367.5 350L371.5 378.5L373.5 368.5L369 363L367.5 349.5Z M342 354L339 365.5L343.5 367.5L338.5 381.5L342.5 382.5L346 380.5L341 376.5L344.5 369.5L347 379.5L349.5 379L351 361.5L345.5 359.5L344.5 362.5L345 357.5L350.5 358L342.5 353.5Z M332 355L335.5 360.5L335.5 356L332.5 354.5Z M70 357.5L66.5 368.5L69.5 377.5L70.5 357.5Z M364.5 359L361.5 364.5L365 370.5L364.5 358.5Z M178.5 365.5L184.5 373.5L184.5 370L181.5 368.5L183.5 365.5L179 365.5Z M348.5 365.5L348 372.5L345.5 367.5L348 365.5Z M215.5 367.5L216.5 371L212 374.5L210.5 368.5L215 368Z M194.5 370L195.5 375.5L197.5 372.5L194.5 369.5Z M227.5 377.5L227.5 390L222 385.5L227 377.5Z M198.5 384.5L199.5 390L203 391.5L202 385.5L199 384.5Z M204.5 384.5L205.5 389L208.5 389.5L205 384Z M18.5 388L17 397.5L8.5 394L22.5 404L25.5 420.5L25 405.5L29 412.5L29.5 398.5L25.5 394.5L19.5 397.5L22.5 392.5L18.5 387.5Z M512 387.5L504.5 391.5L512 390.5L512 387.5Z M495 396.5L489.5 400.5L498.5 399.5L495.5 396.5Z M356.5 412L363.5 426.5L364.5 420.5L367.5 423.5L367.5 415.5L364.5 413.5L362.5 416.5L362 412L357 411.5Z M197 415L191.5 416.5L197 417.5L197.5 414.5Z M219.5 414.5L216.5 444L225 420.5L219.5 414.5Z M234.5 415L235.5 443.5L238 442.5L234.5 414.5Z M190.5 421L192.5 427.5L194 422.5L190.5 420.5Z M29 428L29.5 474.5L32 448.5L29.5 427.5Z M209 432.5L206.5 435.5L208 439.5L212 437.5L209.5 437.5L209.5 432.5Z M194 434L192.5 436.5L196.5 439.5L194.5 433.5Z M214 438.5L209.5 442.5L200.5 442L201 445.5L204.5 444.5L202 449L211.5 442.5L209.5 446.5L211.5 448.5L214.5 438.5Z M209.5 449.5L207 458L200.5 464L197.5 476.5L203 472.5L204.5 463L209.5 461.5L212.5 450L210 449.5Z M194 451.5L188.5 457L185.5 466.5L192.5 460L194.5 451.5Z M512 459L503.5 474L512 477.5L506 481.5L512 474.5L512 458.5Z M178 462L179 468.5L182.5 462.5L178.5 461.5Z M459 466.5L438 488L443 489.5L452 484.5L452 478.5L454.5 478.5L455.5 484.5L459 484L462.5 479L456.5 481.5L456 477.5L461.5 469.5L459.5 466.5Z M402 469.5L398.5 472L406 477L408.5 470L402.5 469.5Z M196 477.5L191.5 484.5L197.5 480.5L196.5 477.5Z M189 488.5L188 491.5L194.5 490.5L189.5 488.5Z M508 492.5L506.5 495L512 496.5L512 492.5Z M184 496.5L178.5 501L174.5 512L189.5 498L184.5 496.5Z M506 496.5L502.5 501.5L500.5 498.5L498 500.5L498 512L503 505L506.5 505L505.5 501.5L512 502.5L512 500L506.5 496.5Z M496 502.5L488.5 512L491.5 512L496.5 502.5Z" fill="#6e1c3d" stroke="none"/>
  <path d="M188 53.5L180.5 56.5L187 59.5L185.5 74L190 72.5L185.5 80.5L196 72.5L205.5 70.5L202.5 74.5L206.5 73.5L205 76.5L195.5 79L200 82.5L209 77L208.5 70.5L212.5 71L203 62.5L200.5 63.5L200.5 57L188 58.5L188.5 53.5Z M175 60.5L167 64L175.5 63.5L175.5 60.5Z M211 77.5L208 85L211.5 84.5L209.5 87.5L213.5 85.5L214.5 88.5L219.5 83.5L217.5 80.5L213.5 82.5L211.5 77.5Z M204 79.5L200.5 88.5L204.5 85L204.5 79.5Z M194 82.5L190 89.5L197.5 84.5L194.5 82.5Z M507 88L502 98.5L512 89.5L507.5 87.5Z M494 93.5L482.5 108.5L494 98L494.5 93.5Z M189 96.5L183.5 100.5L186 102.5L189.5 96.5Z M213 100L215 103.5L207 104.5L209 107.5L205 112L218.5 100.5L213.5 99.5Z M498 102.5L490.5 105L479.5 126.5L498.5 102.5Z M221 177.5L212.5 180L205.5 190L214 189.5L213 182L217 184.5L221.5 177.5Z M188.5 183L183.5 188L184.5 192.5L190.5 185L188.5 182.5Z M435 188L418 228.5L422.5 230L417.5 236.5L416.5 232L413 239.5L408 256.5L410 261L407 260L400 280.5L391.5 318.5L394.5 311.5L398.5 315L423.5 237L436 212.5L438 200.5L431.5 201.5L435.5 187.5Z M165 206L162 212.5L168.5 207L165.5 205.5Z M156 234.5L155.5 240L159.5 235.5L156.5 234.5Z M503 242.5L502.5 250.5L506 246L504.5 254L512 258.5L506.5 259L507.5 262.5L497.5 261.5L497.5 264.5L492.5 264L495.5 266.5L489 271.5L488.5 268.5L479 272L478.5 275.5L471 274.5L467.5 278.5L471.5 283.5L464.5 281L464.5 287.5L459.5 287.5L460.5 297L453.5 300.5L454 305.5L446.5 307.5L447.5 302L442.5 301.5L442.5 308L449.5 310.5L446.5 311L449.5 319.5L445.5 319.5L449.5 322.5L445.5 321.5L442.5 325.5L439.5 322.5L436.5 325.5L448.5 326L447.5 329.5L437 329.5L441.5 330L439 333.5L442 337.5L436.5 349.5L442.5 349L440.5 355.5L443.5 357.5L435.5 362.5L440.5 367.5L435.5 366.5L438.5 374.5L431.5 375.5L433 379.5L429 378L431.5 381.5L428.5 383.5L433.5 385L431.5 390.5L421.5 391.5L388.5 382L384.5 383L386 388L388.5 385L421.5 394.5L443.5 395L457 319.5L467 300.5L486 279.5L512 266.5L512 245.5L503.5 242.5Z M173 294L171.5 301.5L174.5 298.5L173.5 293.5Z M88 294.5L89.5 299.5L91.5 295.5L88.5 294.5Z M376 308L377.5 326.5L379.5 322.5L376.5 307.5Z M384 394L381.5 397L393.5 405.5L394 410L395.5 405.5L404.5 407.5L398.5 411L398 416.5L404.5 416.5L406.5 419.5L398.5 420.5L399.5 427.5L395 427.5L397.5 425.5L394.5 421.5L397 419.5L395 412L394.5 419.5L390.5 422.5L393.5 429L387.5 431.5L392.5 432L390 435L395.5 434.5L389.5 441.5L391.5 448L401 456.5L405 458L405.5 453.5L407 457L418.5 462.5L419.5 458L425.5 455.5L423.5 448.5L425.5 444.5L420.5 442.5L420.5 437.5L425.5 434L424.5 427L430.5 424.5L434.5 416.5L426.5 408.5L424 410.5L423.5 407.5L404 398.5L384.5 393.5Z M381 399L376 426.5L378.5 431.5L382 419.5L381.5 398.5Z M18.5 412L22.5 434.5L24 423.5L18.5 411.5Z M385 439L382.5 443.5L387 445.5L388.5 440.5L385.5 438.5Z M376 443L373.5 457.5L377.5 455.5L418.5 468.5L416.5 463.5L408 462L408 459.5L385.5 455.5L390.5 452L388.5 446.5L383.5 446.5L385 450.5L382.5 454.5L378 453.5L377.5 448L380.5 445.5L376.5 442.5Z M478 500L472 512L479.5 512L482.5 502L478.5 499.5Z" fill="#c07270" stroke="none"/>
  <path d="M497 87.5L489.5 93L472.5 119.5L497.5 87.5Z M228.5 172.5L232.5 176.5L219 181.5L209 194.5L229 186L230.5 181L233.5 182.5L231.5 185L236.5 182.5L242.5 183.5L240.5 193.5L248.5 185.5L239.5 195L240.5 196.5L252 187.5L254 191.5L256.5 190.5L254.5 186.5L257.5 184.5L253 184.5L252 180.5L245.5 183.5L229.5 179.5L235.5 176.5L234 173L229 172.5Z M249.5 173.5L258.5 176.5L253.5 180L265.5 180.5L269.5 177.5L250 173.5Z M273.5 175.5L271 179L278 178L274 175.5Z M224.5 180.5L227 181.5L225.5 186L218.5 187.5L224 180.5Z M264 188L258.5 189L257 197.5L264.5 187.5Z M224 189.5L197.5 211L200.5 209.5L201.5 214L205 214.5L208.5 204L227.5 190.5L224.5 189.5Z M353 190.5L347 198L349 196.5L356 204.5L354 196.5L359.5 206.5L353.5 190Z M254 193.5L249.5 198.5L254.5 210.5L252.5 205.5L256.5 198.5L254.5 193.5Z M236 195L231.5 206.5L235.5 199.5L236 206L236.5 194.5Z M221 201.5L219.5 207.5L223 205L221.5 201.5Z M346.5 201.5L345.5 207L355 220.5L353.5 208L347 201.5Z M259 208L252.5 213.5L250.5 208.5L240.5 209.5L250.5 211L252.5 221.5L254 214.5L260.5 216L259.5 207.5Z M180.5 208.5L187.5 213.5L190.5 209L181 208Z M218 209L221.5 217L226.5 217.5L221.5 209L218.5 208.5Z M217 214L216 226.5L219.5 232.5L217.5 213.5Z M187 220L184 228.5L187.5 235.5L187.5 219.5Z M228 220L228.5 225.5L234.5 221.5L228.5 219.5Z M222 229L222.5 232.5L226.5 231.5L222.5 228.5Z M212.5 240L211.5 254.5L212.5 246.5L215.5 252L212.5 239.5Z M162 243.5L157 254.5L148 259.5L147.5 263.5L161 254L162.5 243.5Z M172 244.5L164 262L163.5 255.5L161.5 260.5L156.5 260L159 268L160.5 265.5L162.5 267.5L161 279L158.5 270.5L149.5 272.5L149.5 267.5L147 269.5L152 282L157.5 284.5L161 282.5L159.5 284.5L164.5 285.5L165 288.5L166.5 285L162.5 281.5L165 263.5L172.5 244.5Z M192 250.5L191.5 255L195 257.5L192.5 250.5Z M372.5 255.5L374.5 287.5L374.5 275.5L378.5 286L380 265.5L376.5 274.5L372.5 255.5Z M197.5 259.5L199 263.5L205.5 264.5L197.5 259.5Z M324 268L330.5 272.5L331 267.5L324.5 267.5Z M138 269.5L135.5 272.5L137 277.5L139.5 274.5L138.5 269Z M124 274L130.5 279.5L131 277L124.5 273.5Z M112.5 279.5L107.5 286L109.5 288.5L114.5 282L113 279.5Z M129 283L123.5 287.5L121 284L120.5 290L108.5 302.5L120.5 294.5L122.5 301.5L127 286.5L126.5 289.5L130.5 285L135 285.5L135 292.5L138.5 283.5L129.5 282.5Z M149 285.5L147.5 289L152 289.5L155 296.5L154.5 292L162.5 292L149.5 285.5Z M130 287L125.5 294.5L133.5 290L130.5 286.5Z M96 294.5L91.5 297L93.5 300.5L101 300.5L104.5 296.5L96.5 294.5Z M127 296.5L124.5 299.5L126.5 303.5L127.5 296.5Z M104.5 298.5L97.5 307.5L102 303.5L104.5 305L107 300.5L105 298.5Z M114.5 306L101 319L99 328.5L104.5 320L115.5 312L114.5 305.5Z M102 307.5L99.5 319.5L107.5 311.5L102.5 307.5Z M124 308L121.5 313.5L120 310L119 317.5L120.5 323.5L122 316L123 329L121.5 332.5L118.5 332.5L118.5 329.5L117 332.5L120.5 339.5L123 335.5L124 339.5L126 337L126 344.5L123 346.5L116 340.5L119 358.5L120.5 354.5L123.5 357L125.5 367.5L129 357.5L137.5 363.5L139.5 361L135.5 357L140.5 354.5L126.5 348.5L127.5 345.5L132.5 347L128 339.5L133 338.5L126 334.5L127 321.5L123 318.5L124.5 307.5Z M98 310.5L93.5 315.5L94 335.5L90.5 344.5L96 341.5L98.5 310.5Z M88 319L87.5 330.5L91.5 325.5L88.5 318.5Z M113 321L110.5 327.5L114.5 332.5L117.5 326.5L116.5 322.5L113 328L113.5 320.5Z M88 333L83.5 365.5L87.5 356.5L88.5 332.5Z M147 335L143.5 338L151 337L147.5 334.5Z M137.5 341.5L138 350L142.5 352.5L146.5 350.5L147 354.5L149.5 348.5L143 349.5L138 341.5Z M94 345L92 351.5L95.5 348L94.5 344.5Z M109.5 353L111 361.5L108 362.5L112.5 368.5L114 363.5L109.5 352.5Z M143 354L140 358.5L144 366L139.5 364.5L145.5 368.5L143.5 353.5Z M128 364L128.5 374L130.5 372.5L141 381.5L141 376L137 374.5L141 370L136 367.5L134.5 372.5L131.5 370.5L134 367L128.5 363.5Z M80 369L78.5 372.5L80.5 376.5L83 370.5L80.5 368.5Z M90.5 370L85.5 374L88.5 377.5L90.5 369.5Z M118 370.5L115 373.5L115.5 380.5L122.5 375.5L118.5 370.5Z M90 378.5L87 386.5L91 383L90.5 378.5Z M125.5 379L131.5 389.5L129.5 383L131.5 385.5L131.5 382L125.5 378.5Z M150.5 379L150 383L152.5 381.5L156 384L154.5 379.5L150.5 378.5Z M122.5 382.5L121 389L126.5 391.5L123 382.5Z M140 384.5L132.5 390.5L136.5 392.5L141.5 389L142.5 395.5L138.5 401.5L144.5 404.5L148 402.5L147.5 398.5L153.5 402.5L159 401L156.5 398.5L159.5 394.5L151 397.5L140.5 384.5Z M118 391L125 399L126.5 397.5L118.5 390.5Z M102.5 392L106.5 404.5L108 400.5L102.5 391.5Z M132 393L127.5 395.5L133 395.5L132.5 392.5Z M444 394L439.5 397.5L446.5 400.5L444.5 393.5Z M90.5 398.5L92.5 401.5L95.5 399.5L91 398.5Z M130 399.5L127.5 405.5L132.5 402L130.5 399.5Z M120.5 401.5L120.5 407.5L123.5 403.5L121 401.5Z M137.5 404L149 426.5L139.5 419L140 426.5L127.5 410.5L125.5 413.5L128.5 425.5L119.5 415.5L119 418.5L129.5 428L131.5 419L139.5 434L146 433.5L145 440L149.5 443.5L148.5 439.5L154.5 440.5L155 436.5L149.5 437.5L147.5 433.5L152.5 430.5L155.5 433.5L156.5 419.5L153 418.5L151.5 422.5L149.5 411L137.5 403.5Z M0 413.5L0 415.5L7.5 426.5L12 467.5L10.5 476L6.5 480.5L7.5 486L4.5 484.5L0 487.5L12.5 498L15.5 512L16 497.5L10 485.5L13.5 476.5L9 422.5L0 413.5Z M105.5 415L103.5 423.5L105.5 420.5L106.5 424.5L108 416.5L105.5 414.5Z M106 427L104.5 443L102 441.5L103.5 446.5L107.5 442.5L105 438.5L106.5 426.5Z M512 428L506.5 431.5L512 440.5L512 437.5L512 438.5L512 427.5Z M138 439.5L134.5 454.5L139 448.5L138.5 439.5Z M161 440L162 445L166 447L165.5 443.5L168.5 442.5L161.5 439.5Z M503 441L503 446L506 443L506 447.5L501.5 451.5L504.5 450.5L506.5 455.5L503 453L501 463.5L498.5 461.5L496.5 465.5L491.5 463L495.5 468L495.5 477.5L490.5 481L489.5 492.5L481 512L494.5 495L504.5 463.5L512 454.5L512 444.5L503.5 440.5Z M150 444.5L148.5 450L153.5 452.5L150.5 456.5L156.5 458.5L150.5 444.5Z M159 445.5L160.5 449.5L156.5 450L161.5 460.5L162.5 449.5L159.5 445.5Z M139 450L141 461L145 461.5L139.5 449.5Z M70 455L69.5 468.5L67 456.5L68.5 475.5L73 470.5L70.5 454.5Z M166.5 460L166.5 465.5L171.5 460L166.5 459.5Z M170 462.5L168.5 464L173 466.5L170.5 462.5Z M137.5 464L148.5 475.5L143 464L137.5 463.5Z M165 466.5L157.5 467.5L155.5 471.5L162 480.5L165.5 477.5L161.5 476.5L161.5 468.5L167.5 476L165.5 466.5Z M68.5 478L66.5 492.5L71 480.5L68.5 477.5Z M152.5 482L152.5 493L161 506.5L160.5 500.5L165.5 496.5L162.5 492.5L162 497L158 498.5L155.5 483.5L152.5 481.5Z M120 482.5L118 505.5L120.5 512L122 496.5L126 493.5L120.5 482.5Z M485 483L481.5 486L480.5 492.5L485.5 482.5Z M111.5 486.5L108.5 496.5L110.5 504.5L112 486.5Z M132 487L137.5 507.5L139.5 502.5L132.5 486.5Z M407.5 486.5L405.5 493.5L410.5 487.5L408 486.5Z M386.5 493.5L387.5 500.5L389.5 494.5L387 493Z M455 498.5L451 501.5L453.5 505.5L457.5 500.5L455.5 498.5Z M162.5 502L167 512L168 503L162.5 501.5Z M395.5 502.5L393.5 505.5L396.5 512L398.5 506.5L396 502.5Z M447 503L446.5 506.5L451 507.5L447.5 502.5Z M455.5 505.5L452.5 512L461 512L460.5 506L456 505Z" fill="#834671" stroke="none"/>
  <path d="M497 76L489.5 87.5L484.5 86.5L487 89.5L482 101L485 101.5L496.5 88L497.5 75.5Z M453 145L449 146L451.5 151.5L453.5 144.5Z M443 159.5L437.5 177.5L445 163.5L443.5 159.5Z M268 178.5L265.5 181.5L266.5 188.5L269 181L272 183.5L276.5 178.5L268.5 178.5Z M259 179.5L252.5 181L257.5 184L261.5 180.5L259.5 179.5Z M229 187L219 189.5L216.5 193.5L224.5 189.5L229.5 190L229.5 186.5Z M210 194.5L194 210.5L193.5 207.5L188.5 211L191 217.5L198 208.5L215.5 194.5L210.5 194.5Z M215 197.5L212.5 203.5L218 200.5L215.5 197.5Z M426 202.5L422 209.5L425 209L426.5 202.5Z M207 208L202 218L206.5 216.5L208.5 225.5L216.5 224.5L209 218.5L207.5 207.5Z M217 210L216.5 219.5L217 214L218.5 216.5L221 212.5L217.5 209.5Z M355 217L357.5 226.5L359 219.5L355.5 216.5Z M161 254L160.5 260.5L166 254.5L161.5 253.5Z M152 265.5L149.5 272.5L153.5 271.5L152.5 265.5Z M146 269L141.5 271.5L146.5 275.5L146.5 268.5Z M149 277.5L149.5 282.5L146.5 285L153 287.5L149.5 277.5Z M107 280.5L102 287.5L111.5 282L107.5 280.5Z M126 280.5L123 287.5L128.5 283L126.5 280.5Z M110 288L108.5 293.5L104.5 294.5L108 296.5L111.5 294.5L110 298.5L106.5 298L105.5 304.5L119 291L110.5 287.5Z M120 294.5L117.5 298.5L120.5 303.5L119.5 315.5L122.5 303.5L120.5 294.5Z M128.5 297L129.5 302.5L131.5 297.5L128.5 296.5Z M10 306.5L5 310L13.5 309.5L10.5 306.5Z M93 309L91 314.5L93.5 318.5L93.5 308.5Z M113 312.5L108.5 316L109.5 318.5L113.5 312.5Z M89.5 318L93 323.5L93.5 320L89.5 317.5Z M107 317.5L104 322.5L108.5 320L107.5 317.5Z M119 324L117.5 329L120.5 330.5L119.5 323.5Z M98 328.5L95.5 337.5L101.5 333.5L98.5 328.5Z M110 328.5L112.5 338.5L110.5 340.5L108 338L103.5 347.5L100.5 345.5L97.5 350.5L103.5 351.5L108.5 359.5L109.5 354.5L105.5 349.5L115 358L113.5 345.5L117.5 344.5L114.5 337.5L119.5 344.5L123.5 346.5L126 343.5L123.5 335.5L120.5 339.5L116.5 330L114.5 334.5L110.5 328.5Z M110.5 343.5L110.5 350.5L107.5 348.5L110 344Z M127.5 345.5L126.5 349L133 352L127.5 345.5Z M89 354L86.5 359.5L88.5 361.5L89.5 353.5Z M136 355.5L135.5 358L139.5 360.5L139.5 356L137 355.5Z M127.5 359.5L129.5 366L134.5 366.5L128 359.5Z M87 365L87 369L82 368L81 374.5L84 378.5L86.5 376.5L87.5 380.5L85.5 370.5L89.5 369.5L87.5 364.5Z M104 366L108.5 375L107 380L110.5 379.5L112 368L108.5 370.5L104.5 365.5Z M103 371L102.5 378.5L100 372.5L101.5 381.5L98.5 382.5L93.5 378.5L98.5 384.5L97 391.5L100 385L104 384L103.5 370.5Z M120.5 376.5L124.5 382.5L125 379L121 376.5Z M125.5 384L126.5 391L122.5 390L126.5 394.5L129.5 390.5L131 394.5L132.5 391L125.5 383.5Z M88 385L91 397.5L91.5 391.5L95.5 387.5L91 389.5L88.5 384.5Z M112 391L112.5 398.5L116.5 396.5L112.5 390.5Z M106 394.5L108 402.5L103.5 408.5L107.5 407.5L105.5 410L109.5 410.5L112.5 408.5L109 405.5L111 397.5L106.5 394.5Z M136.5 400L129.5 408.5L134.5 420L138.5 423.5L137.5 417.5L149 426.5L137.5 404L143 407.5L136.5 399.5Z M124 403.5L121.5 407L124.5 409.5L126.5 405.5L124.5 403.5Z M89 410.5L89.5 417.5L93.5 414.5L89.5 410.5Z M138 429.5L136 436.5L138.5 438.5L142.5 434.5L138.5 434.5L138.5 429.5Z M151.5 431L147.5 433.5L150 437.5L154.5 434.5L151.5 430.5Z M146 440.5L145.5 448.5L148 450.5L149.5 444.5L146.5 440.5Z M105 445.5L101.5 448L100.5 459.5L107.5 447L105.5 445.5Z M161.5 452L164.5 457.5L165.5 454L161.5 451.5Z M113 455L109.5 464.5L112.5 463L113 458L117 457.5L113.5 454.5Z M104 456.5L100 465.5L102.5 476.5L104.5 456.5Z M159 462.5L158.5 467.5L165.5 466L159.5 465.5L159.5 462.5Z M108 465.5L105.5 479.5L110.5 469.5L113.5 472.5L117.5 469.5L108.5 465.5Z M148 477L150.5 486L154 488.5L148.5 476.5Z M500 479L500.5 486.5L502.5 482L500.5 478.5Z M109 483.5L113.5 488.5L114 485L109.5 483.5Z M107 490.5L106.5 495.5L109 496L107.5 490.5Z M152 490.5L148 494L152 494.5L152.5 490.5Z M9 494.5L13.5 506.5L14 500.5L9.5 494.5Z M94 498.5L94.5 504.5L91.5 504.5L93.5 507.5L96.5 504.5L94.5 498.5Z M452 506L447 512L452 512L452.5 505.5Z M91 507L89.5 512L92.5 512L91.5 506.5Z" fill="#6c2959" stroke="none"/>
  <path d="M240 166L225.5 170.5L240.5 170.5L240.5 165.5Z M239 175L239.5 181L245.5 183.5L258.5 177.5L249.5 174.5L249.5 177.5L243.5 179.5L239.5 174.5Z M268 196L261.5 212.5L269 201.5L268.5 195.5Z M348.5 197L364.5 230.5L361.5 219.5L364 218L360.5 213.5L362.5 215.5L364.5 213L355.5 207L348.5 196.5Z M270 206.5L268.5 211L261.5 214.5L261.5 218.5L257.5 218.5L262.5 239.5L263.5 228L268 226.5L263.5 222L264 217.5L270 211.5L270.5 206.5Z M223.5 216L230.5 236.5L228 219.5L223.5 215.5Z M173 238L172.5 247.5L175.5 254.5L173.5 237.5Z M145 243.5L142.5 249.5L147.5 244.5L145.5 243Z M167 259.5L162.5 281.5L166.5 284.5L171.5 278.5L166 278.5L167.5 259.5Z M126.5 278L131 283.5L138.5 282.5L136.5 278.5L132.5 281L126.5 277.5Z M153.5 283L161 288L161 285.5L153.5 282.5Z M170 285.5L161.5 290L166 291.5L170.5 285.5Z M105 287.5L82.5 293.5L93.5 295.5L90.5 293.5L108.5 289L105.5 287Z M130 291.5L122.5 296L124 303.5L121 312.5L125 307.5L126 334.5L128.5 335.5L128.5 326.5L132.5 341L138.5 345.5L129.5 324.5L124.5 299.5L132.5 293L130.5 291.5Z M102 303.5L96.5 311.5L102.5 307L102.5 303.5Z M117 309L106.5 329L96.5 338L96.5 342.5L110 326.5L117.5 308.5Z M133 318L136 339.5L142.5 349L146 348.5L133.5 317.5Z M116 347L115.5 371L122.5 372.5L118 366.5L118.5 360.5L125.5 374.5L123.5 376L131.5 382L132 389.5L134.5 388.5L134 383.5L138.5 386.5L141.5 384.5L151.5 397.5L150.5 393L154.5 393.5L152 388.5L162.5 390.5L148 380.5L148 363L151.5 374.5L154.5 370L147.5 354.5L144 358.5L146.5 366.5L145.5 379L139.5 364.5L143.5 365.5L143 362.5L136.5 363.5L128.5 357.5L135.5 367.5L141 370L143.5 383.5L130.5 372.5L128.5 374L127.5 364L125 367.5L116.5 346.5Z M113 367L114.5 393L123 402.5L128.5 403.5L121.5 398L117.5 389.5L124 396.5L133 399.5L126.5 412.5L141.5 389.5L133.5 392.5L133 395.5L126.5 395L118 380L115 380L113.5 366.5Z M159.5 392L163.5 398.5L162.5 396L166.5 394L159.5 391.5Z M147.5 399L149 406.5L139.5 401.5L149.5 411L151 422L153 418.5L157.5 418.5L155 421.5L155 440L148.5 439.5L154.5 451L154 456L156.5 454.5L161.5 461.5L153.5 447.5L155.5 444.5L160 449.5L160 445.5L169.5 458.5L172.5 458.5L173.5 465.5L174.5 457L162.5 446L162 439.5L194.5 445.5L176 440.5L180.5 436.5L177.5 431.5L171.5 440.5L169.5 433L165.5 431.5L166.5 421.5L158.5 402L154.5 403.5L147.5 398.5Z M0 402L0 408L0 408L10 427.5L12.5 483.5L16.5 503.5L21 496.5L28 497.5L21.5 423.5L18 412L0 401.5Z M105 401.5L100.5 407L90.5 406L100.5 409L105.5 401.5Z M105 421L97 439.5L104.5 435L105.5 420.5Z M143 459.5L150 476.5L163 483.5L164 481L143.5 459.5Z M18.5 465.5L24.5 475.5L22.5 494.5L17.5 475.5L18 466Z M156 483L154.5 486L161.5 494.5L156.5 482.5Z" fill="#b28299" stroke="none"/>
</svg>
