<svg width="400" height="400" viewBox="0 0 400 400" xmlns="http://www.w3.org/2000/svg">
  <rect width="400" height="400" fill="#ffffff"/>
  <path d="M0 5L0 7L194 5.5L0 4.5Z M204.5 5L207.5 7L400 5.5L205 4.5Z M0 13L0 15L400 13.5L0 12.5Z M0 21L0 23L329.5 23L333.5 20.5L0 20.5Z M336.5 20.5L339.5 23L400 21.5L337 20Z M0 29L0 31L130 29.5L0 28.5Z M140.5 29L143.5 31L400 29.5L141 28.5Z M0 37L0 39L111.5 38.5L108.5 36L0 36.5Z M124 36.5L126.5 39L400 37.5L125 36.5Z M0 45L0 47L193 45.5L0 44.5Z M205.5 45L208.5 47L312 45.5L206 44.5Z M323.5 45L325.5 47L400 45.5L324 44.5Z M380 51.5L16 53.5L400 53.5L380.5 51Z M0 53L0 55L8 53.5L0 52.5Z M0 61L0 63L135 61.5L0 60.5Z M140.5 61L143.5 63L378.5 62.5L375.5 60L141 60.5Z M388 60.5L388.5 63L400 61.5L389 60.5Z M370 67.5L244 69.5L400 69.5L370.5 67Z M0 69L0 71L122 69.5L0 68.5Z M133.5 69L136.5 71L233 69.5L134 68.5Z M0 77L0 79L112.5 78.5L109.5 76L0 76.5Z M124 76.5L126.5 79L233 77.5L125 76.5Z M244.5 77L247.5 79L400 77.5L245 76.5Z M0 85L0 87L281 85.5L0 84.5Z M289.5 85L291.5 87L367.5 87L372.5 84.5L290 84.5Z M378.5 84.5L382.5 87L400 85.5L379 84Z M0 93L0 95L83 93.5L0 92.5Z M93.5 93L95.5 95L133 93.5L94 92.5Z M146.5 93L148.5 95L188.5 94.5L185.5 92L147 92.5Z M201 92.5L202.5 95L222 93.5L202 92.5Z M234.5 93L236.5 95L372.5 94.5L368.5 92L235 92.5Z M380 92.5L379 95L400 93.5L380.5 92Z M0 101L0 103L133 101.5L0 100.5Z M146.5 101L148.5 103L166 101.5L147 100.5Z M177.5 101L180.5 103L400 101.5L178 100.5Z M0 109L0 111L400 109.5L0 108.5Z M0 117L0 119L400 117.5L0 116.5Z M0 125L0 127L200.5 127L205.5 124.5L0 124.5Z M208.5 124.5L212.5 127L230 125.5L209 124Z M241.5 125L244.5 127L400 125.5L242 124.5Z M0 133L0 135L71 133.5L0 132.5Z M83.5 133L86.5 135L230 133.5L84 132.5Z M241.5 133L244.5 135L400 133.5L242 132.5Z M0 141L0 143L120.5 141.5L0 140.5Z M128.5 140.5L132.5 143L400 141.5L129 140.5Z M0 149L0 151L37.5 150.5L33.5 148L0 148.5Z M43 148.5L42 151L93.5 150.5L90.5 148L44 148.5Z M104 148.5L105.5 151L155 149.5L105 148.5Z M162.5 149L164.5 151L194 149.5L163 148.5Z M205.5 149L208.5 151L400 149.5L206 148.5Z M0 157L0 159L400 157.5L0 156.5Z M0 165L0 167L16 165.5L0 164.5Z M26.5 165L29.5 167L400 165.5L27 164.5Z M0 173L0 175L400 173.5L0 172.5Z M0 181L0 183L67.5 182.5L64.5 180L0 180.5Z M72 180.5L74.5 183L400 181.5L73 180.5Z M0 189L0 191L49.5 189.5L0 188.5Z M65.5 189L68.5 191L400 189.5L66 188.5Z M0 197L0 199L118 197.5L0 196.5Z M124.5 197L125.5 199L133 197.5L125 196.5Z M142.5 197L145.5 199L236 197.5L143 196.5Z M244.5 197L247.5 199L389 197.5L245 196.5Z M0 205L0 207L400 205.5L0 204.5Z M0 213L0 215L341 213.5L0 212.5Z M350.5 213L352.5 215L368 213.5L351 212.5Z M379.5 213L381.5 215L400 213.5L380 212.5Z M0 221L0 223L400 221.5L0 220.5Z M0 229L0 231L139 229.5L0 228.5Z M150.5 229L153.5 231L400 229.5L151 228.5Z M0 237L0 239L400 237.5L0 236.5Z M0 245L0 247L19 245.5L0 244.5Z M26.5 245L28.5 247L296.5 247L302.5 244.5L27 244.5Z M317.5 245L319.5 247L400 245.5L318 244.5Z M0 253L0 255L208 253.5L0 252.5Z M220 252.5L221.5 255L266 253.5L221 252.5Z M273.5 253L275.5 255L300.5 254.5L298.5 252L274 252.5Z M310 252.5L311.5 255L400 253.5L311 252.5Z M0 261L0 263L400 261.5L0 260.5Z M0 269L0 271L400 269.5L0 268.5Z M0 277L0 279L165.5 279L176.5 276.5L0 276.5Z M187.5 277L190.5 279L400 277.5L188 276.5Z M0 285L0 287L169 285.5L0 284.5Z M180.5 285L183.5 287L400 285.5L181 284.5Z M0 293L0 295L370 293.5L0 292.5Z M383.5 293L385.5 295L400 293.5L384 292.5Z M339.5 298L336.5 300L203 301.5L336.5 303L342.5 306L370 301.5L340 297.5Z M0 301L0 303L199 301.5L0 300.5Z M383.5 301L385.5 303L400 301.5L384 300.5Z M0 309L0 311L143 309.5L0 308.5Z M151.5 309L154.5 311L374 309.5L152 308.5Z M382.5 309L384.5 311L400 309.5L383 308.5Z M0 317L0 319L400 317.5L0 316.5Z M0 325L0 327L47 325.5L0 324.5Z M57.5 325L59.5 327L78 325.5L58 324.5Z M84.5 325L87.5 327L234 325.5L85 324.5Z M247.5 325L250.5 327L400 325.5L248 324.5Z M0 333L0 335L42 333.5L0 332.5Z M57 332.5L52.5 334.5L343 333.5L58 332.5Z M351.5 333L353.5 335L400 333.5L352 332.5Z M0 341L0 343L23 341.5L0 340.5Z M44.5 341L46.5 343L107.5 341.5L45 340.5Z M119.5 341L121.5 343L212.5 343L217.5 340.5L120 340.5Z M222.5 340.5L226.5 343L263 341.5L223 340Z M276.5 341L279.5 343L400 341.5L277 340.5Z M0 349L0 351L106.5 350.5L102.5 348L0 348.5Z M115 348.5L114 351L204.5 349.5L115.5 348Z M213 348.5L213.5 351L226 349.5L213.5 348Z M233.5 349L235.5 351L263 349.5L234 348.5Z M276.5 349L279.5 351L400 349.5L277 348.5Z M0 357L0 359L87.5 359L93.5 356.5L0 356.5Z M98.5 356.5L103.5 359L303.5 358.5L300.5 356L99 356Z M310 356.5L311.5 359L400 357.5L311 356.5Z M0 365L0 367L91.5 366.5L88.5 364L0 364.5Z M101 364.5L102.5 367L180 365.5L102 364.5Z M191.5 365L194.5 367L400 365.5L192 364.5Z M40 371.5L9 373.5L41.5 376L400 373.5L40.5 371Z M0 381L0 383L43 381.5L0 380.5Z M54.5 381L56.5 383L81 381.5L55 380.5Z M92.5 381L95.5 383L342 381.5L93 380.5Z M368.5 381L370.5 383L400 381.5L369 380.5Z M0 389L0 391L9 389.5L0 388.5Z M21.5 389L23.5 391L81 389.5L22 388.5Z M92.5 389L94.5 391L152 389.5L93 388.5Z M162.5 389L165.5 391L400 389.5L163 388.5Z" fill="#f0f0f0" stroke="none"/>
  <path d="M134.5 11.5L266.5 11.5L135 11Z M123.5 15.5L277.5 15.5L124 15Z M114.5 19.5L286.5 19.5L115 19Z M67 21.5L61 23L65 25.5L60.5 27.5L78.5 27.5L73 25.5L78 23L67.5 21Z M130 22.5L106.5 23.5L128.5 24L128.5 27L99.5 27.5L128.5 28L129 30.5L94.5 31L111.5 32.5L109.5 35L87.5 35.5L109.5 36L111 39L81.5 39.5L117.5 42L142.5 40L123.5 38.5L125.5 36L157.5 35.5L125.5 35L123.5 32.5L177.5 31.5L141 30.5L142.5 28L301.5 27.5L142.5 27L141 24.5L294.5 23.5L130.5 22Z M223.5 31.5L307.5 31.5L224 31Z M243.5 35.5L313.5 35.5L244 35Z M57.5 39L57.5 43L62 43.5L62.5 39L58 38.5Z M328 57.5L296.5 59.5L342.5 59.5L328.5 57.5Z M136 59.5L135.5 63L139 63.5L139.5 60L136.5 59Z M122.5 65L122.5 74L132 74.5L132.5 65L123 64.5Z M163.5 75.5L232.5 75.5L164 75Z M152.5 79.5L248.5 79.5L153 79Z M149.5 83.5L257.5 83.5L150 83Z M373 84.5L370 91.5L377.5 95L381 87.5L373.5 84Z M192 85.5L136 87L188.5 88.5L185.5 91L130 91L132 94.5L123.5 95.5L132 96.5L132 98.5L118.5 99.5L131.5 100L132 102.5L116.5 101L114 106.5L109.5 107.5L162 108L121.5 106L123.5 104L165.5 103.5L147 102.5L147.5 100L165.5 99.5L147 98.5L147.5 96L165.5 95.5L147.5 95L147.5 92L186.5 92L188 95L177.5 95.5L194.5 98L221.5 95.5L201 95L202.5 92L221.5 91.5L202.5 91L201.5 88L265.5 87.5L192.5 85Z M83.5 91L83.5 99L92 99.5L92.5 91L84 90.5Z M227.5 103.5L287.5 103.5L228 103Z M21.5 111.5L46.5 112L45.5 115L19.5 115.5L50.5 118L54.5 111.5L22 111Z M206 124.5L204.5 127.5L207.5 129.5L209.5 126.5L206.5 124.5Z M123 139.5L120 144.5L125.5 148L129 142.5L123.5 139Z M96 142.5L84 143L93.5 145L81.5 147.5L92 148.5L93 151L80.5 151.5L111.5 152L103.5 150L114 147L103.5 144.5L117.5 143.5L96.5 142Z M194 142.5L180.5 143.5L192.5 144L192.5 147L171.5 147.5L192.5 148L193 150.5L165.5 151.5L235.5 151.5L206.5 151L206.5 148L229.5 147.5L205 145.5L219.5 143L194.5 142Z M160.5 155.5L240.5 155.5L161 155Z M156.5 159.5L244.5 159.5L157 159Z M16 161.5L0 163.5L15 164.5L14.5 167L0 167.5L14.5 168L15 170.5L0 171.5L31.5 171.5L26.5 169L32.5 167.5L26 165.5L33 163L17 161.5Z M153.5 163.5L247.5 163.5L154 163Z M150.5 167.5L250.5 167.5L151 167Z M52 183.5L49 187.5L51.5 191L64.5 191L63 185.5L52.5 183Z M118.5 197L118.5 201L123 201.5L123.5 197L119 196.5Z M150.5 231.5L251.5 231.5L151 231Z M151.5 235.5L249.5 235.5L152 235Z M154.5 239.5L246.5 239.5L155 239Z M293.5 239.5L305 241.5L292 243L302.5 244.5L289.5 247.5L298 248.5L298 250.5L287.5 251.5L300.5 254.5L286 256L318 256L309.5 254L320 252L317.5 249L321.5 247.5L317.5 245L323.5 243.5L317.5 241L324.5 239.5L294 239Z M158.5 243.5L242.5 243.5L159 243Z M163.5 247.5L237.5 247.5L164 247Z M180 272.5L177 278.5L183.5 282L187 275.5L180.5 272Z M226 278.5L224 283.5L229.5 286L232 280.5L226.5 278Z M116.5 299.5L182.5 299.5L117 299Z M218.5 299.5L284.5 299.5L219 299Z M229 301.5L121.5 303.5L229 305.5L146.5 305L126.5 307.5L141.5 308L142 310.5L132.5 311.5L146.5 313L267.5 312L151 309.5L272.5 308L237 305.5L279.5 303.5L230 301.5Z M139.5 315.5L261.5 315.5L140 315Z M234 318.5L147.5 319.5L232.5 320L231.5 323L157.5 323.5L232.5 324L234.5 330L237.5 331L246 330.5L247.5 321L253.5 319.5L234.5 318Z M78 321.5L49.5 323.5L76.5 324L77.5 326L74 328L86.5 327.5L83 321.5L79 321.5Z M29 333.5L24 343.5L43 348.5L43.5 341L29.5 333Z M263.5 340L263.5 351L275 351.5L275.5 340L264 339.5Z M113 346.5L108.5 351L79.5 351.5L120.5 351.5L114 351L113.5 346.5Z M305 353.5L271.5 355.5L301.5 356L302.5 359L262.5 359.5L321.5 359.5L310 359L311 356.5L319.5 355.5L305.5 353Z M183 359.5L180 366.5L187.5 370L191 362.5L183.5 359Z M250.5 363.5L316.5 363.5L251 363Z M98.5 367.5L165.5 367.5L99 367Z M235.5 367.5L310.5 367.5L236 367Z M0 369.5L0 374.5L6.5 377L9 371.5L0 369Z M96.5 371.5L304.5 371.5L97 371Z M179 373.5L103.5 375.5L174.5 376L173.5 379L110.5 379.5L180.5 382L290.5 379.5L186 378.5L187.5 376L297.5 375.5L179.5 373Z M43.5 375L41 384L58.5 383.5L54.5 382L53 374.5L44 374.5Z M340.5 375.5L340.5 383.5L348 383.5L348.5 376L341 375Z M10.5 383.5L9 386.5L0 387.5L8 388.5L11 396L28.5 391.5L21 389.5L28 387L11 383Z M119.5 383.5L281.5 383.5L120 383Z M161.5 387.5L272.5 387.5L162 387Z M162.5 391.5L260.5 391.5L163 391Z M154.5 395.5L246.5 395.5L155 395Z" fill="#773c99" stroke="none"/>
  <path d="M158.5 35.5L242.5 35.5L159 35Z M144.5 39.5L256.5 39.5L145 39Z M134.5 43.5L193.5 43.5L135 43Z M204.5 43.5L266.5 43.5L205 43Z M125.5 47.5L192.5 47.5L126 47Z M205.5 47.5L275.5 47.5L206 47Z M118.5 51.5L178.5 51.5L119 51Z M222.5 51.5L282.5 51.5L223 51Z M163.5 107.5L237.5 107.5L164 107Z M154.5 111.5L246.5 111.5L155 111Z M147.5 115.5L253.5 115.5L148 115Z M141.5 119.5L259.5 119.5L142 119Z M180.5 287.5L250.5 287.5L181 287Z M158.5 291.5L242.5 291.5L159 291Z M168.5 295.5L232.5 295.5L169 295Z M121.5 351.5L206.5 351.5L122 351Z M130.5 355.5L270.5 355.5L131 355Z M188.5 359.5L261.5 359.5L189 359Z" fill="#ffff00" stroke="none"/>
  <path d="M160.5 55.5L240.5 55.5L161 55Z M148.5 59.5L252.5 59.5L149 59Z M139.5 63.5L262.5 63.5L140 63Z M133.5 67.5L270.5 67.5L134 67Z M116 70.5L112 80L117.5 82L140.5 80L141.5 82L107 84L147.5 86L151 79L123.5 78L162.5 75.5L123.5 75L116.5 70Z M258.5 83.5L280 84.5L279.5 87L266.5 87.5L280.5 89L273.5 92L303.5 91.5L290 90.5L290 88.5L299.5 87.5L289.5 86L293.5 83L259 83Z M230.5 125L210.5 127.5L228.5 128L228.5 131L159.5 131.5L227.5 132L228.5 135L153.5 135.5L247.5 135.5L241.5 134L240 124.5L231 124.5Z M148.5 139.5L252.5 139.5L149 139Z M38 142.5L35 147.5L40.5 151L44 145.5L38.5 142Z M238 194.5L236 199.5L241.5 202L244 196.5L238.5 194Z M389.5 195L389.5 201L400 201.5L400 195L390 194.5Z M344 209.5L332 211L340.5 214L330.5 215.5L347 217.5L350.5 211.5L344.5 209Z M151.5 263.5L249.5 263.5L152 263Z M156.5 267.5L244.5 267.5L157 267Z M163.5 271.5L237.5 271.5L164 271Z M169.5 278L169.5 287L179 287.5L177 277.5L170 277.5Z M374.5 304L374.5 310L381 310.5L381.5 304L375 303.5Z M40.5 323.5L47 325.5L41 328L56.5 333L56 324.5L41 323Z M345 330.5L340.5 331.5L343 333.5L340.5 335.5L348.5 338L351 332.5L345.5 330Z M127.5 331.5L273.5 331.5L128 331Z M134.5 335.5L266.5 335.5L135 335Z M143.5 339.5L257.5 339.5L144 339Z M226 345.5L226.5 351L232 351.5L232.5 346L227 345.5Z M94 356.5L90 363.5L97.5 368L102 360.5L94.5 356Z M356.5 375L356.5 385L367 385.5L367.5 375L357 374.5Z M81.5 381L81.5 390L91 390.5L91.5 381L82 380.5Z" fill="#f56d46" stroke="none"/>
  <path d="M312.5 38L312.5 47L322 47.5L322.5 38L313 37.5Z M166.5 94L166.5 103L176 103.5L176.5 94L167 93.5Z M155.5 147L155.5 152L161 152.5L161.5 147L156 146.5Z M80 191.5L78.5 194.5L81.5 196.5L83.5 193.5L80.5 191.5Z M368.5 209L368.5 218L378 218.5L378.5 209L369 208.5Z M139.5 224L139.5 233L149 233.5L149.5 224L140 223.5Z M216 250.5L215.5 254L219 254.5L219.5 251L216.5 250Z M370.5 293L371 304.5L383 304L382 292.5L371 292.5Z M68 326.5L66 331.5L71.5 334L74 328.5L68.5 326Z M218 340.5L215 346.5L221.5 350L225 343.5L218.5 340Z M107 342.5L104 347.5L109.5 351L113 345.5L107.5 342Z M155 385.5L152 391.5L158.5 395L162 388.5L155.5 385Z" fill="#a8a7e7" stroke="none"/>
  <path d="M194.5 0L194.5 10L203 10.5L203.5 0L195 0Z M298 13.5L296 18.5L301.5 21L304 15.5L298.5 13Z M197 40.5L193 47.5L200.5 52L205 44.5L197.5 40Z M8.5 48L8.5 54L15 54.5L15.5 48L9 47.5Z M97.5 49L97.5 52L101 52.5L101.5 49L98 48.5Z M233.5 69L233.5 78L243 78.5L243.5 69L234 68.5Z M222.5 91L222.5 101L233 101.5L233.5 91L223 90.5Z M71.5 127L71.5 137L82 137.5L82.5 127L72 126.5Z M55.5 128L55.5 133L61 133.5L61.5 128L56 127.5Z M328.5 175L328.5 178L332 178.5L332.5 175L329 174.5Z M369 175.5L367 179.5L371.5 182L374 177.5L369.5 175Z M68 178.5L67.5 182L71 182.5L71.5 179L68.5 178Z M133.5 195L133.5 202L141 202.5L141.5 195L134 194.5Z M19.5 241L19.5 246L25 246.5L25.5 241L20 240.5Z M38 263.5L36 267.5L40.5 270L43 265.5L38.5 263Z M45 329.5L42 335.5L48.5 339L52 332.5L45.5 329Z" fill="#c4e3c4" stroke="none"/>
  <path d="M381 52.5L377 56.5L378.5 62L388 64L388 54.5L381.5 52Z M350 127.5L349.5 131L353 131.5L353.5 128L350.5 127Z M211 248.5L208 255.5L215.5 259L218.5 255.5L215 253.5L216.5 249L211.5 248Z M266.5 249L266.5 254L272 254.5L272.5 249L267 248.5Z M36 304.5L35.5 308L39 308.5L39.5 305L36.5 304Z M108.5 336L108.5 342L118 345.5L118.5 336L109 335.5Z M207 343.5L204 348.5L209.5 352L213 346.5L207.5 343Z" fill="#ffff01" stroke="none"/>
</svg>
