<svg width="400" height="400" viewBox="0 0 400 400" xmlns="http://www.w3.org/2000/svg">
  <rect width="400" height="400" fill="#f5f5dc"/>
  <path d="M300.5 0L300.5 48L346 48.5L349 41.5L348.5 0L301 0Z M170 50.5L163 61.5L150.5 66L150.5 98L198 98.5L198.5 51L171 50.5Z M284.5 51L281 63.5L273.5 71L264.5 74L250.5 72L251 98.5L298.5 98L299 51.5L285 50.5Z M56.5 151L56.5 198L98 198.5L98.5 151L93.5 150L86 157.5L78.5 159L65.5 150L57 150.5Z M150.5 151L150.5 198L198 198.5L199 166L185.5 168L174 160.5L169 150.5L151 150.5Z M250.5 151L250.5 198L289 198.5L289.5 176L278 165.5L274.5 151L251 150.5Z" fill="#c53f67" stroke="none"/>
  <path d="M185 130.5L173.5 138L170 151.5L173.5 160L182 166.5L199.5 166L200.5 210L235 210.5L235.5 151L209 149.5L200.5 134L185.5 130Z M294 130.5L281.5 137L275 150.5L278 165.5L288.5 174.5L291 150.5L321.5 149.5L318.5 141L311 133.5L294.5 130Z M326.5 201L325 210.5L300.5 212L301 248.5L310 248.5L317 237.5L324 232.5L348.5 229L348.5 201L327 200.5Z M65.5 231L65.5 290L100 290.5L100.5 231L66 230.5Z M110 301L93 347.5L99 355.5L95.5 359L90 357L85.5 370.5L135 370.5L110.5 300.5Z M173 350.5L170 355.5L175.5 359L179 353.5L173.5 350Z M189.5 350.5L195 370.5L150.5 372L151 400L198.5 400L199 351.5L190 350.5Z M293 350.5L290 355.5L295.5 359L299 353.5L293.5 350Z M293 375.5L290 380.5L295.5 384L299 378.5L293.5 375Z" fill="#99c0e2" stroke="none"/>
  <path d="M257 30.5L243.5 40L240 56.5L250 70.5L266.5 74L280.5 64L284 47.5L274 33.5L257.5 30Z M53 50.5L50 55.5L50.5 98L98 98.5L98.5 51L54 50.5Z M155.5 231L155.5 290L190 290.5L190.5 231L156 230.5Z M50 301L25.5 370.5L75 370.5L50.5 300.5Z M300.5 301L300 325.5L308 348.5L332 348.5L348.5 301L301 300.5Z M53.5 350L59 353.5L55.5 359L50 355.5L53 350.5Z M253 350.5L250 355.5L255.5 359L259 353.5L253.5 350Z M253 375.5L250 380.5L255.5 384L259 378.5L253.5 375Z" fill="#a87ac7" stroke="none"/>
  <path d="M40 30.5L33.5 34L30 44.5L34 52.5L44.5 56L52.5 52L56 41.5L52 33.5L40.5 30Z M245.5 231L245.5 290L280 290.5L280.5 231L246 230.5Z M330 230.5L318 236.5L312.5 244L310 257.5L313.5 268L322.5 277L334.5 281L336 290.5L370 290.5L370.5 231L330.5 230Z M170 301L145.5 370.5L195 370.5L170.5 300.5Z M290 301L265.5 370.5L315 370.5L290.5 300.5Z M13 350.5L10 355.5L15.5 359L19 353.5L13.5 350Z M173.5 350L179 353.5L175.5 359L170 355.5L173 350.5Z M293.5 350L299 353.5L295.5 359L290 355.5L293 350.5Z M333 350.5L330 355.5L335.5 359L339 353.5L333.5 350Z M13 375.5L10 380.5L15.5 384L19 378.5L13.5 375Z M333 375.5L330 380.5L335.5 384L339 378.5L333.5 375Z" fill="#fb9334" stroke="none"/>
  <path d="M200.5 101L200 132.5L208.5 148L248 148.5L248.5 101L201 100.5Z M0 201L0 248L48 248.5L48.5 212L21.5 211L19 200.5L0 200.5Z M100.5 201L101 238L109.5 231L119.5 230L128.5 236L133 248.5L148 248.5L148.5 201L146.5 201L144.5 211L112.5 211L109 200.5L101 200.5Z M236.5 201L235 210.5L200.5 212L201 248.5L204.5 248L213.5 234L222.5 230L236.5 233L245 242L245.5 231L249 228.5L249 201.5L237 200.5Z M376.5 350.5L378.5 356L372 359.5L375 370.5L350.5 372L351 400L400 400L400 351L377 350Z M373.5 375L379 378.5L375.5 384L370 380.5L373 375.5Z" fill="#35af64" stroke="none"/>
  <path d="M366 30.5L358 33.5L348.5 43L345 60.5L348.5 70L358 79.5L375.5 83L385 79.5L394.5 70L400 52.5L394.5 43L385 33.5L366.5 30Z M0 101L0 148L48 148.5L48.5 101L0 100.5Z M290.5 151L290.5 210L325 210.5L325.5 151L291 150.5Z M230 301L213 347.5L219 355.5L215.5 359L210 357L205.5 370.5L255 370.5L230.5 300.5Z M373 350.5L370 355.5L375.5 359L379 353.5L373.5 350Z M373 375.5L370 380.5L375.5 384L379 378.5L373.5 375Z" fill="#09cace" stroke="none"/>
  <path d="M148 30.5L138 37.5L135 51.5L142 61.5L156.5 65L166.5 58L170 43.5L163 33.5L148.5 30Z M20.5 151L20.5 210L55 210.5L55.5 151L21 150.5Z M110.5 151L110.5 210L145 210.5L145.5 151L111 150.5Z M221 230.5L208.5 239L205 253.5L214 267.5L228.5 271L242.5 262L245 244.5L236.5 233L221.5 230Z M133 350.5L130 355.5L135.5 359L139 353.5L133.5 350Z M213 350.5L210 355.5L215.5 359L219 353.5L213.5 350Z M256.5 350.5L258.5 356L252 359.5L255.5 370.5L250.5 372L250 376.5L255.5 375L259 379.5L255.5 384L250 382L250.5 400L298 400L299 382L293.5 384L290 379.5L293.5 375L298.5 377.5L298.5 372L266 370.5L271.5 350.5L257 350Z M133 375.5L130 380.5L135.5 384L139 378.5L133.5 375Z M213 375.5L210 380.5L215.5 384L219 378.5L213.5 375Z" fill="#f8c891" stroke="none"/>
  <path d="M100.5 101L100.5 148L148 148.5L148.5 101L101 100.5Z M76 130.5L66.5 138L65 147.5L70 155.5L82.5 159L90.5 154L94 142.5L89 133.5L76.5 130Z M112 230.5L101.5 239L101 252.5L109 260.5L119.5 262L130.5 253L132 242.5L123 231.5L112.5 230Z M371.5 251L370.5 290L351 291.5L350.5 298L400 298.5L400 251L372 250.5Z M350 301L333 347.5L339 355.5L335.5 359L330 357L325.5 370.5L375 370.5L350.5 300.5Z M53 350.5L50 355.5L55.5 359L59 353.5L53.5 350Z M93 350.5L90 355.5L95.5 359L99 353.5L93.5 350Z M53 375.5L50 380.5L55.5 384L59 378.5L53.5 375Z M93 375.5L90 380.5L95.5 384L99 378.5L93.5 375Z" fill="#36d8b1" stroke="none"/>
  <path d="M400 50.5L395.5 68L383 80.5L366.5 83L350 73L351 98.5L400 98L400 50.5Z M0 301L0 348L32 348.5L48.5 301L0 300.5Z M100.5 301L100.5 326.5L109.5 301.5L101 300.5Z M111.5 300.5L128 348.5L148 348.5L148.5 301L112 300.5Z" fill="#126c4f" stroke="none"/>
  <path d="M300.5 101L301 129.5L315 136.5L322 148.5L348 148.5L348.5 101L301 100.5Z M150.5 251L150.5 298L198 298.5L198.5 251L191 251.5L190 290.5L157.5 291L155 288.5L155 251.5L151 250.5Z M69.5 350.5L75.5 370.5L50.5 372L50.5 377.5L55.5 375L59 379.5L55.5 384L50 382L50.5 400L98 400L99 382L93.5 384L90 379.5L93.5 375L98.5 377.5L98.5 372L85.5 370.5L91.5 350.5L70 350.5Z" fill="#93cd27" stroke="none"/>
  <path d="M100.5 0L100.5 48L134 48.5L138.5 37L149 29.5L148.5 0L101 0Z M200.5 0L200.5 48L240 48.5L249 33.5L248.5 0L201 0Z" fill="#4004b1" stroke="none"/>
  <path d="M350.5 151L350.5 198L400 198.5L400 151L351 150.5Z M200.5 301L200 347.5L211.5 349L229.5 300.5L201 300.5Z M231.5 300.5L248.5 348.5L248.5 301L232 300.5Z" fill="#2659ce" stroke="none"/>
  <path d="M0 0L0 48L30 48.5L33.5 34L48.5 30L48.5 0L0 0Z" fill="#3a1427" stroke="none"/>
  <path d="M281.5 251L280.5 290L251.5 291L251 298.5L298.5 298L298.5 251L282 250.5Z" fill="#f4f5dc" stroke="none"/>
  <path d="M50.5 251L50.5 298L98 298.5L97.5 291L65.5 290L64.5 251L51 250.5Z" fill="#82d88b" stroke="none"/>
</svg>
