<svg xmlns="http://www.w3.org/2000/svg" width="400" height="400" viewBox="0 0 400 400">
  <rect width="400" height="400" fill="#7ff309"/>
  <path fill="#817883" stroke="#817883" stroke-width="0.5" stroke-linejoin="round" d="M166,0L166.5,200L220,199.5L220,0L166.5,0ZM0,282.5L0,306.5L400,307L400,282L0,282Z"/>
  <path fill="#3bc280" stroke="#3bc280" stroke-width="0.5" stroke-linejoin="round" d="M276,0L276.5,200L338,199.5L338,0L276.5,0Z"/>
  <path fill="#13ea80" stroke="#13ea80" stroke-width="0.5" stroke-linejoin="round" d="M338,0L338.5,200L400,200L400,0L338.5,0Z"/>
  <path fill="#609d80" stroke="#609d80" stroke-width="0.5" stroke-linejoin="round" d="M220,0L220.5,200L276,199.5L276,0L220.5,0Z"/>
  <path fill="#8055a9" stroke="#8055a9" stroke-width="0.5" stroke-linejoin="round" d="M0,254.5L0,281.5L400,282L400,254L0,254Z"/>
  <path fill="#8032cc" stroke="#8032cc" stroke-width="0.5" stroke-linejoin="round" d="M0,227.5L0,253.5L400,254L400,227L0,227Z"/>
  <path fill="#8010ee" stroke="#8010ee" stroke-width="0.5" stroke-linejoin="round" d="M0,200.5L0,226.5L400,227L400,200L0,200Z"/>
  <path fill="#809668" stroke="#809668" stroke-width="0.5" stroke-linejoin="round" d="M0,307.5L0,330.5L400,331L400,307L0,307Z"/>
  <path fill="#a45a80" stroke="#a45a80" stroke-width="0.5" stroke-linejoin="round" d="M119,0L119.5,200L166,199.5L166,0L119.5,0Z"/>
  <path fill="#c03d80" stroke="#c03d80" stroke-width="0.5" stroke-linejoin="round" d="M75,0L75.5,200L119,199.5L119,0L75.5,0Z"/>
  <path fill="#80b24c" stroke="#80b24c" stroke-width="0.5" stroke-linejoin="round" d="M0,331.5L0,350.5L400,351L400,331L0,331Z"/>
  <path fill="#80cb33" stroke="#80cb33" stroke-width="0.5" stroke-linejoin="round" d="M0,351.5L0,369.5L400,370L400,351L0,351Z"/>
  <path fill="#f20b80" stroke="#f20b80" stroke-width="0.5" stroke-linejoin="round" d="M0,0L0,199.5L38,199.5L38,0L0,0Z"/>
  <path fill="#da2380" stroke="#da2380" stroke-width="0.5" stroke-linejoin="round" d="M38,0L38.5,200L75,199.5L75,0L38.5,0Z"/>
  <path fill="#80e11d" stroke="#80e11d" stroke-width="0.5" stroke-linejoin="round" d="M0,370.5L0,385.5L400,386L400,370L0,370Z"/>
</svg>