<svg xmlns="http://www.w3.org/2000/svg" width="400" height="400" viewBox="0 0 400 400">
  <rect width="400" height="400" fill="#7fe615"/>
  <path fill="#817582" stroke="#817582" stroke-width="0.5" stroke-linejoin="round" d="M170,0L170,199.5L206,199.5L206,0L170.5,0ZM0,284.5L0,303.5L400,304L400,284L0,284Z"/>
  <path fill="#748c79" stroke="#748c79" stroke-width="0.5" stroke-linejoin="round" d="M206,0L206.5,200L244,199.5L244,0L206.5,0ZM0,304.5L0,317.5L400,318L400,304L0,304Z"/>
  <path fill="#7f13e8" stroke="#7f13e8" stroke-width="0.5" stroke-linejoin="round" d="M0,200.5L0,231.5L400,232L400,200L0,200Z"/>
  <path fill="#7f37c4" stroke="#7f37c4" stroke-width="0.5" stroke-linejoin="round" d="M0,232.5L0,258.5L400,259L400,232L0,232Z"/>
  <path fill="#7fa358" stroke="#7fa358" stroke-width="0.5" stroke-linejoin="round" d="M0,318.5L0,342.5L400,343L400,318L0,318Z"/>
  <path fill="#7f58a3" stroke="#7f58a3" stroke-width="0.5" stroke-linejoin="round" d="M0,259.5L0,283.5L400,284L400,259L0,259Z"/>
  <path fill="#7fc338" stroke="#7fc338" stroke-width="0.5" stroke-linejoin="round" d="M0,343.5L0,367.5L400,368L400,343L0,343Z"/>
  <path fill="#52a87f" stroke="#52a87f" stroke-width="0.5" stroke-linejoin="round" d="M244,0L244.5,200L289,199.5L289,0L244.5,0Z"/>
  <path fill="#d5257f" stroke="#d5257f" stroke-width="0.5" stroke-linejoin="round" d="M41,0L41.5,200L85,199.5L85,0L41.5,0Z"/>
  <path fill="#b9417f" stroke="#b9417f" stroke-width="0.5" stroke-linejoin="round" d="M85,0L85.5,200L127,199.5L128,0L85.5,0Z"/>
  <path fill="#9e5c7f" stroke="#9e5c7f" stroke-width="0.5" stroke-linejoin="round" d="M128,0L127.5,200L170,199.5L170,0L128.5,0Z"/>
  <path fill="#ef0b7f" stroke="#ef0b7f" stroke-width="0.5" stroke-linejoin="round" d="M0,0L0,199.5L41,199.5L41,0L0,0Z"/>
  <path fill="#36c47f" stroke="#36c47f" stroke-width="0.5" stroke-linejoin="round" d="M289,0L289.5,200L330,199.5L330,0L289.5,0Z"/>
  <path fill="#1edc7f" stroke="#1edc7f" stroke-width="0.5" stroke-linejoin="round" d="M330,0L330,199.5L366,199.5L366,0L330.5,0Z"/>
  <path fill="#09f17f" stroke="#09f17f" stroke-width="0.5" stroke-linejoin="round" d="M366,0L366,199.5L400,200L400,0L366.5,0Z"/>
</svg>