<svg xmlns="http://www.w3.org/2000/svg" width="512" height="512" viewBox="0 0 512 512">
  <rect width="512" height="512" fill="#c85b5d"/>
  <path fill="#c88079" stroke="#c88079" stroke-width="0.5" stroke-linejoin="round" d="M219,45.5L210.5,47L199,57.5C215.71,70.13 211.69,91.37 221,107.5L220.5,110L231,101.5C234.62,82.61 213.85,69.72 217.08,51.58L221,46.5L219,45.5ZM512,73.5C480.45,110.53 448.54,148.72 432,195.5L435,211.5L433,212.5C409.84,246.85 405.94,290.13 388,327.5L387.92,342.42L375.5,349L375,351.5C388.98,377.33 365.32,412.58 371.08,438.42L376.58,447.92L394.42,450.92L397.92,448.42L400,431.5L405,427.5L405.92,418.58C402.02,407.53 389.33,406.16 381,400.5L380.08,394.58L384,385.5C398.06,379.25 411.19,391.42 425.5,387L432.5,382C440.09,370.76 434.45,353.51 448.5,346L451,352.5L452.5,373C448.67,331.14 467.07,279.97 512,269.42L512,262.58L508,257.5L512,251.5L512,73ZM205,120.5L194.5,131L192.08,143.42L203,170.5L207.58,173.92C216.5,176.62 223.27,166.94 232.42,171.08L238.5,172L242.5,176L247.5,176L246,169.5L248.5,169L252.58,173.92L274,176.5L272,174.5L283.5,175L285.5,177L286,174.5L280.5,175L276.5,172L272.5,173L254.42,166.08L233.58,164.92C215.38,161.12 211.29,140.93 203,127.5L207,120.5L205,120.5ZM395,164.5L383.5,176L399.5,168L400.5,172L402,167.5L396.5,168L395,164.5ZM460.5,184C466.78,187.06 475.28,195.89 486,210.5L481.42,219.92C470.09,221.95 457.84,223.17 447,218.5L443.08,213.42L445,200.5C450.71,195.58 448.91,184.98 460,184.5L460.5,184ZM290,185.5L276.5,201L291,187.5L290,185.5ZM364,193.5L360.08,195.58L362,210.5L360,218.5L363.5,231L367.5,231L368.08,211.58L370,209.5L365,202.5L368,193.5L364,193.5ZM249,219.5L238,232.5L242,232.5L239.5,238L246.5,228L245,227.5L249,219.5ZM270,241.5L285,246.5L278.42,241.08L270,241.5ZM369,244.5C367.53,250.24 367.62,256.34 369.5,262C370.5,253.67 370.5,247.67 369.5,244L369,244.5ZM226,247.5L218,258.5L219.5,260L226,247.5ZM370,262.5L373,288.5L369.5,290L367.5,276C366.4,297.03 367.46,319.48 375.5,339L378.5,326C381.46,304.19 370.48,283.69 370.5,262L370,262.5ZM335,263.5L334.5,270L330,273.5L333.5,276L340,267.5L335,263.5ZM281,269.5L279,273.5L281,276.5L270.5,276L267.5,273L269,277.5L255,283.5L261.58,285.92L277.42,283.08L282.5,289L286,287.5L285,277.5L281,273.5L281,269.5ZM108,270.5L101,277.5L108.5,277L110.5,279L113,276.5L109,275.5L108,270.5ZM319,276.5C319.71,285.88 331.13,297.89 321,306.5L322.5,312L328.92,302.42C328.25,291.86 326.92,284.25 324.92,279.58L319,276.5ZM322,323.5C320.06,326.89 318.22,334.06 316.5,345L311,345.5L317.5,346L322.92,339.42L322,323.5ZM165,334.5L162,338.5L163.5,344L167.5,336L165,334.5ZM306,371.5C303.28,376.78 298.94,382.11 293,387.5L295.5,390L297.5,386L309,387.5L310.92,374.58L306,371.5ZM422,460.5L419.08,468.42L423,470.5L427,464.5L422,460.5Z"/>
  <path fill="#a13d4d" stroke="#a13d4d" stroke-width="0.5" stroke-linejoin="round" d="M68,0C66.46,24.83 61.14,49.99 63,75.5L64,307.5C74.96,323.71 50.54,336.2 65,353.5L67.5,354C75.79,347.31 82.14,336.76 79.92,325.58L72,319.5L76,315.5L74,304.5L78,299.5L80,275.5L85.58,270.08L95.5,274L106.5,269L107,261.5L89.08,242.42L90,233.5C103.16,228.17 96.71,210.7 110,205.5C116.05,204.26 124.12,205.07 128.5,210L129,207.5C118.75,192.13 115.82,172.65 118.92,154.58L117.5,153C108.22,153.78 100.17,143.47 97,136.5C96.16,113.71 93.17,90.88 93,68.5L95,65.5C75.27,48.53 80.98,21.91 75.5,0L68.5,0ZM20,68.5L0,96.5L0,183.5L10.5,184C21.54,172.43 22.78,155.16 19,140.5C29.69,118.17 27.07,91.82 23.5,68L20,68.5ZM301,78.5L299,81.5C305.67,91.94 314.16,101.88 326.5,106L330,114.5L327,117.5L332.5,125L332,102.5L324,83.5C317.61,80.56 310.11,78.72 301.5,78L301,78.5ZM370,82.5L367.08,84.58L367.5,116L368,87.5L372.42,85.08L376.5,90L373.5,83L370,82.5ZM389,173.5L363,184.5L367.5,191L389.42,181.92L392,173.5L389,173.5ZM343,197.5L344,203.5L336.5,200L334,201.5C342.99,213.9 347.17,229.68 347.5,245L350,239.5L345.5,214L347.5,209L351,210.5L346,202.5L343,197.5ZM17,215.5L14.08,217.58C12.14,230.39 8.69,245.4 0,255.5L0,295.5C12.1,296.47 15.6,282.98 24.5,279L28.5,289L27,253.5C18.57,242.62 30.1,227.83 20.92,216.58L17,215.5ZM346,245.5L331,253.5L334.5,256C341.78,255.28 346.61,254.11 349,252.5L345,249.5L346,245.5ZM277,247.5L282.5,253L290,252.5L287.5,249L277,247.5ZM337,276.5L335,277.5L339.5,282C346.23,282.26 345.95,292.2 347.5,296L346,281.5L337,276.5ZM224,283.5L222,288.5C222,304.5 221.33,313.83 220,316.5L216.5,318L215,329.5L217,347.5C227.77,360.54 237.44,373.42 250,384.5L240.08,393.58L240,411.5C243.34,429.2 237.11,449.03 231,465.5L231.5,468C246.05,447.08 239.74,420.79 242,397.5L247.5,388L257,384.5C245.18,378.3 235.41,367.29 229,355.5L221.08,332.58L224,321.5C228.24,312.65 220.26,302.65 224,293.5L226,284.5L224,283.5ZM166,309.5L163,311.5L165.5,316L169,313.5L166,309.5ZM27,326.5L26,344.5L19.08,371.58L22,386.5L28.5,394L29,391.5C12.11,371.38 39.2,347.92 27.5,326L27,326.5ZM177,334.5L171,350.5L175.5,346C179.94,345.63 178.62,339.14 182,337.5L177,334.5ZM77,347.5C57.96,355.72 68.76,374.37 64,388.5L65.5,390L67.08,383.58L72.5,380L74,381.5L71,385.5L78,380.5C79.39,373.89 82.39,365.89 87,356.5L85.5,354L83.5,362L81.5,361L76,364.5L74.5,371L73.08,364.58L80,350.5L77,347.5ZM512,400.5C492.33,406.83 480.17,411.67 475.5,415L473.5,411C470.37,418.15 463.95,425.03 465.08,433.42L471.92,441.58C468.97,448.53 461.67,458.17 450,470.5L455.58,468.08L464.92,471.58L464.92,479.42L453,494.5L445.58,494.92L435.5,486L429,494.5L436.5,501L439,512L455.5,512C457.17,505.67 461.67,498.17 469,489.5L474.42,488.08L475.92,494.42L462,512L469.5,512C470.5,508.33 473.33,503.83 478,498.5L486.5,492L487.92,493.58L483,512L498.92,485.42C499.67,475.38 501.89,462.64 512,457.5L512,400.5ZM229,414.5L222.5,435L226.5,427L234,428.5L233.92,416.58L229,414.5ZM482.5,430L488,431.5L483.5,438L482.5,430ZM234,439.5L231.5,458L234,439.5ZM219,440.5L198,487.5L208,485.5L205.08,477.58C208.31,464.81 221.89,453.71 219.5,440L219,440.5ZM32,450.5L30.5,473L28.5,472L27,474.5L30.5,483C32.17,479.33 32.83,468.33 32.5,450L32,450.5ZM376,459.5L371.08,463.58C369.7,480.48 383.62,494.98 383,512L396.5,512L395.08,498.58L398.58,492.08L417.42,489.92C419.08,486.25 419.78,481.94 419.5,477L419,483.5L405,483.5L396.08,473.42L397.5,467L407,466.5L376,459.5ZM12,474.5L4.5,478L0,477L0,486L8.5,491L10,489.5L8,488.5L12,474.5ZM203,491.5C193.62,494.35 183.11,501.39 182,512L190.5,512L192,503.5L206,491.5L203,491.5Z"/>
  <path fill="#641e47" stroke="#641e47" stroke-width="0.5" stroke-linejoin="round" d="M494,73.5L488,75.5C467.65,89.02 480.92,114.45 464,129.5L464.5,131C478.53,113.84 485.9,90.56 506,79.5L494,73.5ZM370,91.5L370,97.5L375.5,95L377.5,97L370,91.5ZM459,137.5C447.04,139.02 447.87,151.31 441,157.5L433.08,172.58L435,181.5C420.92,193.94 416.47,211.15 416.5,229C429.08,197.55 440.48,164.77 461,137.5L459,137.5ZM286,173.5L288,176.5L286.5,178L278,176.5L271,181.5L272.5,195L272,189.5L278.5,181L292,179.5C291.17,176.8 289.43,173.82 286.5,173L286,173.5ZM266,185.5L266,189.5L254,203.5L254.5,207L263.5,196L261.5,205L267.92,197.42L268.92,186.58L266,185.5ZM231,188.5C222.33,193.17 215.03,199.19 209.08,206.58L211,216.5L195.5,212L188.5,219L186.5,217L179,219.5L180,225.5L174.5,226L162.5,243L163.5,245L166.5,237L163.5,253L166.5,253C169.19,247.83 175.34,243.87 173.5,237L175.5,246L177.5,243L179,244.5L176.5,250L175.5,248C178.27,252.12 177.81,257.66 174.5,261L176,256.5L172.5,249C166.04,256.87 164.95,268.95 169.5,278L173.5,277L172.5,268L176,264.5L182.5,264L190.5,256L193.5,259L192,255.5L194.5,255L194.08,248.58L198.58,243.08L205,245.5L205.5,250L206.5,248L208.5,251L210.92,249.42L213.5,240L214,248.5L217.5,251L221.5,236L223,238.5L218,245.5L218.5,248L228,232.5L221.5,235L218.5,232L216,233.5L218,229.5L216.08,224.58L218.5,219L219.5,227L221.5,224L226.5,231L226.92,226.58C223.03,219.81 221.06,214.44 221,210.5L218,209.5L224,201.5L222.08,206.58L229.5,220L234.58,212.08L241.42,212.08L248.5,218L250.92,211.58L246,209.5L249.5,209L251,203.5L245,202.5L247,196.5L244.5,194L239.5,196L235.5,202L233,200.5L237,191.5L231,188.5ZM393,214.5L381,226.5L374.58,227.92L369.08,224.42L368.5,220C365.82,227.95 374,235.99 370,243.5C372.67,252.17 375.97,259.19 379.92,264.58L377.5,284L375,281.5L375.5,293C390.73,282.79 381.19,261.06 396,250.5L397.92,240.58C392.6,233.72 399.92,224.27 398.92,217.58L393,214.5ZM350,217.5L347,220.5L350.5,236L350,230.5L354.5,228L359,232.5C361,243.17 361.67,255.83 361,270.5L355.42,277.92L347.5,274L343,265.5L355,253.5L350.5,243L349,247.5L352,253.5L350.5,256L339,261.5L343,273.5C359.67,281.91 343.87,300.9 345.5,313L349.92,314.58C349.82,327.93 336.22,339.92 343,353.5L338,370.5L332.5,375L329.5,374L321.5,378L318.5,374L312,376.5L311,388.5L334.5,400L337.5,394L339.5,394L341.5,403L355.5,421L357.58,418.08L372.5,419L372.5,412L353.58,410.92L348,400.5C347.96,376.9 345.9,351.74 356.5,330L359.92,332.58L363.08,350.42L367,354.5L368.08,361.42L374.5,369L372.5,352L368.08,346.42C369.36,331.46 358.57,318.89 362,303.5L367.5,300C362.06,275.79 371.46,245.08 358.5,222L354.5,222L350,217.5ZM415,229.5C417.82,242.32 393.87,247.46 405,259.5L399,272.5L400.5,276L415,229.5ZM139,245.5L135.5,248L133.5,246L131,247.5L133,249.5L131,252.5L139.5,255L141,245.5L139,245.5ZM269,255.5L259,259.5L258,263.5L266.5,267L276.5,261L282.5,265L285,262.5C278.67,258.17 273.5,255.67 269.5,255L269,255.5ZM146,256.5L140.5,257L134.5,260C132.67,269.61 114.92,269.92 114,278.5L116.5,288L121.5,283L122.5,285L126.5,284L124.5,273L126.5,276L135,273.5L150,258.5L146,256.5ZM148,263.5L140.5,272L142,272.5L137,279.5L141,281.5L132,294.5L133,298.5L130.5,296C127.11,308.65 137.72,319.1 138,331.5L141.5,335L146.5,335L146,327.5L149,325.5L143.5,323L139.5,329L138,327.5C135.02,315.7 141.97,305.07 141,293.5L144.42,293.08L151.92,301.58L151,317.5L159.5,330L161,327.5L159,324.5L161.5,326L162,322.5L165,321.5L156.5,320L155.5,314L154.5,316L153,313.5L155,308.5L163.5,308L168,303.5L168.5,291L160.5,296L156,294.5L156.5,297L147,287.5L149,286.5L146,269.5L151,263.5L148,263.5ZM171,280.5L172,283.5L170.5,290L177,292.5L176.5,296L177.92,290.58L171,280.5ZM218,292.5L216.5,307L218.5,308C220.27,302.87 220.77,297.1 218.5,292L218,292.5ZM129,312.5L132.5,326L134,324.5L129,312.5ZM167,321.5L163,328.5L167.5,331L171,327.5L167,324.5L169,321.5L167,321.5ZM162,329.5L159.5,332L158.5,330L153,331.5L151,337.5L145,345.5L149.5,348L153,340.5L156.5,341L164,331.5L162,329.5ZM214,331.5L214,334.5L201.5,344C199.89,349.06 199.39,353.89 200,358.5L196.08,362.58L197,368.5L203.58,374.92L208.5,374L214,380.5L212.08,386.42L214.92,391.58L211.42,403.92C205.86,403.9 198.48,407.68 194.08,401.42C199.73,388.88 184.91,384.6 186,373.5L179.5,375L178.5,364L173,371.5L173,358.5L174.5,354C170.4,363.41 158.66,368.24 157.5,379L156,381.5L157.5,382C164.26,394.19 178.6,403.07 179.5,419L180,414.5L183.5,413L188.92,416.58L186.92,432.42L183.5,436L182.5,434L181.5,437L176,438.5L195.5,444L195.5,447L173.5,444L173.5,449L174.5,447C183.7,448.65 193.36,458.29 203.5,452L204.5,464L211.08,448.58C228.62,435.64 214.05,410.59 233.5,400C238.63,382.91 221.29,373.47 214.08,361.42L214,331.5ZM101,339.5L97.5,350L95.5,348L90.08,355.58L90.5,361L93.5,356L91,380.5L87.5,383L86.5,380L80.08,382.58L77.5,398L83.42,396.08L87.92,401.58L89,408.5C87.06,411.89 86.08,415.86 86.08,420.42L94.42,422.08L101,430.5C94.57,438.42 88.31,446.72 85,456.5L91.92,461.58C98.58,474.84 89.22,489.41 76.5,494L74.08,491.42C82.23,470.57 72.69,450.89 69.5,431L67.08,434.58L68.5,461L70.5,455L73,471.5L70,472.5L68.92,490.42L64,493.5L62,500.5L65,505.5L64,512L105.5,512L110.5,498L107,512L118.5,512L118,487.5L122.5,487C131.01,493.09 126.91,505.57 135.5,512L137.5,512L133.5,495L134.5,490L142,501.5L142,512L161,512L155,505.5L150,512L150,506.5L143,495.5L146,494.5L142.5,486L145.5,491L149,477.5L137,464.5L141,463.5L138.5,450L135.5,453L138.5,441L139,449.5L143,449.5L147,442.5L136.5,434L133.42,428.08L125,425.5L119.5,415L129,424.5L122.5,407L117.42,410.92L112,410.5L120,401.5L113.5,394C112.26,389.56 114.86,380.42 110,376.5L112,374.5L106.5,361L102.5,367C99.46,358.35 111.08,350.76 106,341.5L101,339.5ZM0,351.5L0,359.5L5.42,360.08L13,366.5C11.16,369.97 18.83,377.22 15,381.5L16,388.5L13.42,391.92L0,390L0,396L13.5,400L20,394.5C22.31,384.69 12.44,376.63 17.92,366.58L10,353.5L0,351ZM508,385.5L495,388.5L490,395.5L494.42,396.92L512,389.5L512,385L508,385.5ZM103.5,393L111.5,400L112.5,398L113,407.5L97.5,409L89,404.5L92.5,405L92,401.5L95,400.5L96.58,405.92L101.5,405L104,401.5L103.5,393ZM166,401.5L165,403.5L171.5,412L171.92,408.58L166,401.5ZM105.5,415L108,416.5C108.51,422.6 103.85,428.78 107,434.5L102.5,443L102.5,436L96,439.5C100,434.17 103,426.17 105,415.5L105.5,415ZM169,416.5L169,423.5L166,426.5C168.75,428.62 168.09,433.37 172.5,434L175,431.5C174.28,425.56 172.44,420.39 169.5,416L169,416.5ZM30,441.5L27.5,444L27.5,451L30,448.5L30,441.5ZM167,443.5L166,445.5L171.5,453L171,445.5L167,443.5ZM145,452.5L144,454.5L152,464.5L159,465.5L156.5,459L150.5,458L145,452.5ZM123.5,462L128.5,465L131.92,475.42L125.58,477.92L123.5,462ZM169,464.5L165,469.5L167.5,476L174,466.5L169,464.5ZM226,469.5L217,479.5L220.5,482L228,470.5L226,469.5ZM408,470.5L407.5,477L415.5,482L418.92,473.58L408,470.5ZM165,480.5L165.5,487L162,486.5L162.08,491.42L166,496.5L163,500.5L166.5,504L165,480.5ZM512,488.5L512,512L501.5,512L504.08,506.58L512,502L512,488.5ZM0,493.5L0,512L15.5,512L12.92,501.58L5.5,495L0,495L0,493Z"/>
  <path fill="#5d163e" stroke="#5d163e" stroke-width="0.5" stroke-linejoin="round" d="M512,7.5C501.33,14.17 489.5,24 476.5,37L475.5,37C452.24,59.8 434.8,87.73 416,114.5C427.18,152.25 401.47,189.6 371.08,209.58L369.08,224.42L374.58,227.92L381,226.5L393.58,214.08L398.92,217.58C389.67,232.35 406.28,250.39 388.08,261.58C386.17,271.55 385.97,285.2 376,291.5C379.39,312.11 381.89,323.61 383.5,326C393.69,311.15 394.26,290.49 400,273.5L405,259.5C394.96,245.33 420.73,236.42 418,220.5C414.35,205.03 426.52,192.44 435,181.5L433.08,172.58C441.48,160.2 444.21,142.27 460.5,137L474,112.5C469.83,98.08 479.57,85.62 488,75.5L494.5,73L499.42,74.08L504.5,79L512,72.5L512,7.5ZM374,95.5L370,97.5L369.5,130C375.56,122.99 389.52,127.28 391,113.5L374,95.5ZM281,180.5L272,189.5L273.5,194L288,181.5L281,180.5ZM234,212.5L230,218.5L235,221.5L229,223.5L232.5,236L248,217.5L241.42,212.08L234,212.5ZM352,228.5L351,231.5C351,239.5 352.33,246.83 355,253.5L343,267.5L355.42,277.92L361,270.5C361.67,255.83 361,243.17 359,232.5L352,228.5ZM227,233.5L223,244.5C220.14,245.21 218.15,248.27 217.5,251L214.5,253L212.5,250L213.5,256L204,248.5L205,245.5L198.58,243.08L194.08,248.58L196.08,257.42L202,262.5L198.5,264L188.5,256L184.08,259.58L185.5,271L182.5,264L176,264.5L172.5,268L174,276.5L172,281.5L177.92,290.58L178.08,299.42L182.92,305.58L180.5,311L176.5,308L175.92,312.42L167,324.5L174.5,328L180.5,325L189,312.5C198.73,286.17 213.65,262.18 230,239.5L227,233.5ZM141,293.5C141.97,305.07 135.02,315.7 138,327.5L139.5,329L143.5,323L153.5,332L158.92,329.42L151,317.5L151.92,301.58L144.42,293.08L141,293.5ZM215,295.5L203,316.5C190.11,332.64 169.5,348.83 173,371.5L178.5,364L179.5,375L186,373.5C184.91,384.6 199.73,388.88 194.08,401.42C198.48,407.68 205.86,403.9 211.42,403.92L214.92,391.58L212.08,386.42L214,380.5L208.5,374L203.58,374.92L197,368.5L196.08,362.58L200,358.5C199.39,353.89 199.89,349.06 201.5,344L214,334.5L217,295.5L215,295.5ZM365,299.5L362,303.5C358.57,318.89 369.36,331.46 368.08,346.42L372.5,352L373.92,350.42L367.92,300.58L365,299.5ZM346,312.5L313,374.5L314.5,376L318.5,374L321.5,378L329.5,374L332.5,375L338,370.5L343,353.5C336.22,339.92 349.82,327.93 349.92,314.58L346,312.5ZM0,360.5L0,389.5L12.5,392L15.92,389.42L15,381.5C18.83,377.22 11.16,369.97 13,366.5L5.42,360.08L0,360ZM512,382.5L502,385.5L503.5,387L512,385L512,382.5ZM337,394.5L335,399.5L341.5,403L341.92,396.58L337,394.5ZM79,396.5L72,410.5L69,430.5C73.38,449.9 81.71,470.63 74.08,491.42L76.5,494C89.22,489.41 98.58,474.84 91.92,461.58L85,456.5C88.31,446.72 94.57,438.42 101,430.5L94.42,422.08L86.08,420.42C86.08,415.86 87.06,411.89 89,408.5L87.92,401.58L83.42,396.08L79,396.5ZM182,413.5L180,414.5L179.5,433L181.5,432L183.5,436L186.92,432.42L188.92,416.58L182,413.5ZM357,418.5L367.5,453C370.44,435.28 371.42,423.64 370.42,418.08L357,418.5ZM0,419.5L0,475L9.42,471.92L12,466.5L6.92,424.58L0,419ZM26,424.5C25.33,432.5 25.83,439 27.5,444L31,438.5L29.5,424L26,424.5ZM174,447.5C187.01,459.56 164.81,469.98 166,482.5L167,498.5C170.05,502.84 170.43,508.7 175.5,512C176.88,509.98 177.47,503.4 181.5,503L193,492.5L191,488.5C194.29,476.44 209.43,465.77 203.5,452C192.64,459.17 184.59,447.06 174.5,447L174,447.5ZM123,462.5L125.58,477.92L131.5,476L131.92,470.58L123,462.5Z"/>
  <path fill="#d86c66" stroke="#d86c66" stroke-width="0.5" stroke-linejoin="round" d="M57,0C31.29,20.05 62.98,32.68 55.08,50.42L56.92,52.58C55.5,77.58 54.25,102.65 56,127.5L62.5,393L63,377.5C63,368.17 64,361.5 66,357.5L63,356.5L60,0L57.5,0ZM201,0L205.5,4L209,0L201.5,0ZM327,0L329,9.5C341.91,33.93 334.53,61.62 337,87.5L335,129.5L341.5,135L346.92,129.42L348,120.5C340.17,107.62 339.01,88.72 347.5,76L352,78.5C356.9,96.3 357.29,115.63 352.08,133.42L356.5,138L362,135.5C365.57,116.4 364.54,96.84 363.08,77.58L371.5,75C381.32,83.64 383.68,97.43 393,106.5L396.5,112L405.42,111.08L411.5,111L415.5,115L439.5,77L435.08,70.42L436,64.5C433.28,57.89 428.08,49.08 420.42,38.08L412.5,36L408.5,38C395.63,50.11 377.32,62.56 358.58,56.92C342.51,42.9 339.12,19.51 333.5,0L327.5,0ZM505,0L506.5,6L512,6L512,0L505.5,0ZM25,51.5L19,55.5C14.18,64.24 11.9,79.8 0,82.58L0,88C13.91,83.26 11.84,65.46 23.5,59L26.5,60C28.17,63.67 29,79.5 29,107.5L31,319.5L29,343.5L30,386.5C38.15,404.79 26.92,425.76 33.5,444L35,412.5C31.54,367.93 31.17,324.35 33,279.5L34,104.5L32,101.5L31,79.5C32.33,71.5 32.64,62.86 31.92,53.58L25,51.5ZM193,131.5L187.5,137C185.4,145.33 173.58,148.39 175.08,158.42L180.92,162.58L181.08,170.42L183.5,173L195.42,171.92L203,169.5L192.08,143.42L193,131.5ZM129,144.5L133,161.5C137,166.4 139.66,173.16 137,179.5L136,189.5L144.5,201L147,198.5C148.66,192.67 144.76,187.6 143,182.5L146,179.5L140,160.5L129,144.5ZM126,246.5L113,258.5L115,260.5L113,264.5L119.5,266L123.5,270L129.5,268L133.5,258L137,257.5L131,253.5L128.5,246L127.5,249L126,246.5ZM294,252.5L297.92,275.42L295.42,278.92L285.5,275L282.5,271L281,273.5L285,276.5L285.5,279C293.67,298.86 272.06,315.6 281.92,335.42L278.42,337.92L266,333.5C255.92,320.81 244.74,306.56 244.08,289.58L247.58,284.08L266,280.5L261.5,279C254.69,281.1 253.96,273.55 248.5,273L240,276.5C227.77,312.65 247.32,352.83 266.92,383.58L263.92,406.42C262.03,409.19 259.69,417.86 256.92,432.42C250.47,455.91 228.26,479.45 243.92,504.58L244,512L314.5,512C324.51,472.13 275.77,441.61 288.92,400.58L287.92,396.58C285.46,391.64 276.06,386.61 277,379.5L281,373.5C288.72,370.56 297.53,369.75 307.42,371.08L311.5,378C326.49,349.16 351.13,312.35 329.42,281.08L325,282.5L327.92,286.58C331.7,305.25 322.22,320.85 322.92,339.42L317.5,346L306.5,348C299.89,345.94 295.42,343.75 293.08,341.42C293.35,333.31 302.48,333.47 307,329.5L295.5,326L289.08,321.42L289.08,314.58L296.58,304.08L300.42,304.08L310.5,328L313,325.5C305.97,311.87 310.49,295.86 306,281.5L302,263.5L304,262.5L294,252.5ZM267.5,348L301,349.5L301,351.5L291.5,354L286,363.5L277.58,363.92L269.5,359L267.5,348ZM301.5,354L308,354.5L306.5,358L297,355.5L301.5,354ZM66,433.5L64.08,437.58L65.5,449L67,443.5L66,433.5ZM33,445.5L35.5,486L33,445.5ZM427,451.5L426.5,463L431.92,459.42L430.5,453L427,451.5ZM36,486.5L37,502.5C39.05,497.16 37.56,491.31 36.5,486L36,486.5Z"/>
  <path fill="#e1836e" stroke="#e1836e" stroke-width="0.5" stroke-linejoin="round" d="M0,0L0,82L5.5,80C10.5,73 15,64.83 19,55.5L25.58,51.08L31.92,53.58C32.64,62.86 32.33,71.5 31,79.5L32,101.5L34,104.5L31,345.5C33.47,367.72 34.01,390.03 35,412.5L37,512L42.5,512C57.26,476.96 28.08,439.31 44.92,405.42L45,396.5C41.35,378.02 34.32,356.44 43,338.5C43.01,317.18 41.25,296.62 40,275.5L43,257.5C43.16,248.89 41.03,239.91 45.5,232L48,233.5L51,246.5L46,248.5C56.68,268.86 54.44,292.17 49.08,313.42C56.52,339.82 57.28,366.4 54.08,393.42L57,399.5L53.08,404.58L55,414.5C55.48,439.87 53.6,466.06 61.5,491C60.74,481.47 60.35,471.71 64,462.5L66,461.5C64.72,445.56 64.72,435.22 66,430.5L64,428.5L65,416.5L62,395.5L64,393.5L56,127.5C54.15,102.65 55.54,77.57 56.92,52.58L55.08,50.42C54.03,33.67 56.09,16.97 56.5,0L0,0ZM334,0C337.32,20.2 343.63,42.49 358.58,56.92C377.22,62.45 395.7,50.16 408.5,38L412.5,36L420.42,38.08L427,45.5L404,0L334.5,0ZM434,58.5L435.08,70.42L439.5,77L446,71.5L442.5,72L434,58.5ZM347,76.5C339.45,89.48 340.21,107.78 348,120.5L346.92,129.42L341,136.5L345.5,145L357,138.5L352.5,134C354.36,115.99 358.47,96.73 352,78.5L347,76.5ZM127,150.5L127.5,165L136.5,194L143.5,206L145,202.5L136,185.5L137,179.5C139.66,173.16 137,166.4 133,161.5L127,150.5ZM295,252.5L304,262.5L302,263.5L305.5,276L306,274.5C309.56,265.66 303.77,255.86 295.5,252L295,252.5ZM252,282.5L247.58,284.08L244.08,289.58C244.73,306.55 255.96,320.83 266,333.5L278.42,337.92L281.92,335.42C278.51,322.15 278.44,307.28 286.92,295.42L285.5,288L280,288.5L281,291.5C279,298.17 274.83,304.67 268.5,311L256.5,304L252.08,291.58L261,286.5L252,282.5ZM328,303.5L320,322.5L320.5,327L324,322.5C324.06,318.56 325.72,312.89 329,305.5L328,303.5ZM299,333.5L293.08,341.42L298.5,344L299,333.5ZM292,369.5L281,373.5L277,379.5C276.08,388.96 288.71,391.23 288.92,400.58C275.62,441.36 323.47,472.08 315.5,512L332.5,512C333.96,494.12 324.75,477.34 318,461.5C312.43,441.2 292.16,418.91 297,395.5L293,387.5C298.94,382.11 303.28,376.78 306,371.5C302.94,369.89 298.44,369.06 292.5,369L292,369.5ZM430,451.5L431.92,459.42L425.58,470.08L431.5,472C433.83,469.67 436,465.17 438,458.5L430,451.5Z"/>
  <path fill="#b44b54" stroke="#b44b54" stroke-width="0.5" stroke-linejoin="round" d="M62,0L63,75.5C61.9,50.13 65.48,25.08 68,0L62.5,0ZM76,0C80.36,22.1 75.61,48.49 95,65.5L93,68.5C91.93,91.46 97.78,113.51 97,136.5C100.17,143.47 108.22,153.78 117.5,153L118.5,154C124.27,139.65 120.8,122.56 130,109.5L123,98.5C123.67,81.83 122,69.17 118,60.5C107.91,41.67 117.87,19.87 112,0L76.5,0ZM311,0L317.92,38.42L312,55.5L303.42,62.92L283,66.5L283,68.5L298.5,80L301.58,78.08C310.14,78.75 317.42,80.42 323.42,83.08C329.84,87.78 327.05,97.41 332,102.5L332,125.5L334.5,127L333,70.5C307.89,46.8 341.77,22.99 321.5,0L311.5,0ZM423,0C421.3,13 436.98,21.07 440,32.5L454.5,59L464.5,45C452.64,33.32 441.94,16.28 438.5,0L423.5,0ZM23,63.5L17.5,71L24,68.5C25.65,92.44 30.29,118.25 19,140.5C23.76,154.9 21.33,172.92 10.5,184L0,184.5L0,254L5.92,248.42C5.18,237.08 16.81,229.04 14.08,217.58L19.5,215C26.58,227.03 19.27,241.94 27,253.5L30,262.5L29,227.5C29.95,202.35 18.84,177.6 28,152.5L27,102.5C16.51,99.83 34.51,71.56 23.5,63L23,63.5ZM160,74.5C149.95,86.21 133.25,96.3 132,113.5L130,134.5C134.87,147.2 143.52,156.24 150.58,167.92L153.42,167.92C174.66,146.12 144.9,116.02 168.92,93.42L169.92,79.58L165.42,74.08L160,74.5ZM367,80.5L367.08,84.58L374,82.5L367,80.5ZM395,170.5L391.5,173L391.5,181L398,171.5L395,170.5ZM362,184.5L359,188.5L362,191.5L370,191.5L362,184.5ZM192,201.5L185,209.5L182.5,214L180.5,212L178.5,219L187,213.5L190,207.5L193,206.5L192,201.5ZM110,205.5C96.71,210.7 103.16,228.17 90,233.5L89.08,242.42L96,252.5L107.5,262C114.9,250.47 120.55,237.24 134,230.5L128.5,210C124.24,205.18 116.46,204.55 110.5,205L110,205.5ZM177,219.5L175.5,222C170.22,222.72 166.06,224.22 163,226.5L160.5,237L168.5,230L167,225.5L178,222.5L177,219.5ZM275,246.5L285,258.5L293,252.5L289,250.5L290,252.5L282.5,253L279,246.5L275,246.5ZM63,253.5L64,271.5L63,253.5ZM85,270.5L80,275.5L78,299.5L74,304.5L76,315.5L72,319.5L79.92,325.58C79.25,334.14 76.61,342.11 72,349.5L73.5,351L77.5,347L80,350.5L74.5,364L82.5,353L76,363.5L83.5,362L87,337.5C87.31,330.44 84.03,323.33 87.92,316.58L80,308.5L92,298.5L91.5,296L90.5,298L84,293.5L89,289.5C88.93,283.94 89.36,278.06 93,273.5L85,270.5ZM229,278.5L224,293.5C220.24,302.8 228.32,312.04 224,321.5L221.08,332.58L230,357.5C236.3,368.43 245.89,378.64 257,384.5L247.5,388L242,397.5C241.96,422.08 242.96,448.29 231,470.5L229.5,474C235.28,463.8 242.78,453.87 243,441.5L244,418.5C246.67,409.83 248.36,400.86 249.08,391.58L260,384.5C251.42,382.5 251.03,370.77 245.5,366C230.18,355.12 225.51,334.01 230,316.5L226,300.5L228,286.5L230.92,282.42L229,278.5ZM337,279.5L336,282.5L345,292.5L345.5,304L347,290.5C345.02,287.45 344.3,282.01 339.5,282L337,279.5ZM29,294L30,294L30,315L29,315ZM64,314.5L64.5,352C58.3,337.4 71.7,327.07 64.5,314L64,314.5ZM180,326.5L170,330.5L170.5,333L179.5,328L177,333.5L181.5,335L182.5,338L185,330.5L180,326.5ZM380,328.5L381.5,343L383,333.5L380,328.5ZM172,344.5L169.5,345L162,357.5L165.5,358L173,351.5L171,350.5L172,344.5ZM27,355.5C28.85,367.57 18.86,379.85 28.5,391L27,355.5ZM64,361L65,361L65,387L64,387ZM420,398.5L419,401.5L429.58,408.92C433.76,407.84 441.14,406.85 444.5,411L447.92,406.42L445.5,398L420,398.5ZM226,427.5L205.08,477.58L207.5,485C226.73,475.16 237.17,449.33 234,428.5L226,427.5ZM464,429.5L452.5,467C462.5,457 468.97,448.53 471.92,441.58L465.08,433.42L464,429.5ZM482,430.5L483.5,438L488,431.5L482,430.5ZM375,458.5L370.08,462.58L370.5,466L380.5,459C384.62,463.6 392.14,465.15 398,463.5C387.61,459.89 380.11,458.06 375.5,458L375,458.5ZM66,464.5L65.5,476L63.5,471L65.5,489L69,476.5L66,464.5ZM33,466.5C33,473.83 32.17,479.33 30.5,483L30.5,493L32.5,493C34.78,484.12 38.05,479.67 33.5,466L33,466.5ZM226,477.5C220.57,486.48 208.6,486.9 202.5,495L192,503.5L191,512L202.5,512C203.88,496.38 220.48,491.17 227,478.5L226,477.5ZM419,485.5L417.42,489.92L399.5,492L395.08,498.58L397.5,512L407.5,512L410.58,506.08L415.5,505C425.56,509.67 433.22,512 438.5,512L436.92,501.58L428.5,491L423.5,493L419,485.5ZM484,492.5L470,512L483,512L487.92,493.58L484,492.5Z"/>
  <path fill="#e7c4ad" stroke="#e7c4ad" stroke-width="0.5" stroke-linejoin="round" d="M410,0L418,24.5L423,33.5C428.56,46.43 435.52,58.37 443.5,70L449,67.5L453.92,61.42C446.98,39.09 426.45,22.77 420,0L410.5,0ZM274,65.5L266,69.5C266.84,85.08 245.67,87.3 246.08,102.42C255.64,115.74 268.83,127.73 283.58,134.92L297.5,133C306.11,145.89 330.79,151.55 342,139.5L339.5,134L333.5,129C326.46,117.2 322.4,101.95 309,95.5L295,76.5C285.65,77.13 284.54,64.05 274.5,65L274,65.5ZM398,111.5L347.08,146.58C346.36,151.19 343.67,156.5 339,162.5L340,167.5L333,178.5L333,188.5L341.5,196L378.92,175.42L392.58,152.08L398.42,151.08L410.5,161C417.29,147.08 422.42,128.55 414.5,114L398,111.5ZM409,162.5L399.08,177.58L400.5,182C408.79,178.58 404.38,168.11 410,163.5L409,162.5ZM131,214.5C131.09,222.19 134.96,228.62 138.5,235L139,220.5L131,214.5ZM323,215.5L317.08,219.58C315.69,222.86 315.33,228.5 316,236.5L334.5,249L343,240.5L339,224.5L328.42,215.08L323,215.5ZM312,268.5L309,272.5L309,286.5L315.5,319L319.5,319L320,314.5C316.67,294.5 315.33,279.5 316,269.5L312,268.5ZM503,304.5L499,305.5C480.41,331.47 448.95,355.71 451.5,391L455.92,395.58L446,426.5L434.08,436.58L434.08,440.42L443.58,450.92L447.42,450.92C461.51,437.54 461.47,416.96 466,399.5C479.59,389.12 493.15,374.66 512,375.5L512,304.5L503,304.5ZM323,395.5L322,399.5C337.68,427.83 334.01,462.87 352,490.5C357.79,495.62 357.07,505.52 359,512L382,512C370.35,471.06 370.28,412.35 323.5,395L323,395.5Z"/>
  <path fill="#e1b199" stroke="#e1b199" stroke-width="0.5" stroke-linejoin="round" d="M404,0C407.19,11.99 414.37,22.25 421,32.5L425.5,42L424,32.5L409.5,0L404.5,0ZM420,0L428,14.5L423,0L420.5,0ZM237,47.5L232.08,54.58C238.19,67.31 231.08,83.09 241,94.5C237.35,101.02 231.95,104.71 226,107.5L223.08,117.42L232,134.5L253.5,141C273.19,148.44 291.14,167.42 314.5,157L315.92,161.42L304.92,176.42C290.98,190.37 259.31,204.79 269.5,229L273,225.5C277.89,217.09 287.9,211.88 297.5,213L302,217.5C290.37,238.84 320.15,252.04 308,273.5L309,284.5L309,272.5L312.5,268L316.5,269C317.86,257.61 331.04,249.92 341,247.5L344,243.5L342.5,233L343,240.5L332.5,249L316,236.5L315.08,223.58L319,217.5L329,215.5L339,224.5L341.5,233L342,226.5L334,201.5L341,195.5L333,188.5L332.08,181.58L339,162.5C343.67,156.5 346.36,151.19 347.08,146.58L354.5,140L345.5,145L341.5,140L338.42,142.92C325.78,145.6 305.41,146.82 297.5,133L283.58,134.92C268.83,127.73 255.64,115.74 246.08,102.42C245.67,87.3 266.84,85.08 266,69.5L274.5,65L278,65.5C267.08,54.65 252.29,49.41 237.5,47L237,47.5ZM129,113.5L122,138.5C114.94,163.69 117.14,191.68 131.08,213.42L139.5,222L141.92,209.58L133,195.5L134,193.5L128,175.5L121,164.5L124,147.5C120.08,143.88 131.56,134.67 127,129.5L129,113.5ZM394,151.5L388.5,160L395.5,154L400.5,158L402.5,156L405,166.5L403.5,171L411,161.5L404.5,155L394,151.5ZM400,173.5L387.5,187L386,194.5L401,182.5L400,173.5ZM256,235.5C249.05,238.42 252.95,247.86 246.42,250.92L235.58,251.08L214.5,279L213.5,277L196.5,316L204,311.5L203,308.5L207.5,306C221.7,281.72 242.65,262.5 263.5,244L263.92,240.58L256,235.5ZM273,262.5L272.5,268L273.5,264L277,265.5L269,272.5L273.5,275L281,267.5L273,262.5ZM315,276.5L317.5,299L318.92,297.42C318.92,288.19 317.78,281.06 315.5,276L315,276.5ZM504,279.5C462.37,285.91 454.33,338.72 453.5,373C460.82,347.06 482.66,326.49 499,305.5L512,303.5L512,279L504,279.5ZM313,315.5L314,321.5L317.5,324L320,319.5L315.5,319L313,315.5ZM310,329.5L306.5,335L302.5,334L300,343.5L308.42,344.92L315,342.5L314.92,333.58L310,329.5ZM170,341.5L157.5,345L157,351.5L162.5,354L170,341.5ZM158,357.5L154,371.5L157.5,377L161,369.5L157.5,369C156.32,365.53 157.08,360.88 160,358.5L158,357.5ZM504,376.5C488.21,378.69 477.95,390.84 466,399.5C461.47,416.96 461.51,437.54 447.42,450.92L443.58,450.92L434.08,440.42L434.08,436.58L446,426.5L455.92,401.42L455.5,395L451.08,390.42L450.5,385C446.08,397.42 452.8,411.38 443.5,423L431,432.5L429.08,447.42L438,454.5C437.94,459.11 435.44,467.61 430.5,480L422.08,479.58L422.08,486.42L427.42,489.92L442,479.5L470,413.5C477.72,396.99 493.19,382.85 512,381L512,376L504,376.5ZM309,389.5L306.5,390C299.83,400.73 307.32,412.82 316,419.5C313.3,441.95 334.83,459.73 337,480.5C345.31,488.21 344.95,501.94 348.58,512L358.5,512C344.9,474.9 334.13,435.15 322,397.5L324,394.5L309,389.5ZM177,418.5L176.5,425L175,430.5L177.5,431L177,418.5ZM21,495.5L16.08,504.58L17,512L31,512L29.92,502.58L21,495.5Z"/>
  <path fill="#db9586" stroke="#db9586" stroke-width="0.5" stroke-linejoin="round" d="M222,45.5L217.08,51.58C211.47,70.5 248.13,78.21 231,101.5L207.5,120L203,127.5C211.29,140.93 215.38,161.12 233.58,164.92L254.42,166.08L272.5,173L276.5,172L280.5,175L287.5,172L293,178.5L275.5,197L290.5,185L291.5,188L304.92,176.42L315.92,161.42L314.5,157C297.87,164.94 281.83,156.28 268.5,148L232,134.5L223.08,117.42L226,107.5C231.95,104.71 237.35,101.02 241,94.5C231.08,83.09 238.19,67.31 232.08,54.58L237.5,47L222,45.5ZM124,149.5L121,164.5L134,200.5L141.5,209L142.92,203.58L127,163.5L126,151.5L128,149.5L124,149.5ZM395,154.5C390.67,158.17 386,164.5 381,173.5L380.5,176L395.5,164L396.5,168L402,167.5L401.5,172L405,166.5L402.5,156L400.5,158L395,154.5ZM388,184.5L371.5,192L365,200.5L367.5,209L386,194.5L390,184.5L388,184.5ZM460,184.5C448.91,184.98 450.71,195.58 445,200.5L443.08,213.42L447,218.5C457.84,223.17 470.09,221.95 481.42,219.92L486,210.5C475.28,195.89 466.78,187.06 460.5,184L460,184.5ZM270,207.5L266,211.5L267,213.5L262.5,218L263,221.5L260.5,223L258.5,219C241.59,232.36 228.81,250.61 217,268.5L213,275.5L214.5,279L235.58,251.08L246.42,250.92L252.08,239.58L259.42,235.08L264.5,245L270.58,241.08L278.42,241.08C289.57,249.95 311.74,256.28 306.5,275C311.91,262.58 310.02,246.88 301,236.5L302,217.5L297.5,213C287.9,211.88 277.89,217.09 273,225.5L269.5,229C264.12,222.46 268.71,213.48 270.5,207L270,207.5ZM363,231.5C368.22,251.01 366.76,270.51 369.5,290L373,288.5L366.5,231L363,231.5ZM45,232.5C41.29,240.41 43.14,249.09 43,257.5L40,275.5C40.01,296.79 44.78,316.91 43,338.5C34.45,356.12 41.1,377.45 44.92,395.58C44.97,401.53 43.33,409.83 40,420.5C36.99,451.29 53.06,480.71 43,512L60,512L60,500.5L61.92,498.42C55.73,470.62 54.57,442.46 55,414.5L53.08,404.58L57,397.5L54.08,393.42C57.28,366.4 56.52,339.82 49.08,313.42C54.44,292.17 56.68,268.86 46,248.5L51,246.5L48,233.5L45,232.5ZM112,260.5L108.5,261C107.56,263.94 107.72,268.78 109,275.5L113.5,278L116,275.5L114,274.5L117,271.5L117,268.5L112,265.5L114,260.5L112,260.5ZM512,270.5C471.02,277.99 449.82,324.59 453.5,363C456.68,329.17 468.09,277.14 512,279L512,270ZM315,273.5C317.61,280.22 318.94,288.22 319,297.5L320.5,312L321,306.5C330.85,297.89 319.71,285.88 319,276.5L315,273.5ZM274,283.5L255,288.5L252.08,291.58L256.5,304L268.5,311C276.74,306.32 283.77,295.18 279.92,285.58L274,283.5ZM311,309.5L312.92,326.42L310,328.5L314.92,333.58L315,342.5L304,345.5L316.5,345L319.5,321L317.5,324L314,321.5L311,309.5ZM200,316.5L195.42,318.92L184.58,318.08L182,324.5L188.5,330L191.5,330L200,316.5ZM307,329.5L300.08,333.58L300,343.5L303.5,335L306.5,335L310,329.5L307,329.5ZM177,330.5L167.5,336L164,343.5L171.5,342L177,330.5ZM297,386.5C289.31,432.37 332.36,466.99 333,512L347,512C347.4,501.14 345.15,488.18 337,480.5C327.46,461.22 321.57,439.88 316,419.5C307.32,412.82 299.83,400.73 306.5,390L309,388.5L297,386.5ZM17,463.5L14.08,467.58L17.5,499L23.5,495L26.5,498L27,487.5C26.28,476.89 24.92,469.25 22.92,464.58L17,463.5ZM434,469.5L431.5,472L425.58,470.08L420.08,476.58L421.08,487.42L423.58,490.92L429,490.5L438.5,481L427.42,489.92L422.08,486.42L422.08,479.58L430.5,480L434,469.5Z"/>
  <path fill="#ba696e" stroke="#ba696e" stroke-width="0.5" stroke-linejoin="round" d="M205,46.5C194.72,49.56 186.06,54.22 179,60.5L179,67.5C188.99,76.56 194.4,88.67 184,99.5L178,111.5L183.5,118L197,122.5C186.62,140.58 158.97,155.2 172.08,180.42L177.5,184L178.08,187.42L185,194.5L171,207.5L178.58,211.92L186.5,209L189.5,203L195,199.5L193.5,197L200.5,199L203.5,190L206.5,196L216.5,187L218.5,188L224,182.5L223,179.5L235,172.5C224.88,164.96 217.39,176.85 207.58,173.92L197.5,169L195.42,171.92L183.5,173L181.08,170.42L180.92,162.58L175.08,158.42C173.58,148.39 185.4,145.33 187.5,137L191,133.5C201.24,126.47 207.44,114.86 219.5,110L221,106.5C210.93,90.95 215.97,69.72 199,57.5L212.5,47L217,46.5L205,46.5ZM500,86.5L477.5,114L500,86.5ZM358,187.5L354.5,190L356,194.5L353,206.5L358.5,218L362,210.5L360.08,195.58L368,192.5L362.58,191.92L358,187.5ZM432,191.5C411.98,238.63 397.2,287.67 383.5,337L382.5,335L381.5,343L379,328.5L379.5,318L375.5,339L373.5,335L374,348.5L380.5,350L387.92,342.42L390.08,318.58C409.51,285.05 409.96,243.72 433,212.5L435,211.5C435.38,204.51 430.11,198.08 432.5,191L432,191.5ZM250,218.5L245.5,228L251.5,222L250,218.5ZM240,232.5L234,237.5L231.5,243L233.5,241L234.5,243L242,232.5L240,232.5ZM148,242.5L142.08,246.58L141,254.5L137.5,255L136.5,260L145,253.5L145.5,247L147.5,249L148,242.5ZM229,245.5L217,263.5L218.5,266L229,245.5ZM263,248.5L263.5,253L269.5,252L272.5,255L275,253.5L270.42,248.08L263,248.5ZM512,252.5L508,259.5L512,262L512,252.5ZM316,270.5L316,274.5L321.42,276.08L331.5,283L337,275.5L331.5,276L329.5,273L320.5,270L321,273.5L317.5,274L316,270.5ZM266,272.5L254,276.5L262.5,278L265.5,280L269,277.5L266,272.5ZM101,274.5L93,285.5C91.21,288.98 88.13,291.96 84,292.5L87.5,293L91,297.5L98,292.5L94,291.5L99.5,289L103.5,283L111,279.5L101,277.5L105,274.5L101,274.5ZM200,289.5L195,299.5L199,303.5L196.5,307L194.5,301L186,315.5L194.5,319L196,317.5L194,315.5L203.5,293L200,289.5ZM171,294.5L170,306.5L174,306.5L172,300.5L178.5,306L180,303.5L176.5,297L174.5,298L171,294.5ZM89,303.5L80,308.5L85.5,315L91,304.5L89,303.5ZM154,343.5L152,345.5L154,346.5L151.5,346L150,348.5L153,349.5L149,351.5L147.08,357.42L153.5,372L156.92,354.58L155,345.5L160,343.5L154,343.5ZM448,346.5C434.42,354.02 440.05,370.99 432.5,382L425.5,387C411.19,391.42 398.06,379.25 384,385.5L380.08,394.58L381,400.5C389.33,406.16 402.02,407.53 405.92,418.58L405,427.5L400,431.5L397.92,448.42L394.42,450.92L376.58,447.92L370.5,435L367,455.5L369.5,462L375.5,457L419.5,471L420.5,474L422,471.5L419.5,463L425,459.5C431.78,447.69 424.48,431.65 437,422.5L441,418.5L432.5,409L419,401.5L421.5,398L447.5,399C447,383.1 459.17,369.11 451,352.5L448,346.5ZM0,398.5L0,402.5C8.12,401.45 14.35,407.83 19.5,413L20,411.5C14.85,405.12 7.46,401.08 0,398ZM28,481.5C23.35,493.28 34.71,500.87 31,512L35,512L35.5,486L33.5,498L31,497.5L28,481.5Z"/>
  <path fill="#802a45" stroke="#802a45" stroke-width="0.5" stroke-linejoin="round" d="M369,85.5L367,124.5L368.5,125L370,91.5L374.42,91.08L378.5,97L379,94.5L372.42,85.08L369,85.5ZM319,102.5L327.5,116L330,114.5L326.5,106L319,102.5ZM346,211.5L346,226.5L350,239.5L345,249.5L349,252.5L324,260.5L320,267.5L324.5,271L325.5,268L330,271.5L334.92,268.42L335.5,262L339,264.5L340.92,273.42L338,277.5L346,281.5L347.5,301L350.92,284.58C348.97,279.86 346.33,276.17 343,273.5L339,261.5L352,253.5L349,247.5C348.38,238.23 356.98,229.68 347,220.5L350.5,217L354.5,222L358.5,222L346,211.5ZM193,212.5L188.5,213L185,216.5L188.5,219L195,212.5L193,212.5ZM177,223.5L171,226.5L168,225.5L171.5,230L174.5,226L180,225.5L177,223.5ZM372,252.5L371,264.5L374,280.5L377,281.5L379.92,264.58L372,252.5ZM252,255.5L243,264.5L253.5,273L257.5,267L266.5,272L272,267.5L259,262.5L259,259.5L267,256.5L253.5,257L252,255.5ZM104,268.5L93.5,274L92.5,280L100,273.5L108,271.5L104,268.5ZM23,279.5C17.74,287.8 9.32,293.77 0,296.5L0,350.5L11.5,355L17.92,366.58C12.44,376.63 22.31,384.69 20,394.5L13.5,400L7.5,398L7,399.5C15.75,403.01 24.77,410.52 24.5,421L26.5,418L32,423.5C27.27,413.09 35.28,399.79 26.5,390L22,386.5L19.08,371.58L26,342.5L25,335.5C27.67,325.5 29,316.5 29,308.5L28,293.5C31.1,290.1 26.51,284.65 27,281.5L23,279.5ZM221,287.5L219,292.5C220.51,297.56 220.34,303.03 218.5,308L216.5,307L216.5,318L220,316.5C221.33,313.83 222,304.5 222,288.5L221,287.5ZM167,304.5L155,308.5L156,311.5L153,313.5L154.5,316L157,314.5L159.5,319L165,318.5L161,315.5L165.5,307L166.5,309L167,304.5ZM356,330.5C345.93,352.09 347.52,377.2 348,400.5L353.58,410.92L373.5,413L374.5,369L368.08,361.42L367,354.5L363.08,350.42L359.92,332.58L356,330.5ZM215,336.5C196.12,366.47 241.29,373.06 233.5,400C227.17,406.33 223.36,411.86 222.08,416.58C222.61,438.67 207.04,458.46 197,477.5L193,489.5L196,492.5L188,496.5L175.5,512L181.5,512C184.3,499.55 196.71,492.48 208,489.5L208,486.5L198,485.5L229.5,414L231.5,414C237.87,422.36 236.72,433.73 235,443.5L235.5,451C236.2,438.8 245.43,422.66 239,410.5L240.08,393.58L250,384.5C237.44,373.42 227.77,360.54 217,347.5L215,336.5ZM71,380.5L67.08,383.58L67.5,388L74,381.5L71,380.5ZM74,387.5L67,397.5L67.5,400L74,396.5L75.5,391L74,387.5ZM508,390.5L494.42,396.92L490.5,393L475,407.5L475.5,415C480.17,411.67 492.33,406.67 512,400L512,390L508,390.5ZM31,432.5L30,448.5L27.5,451L25.5,441L28.08,471.42L30.5,473L31,432.5ZM234,451.5L226.5,469L228.5,472C232.84,466.22 236.61,458.23 234.5,451L234,451.5ZM70,455.5L68,461.5L70.5,472L73,471.5L72.92,464.58L70,455.5ZM512,458.5L503.08,466.58C502.88,483.75 492.28,497.48 485,512L490.08,512C501.36,497.67 508.67,489.5 512,487.5L512,458.5ZM397,467.5L396.08,473.42L405,483.5L419,483.5L418.5,478L415.5,482L407.08,476.42L408.58,470.08L416,470.5C409.61,468.22 403.44,467.06 397.5,467L397,467.5ZM455,468.5C445.56,471.09 446.13,484.09 436,486.5L445.58,494.92L453,494.5L464.92,479.42L464.92,471.58L455,468.5ZM0,474.5L0,477.5L11,475.5L0,474ZM0,486.5L0,495L5.5,495L13.5,503L0,486ZM471,488.5L458,502.5L456.5,512L461.5,512L475.92,494.42L475.92,489.58L471,488.5Z"/>
  <path fill="#733464" stroke="#733464" stroke-width="0.5" stroke-linejoin="round" d="M494,88.5L487,96.5L487.5,99L497,88.5L494,88.5ZM236,176.5L231,178.5L235,181.5L233.5,184C219.5,188.67 210.17,193 205.5,197L194.5,201L195,205.5L190.5,207L188,213.5C194.94,209.85 203.47,213.43 209.5,217L211,216.5L209.08,206.58C214.29,199.4 222.8,187.2 233.5,188L237.5,193L243,185.5L242.5,183L240.5,184L238,181.5L239,177.5L236,176.5ZM277,176.5L253.5,180L252.5,184L256.42,184.92L265.5,178L253.5,189L252.5,187L239,195.5L240.5,197L244.5,194L247,196.5L245,202.5L251,203.5L249.5,209L246,209.5L250.92,211.58L251.5,216L255.5,213L254.5,219L256.5,206L254.5,207L256.5,198L252.5,201L266,189.5L266.5,185L269.5,189L270,180.5L277.5,178L277,176.5ZM236,193.5L233,200.5L235.5,202L238,197.5L236,193.5ZM346,194.5L339,201.5L342.5,203L343.5,197L346.5,200L346,194.5ZM223,200.5L218,209.5L221,210.5L222.5,219L223.5,216L227,215.5L223.5,213L222.08,206.58L223,200.5ZM351,209.5L352.5,217L355.5,216L356.5,218L358,216.5L351,209.5ZM218,219.5L216.08,227.42L218,229.5L216,233.5L220.5,231L221.5,235L227,231.5L221.5,224L219.5,227L218,219.5ZM165,238.5L163.5,245L162.5,243L158.5,246L156.5,245L154.5,248L151.5,248L150,258.5L135,273.5L138,274.5L136,275.5L138.5,277L139,271.5L148.5,263L151,263.5L146,269.5L149,286.5L147,287.5L149.5,290L150.5,288L150,290.5L155.5,296L153.5,293L158.5,291L159,288.5L153,283.5L153.5,281L156.5,283L161,267.5L163.5,272L167.5,259L168.5,262L171.5,246L166.5,253L163.5,253L167,239.5L165,238.5ZM213,240.5L212.5,247L211.5,245L208,251.5L211,252.5L214,248.5L213,240.5ZM193,254.5L199.5,263L202,262.5L193,254.5ZM113,278.5C106.96,278.35 104.18,283.72 101,287.5L109,287.5L107.5,290L101.58,291.08L97,295.5L99,296.5L94,298.5L101,299.5L91.08,306.58L87,356.5L78,378.5L81.5,381L86.5,380L87.5,383L90,379.5C90.29,371.45 95.97,363.97 90.08,355.58L95.5,348L97.5,350L101.5,339L106.92,344.58L102.5,367L106.5,361L112,374.5L112.5,380C107.41,368.03 118.77,358.84 116.5,347L118.5,350L134,351.5L130.5,345L136.5,350L138,347.5L128.5,338L126,340.5L123.5,335L121,331.5C120.33,318.17 120.97,309.14 122.92,304.42L121,299.5L125,286.5L130,283.5L127.5,281L122.5,285L121.5,283L116.5,288L113,278.5ZM102.5,302L104,304.5L97.5,314L95,309.5L102.5,302ZM117.5,307L119,313.5L116.5,313C112.19,324.17 104.7,333.52 96.5,342L96,340.5C102.92,329.83 115.94,322.19 117,307.5L117.5,307ZM147,332.5L145.5,335L140.5,334L143.5,340L145.5,337L146.5,341L151,336.5L150.5,333L148.5,334L147,332.5ZM140,350.5L142.5,356L146.5,350L142.5,352L140,350.5ZM149,372.5L152.5,384L157.5,384L156,379.5L158,378.5L155.5,377L154.5,382L149,372.5ZM118,376.5L119,384.5L121.5,387L125,386.5L122,388.5L126.5,395L133,391.5L122.42,376.08L118,376.5ZM103,393.5L106,404.5L101,408.5L113,407.5L111.5,400L107.5,399L103,393.5ZM136,399.5C134.02,404.94 133.3,411.16 125.5,413L127,404.5L120.5,401L120.5,405C122.78,407.39 125.61,413.89 129,424.5L128.5,426L123.5,422L123,423.5L133.42,428.08L136.5,434L147,442.5L144,450.5L139,451.5L141,460.5L142.5,458L149,459.5L144.5,453L145,450.5L151,452.5L150,444.5L144,439.5L141,424.5L145,417.5L141,409.5L143,407.5L136,399.5ZM138,441.5L135.5,453L140,441.5L138,441.5ZM161,452.5L163,454.5L159,456.5L162,461.5L159,462.5L159,465.5L152.5,467L149,465.5L155.5,471L162.5,468L165.5,472L167,461.5L169,458.5L166,456.5L166,453.5L161,452.5ZM149,477.5L149,481.5L147.5,481L146,490.5L148,492.5L143,495.5L150,506.5L151.5,512L152,506.5L155,503.5L160,512L171.5,512L171.5,508L170.5,512L168.5,512L166,505.5L163.5,501L162.5,507L155,497.5L153,490.5L156,488.5L154.5,484L156,481.5L149,477.5ZM157,481.5L161.5,491L161,485.5L163,484.5L157,481.5ZM0,486.5L12.5,498L14.5,507L14.92,499.58L8.5,491L0,486ZM118,487.5L119.5,500L122.5,492L126.5,496L118,487.5ZM134,490.5L133,496.5L137.5,512L142,501.5L140.5,500L138.5,502L134,490.5ZM121,495.5L125.58,512L130.5,512L121,495.5Z"/>
  <path fill="#885382" stroke="#885382" stroke-width="0.5" stroke-linejoin="round" d="M230,172.5L231,174.5L223,179.5L224,182.5L218.5,188L216.5,187L215,189.5L235,181.5L231,178.5L238.5,177L238.5,173L236.5,175L230,172.5ZM252,174.5L255,176.5L246.5,182L239.5,178L238,181.5L240.5,184L242.5,183L243,185.5L237.08,193.58L237.5,197L252.5,187L253.5,189L265.5,178L256.42,184.92L250,184.5L252.5,184L253.5,180L264,176.5L252,174.5ZM352,190.5L347.08,193.58L346,202.5L349.5,209L354,208.5L355,190.5L352,190.5ZM262,197.5L255,218.5L263,212.5L261,205.5L262,197.5ZM254,213.5L251.5,222L256,214.5L254,213.5ZM223,216.5L229.5,233L231,230.5L227,217.5L223,216.5ZM173,239.5L172.08,248.42L175.5,255L173,239.5ZM167,259.5L162.5,276L163,269.5L161.5,264L156.5,283L153.5,281L156.5,288L159,288.5L154,291.5L161.42,293.92L167,288.5L166,286.5L172,279.5L171.5,277L169.5,278C167.89,274.28 167.22,267.94 167.5,259L167,259.5ZM134,274.5L125,277.5L130,283.5L125,286.5L121,299.5L122.92,304.42C120.97,309.14 120.33,318.17 121,331.5L121.5,335L123.5,335L126,340.5L128.5,338L138,347.5L136.5,350L130.5,345L134,351.5L118.5,350L116.5,347L117.5,370L115.5,369L115,381.5L118.5,385L120,383.5L118.5,376L122.42,376.08L133,391.5L126.5,395L122,388.5L125,386.5L119.5,385L121.5,393L115,391.5L113.5,390L113,392.5C114.49,401.37 121.06,402.45 127,404.5L125.5,413L136,399.5L133,397.5L140.5,388L142,389.5L136,398.5L143,407.5L141,411.5L146,420.5L141,424.5L144,439.5L149,445.5L152.5,452L149.5,453L146,451.5L159.5,462L161,458.5L159,456.5L163,454.5L161,452.5L166,453.5L166,456.5L172,459.5L165,443.5L168,442.5L162.5,439L164,442.5L163,446.5L154,443.5L156,420.5L152,417.5C150.47,413.07 148.56,407.45 151.5,403L158.5,402L157.5,396L159.5,397L150.5,392L148.5,393L137,383.5L141.5,376L145.5,379L147.5,375L150.5,384L152,381.5L149.5,372L154.5,382L155,373.5L151.5,372L149.5,366L147.5,366L145,359.5L149,351.5L148,349.5L150,348.5L145,345.5L145.5,337L142.5,342L137.5,330L135.5,334L134.5,327L132,328.5L132.5,335L126.5,320L124.5,322L123.5,313L125.5,320L126.5,310L128.5,316L127.5,302L129.5,309L131,307.5L128.5,296L131.5,296L139.5,281L136.5,277L132.5,281L129,278.5L138,274.5L134,274.5ZM96,293.5L90,303.5L91.5,306L101,299.5L94,298.5L99,296.5L96,293.5ZM102,302.5L95,313.5L97.5,314L104,304.5L102,302.5ZM90,306.5L86,314.5L88.5,319L90,306.5ZM117,307.5L106,329.5L107.5,330L119,308.5L117,307.5ZM140.5,350L142.5,352L147,350.5L142.5,356L140.5,350ZM93,402.5L90,405.5L100.5,409L106,404.5L105.5,402L100.5,407L94.5,406L93,402.5ZM105,420.5L97,438.5L102.5,435L104.5,438L106.92,423.58L105,420.5ZM142,458.5L140.5,465L138,465.5L150.5,478L152,476.5L149,473.5L151,471.5L149,465.5L142,458.5ZM158,468.5L159,470.5L156.5,470L154.5,473L152.5,471L151,472.5L158,478.5L151,478.5L156,481.5L154,484.5L156,488.5L154,491.5L155,497.5L161.5,505L163,501.5L159.5,494L162,496.5L165,495.5L157,483.5L157.5,481L163.5,485L164,480.5L168,476.5L164.5,471L163.5,474L161,471.5L164,470.5L162.5,468L161,469.5L158,468.5ZM11,479.5L8,488.5C11.94,493.22 14.44,498.39 15.5,504C19.1,494.91 9.52,488.07 11.5,479L11,479.5ZM121,492.5L131.5,512L135,512L121,492.5ZM120,495.5L119,512L122,512L120,495.5Z"/>
  <path fill="#a57b94" stroke="#a57b94" stroke-width="0.5" stroke-linejoin="round" d="M248,172.5L248,175.5L241.5,177L240.5,175L240,179.5L246.5,182L255,177.5L248,172.5ZM268,196.5L265.92,203.42L261,215.5L264,217.5L267,213.5L267.5,208L265.5,210L266.5,205L270.5,201L268,196.5ZM126,310.5C126.72,319.11 128.89,327.28 132.5,335L126,310.5ZM133,317.5L135.5,334L137,330.5L133,317.5ZM116,354.5C114.06,362.56 113.39,370.56 114,378.5L114.5,392L118.5,390L121.5,393L122,391.5C115.05,386.26 114.23,376.83 115.5,369L117.5,370L116,354.5ZM147,375.5L145.5,379L141.5,376L137,383.5L148.5,393L152,390.5L151,388.5L154.42,388.08L160,394.5L159.5,397L157.5,396L157.5,401L151.5,403C148.56,407.45 150.47,413.07 152,417.5L155,421.5L154,443.5L162,445.5L164,442.5L162.5,439L186,444.5L175,439.5L182,435.5L181.5,433L178.5,435L178,431.5L175.5,431L173.42,433.92L168.08,431.42L165,424.5L168.5,414L172.5,417L161,399.5L163.5,399L164.5,395L169.5,400L170,398.5C165.29,391.62 159.71,384.7 150.5,384L147,375.5ZM140,388.5L133,397.5L134.5,399L142,389.5L140,388.5ZM0,403.5L0,414C3.67,416.67 6.67,420.17 9,424.5L14.08,467.58L21.42,463.08L24.5,468L24,422.5C22.24,412.86 14.22,407.28 6.42,403.08L0,403ZM159.5,403L162,403.5L166.92,411.58L165.5,418L164,415.5L166,414.5L159.5,403ZM169,453.5L173.5,462L178,455.5L176.5,454L172.5,457L169,453.5ZM150,472.5L151,477.5L158,478.5L150,472.5ZM14,474.5L16.5,502L14,474.5Z"/>
</svg>