<svg xmlns="http://www.w3.org/2000/svg" width="512" height="512" viewBox="0 0 512 512">
  <rect width="512" height="512" fill="#c95d5e"/>
  <path fill="#5b1640" stroke="#5b1640" stroke-width="0.5" stroke-linejoin="round" d="M512,7.5C471.15,35.46 441.48,74.73 416,116.5C426.91,152.45 401.24,190.3 372.08,209.58C370.03,218.19 370.83,228.67 374.5,241L388.92,223.42L389.5,216L393.58,212.08L398.5,214C400.46,239.73 377.65,260.14 379.92,286.42L376,296.5L381.08,325.42L384.5,329L401.08,266.58L404.92,261.42C411.43,233.28 421.6,204.88 436,179.5L435,178.5C441.12,171.43 439.16,158.09 448.92,153.42L450,144.5L461.5,135C463.83,128.67 468.97,120.47 476.92,110.42C480.06,95.72 487.08,78.23 501.5,71L499.08,76.58L500.5,82L512,74L512,7.5ZM371,89.5C366.36,100.78 376.57,113.64 369.08,124.58L370.5,130L390,115.5L371,89.5ZM289,176.5L275,180.5L271.08,186.58L272.5,194L292,178.5L289,176.5ZM232,189.5C228.98,192.31 220.54,193.06 219,198.5L220.5,200L222.5,198L225,199.5L222,208.5L225.5,210L229.92,206.42L236,191.5L232,189.5ZM267,189.5C261.33,194.5 257,199.5 254,204.5L256.5,206L264,198.5L261.5,205L267,200.5L269,189.5L267,189.5ZM249,191.5L236.08,203.58L236,207.5L232.5,208L227,216.5L235,221.5L229,223.5L232.5,236C243.17,224 248.97,216.19 249.92,212.58L239,207.5L243,205.5L244.08,199.58L251,191.5L249,191.5ZM217,201.5L210.08,206.58L211.58,212.92L216,211.5L219,202.5L217,201.5ZM196,214.5L188,222.5L187.08,230.42L191.5,236L195.5,230L195,238.5L188,246.5L192.5,249L196.5,258L204.5,265C198.91,265.61 193.59,260.91 191,256.5L191,254.5L185.5,252L184.08,261.42L186.92,267.58L185.5,272L179.5,262L174,261.5L172.5,252L169.08,254.58L167.08,270.42L172.92,275.58L171,281.5L174,283.5L172,287.5L179,293.5L178.08,299.42L182.92,305.58L181.5,311L176.5,310L164,327.5L167.5,330L170.58,327.08L177.5,327C198.67,300.72 205.38,265.21 229.92,240.42L226.5,232L215.5,253L213.5,252L211.5,255L207,252.5L204,244.5L208.5,231L214.92,238.58L216.5,245L218.92,238.58L212.5,229L196,214.5ZM348,214.5C344.94,226.48 356.98,236.25 351.08,248.42L354.92,253.58L351.5,261L347.58,261.92L339.5,258L338,259.5L350,277.5C356.64,312.04 325.92,338.88 318.5,371L315.5,370C313.22,374.39 312.06,379.22 312,384.5L315.5,389L322.5,383L325,384.5L323,389.5L349.5,410C341.62,393.93 348.58,376.66 348,359.5L345.08,355.42L353,317.5C357.02,283.55 374.17,244.3 348.5,214L348,214.5ZM181,219.5L181,225.5L175,228.5C174.9,232.49 173.92,237.16 178,239.5C172.2,245.32 174.55,255.33 180.5,260C178.62,251.93 187.24,247.31 187,239.5C185.06,234.78 184.06,228.78 184,221.5L181,219.5ZM169,233.5L164.5,252L171.92,244.42L171.92,236.58L169,233.5ZM208,238.5L206,244.5L208.5,247L208,238.5ZM134,244.5L133,248.5L137.5,254L140,253.5L141,245.5L134,244.5ZM146,256.5C139.42,256.18 138.15,264.66 133.5,267L124,270.5L128.5,276C136.8,272.94 144.22,265.89 148,257.5L146,256.5ZM268,257.5L252.58,262.08L250,265.5L252.5,269L256.5,263L266.5,266L271,258.5L268,257.5ZM275,257.5L281.5,265L285,262.5L281.5,258L275,257.5ZM328,260.5L323,263.5L328.42,265.92L331,262.5L328,260.5ZM121,273.5L118.08,275.58L115.5,288L126,281.5L121,273.5ZM143,273.5L138,278.5L141,280.5C142.83,288.94 130.98,293.69 134.08,302.42L138,307.5L133.08,310.58L138,331.5L143.5,333L146,327.5L143,322.5L146.5,321L154,336.5L145,345.5L149.5,348L162,333.5L158,331.5L160,326.5L158,323.5L163,321.5L159.5,319L156.5,322L153,311.5L155,302.5L163.5,306L167,301.5L168,292.5L162.08,294.58L162,299.5L159.5,300C156.17,298.67 151.69,294.81 146.08,288.42L146,274.5L143,273.5ZM366,283.5C358.8,290.95 363.38,304.25 362,313.5L365,342.5L371,369.5L374,369.5C373.28,346.89 371.28,327.22 368,310.5L366,283.5ZM218,291.5L203,316.5C186.53,332.85 176.87,354.62 161,371.5L160,374.5L163,377.5L160.08,382.58C161.03,386.19 165.83,393 174.5,403L176,399.5C176.39,391.5 173.95,379.03 181.5,373C186.06,384.37 186.48,401.41 177,410.5L182,436.5L176,438.5L180.5,442L184.5,440C194.82,423.63 182.4,402.95 190,385.5L191.5,385C195.67,404.24 193.39,426.65 202,444.5L202,451.5L195.5,451L191.5,454L188.5,450L184,449.5L183.5,445L173,444.5L175,453.5L178,456.5L173.5,467L167.08,468.58L168,477.5L165,481.5L166.92,490.42L165,492.5L168,504.5L175.42,512L187,496.5C202.1,491.92 222.05,485.6 229,469.5L228.5,467C220.03,478.64 207.36,489.33 192.58,490.92L190,488.5C203.11,467.43 212.17,444.79 221.92,422.42L219.08,410.58L222,402.5C220.61,395.89 217.94,389.56 214,383.5L200.5,367L204.5,334L207.92,336.58L212,359.5L215,359.5L215,348.5C215,321.83 216.64,304.14 219.92,295.42L218,291.5ZM23,308.5L21.08,318.42L23.5,322L25.92,320.42L23,308.5ZM190.5,342L192.92,343.58L193,351.5L190.5,352L190.5,342ZM95,351.5C99.8,360.02 88.8,366.49 93,375.5L93,377.5L98.5,379L102.92,355.58L95,351.5ZM0,354.5L0,391.5C3.61,391.89 8.14,394.03 13.58,397.92L18.92,396.42C21.25,385.68 10.77,376.64 16.92,365.58L0,357.5L0,354ZM337.5,367L338.92,373.42L336.08,376.58L336.92,385.42L334.5,389L331.08,386.42C331.75,378.53 333.72,372.22 337,367.5L337.5,367ZM215,368.5L217.5,379L218,369.5L215,368.5ZM105,377.5L102,389.5L109.5,394L112.92,389.42L112.5,383L105,377.5ZM82,380.5L80,381.5C79.94,388.11 77.61,395.78 73,404.5C73.15,415.4 70.78,426.33 67,436.5L69.5,438L69,450.5L72.92,454.58C78.01,469.47 68.49,483.06 69,497.5L67,512L82.5,512L82,506.5L90,501.5L86.5,500L86.5,493L91.5,496L95,492.5L95,488.5L97.5,488L102,503.5L107,504.5L106.08,485.58L109,480.5L106.08,477.42L108,464.5L104.5,464L103,469.5L100.5,470L96.5,467L93.5,471L91,470.5C96.94,463.11 100.28,457.11 101,452.5L99.5,441L91,444.5L100.92,432.42L102.92,415.58L97.58,413.92L95.5,409L87.5,423L85.5,423C83.43,415.75 88.25,408.34 90,401.5L82,380.5ZM512,382.5C505,384.83 497.5,389.33 489.5,396L477,408.5L477.5,411C484.64,397.32 501.11,397.1 512,388.5L512,382.5ZM231,388.5L228.08,390.58C233.31,407.92 235.94,419.56 236,425.5L239,423.5L235,403.5C234.28,395.56 233.11,390.39 231.5,388L231,388.5ZM98,395.5L96.08,404.42L103,403.5L98,395.5ZM116,397.5L114.08,404.42L116.5,407L118.92,399.58L116,397.5ZM24,402.5L27.5,413L27,402.5L24,402.5ZM208.5,405L211,405.5L213,420.5L208.5,429L208.5,405ZM120,409.5L118.5,412L113.58,412.08L111,416.5L115,429.5L113.5,431L108.5,423C101.96,434.38 113.43,445.34 107,456.5L117,456.5L114.08,465.42C115.66,475.98 123.47,483.58 128,492.5L127,496.5L134.5,512L137,505.5C131.77,499.62 129.81,491.28 130,483.5L133.5,481L135.5,483L137.5,477L140.5,477L143.5,481L147,475.5L137.5,466L134.5,468L134,464.5L137.5,462L137.5,456L132.5,463L130,462.5L130.08,455.58L134,451.5L132.5,443L137,440.5L132.5,430L123.5,427L118,415.5L119.5,414L126,420.5L124,410.5L120,409.5ZM356,412.5C353.17,427.08 368.97,437.1 367.5,452C374.65,440.71 370.52,425.53 372.5,413L363.58,418.92L356,412.5ZM26,417.5C25.33,430.17 25.83,441 27.5,450L29.92,448.42C29.92,431.86 29.28,421.56 28,417.5L26,417.5ZM0,418.5L0,473.5L11,471.5L5.92,424.58L0,418ZM169,418.5L169,424.5L166,426.5L170.5,433L174,430.5L170,425.5L173,421.5L169,418.5ZM142,442.5L140,446.5L142.5,450L147,444.5L142,442.5ZM167,443.5L166,445.5L169.5,451L171,445.5L167,443.5ZM92.5,449L95,450.5L83.5,459L83.08,455.58L92.5,449ZM151,458.5L150,460.5L157.5,465L158,462.5L151,458.5ZM512,466.5L508,474.5L512,476L512,466.5ZM406,471.5L405,474.5L414.5,482L419,476.5L412.42,471.08L406,471.5ZM137,488.5L136,491.5L143,505.5L142.5,512L148,512L146,506.5C148.82,502.84 145.03,498.48 143,495.5L140,488.5L137,488.5ZM0,490.5L0,512L13,512L11,504.5L4,498.5L5,496.5L0,494.5L0,490ZM114,492.5L112.08,497.58L115.5,507L117.92,502.42L116.92,493.58L114,492.5ZM512,492.5L502,501.5L506.42,502.92L512,500.5L512,492.5ZM495,503.5L489,512L499,512L499.42,503.08L495,503.5Z"/>
  <path fill="#cc847e" stroke="#cc847e" stroke-width="0.5" stroke-linejoin="round" d="M221,45.5C204.72,48.56 194.39,51.56 190,54.5C195.73,62.93 211.43,54.26 212.92,70.58L215.5,82L217.5,82C215.93,91.86 230.72,92.9 226,104.5L226.5,106L241.5,93L230.5,97L229,94.5L230.92,92.42L227.92,74.58L224.08,70.42L225,63.5L214,51.5L227,45.5L221,45.5ZM512,78.5L512,79.08C476.65,111.8 450.52,152.66 433,197.5L436.92,207.42C425.11,225.23 424.28,250.13 410,265.5C403.08,300.76 393.74,335.76 385.5,371L382.08,366.42L381,352.5L378.08,350.42C374.51,335.5 381.76,319.47 375,305.5L377,303.5L368.5,239L368,266.5L370,267.5L371.5,292L367.5,278C365.7,300.29 370.42,323 375,344.5L374,345.5C381.92,370.53 373.29,397.39 373.5,423L377.5,414L380,414.5C385.54,428.94 361.26,435.42 375,452.5L401.58,459.92L408,456.5L395.08,448.42L395.08,442.58C401.18,437.86 401,430.31 401,423.5L407,418.5C404.28,413.22 399.42,407.75 392.42,402.08L381.5,402L380,395.5C380.72,391.56 382.92,387.42 386.58,383.08L423.42,389.92L427.92,386.42L431.08,375.58C453.39,354.44 437.86,315.41 461,293.5L476.5,277L502.92,258.42L500,250.5L503.5,246L512,244.5L512,106L505.5,107L505.08,103.58L512,97.5L512,92L507,90.5L512,84.5L512,78ZM216,112.5L190.08,135.58L190,139.5L195.5,139L202.5,142L198,155.5L201.5,157L206.5,166L212.5,165L213,167.5L208.08,174.58L209.5,179L213,174.5C222.46,166.62 234.38,174.28 244.5,168L250,169.5L251.5,173L269.5,177L271.5,174L280.5,176L285.5,172L290.5,175L292.5,180L311,164.5L305.58,163.08C297.13,169.89 286.76,162.1 277.5,166L271.42,157.08L258.5,155L253.5,162L244.58,159.08C239.89,163.07 231.6,165.34 227,159.5C227.05,152.67 233.58,149.77 238,146.5L237.5,144L221.42,153.92L217,152.5L220,145.5L213,136.5L217,130.5L211.5,127L201.5,133L199,130.5L216,112.5ZM395,154.5C385.03,159.77 386.24,173.74 376,178.5L377.5,179C383.8,173.33 392.61,170.51 400.5,168L401.5,171L404,157.5L401.5,157L392.5,165L392,162.5L397,156.5L395,154.5ZM242,172.5L240,176.5L245.5,180L249,176.5L242,172.5ZM297,180.5L291.5,188L297,180.5ZM284,188.5L268,199.5L268.5,202L284,188.5ZM361,194.5L363,216.5L360,223.5L362.5,230L364.5,229L366.5,233L368,222.5L365,195.5L361,194.5ZM449.5,194L453.42,194.08L458,199.5L448.08,207.58L446.5,219L440,210.5C441.39,205.22 444.39,199.89 449,194.5L449.5,194ZM256,219.5L256.5,221C259.44,227.39 260.94,232.56 261,236.5L264,236.5L261.5,225L256,219.5ZM293,223.5L269.5,242L290,248.5L281,242.5L281.5,239L293.5,227L293,223.5ZM244,232.5L238,239.5L244,237.5L246,233.5L244,232.5ZM246,238.5L244.5,253L250,242.5L246,238.5ZM335,264.5L336.92,272.42L332.5,275L330,273.5L333.5,277L339,273.5L339.92,267.58L335,264.5ZM109,268.5L100,279.5L93,282.5L95.5,286L107.5,277L113,278.5L110,273.5L112,271.5L109,268.5ZM512,268.5C466.2,276.4 444.08,330.25 452.5,372C448.04,330.63 468.05,280.49 512,270.5L512,268.5ZM280,271.5L278.5,277L270.58,275.92L267.5,272L266,275.5L275.5,277L276,279.5C268.94,283.11 261.28,284.78 253,284.5L266.5,286L279.42,284.08L283,287.5L284.92,276.58L280,271.5ZM317,275.5L323.92,288.58L322,295.5L323.92,298.58L321.5,314C332.17,304.85 329.23,286.39 321,276.5L317,275.5ZM200,314.5L195,318.5L198.5,321L202,314.5L200,314.5ZM320,320.5L318.5,343L321.92,322.58L320,320.5ZM169,334.5L163,336.5L164.5,343L171,334.5L169,334.5ZM301,372.5L301.92,379.42L293,384.5L289.5,388L280,377.5L285,374.5L280.5,374L278,376.5L282.92,383.58L281,388.5L294.42,392.08L297,396.5L299,390.5L305,387.5L301,385.5L306,374.5L301,372.5ZM9,410.5L11.5,422L12,417.5L14.5,416L17,417.5C23.66,444.05 21.09,472.44 27.5,499C31.23,476.42 16.73,455.4 22,432.5L18.5,416L9,410.5ZM11,423.5L15.5,463L11,423.5ZM305,442.5L307,451.5L311.5,456L305,442.5ZM419,457.5L415,461.5L420.5,467L419,457.5ZM14,463.5C9.71,471.77 19.75,479.23 15.5,488L14,463.5Z"/>
  <path fill="#ab424f" stroke="#ab424f" stroke-width="0.5" stroke-linejoin="round" d="M64,0C62.58,46.95 61.09,94.59 63,141.5L65,353.5L68,353.5L66,350.5L66,326.5L72.5,322L74.92,324.58L74.5,345L80.92,321.58L67.5,320L66.08,23.58L68,21.5L68.5,9L70,9.5C74.42,25.47 63.17,49.87 76.92,63.58C74.13,80.84 71.85,99.63 77.92,116.58C67.7,155.36 84.47,194.08 75.08,232.58L76.08,257.42L78,260.5C79.28,276.09 50.01,284.68 73.5,305L75.5,304L79.5,307L82,302.5L78.08,297.42C79.97,292.75 80.64,285.47 80.08,275.58L82.58,273.08L91.5,275L99.5,270L102.5,263L106.5,266L110,255.5L105,239.5L107,228.5L110.92,223.42L111,212.5L117.5,208L128.5,226L131,222.5C130.28,213.89 127.78,205.72 123.5,198L120.5,200C116.22,190.94 113.75,180.81 113.08,169.58L115.5,166L118.5,167L122,134.5L119.5,134L110.5,141L105,132.5L110.92,118.58L104,112.5L108,106.5C107.67,85.7 101.71,63.7 104.92,43.42C99.25,30.41 107.75,16.83 101.5,4L79.5,4L76.5,0L64.5,0ZM324,59.5L322.08,61.58L323,71.5L308.5,77L295.42,69.08L288,70.5L288,72.5C292.28,74.22 295.78,76.72 298.5,80L302.42,79.08C310.47,85.69 317.47,89.69 323.42,91.08L328,95.5C330.61,104.89 332.11,114.39 332.5,124L331,124.5L333.5,128C335.03,106.23 330.48,83.49 328.92,61.58L324,59.5ZM22,62.5C13.27,72.3 11.84,88.44 0,95.5L21.5,67L24,67.5L24,123.5L17.42,121.08L0,125L0,198.5L7,204.5L5,207.5L5.92,213.42L0,218.5L0,290.5L4,290.5L14.92,278.42L15.08,265.58L24.5,254C29.91,264.8 24.75,276.84 28.5,288C28.25,252.02 28.16,216.03 22,180.5L27,117.5L26,64.5L22,62.5ZM367,79.5C363.74,97.38 369.13,115.87 364,133.5L365,131.5C367,122.17 367.67,106.5 367,84.5L371.42,82.08L392.5,114L394,112.5C384.91,103.32 380.17,91.03 373,80.5L367,79.5ZM14,102.5L8.58,104.08L4.42,110.92L0,111L0,114L4.5,114L17,106.5L14,102.5ZM139,103.5C131.02,116.71 131.22,134.53 138.5,148L141.5,147L145.5,151L146.08,160.42L150.5,172L155,165.5L153.92,155.58L149.5,152L149.08,146.58L152.92,141.42L151.42,137.08L146.5,137L146,134.5L150,129.5L149.5,127L145.58,126.92C142.7,123.92 141.71,118.64 145,115.5C142.74,112.25 142.2,108.36 143.92,104.58L139,103.5ZM394,170.5L390,172.5L392,175.5L382.42,182.92L379,182.5L383,177.5L360,186.5L364.58,191.92C377.18,190.13 391,184.47 397,172.5L394,170.5ZM373.5,182L376.5,182L377,184.5L369.42,188.92L366,188.5L366,184.5L373.5,182ZM338,206.5C340.61,212.56 343.78,225.39 347.5,245C351.51,231.61 344.02,217.58 338.5,206L338,206.5ZM167,223.5L165.92,229.42L162.5,235L167.92,230.42L167,225.5L172,224.5L167,223.5ZM345,247.5L334.58,251.08L334.5,256L349,253.5L345,247.5ZM278,250.5L282.5,258L283.5,255L291.5,255L291.5,251L284.58,252.92L278,250.5ZM231,276.5C215.39,289.65 228.95,311.43 222,327.5L216.5,323L215.08,325.58L218.5,346L225,345.5C226.22,363.37 241.55,379.45 258,384.5L256,386.5L262,384.5C256.39,382.11 248.22,374.94 237.5,363L235.5,363C215.8,344.19 232.1,319.37 225.08,297.58L231,276.5ZM335,279.5L344.92,287.58C349.94,297.87 339.67,306.84 342.5,317C344,306.46 352.09,291.6 344.42,281.08L335,279.5ZM27,326.5L25,366.5L22,368.5L20.08,375.42L28.5,394C19.99,372.22 33.84,348.17 27.5,326L27,326.5ZM179,331.5L164,352.5L164.5,355L168.42,354.92L181.92,338.42L182,333.5L179,331.5ZM79,345.5L75.5,352L76.5,358L82,345.5L79,345.5ZM267,349.5L272.58,352.92L278,352.5L276.42,350.08L267,349.5ZM84,358.5L81.5,365L79.5,364L78,370.5L84.92,362.42L84,358.5ZM249,387.5L244,389.5L240,395.5C244.51,419.63 242.87,447.47 231,469.5L231.5,471C241.8,454.31 246.17,433.91 243,414.5L243.08,394.58L247.5,389L254,387.5L249,387.5ZM416,396.5L414,398.5L432.5,407L433.42,398.08L416,396.5ZM441,398.5L443.5,410L446.5,406L444.5,407L446.5,398L441,398.5ZM500,406.5C495.33,409.98 489.6,417.78 482.5,417L472.5,428L469.5,420C462.37,428.66 463.3,439.71 465.92,449.42L450.5,472L465.5,460L469.5,464L487.5,445L488,447.5C479.35,468.04 461.63,482.86 450,501.5L442,500.5L442,498.5L432.5,497L430,494.5L430.5,491L424.08,497.58L426.5,503L433.58,500.08L437.92,501.58L436,512L439.5,512C453.17,501 467.83,486.33 483.5,468L499.5,451L501,457.5L492,466.5C491.09,480.17 479.3,490.52 473,501.5L493.58,475.08L497,475.5L496.5,479L503,463.5L502,457.5L507,453.5L502,448.5C501.24,442.64 507.34,437.55 512,435.5L512,411L505.5,414L503.92,407.58L500,406.5ZM229,412.5C224.71,438.66 211.72,461.77 199,484.5L199.5,487L207,485.5L204,483.5C216.31,468.02 215.46,444.5 228.58,430.08L233.92,431.58L233,414.5L229,412.5ZM496.5,414L499,416.5L491,424.5L481.5,444L479.5,444L478.08,435.58L496.5,414ZM376,458.5L372.5,463L375.58,460.08C388.65,459.02 399.66,471.05 413,467.5L376,458.5ZM33,467.5L31.5,484L29.5,481L31.5,494L33,467.5ZM379,470.5L380,481.5C389.38,489.63 386.59,504.48 396.58,512L400,512L395.08,500.42L396.5,493L401.58,494.92L417.42,491.92L418.5,485L416.42,487.92L405.5,489L388.42,472.08L379,470.5ZM223,481.5C211.66,493.92 187.5,492.47 184,512L191.5,512C191.27,493.51 215.38,495.07 224,482.5L223,481.5Z"/>
  <path fill="#e7c5b1" stroke="#e7c5b1" stroke-width="0.5" stroke-linejoin="round" d="M411,0L411.08,4.42C419.28,11.72 419.15,23.88 427,31.5L426,34.5C433.52,44.93 434.76,59.96 446.42,66.92L452,59.5L425,17.5C420.33,10.83 417.64,5 416.92,0L411.5,0ZM255,56.5L254,59.5L259.92,68.42L253,72.5L256.58,79.92L265,81.5C251,90.17 240.69,97.53 234.08,103.58L236.5,109L253.5,107L250,111.5L249.08,119.42L251.58,122.92L265,124.5L265.08,129.42L278.5,141L286.42,139.92L296.58,131.08L300.5,131L302,143.5L300.5,148C311.22,144.72 319.86,143.69 326.42,144.92L332.5,142L340,146.5L341.5,150L347,150.5L343.42,154.92C326.51,160.9 314.17,175.31 299,184.5L308.5,191L318.5,186L325,197.5L321.5,198L320,201.5L321.5,203L325.5,199C344.02,200.69 358.68,182.55 376,177.5C384.83,170.38 386.94,158.9 394,150.5L397.5,149L404.5,155L406.92,162.42L397,178.5L396.5,185L400.42,182.92C411.53,162.94 425.08,136.65 414.5,114C387.33,101.24 370.53,138.84 346.5,146L344.5,146C342.28,139.48 340.56,132.04 333.5,129C325.3,107.59 306.91,94.91 294.5,76C279.99,72.78 271.75,56.04 255.5,56L255,56.5ZM334.5,167L339,167.5L330.5,172L329,170.5L334.5,167ZM286,195.5L276,204.5L281.42,206.92L288,196.5L286,195.5ZM328,207.5C318.28,211.4 305.06,214.59 307.08,229.58L309,240.5L312.5,246L318.5,244L324.5,248L336.42,247.92L341.5,243C341.78,239.39 338.78,228.39 332.5,210L328,207.5ZM131,210.5C131.06,216.44 132.39,223.11 135,230.5L138.5,233C136.22,223.94 135.39,217.44 136,213.5L131,210.5ZM254,244.5L249,254.5L251.5,255L259,245.5L254,244.5ZM237,254.5L207.42,298.92C199.07,298.66 200.77,310.06 196,313.5L201.42,313.92C217.47,291.97 230.67,275.83 241,265.5L237,254.5ZM314,256.5C301.5,275.97 311.4,301.16 315.5,322L320.92,318.42C319.17,298.41 311.36,278.07 318.92,258.58L314,256.5ZM273,264.5L270,270.5L276.42,273.92L280,267.5L273,264.5ZM512,298.5C499.67,300.51 485.96,309.98 484.92,323.42L478,331.5L486,334.5L476.42,346.92L468.58,345.08C456.27,356.8 452.85,374.17 453,390.5L456.5,392L466.5,385L468.58,386.92L479.42,385.92L489.5,377L512,371.5L512,364C502.28,365.94 495.28,366.44 491,365.5L512,357.5L512,308.5L508,305.5L512,305L512,298.5ZM493.5,313L496.92,314.58L494.5,320L490,317.5L493.5,313ZM310,332.5L309,342.5L311.5,343L313.5,334L310,332.5ZM160,346.5L156,352.5L158,357.5L156.5,362L165.92,349.42L165.5,346L160,346.5ZM155,367.5L154,371.5L156.5,375L159,372.5L155,367.5ZM310,391.5L308,396.5C319.33,404.5 327,411.83 331,418.5C324.38,452.73 348.75,480.62 357,512L382,512C370.82,485.25 371.36,453.45 358,427.5L358,426.5C351.7,414.71 343.17,403.69 330.5,398L329.5,398C324.17,393.98 317.47,390.07 310.5,391L310,391.5ZM177,415.5L176.92,425.42L175.5,430L177.5,430L179.92,421.58L177,415.5ZM452,415.5L449,420.5C456.03,434.09 435.3,447.66 442.5,463L445.5,460C443.54,444.15 463.12,434.28 455.92,416.58L452,415.5ZM436,433.5L433,438.5L434.5,441L439,435.5L436,433.5ZM21,499.5L18.08,503.58L18,512L27,512L26,501.5L21,499.5Z"/>
  <path fill="#d86c67" stroke="#d86c67" stroke-width="0.5" stroke-linejoin="round" d="M58,0L60.08,354.42L62.5,358L58,40.5L58.5,0ZM163,0L163.08,6.42L167.42,7.92L176.42,5.92L180,0L163.5,0ZM183,0L194,0L194.58,6.92L211.42,6.92L212.5,0L183.5,0ZM253,0L257.5,7L260,0L253.5,0ZM326,0C332.89,13.98 334.3,28.54 337,43.5L338,131.5L340.5,134L343,132.5L338,75.5C351.79,55.88 339.44,38.45 335.92,18.58L329,4.5L330,0L326.5,0ZM244,12.5L242.08,19.42L248.5,24L251,19.5L244,12.5ZM415,37.5C410.95,50.13 396.39,47.25 390.42,56.92L379.5,59L378.08,65.42C383.52,75.26 386.85,86.23 394.92,94.58L394.5,98L386,89.5L385.92,85.58L371,67.5L360.5,65L356.08,67.58C358.81,88.92 368.07,114.72 355,134.5L355.5,137L359.5,137C368.6,125.77 357.98,111.78 363,100.5L361,75.5L369.5,72C382.38,82.2 385.6,99.87 397.5,111L407.5,112L412.92,107.42L413.08,101.58L423.92,87.42L423.08,76.58L436,65.5L420.5,39L415,37.5ZM207,46.5C200.06,47.56 193.72,49.89 188,53.5L188.5,55C193.89,51.72 202.72,48.89 215,46.5L207,46.5ZM25,49.5L17,61.5C10.49,69.23 9.37,81.33 0,86.5L0,90C12.27,81.95 13.45,64.67 24.58,55.08L28.92,56.58L31,123.5C28.32,250.33 31.31,376.58 36,503.5L37.5,512C35.85,460.06 37.21,407.79 31.08,356.42C36.81,286.91 30.26,216.53 33,146.5L33,53.5L30.42,49.08L25,49.5ZM174,56.5L164,59.5L164,62.5L168.5,64L172,62.5L169,59.5L177.5,60L178,57.5L174,56.5ZM201,70.5L194,73.5L197.92,79.58C197.23,96.54 180.61,101.86 175,115.5L177.5,119L188.5,117L191.58,119.92L212.5,105L220.5,107L226,103.5L222.5,102L219.92,95.58L213.58,93.08L209.42,97.92L204,95.5C207.01,89.98 213.22,87.37 219,85.5L217.5,82L208,78.5L209,76.5L204.5,70L201,70.5ZM441,74.5L415.08,110.58L415.5,114L441,74.5ZM128,136.5C125.84,149.35 136.21,158.33 138.58,169.92L143.92,172.58L142.5,178L138.5,177L136.08,180.58L136.08,189.42L145.5,199L148.92,188.58L142.5,185L138.5,189L137.08,183.58L139.5,180L144.5,182L146.92,178.42C147.81,161.26 128.51,153 128.5,136L128,136.5ZM181,142.5L157,168.5L157.5,171L162.5,169L165.5,172L188.5,153L190,154.5L157,196.5L160.5,198C174.17,184.33 184.83,175.33 192.5,171L194,172.5C192.33,176.17 189,180.17 184,184.5L185.5,188L195.5,180L197,181.5L191,193.5L199.5,197L200.08,188.58L209,179.5L205,175.5L208,170.5L200,170.5L200.5,162L190,164.5L185.5,169L184,166.5L189.92,161.42L190.08,157.58L200,145.5L197.5,144L195.5,146L191.5,145L187.5,152L183.5,151L180.5,158L176.08,150.58L181,142.5ZM244,226.5L239.5,232L244.5,232L246,228.5L244,226.5ZM125,248.5L113,257.5L116,259.5L114,264.5L117.5,266L119.92,263.42L119.08,255.58L126,250.5L125,248.5ZM264,248.5L262,251.5L269.5,253L273,249.5L264,248.5ZM295,253.5C304.28,276.06 298.11,303.1 311,324.5L311.5,328L313,325.5C299.22,303.81 311.77,273.37 295.5,253L295,253.5ZM282,270.5C290.53,277.51 283.27,289.69 290.92,297.42L284.08,303.58L281.08,322.42L294.5,335L299.58,331.08L292.58,329.92L284.08,322.42L284.08,315.58L289.5,307L291.5,307L297.92,297.42L295.92,283.58L289.5,282L282,270.5ZM245,273.5L236.08,281.58C239.5,309.73 236.53,342.31 256.92,364.58L258.08,373.42C262.36,378.47 267,382.17 272,384.5L272,386.5L259,390.5L263.92,396.58L264.92,404.42L258.08,413.58C260.49,420.89 258.57,429.97 252.08,434.58L252.92,442.42L245,452.5C245.3,459.53 242.37,466.89 237,471.5C234.83,481.64 234.56,496.41 244,503.5L244.5,512L294.5,512L292,502.5L293.5,501L297.58,502.92L307.42,501.92L313,495.5C310.39,483.96 305.52,470.49 296.08,462.42C289.95,453.66 295.76,436.34 285.5,429L281,426.5C283.01,417.39 283.46,406.98 290,399.5L290,397.5L278,395.5L275,391.5L276.92,384.58L271,376.5C282.4,362.78 305.96,375.86 314.5,357L317,360.5L310,370.5L312,372.5L305,383.5L306.5,387C320.63,355.42 343.99,323.35 335,287.5L328,277.5L321,276.5L329.92,287.58C334.34,307.08 329.31,329.62 318,345.5L320.5,345L322,348.5L320,351.5L308,353.5L310,357.5L308.5,360L295.58,360.92L291,358.5L293,354.5L289.58,354.08L290.5,362L300.5,363L302,365.5C288.7,370.59 270.36,368.34 265,352.5L267.58,346.08C280.82,351.05 294.73,344.29 308,348.5C289.1,341.9 264.4,347.73 252.08,327.42C251.11,312.14 238.52,299.69 240.08,283.58L247.5,278L261.58,282.92L273.5,281L275,278.5L267.5,276L268,278.5L262.58,280.92L245,273.5ZM399,295.5C382.47,310.11 395.21,337.25 380,351.5L381.5,353L388.92,344.42C386.63,335.07 388.78,325.09 393,316.5L398.92,311.42L403,296.5L399,295.5ZM294,315.5L291,318.5L294.58,320.92L301,319.5L294,315.5ZM154,351.5L149,353.5L151.5,362L156,353.5L154,351.5ZM444,416.5L438.5,418L433.5,426L444,416.5ZM62,421.5L63.5,446L67,436.5L63.08,424.58L65,422.5L62,421.5ZM371,429.5L371,450.5L369.5,462L374.92,454.42L376,441.5L371,429.5ZM427,439.5L425.92,448.42L422,455.5L427.5,466L434,464.5L434.92,458.58L427.08,449.42L427,439.5ZM62,460.5L62.5,474L64.08,463.58L67,460.5L62,460.5Z"/>
  <path fill="#df7d6e" stroke="#df7d6e" stroke-width="0.5" stroke-linejoin="round" d="M13,0L7.42,5.92L0,7L0,38.5L6.5,40L9.5,36C25.09,35.77 28.25,19.8 36.5,11L36,0L13.5,0ZM55,0L53,14.5L51,15.5L50.92,20.42L40.08,29.58L35.5,40L27.58,41.08L0,80.58L0,86C9.82,81.66 10.42,68.98 17,61.5L25.58,49.08L30.42,49.08L33,53.5L33,146.5C30.22,216.23 36.9,286.32 31,355.5C37.55,407.2 35.21,459.74 38,512L39.5,512C38.48,457.92 39.21,403.21 35,349.5L35,347.5C36.13,343.63 36.97,338.98 34,335.5C44.43,309.45 28.83,280.79 37,254.5L36,202.5C36.77,151.05 35.08,100.46 38.08,49.58L41.5,45L45.5,48L48.5,44C55.07,56.53 56.92,73.77 50,86.5C48.92,124.84 61.73,161.44 56,200.5L55,203.5C55.68,241.28 58.45,279.59 57,317.5L58,354.5L62,357.5L60.08,354.42L58,0L55.5,0ZM330,0L329,4.5L335.92,18.58C339.44,38.45 351.79,55.88 338,75.5L340,116.5L343,132.5L340,134.5L345.5,145L359,137.5L355.5,137L355,134.5C368.07,114.72 358.81,88.92 356.08,67.58L360.5,65L368.42,66.08L385.92,85.58L386,89.5L394.5,98L378.08,65.42L379.5,59L390.42,56.92C396.55,47.06 411.51,50.12 415.5,37L420.5,39L436,65.5L423.08,76.58L423.92,87.42L413.08,101.58L412.92,107.42L408,111.5L411.5,111L414.5,114C416.39,97.25 431.93,85.07 443,73.5C429.54,49.16 411.99,25.08 400.5,0L330.5,0ZM512,0L505.5,0L506.5,6L512,6L512,0ZM345.5,14L354.42,16.92L364,14.5L368,18.5L362.5,26L359.5,25L350.5,33L344.08,25.42L345.5,14ZM5,49.5L0,52.58L0,59L7,49.5L5,49.5ZM512,85.5L507,90.5L512,92L512,85.5ZM217,86.5L204,94.5L209.42,97.92L213.58,93.08L217.42,93.08L223.5,102L222.92,92.58L217,86.5ZM189,135.5L176.08,150.58L180.5,158L183.5,151L187.5,152L191.5,145L195.5,146L197.5,144L200,145.5L190.08,157.58L189.92,161.42L184,166.5L187.5,169L190,164.5L200.5,162L200,170.5L206.5,170L205,177.5L208,177.5L212.5,165L206.5,166L201.5,157L198,155.5L202.5,142L190,139.5L189,135.5ZM127,137.5C117.49,147.02 131.3,151.05 130,158.5L130.08,164.42L135,171.5L135,189.5L143.5,201L145,196.5L136.08,189.42L136.08,180.58L138.5,177L142.5,178L143.92,172.58L138.58,169.92L127,137.5ZM126,248.5L127,251.5L119.08,255.58L119.92,263.42L115.5,266L113.5,264L122.5,271L125.5,263L135,257.5L126,248.5ZM296,253.5C310.6,273.38 300.59,301.34 311.5,323C308.37,303.64 301.63,282.77 305.92,262.58L302,255.5L296,253.5ZM285,276.5C284.91,290.46 283.36,306.77 272.42,316.92C257.85,314.66 248.32,300.07 246,286.5L248.58,284.08C259.81,284.64 267.28,284.11 271,282.5C262.03,287.39 255.82,277.15 247.5,278L240.08,283.58C238.52,299.69 251.11,312.14 252.08,327.42C266.83,347.03 294.87,347.12 317,346.5L298.58,344.92L295.08,342.42L297.5,335L302,331.5L299.5,331L292.5,335L281.08,322.42L284.08,303.58L290.92,297.42C288.36,291.42 286.56,284.28 285.5,276L285,276.5ZM321,277.5C329.8,286.85 331.79,305.16 321.5,314C321.78,324.94 320.94,334.44 319,342.5L318.5,345C329.2,329.02 334.43,306.9 329.92,287.58L321,277.5ZM398,312.5L393,316.5C388.78,325.09 386.63,335.07 388.92,344.42L381,353.5L382.08,366.42L385.5,371C394.42,352.87 392.55,332.14 399,313.5L398,312.5ZM291,355.5L291,358.5L295.58,360.92L308.5,360L309.5,355L306.42,358.92L296.58,358.92L291,355.5ZM314,357.5C305.42,375.82 282.17,362.82 271,376.5L276.92,384.58L275,391.5L278,395.5L290,397.5L290,399.5C283.46,406.98 283.01,417.39 281,426.5L285.5,429C295.76,436.34 289.95,453.66 296.08,462.42C305.52,470.49 310.39,483.96 313,495.5L307.42,501.92L297.58,502.92L293.5,501L292,502.5L295.5,512L328.5,512C332.22,494.04 320.68,478.21 313,463.5L314,458.5L307,451.5C304.64,438.8 301.45,425.68 293.08,415.42L297,396.5L294.42,392.08L281,388.5L282.92,383.58L278,376.5L281.5,375C285.88,369.86 294.74,367.76 299.5,373L306,374.5L301,385.5L307,387.5L305,383.5L312,372.5L310,370.5L317,358.5L314,357.5ZM60,362.5C53.6,370.56 62.31,382.18 57,390.5L58.5,395L63,393.5L60.08,391.42L62,362.5L60,362.5ZM60,399.5C55.85,432.19 60.26,466.69 60.5,500L64.5,460L67,459.5L61.08,422.58L63,419.5L60,399.5ZM377,414.5L372.08,425.58L375.5,437C378.44,427.94 379.94,420.44 380,414.5L377,414.5ZM444,418.5L433.5,428L444,418.5ZM427,443.5L429.08,453.42L434.92,458.58L434,464.5L427.5,466L427,458.5L421,456.5L421.92,465.42L419,467.5L422.5,472L426.5,468L432.5,470L436.92,460.42L436,456.5L429.5,451L427,443.5Z"/>
  <path fill="#bb5058" stroke="#bb5058" stroke-width="0.5" stroke-linejoin="round" d="M62,0L61,175.5L64.5,355L63,141.5C59.93,94.54 63.25,47.05 64,0L62.5,0ZM77,0L79.5,4L101.5,4C107.75,16.83 99.25,30.41 104.92,43.42C101.71,63.7 107.67,85.7 108,106.5L104,112.5L110.92,118.58L105,132.5L112.5,141L122.5,135C122.46,121.95 133.94,110.92 129.08,97.58L131,94.5L128,90.5L128.08,83.58L134,78.5L131.92,69.58L115,52.5L122,38.5L117,33.5L118,20.5C112.41,15.88 115.53,4.69 114.5,0L77.5,0ZM310,0C303.57,10.78 315.84,18.46 315,28.5L313.08,30.58C311.68,41.16 312.38,55.36 301.42,61.92L292.5,63L290.42,61.08C281.19,59.64 272.56,55.94 264.5,50L261,51.5L287.5,72L295.42,69.08L308.5,77L323,71.5L322.08,61.58L326.5,59L328.92,61.58L334.5,129L336.92,127.42C330.28,93.38 335.6,58.67 331,24.5L323.5,0L310.5,0ZM423,0C428.55,21.4 446.59,38.19 454.5,58L473.5,36L463.5,45L450,25.5C454.72,16.51 444.05,4.47 438.08,0L429,0L427.5,7L427,0L423.5,0ZM230,38.5L228,40.5L231.58,43.92L240.5,45L242,42.5L236.42,38.08L230,38.5ZM23,59.5L19.5,66L24.5,62L27,117.5L22,180.5C28.53,216.03 27.24,252.02 29.5,288L28,63.5L23,59.5ZM161,64.5C154.98,83.53 131.89,93.52 133,115.5L133,117.5C120.18,142.38 148.87,154.67 148.92,177.42L147,182.5L152,187.5L145,203.5L147.5,204L168,175.5L156.5,181L154,169.5C169.72,149.54 189.74,134.82 207,116.5L205.5,115C190.72,120.04 186.54,140.84 168.42,141.92L164.08,140.42L166,132.5L158,130.5C167.63,116.24 169.71,98.56 185,87.5L183.5,84L175,84.5L177,77.5C172.56,72.19 170.96,63.81 161.5,64L161,64.5ZM366,76.5L364.08,78.58C365.69,97.19 366.64,116.2 362,134.5L363.5,135C367.96,118 368.15,99.87 365.08,82.58L373,80.5C381.34,91.09 383.26,104.08 394.5,113L395,111.5C383.99,101.69 381.93,85.35 370.42,76.08L366,76.5ZM139.5,103L143.92,104.58C142.2,108.36 142.74,112.25 145,115.5C141.71,118.64 142.7,123.92 145.58,126.92L149.5,127L150,129.5L146,134.5L146.5,137L151.42,137.08L152.92,141.42L149.08,146.58L149.5,152L153.92,155.58L155,165.5L150.5,172L150,165.5L146.08,160.42L145.5,151L138.5,148C131.22,134.53 131.02,116.71 139,103.5L139.5,103ZM171.5,142L174,144.5L168.42,150.92L163,149.5L171.5,142ZM227,173.5L221,180.5L223.5,182L231,173.5L227,173.5ZM167,194.5L160,202.5L160.5,205L170,195.5L167,194.5ZM192,196.5L187.5,209L197,197.5L192,196.5ZM0,199.5L0,218L5.92,213.42L5,207.5L7,204.5L0,199ZM115,208.5L111,212.5L110.92,223.42L105,239.5L110,255.5L108.5,261L117,253.5L118,248.5L135,232.5L131.5,224L128.5,226C124.11,217.72 119.78,211.72 115.5,208L115,208.5ZM155,208.5L151.08,210.58L149.5,217L141.08,218.58L139.08,228.42L141.92,231.58L139.5,238L136.5,237L134,241.5L137,243.5L142.5,240L164,216.5L158.08,213.42L155,208.5ZM185,210.5L183.5,213L179.5,212L173.42,220.92L166.58,222.08L159.5,237C163.78,231.94 166.44,227.28 167.5,223L171.5,224L178,221.5L179.5,215L184.42,214.92L185,210.5ZM158,237.5L156,242.5L148.5,249L157,244.5L158,237.5ZM233,239.5L228.5,250L236,239.5L233,239.5ZM269,243.5L268,247.5L274.5,249L276,246.5L269,243.5ZM292,252.5L291.5,255L283.5,255L285.5,260L294,255.5L292,252.5ZM288,263.5L289,266.5L283,269.5L287.58,272.92L295,270.5L288,263.5ZM213,266.5L202.08,290.58L202.5,294L217,268.5L213,266.5ZM239,267.5C219.33,286.19 230.22,313.92 225,337.5L235.5,363L237.5,363C248.22,374.94 256.39,382.11 262,384.5L261,386.5L265.5,387L266,384.5C248.01,380.5 249.53,357.51 232.5,352L229.08,332.58C236.19,321.65 227.46,306.91 229,295.5L236.5,275L241.58,271.08L252,272.5L239,267.5ZM317,267.5L317.5,275L323,270.5L317,267.5ZM258,270.5L253,274.5L258.42,275.92L262,271.5L258,270.5ZM82,273.5L80.08,275.58C80.64,285.47 79.97,292.75 78.08,297.42L82,304.5L77.5,307L75.5,304L73,305.5L73.5,308L74.5,306L77.5,309C81.82,305.81 88.6,305 91,299.5L81,293.5L90.92,287.42L89,277.5L91,274.5L82,273.5ZM333,278.5L342,288.5C350.05,302.94 332.83,316.94 335.5,331C341.59,317.24 351.65,298.4 342.5,284L335,280.5L333,278.5ZM30,288.5L30,290.5C32.96,325.35 18.62,362.29 30.5,396C24.13,360.89 32.35,323.74 30.5,288L30,288.5ZM76,311.5L76,315.5L71,319.5L80.92,321.58L79.5,339L87,330.5L87.5,316L80.5,315L76,311.5ZM302,321.5L302,324.5L297,325.5L306.42,327.92L307.92,323.58L302,321.5ZM180,326.5L178,328.5L182.5,338L185,331.5L180,326.5ZM85,338.5L79.5,345L81.5,345L81.5,350L85.5,347L87,338.5L85,338.5ZM295,348.5L273,349.5L278,352.5L269.5,352L266.5,349L266,351.5L272.58,354.92L294.5,354L301,350.5L295,348.5ZM309,348.5L307,350.5L313.42,351.92L318.5,348L309,348.5ZM84,354.5L76.08,364.58L77,367.5L79.5,364L81.5,365L84,354.5ZM163,354.5L159,359.5L159.5,362L169,355.5L163,354.5ZM63,363.5L63,390.5L66,390.5L63,363.5ZM254,387.5L247.5,389L243.08,394.58L243,414.5C248.4,448.62 231.12,488.04 197,499.5L193.08,504.58L192.5,512L200.5,512L205.5,507C208.17,501 211.17,496.33 214.5,493L216.5,493C242.37,475.02 240.93,440.5 251,415.5L249.08,411.42L249.92,402.58L246,394.5L248.58,391.08L261,387.5L254,387.5ZM387,387.5L386.5,394C391.33,389.74 399.97,399.36 402.5,399L415.5,403C419.24,410.57 429.16,404.59 432.5,413L437.5,404L440.08,411.42L443.5,410L440,400.5L440.5,397C422.71,395.02 404.73,392.19 387.5,387L387,387.5ZM31,396.5L32.5,440C37.33,426.06 37.92,409.32 31.5,396L31,396.5ZM416.5,396L433.42,398.08L432.5,407L414,398.5L416.5,396ZM496,414.5L478.08,435.58L479.5,444L481.5,444L491,424.5L499,414.5L496,414.5ZM228,430.5C215.77,445.23 215.91,468.05 204,483.5L208.5,485C221.73,475.33 232.39,460.35 233,443.5L233.92,431.58L228,430.5ZM464,431.5C461.2,442.13 461.62,456.49 453,464.5L465.92,449.42L464,431.5ZM228.5,434L231,436.5C233.68,446.62 228.08,455.61 223.5,464L221.5,464L220,453.5L224.08,438.58L228.5,434ZM376,456.5L374,458.5L376.5,458C388.45,457.36 398.41,468.61 411,465.5L376,456.5ZM34,468.5L30.5,492L31,512L34.5,512L34,468.5ZM66,473.5L63,474.5L63.5,486L67,485.5L66,473.5ZM419,485.5L417.42,491.92L401.58,494.92L396.5,493L395.08,500.42L401.58,512L405.5,512L409.5,504L417.58,512L421.42,512L431.5,504L434,506.5L433,512L435.5,512L437.92,501.58L433.58,500.08L426.5,503L424.08,497.58L428,493.5L422.58,493.92L419,485.5ZM479,495.5L469,512L481,496.5L479,495.5Z"/>
  <path fill="#e89479" stroke="#e89479" stroke-width="0.5" stroke-linejoin="round" d="M0,0L0,7L7.42,5.92L13,0L0,0ZM36,0L36.5,11C28.25,19.8 25.09,35.77 9.5,36L6.5,40L0,39L0,52L7,49.5L0,60.5L0,80L19,48.5L27.58,41.08L35.5,40L40.08,29.58L50.92,20.42L51,15.5L53,14.5L54.5,0L36.5,0ZM401,0C405.35,17.31 418.47,30.52 426.5,46L427,44.5C420.16,29.79 407.39,15.8 404,0L401.5,0ZM345,14.5L344.08,25.42L352.5,33L359.5,25L362.5,26L368,18.5L363.42,14.08L354.42,16.92L345,14.5ZM48,44.5L45.5,48L41.5,45C39.22,48.06 37.06,58.22 35,75.5C41.25,117.47 33.03,159.87 36,202.5L37,254.5C28.83,280.79 44.43,309.45 34,335.5C39.98,393.2 37.43,453.3 40,512L60,512L58,404.5L62,397.5L58,394.5L57,317.5C58.48,279.43 55.01,241.33 55,203.5L55.08,199.42C65.15,159.81 46.59,124.89 50,86.5C56.92,73.77 55.07,56.53 48.5,44L48,44.5ZM512,98.5L505.08,103.58L505.5,107L512,106L512,98.5ZM126,138.5L124.08,165.42L137.5,206L141.5,210L143.92,205.42C142.01,199.65 141.81,192.6 135,189.5L135,171.5L130.08,164.42L126,138.5ZM239,152.5L238,155.5L239.5,159L234.58,157.08L231,159.5L233.5,163L248,158.5L239,152.5ZM384,188.5L364,196.5L367,207.5L384,188.5ZM449,194.5C444.39,199.89 441.39,205.22 440,210.5L444.5,219L447.5,220L448.08,207.58L458,199.5L453.42,194.08L449,194.5ZM297,221.5L281.5,239L281,242.5C295,251.17 303.31,257.86 305.92,262.58L306.5,285C307.5,266 306.5,253.33 303.5,247L297.5,250L288.08,244.42C301.2,241.59 293.95,227.42 301,221.5L297,221.5ZM246,233.5L244,237.5L238,240.5L245.5,245L245,239.5L248.5,239L246,233.5ZM501,274.5L487,281.5L504,274.5L501,274.5ZM252,284.5L248.08,287.58C249.07,300.9 258.42,314.99 272.42,316.92C280.41,309.56 283.99,298.14 283,287.5L279.42,284.08L254.58,285.92L252,284.5ZM270.5,288L279,289.5L270,300.5L262,302.5L257.08,296.42L257.08,292.58L270.5,288ZM475,292.5C458.43,313.31 450.24,340.37 453.5,367C456.63,341.38 459.78,314.54 476,293.5L475,292.5ZM321,295.5L320.5,311L323.92,298.58L321,295.5ZM319,322.5L317.5,344L319,322.5ZM298,335.5L295,341.5L298.5,345L301,344.5L298,335.5ZM169,356.5L158,367.5L160.5,368L165.5,362L166.5,364L171,358.5L169,356.5ZM290,371.5L280,377.5L291.5,388L293,384.5L301.92,379.42L298.5,372L290,371.5ZM501,382.5C493.67,385.83 484.33,393.5 473,405.5L473.5,407C479.61,392.05 492.66,388.25 505,382.5L501,382.5ZM301,389.5L299,390.5C300.25,399.44 290.84,406.33 293.08,415.42C300.62,428.77 307.1,442.55 312,456.5L313,463.5C318.34,468.7 323.37,475.69 322.08,483.42L328,491.5L329,512L344,512C336.69,489.1 331.43,466.48 319,445.5L310.5,417L300.08,405.42L303,389.5L301,389.5ZM472,407.5L466.5,423L472,407.5ZM444,420.5L433.5,430L444,420.5ZM465,423.5C457.75,437.31 451.22,451.42 447,466.5L447.5,469C454.89,454.98 456.58,438.49 466,425.5L465,423.5ZM428,444.5L429.5,451L436,456.5L436.92,460.42L432.5,470L426.5,468L422.5,474L426.5,471L429.5,480L431.5,480L439,455.5L432,451.5L428,444.5ZM420,476.5L421.08,487.42L425.5,492L429,490.5L423.08,488.42L420,476.5ZM440,479.5L433.5,482L430.5,489L440,479.5Z"/>
  <path fill="#d9a49a" stroke="#d9a49a" stroke-width="0.5" stroke-linejoin="round" d="M227,45.5L214,51.5L225,63.5L224.5,71L227.92,74.58L230,93.5L232.5,96L241.5,93L242,94.5C229.29,105.73 213.06,111.82 203,126.5L203.5,129L207.5,130L213.5,127L217,130.5L213,138.5L220,147.5L217,152.5L221.42,153.92L237.5,144L238,146.5L227,158.5L230.5,160L234.58,157.08L239.5,159L238,153.5L239.5,152L248.5,159C256.41,158.77 262.51,149.16 271.42,157.08L277.5,166C286.76,162.1 297.13,169.89 305.58,163.08L311,164.5L292.5,182L297.5,180L268.08,209.58L267.92,213.42L263,220.5L264,236.5L261,236.5C260.94,232.56 259.44,227.39 256.5,221L246,232.5L250,244.5L244.5,253L246,245.5L239,241.5C228.09,245.73 224.51,258.91 218,267.5L219.5,272L216.5,271L201,301.5L202.5,302C217.16,291.6 225.5,272.29 234.5,257L238.5,254L241.5,265L251,255.5L249,254.5L254.5,244L259.5,248C270.24,242.32 275.56,230.14 287.5,226L294.5,222L301,221.5C293.95,227.42 301.2,241.59 288.08,244.42L297.5,250L303.5,247C314.5,271.37 302.54,300.95 313.92,326.42C310.72,327.85 306.97,330.06 306.5,334L301.5,333L299,335.5L299.5,344L301.5,337L305,342.5L301,344.5C306.12,347.7 311.86,345.18 317,343.5L318.5,322L315.5,322C312.44,301.47 299.93,274.78 314.5,256L316.5,256L320.5,263L324,255.5L333,250.5L325.5,251L318.5,244L312.5,246L309,240.5L307.08,229.58C303.53,209.56 321.18,215.31 329.5,207C336.33,217.39 342.66,231.16 341.5,244L337,248.5L343.92,239.58L334.08,201.58L338,198.5L325.5,199L321.5,203L320,201.5L321.5,198L325,197.5L318.5,186L306.5,191L299,183.5C314.94,175.58 326.35,160.68 343.42,154.92L347,150.5L340,148.5L340,146.5L330.5,142L326.42,144.92C319.86,143.69 311.22,144.72 300.5,148L302,143.5L300.5,131L296.58,131.08L286.42,139.92L278.5,141L265.08,129.42L265,124.5L251.58,122.92L249.08,119.42L250,111.5L252.5,108L236.5,109L234.08,103.58C240.69,97.53 251,90.17 265,81.5L256.58,79.92L253,72.5L257.42,70.92L259.92,65.58L254,57.5L261.42,56.08L268,58.5C256.02,50.64 242.03,44.95 227.5,45L227,45.5ZM396,149.5L388.5,161L395.5,154L397,155.5L392,162.5L392.5,165L401.5,157L404,157.5L403.5,169L406.92,162.42L404.5,155L396,149.5ZM334,167.5L329,170.5L332.5,172L339,167.5L334,167.5ZM396,178.5C390.62,182.18 384.38,187.27 382.5,194L375.5,201C381.74,194.26 397.64,188.7 396.5,178L396,178.5ZM286.5,195L288,196.5L281.42,206.92L276,204.5L286.5,195ZM364,229.5L369,290.5L371.5,292L368,247.5C368,240.17 366.83,234 364.5,229L364,229.5ZM280,267.5L276.42,273.92L269.5,271L268,272.5L270.58,275.92L278.5,277L280,267.5ZM114,268.5L110,275.5L113.5,278L116,275.5L115,271.5L118,269.5L114,268.5ZM512,271.5L495,279.5L512,274.5L512,271.5ZM315,273.5L319.5,307L323,289.5L315,273.5ZM492,280.5C487.33,282.5 482,286.5 476,292.5L476.5,294C480.86,287.16 488.22,283.92 495,280.5L492,280.5ZM270,288.5L257.08,292.58L257.08,296.42L262.58,302.92L270,300.5L279,289.5L270,288.5ZM194,319.5L182,321.5L188.5,330L191.5,330L198,319.5L194,319.5ZM176,331.5L162.42,344.92L157.58,345.08L155,350.5L160.58,346.08L165.5,346L166.5,349L177,333.5L176,331.5ZM310.5,332L313.92,334.58L311.5,343L309,342.5L310.5,332ZM181,341.5L170,355.5L170.5,358L181,341.5ZM115,356.5C113.72,363.89 113.56,369.06 114.5,372L116.92,357.58L115,356.5ZM155,360.5L157.5,369L161,368.5L158,367.5L158,362.5L155,360.5ZM305,388.5L302.08,390.58L300.08,405.42L310.5,417L319,445.5C332.57,466.24 334.85,490.29 345.58,512L357,512L349,489.5C337.67,475.52 339.88,453.92 328,440.5L330,437.5C320.58,425.95 321.7,408.06 307,400.5L310.58,391.08L315,390.5L305,388.5ZM14,416.5L12,423.5C14.88,453.05 18.81,482.68 16.08,512L21.5,499L26,501.5L27,512L31,512C22.19,481.98 23.06,448.67 17,417.5L14,416.5ZM179,427.5L170,439.5L171.5,442L177,442.5L175,439.5L182,435.5L181.5,433L178,433.5L179,427.5Z"/>
  <path fill="#92344a" stroke="#92344a" stroke-width="0.5" stroke-linejoin="round" d="M68,9.5L68,21.5L66.08,23.58L67.5,320L73.5,316L73,304.5C50.62,284.45 79.27,275.92 78,260.5L76.08,257.42C81.8,209.8 69.93,163.71 77.92,116.58C71.85,99.63 74.13,80.84 76.92,63.58C62.37,50.26 80.54,22.44 70,9.5L68,9.5ZM21,67.5L15,78.5C8.66,84.2 9.08,95.06 0,98.5L0,110.5L4.42,110.92L8.58,104.08L14.5,102L17,106.5L4.5,114L0,113L0,124.5L17.42,121.08L24,123.5L24,67.5L21,67.5ZM299,79.5C306.72,90.44 313.56,98.28 319.5,103L323.5,101L329.92,112.58L328,119.5L332.5,124C332.11,114.39 330.61,104.89 328,95.5L323.42,91.08C317.47,89.69 310.47,85.69 302.42,79.08L299,79.5ZM368,82.5C363.39,98.8 372.33,115.66 365,131.5L366.5,133L369,131.5L367,129.5C369.72,116.61 375.35,100.85 368,88.5L369.5,85L375.5,89L368,82.5ZM376,89.5L387,105.5L376,89.5ZM115,166.5L113.08,169.58C113.75,180.81 116.22,190.94 120.5,200L123,199.5C119.67,185.5 117.97,174.86 117.92,167.58L115,166.5ZM389,173.5L379,182.5L382.42,182.92L392,173.5L389,173.5ZM373,182.5L366,184.5L366,188.5L369.42,188.92L377,184.5L376.5,182L373,182.5ZM341,196.5L342,201.5L336.5,200L335,201.5C346.81,211.45 346.19,229.93 349.5,243L350.92,237.58L346,209.5L343,206.5L345,198.5L341,196.5ZM197,199.5L189,209.5L198,207.5L196,202.5L202,200.5L197,199.5ZM353,210.5L351,214.5L358.5,221L353,210.5ZM178,222.5L167,225.5L167,231.5L169,231.5C169.47,226.8 178.18,227 179,223.5L178,222.5ZM347,245.5L346,249.5L349,253.5L337,255.5L349.42,255.92L352,252.5L347,245.5ZM279,247.5L278,249.5L281.5,252L291,251.5L279,247.5ZM23,254.5L15.08,265.58L14.92,278.42L4,290.5L0,291.5L0,339L12.42,336.92L14.92,334.42C14.92,327.19 13.61,319.56 11,311.5C14.62,300.88 18.19,290.3 24.5,281C31.24,292.44 24.59,306.2 28,318.5C24.67,325.17 23,334.83 23,347.5C20.16,364.35 11.75,385.35 28.92,398.58L30.5,422C38.04,403.87 24.83,390.82 20.08,375.42L22,368.5L25,366.5C21.31,346.08 29.58,328.33 29,308.5L29,306.5C28.77,289.09 27.99,271.6 25,254.5L23,254.5ZM373,254.5L372,266.5L375.5,285L378,273.5L373,254.5ZM250,256.5L242,264.5L249,268.5L247.08,261.58L249.58,259.08L263,256.5L250,256.5ZM102,263.5L99,270.5L107,266.5L102,263.5ZM334,264.5L323.5,269L319.5,265L325.58,271.92L332,271.5L334,264.5ZM256,266.5L255,271.5L252,272.5L255.5,273L257.5,268L263.58,271.92L268,271.5L256,266.5ZM340,274.5L335,277.5L338.58,280.92L344.42,281.08C346.14,284.69 347.17,291 347.5,300C349.38,292.73 351.26,283.01 345.5,277L342.5,278L340,274.5ZM226,281.5L223,288.5C223.74,296.7 214.83,303.54 221,312.5L216.5,312L216.5,323L222,327.5C227.15,312.35 219.87,295.65 226.5,281L226,281.5ZM157,306.5L155,317.5L163,317.5L161,315.5L163,311.5L157,306.5ZM169,312.5L168.5,320L174,313.5L169,312.5ZM69,321.5L66,326.5L67.5,353C77.18,347.38 76.02,333.55 74.92,324.58L69,321.5ZM355,330.5C350.72,337.09 353.31,345.52 354.92,352.42C353.03,355.19 351.39,363.22 350,376.5L349,379.5C348.39,390.78 349.06,399.44 351,405.5L353.5,407L357.5,402L365.5,403L372,393.5L370,383.5L365.5,376C355.4,372.61 363.31,354.61 359,349.5L357,343.5L359,331.5L355,330.5ZM216,340.5L218,358.5L220.5,363L225.5,360C228.17,365.33 236.33,373.17 250,383.5L249,386.5L258,384.5C241.55,379.45 226.22,363.37 225,345.5L218.5,346L216,340.5ZM74,352.5C71.07,355.3 66.78,356.39 66,361.5L66.5,389L69,387.5L67,385.5L68,379.5L71,379.5L71.5,386L73.92,383.42C73.36,370.19 74.06,359.89 76,352.5L74,352.5ZM82,366.5L78.5,380C80.78,376.28 82.11,371.61 82.5,366L82,366.5ZM245,387.5L237.08,389.58L239,402.5C234.28,407.83 246.85,417.35 240,421.5L240,423.5C240.46,438.17 238.09,453.52 231,466.5L231.5,469C242.49,446.48 244.76,419.68 240,395.5L244,389.5L249,387.5L245,387.5ZM512,392.5C501.71,404.1 482.65,400.45 475.5,416L473.5,413L469,426.5L472.5,428L482.5,417C489.84,417.8 495.7,409.49 500.5,406L502.5,406L505.5,414L512,410.5L512,392.5ZM66,394.5L67.5,402L73,398.5L68,396.5L66,394.5ZM0,395.5L19.5,408L23.5,417L23.92,412.58L19.42,403.08L0,395ZM444,399.5L444.5,407L448,402.5L444,399.5ZM229,407.5L225.08,413.58C222.34,439.5 207.65,463.51 194,485.5L194,487.5L199.5,487L199,484.5C211.22,462.03 225,439.43 228,413.5L229.5,412L232.5,414L229,407.5ZM512,436.5L502,448.5L507,453.5L502,457.5L503,463.5L501,465.5C497.64,481.83 492.55,498.11 483,512C492.83,502.57 502.51,489.41 503,475.5L502,474.5C507.27,470.08 504.79,460.6 512,457.42L512,436.5ZM485,445.5L469.5,464L463.5,460L447.5,477L458.5,468L459,475.5L462,478.5L453.5,489L440.5,491L439,487.5L442.5,481L430,494.5L442,498.5L442,500.5L450,501.5C461.47,482.3 481.41,467.28 488,445.5L485,445.5ZM31,451.5L31,471.5L28,472.5L31.5,484L31,451.5ZM498,451.5L485.5,468L483.5,468C473.16,486.88 455.85,498.72 440,512L466.5,512C496.22,503.66 479.09,468.99 501,457.5L498,451.5ZM67,455.5L69.5,473L72,467.5L67,455.5ZM375,460.5L371.08,464.58L382.08,507.42L387.58,512L396,512C387.42,504.43 389.48,491.27 381,483.5L378.08,471.58L383.42,470.08C394.81,471.83 396.22,484.47 405.5,489L416.42,487.92L419.5,481L414.42,484.92C404.76,484.65 400.18,475.3 396.5,468L415,469.5L375,460.5ZM11,474.5L0,477.58L0,485.42L12,496.5C7.57,492.46 2.95,487.08 7,480.5L11,474.5ZM474.5,486L476,493.5L469,501.5L460,501.5L474.5,486ZM206,490.5C196,494.5 186.67,501.67 178,512L183.5,512C185.88,498.75 198.75,495.44 209,490.5L206,490.5Z"/>
  <path fill="#ae7081" stroke="#ae7081" stroke-width="0.5" stroke-linejoin="round" d="M189,54.5L185,57.5L188.5,67L190.5,67L193,72.5L204.5,70L209,76.5L208,78.5L213.5,80L212.92,70.58C208.92,59.48 199.34,59.46 191,56.5L189,54.5ZM505,80.5C478.06,107.43 457.56,140.82 441,174.5C423.46,209.82 410.21,247.62 399,285.5L399.5,295L403.5,296C407.78,280.94 409.94,270.78 410,265.5C424.28,250.13 425.11,225.23 436.92,207.42L433,197.5C449,153.23 476.94,115.68 507,80.5L505,80.5ZM238,168.5L235.42,170.92C224.62,166.42 212.91,172.54 207,181.5L204,192.5L207.5,194L224,184.5L221,180.5L229.5,172L239,174.5L239.08,179.42L244.58,182.92L259,176.5L258.5,174L250.5,171L249.5,173L244.5,168L238,168.5ZM242.5,172L249,176.5L243.5,180L240,176.5L242.5,172ZM358,187.5L353,189.5L355,198.5C352.87,199.53 349.9,198.96 348.5,197L348,198.5C351.08,206.28 358.14,212.71 359,221.5L363,216.5L359,196.5L363,193.5L358,187.5ZM274,198.5L268.5,202L267.5,199L261.5,206L261.5,200L257,206.5L259.5,207L260.92,215.42L257,218.5L261.5,225L263,221.5L261,217.5L266.92,212.42L266,205.5L270.5,207L277,199.5L274,198.5ZM172,205.5L171,207.5L182.5,213L187,208.5L181.42,205.08L172,205.5ZM225,219.5L229.5,235L231,230.5L228,219.5L225,219.5ZM234,234.5L225.5,248L234.92,237.42L234,234.5ZM152,236.5L142.5,245L141.5,254L145,250.5L143,247.5L147.5,247L158,236.5L152,236.5ZM502,245.5L500,250.5L502.92,258.42L474.5,277L461,293.5C437.81,315.51 453.51,354.15 431.08,375.58L427.92,386.42L423.42,389.92L391.42,383.08L384,385.5L384.5,388L390.42,385.08C407.85,395.31 428.59,394.53 447.5,399C454.53,355.21 444.47,296.24 495.5,274L512,267.5L512,245L502,245.5ZM219,256.5L214.08,264.58L214.5,268L219,256.5ZM165,268.5L163.08,280.42L166.5,284L170,280.5L167.5,280L165,268.5ZM322,271.5L321,275.5L330,275.5L329.5,273L322,271.5ZM106,277.5L83,293.5L91.5,297L97,292.5L96,290.5L98.5,289L100.5,292L108,288.5L100.5,288L99,285.5L111,279.5L106,277.5ZM127,279.5L130.5,284L136,282.5L135.5,280L127,279.5ZM170,285.5L162,289.5L166.42,291.92L170,285.5ZM170,292.5L174.5,302L177,298.5L170,292.5ZM128,293.5L122,297.5L124,303.5L121,308.5L124.92,312.58C126.36,321.81 129.39,330.78 134,339.5L141.5,348L145,347.5L145.5,339L142.5,342L133.5,317L135,327.5L132.5,329L130.5,323L129.5,325L128,321.5C128.61,316.89 127.64,309.25 125.08,298.58L131,293.5L128,293.5ZM93,301.5L77.5,309L74.5,306L75.5,311L80.5,315L87.42,315.92L91,305.5L97,301.5L93,301.5ZM376,304.5L375,305.5C382.22,319.98 373.06,336.87 379.5,352L381,350.5C375.04,335.77 384.73,318.65 376.5,304L376,304.5ZM173,330.5L163,335.5L167.42,335.92L176,330.5L173,330.5ZM85,332.5L75.5,347L88,332.5L85,332.5ZM154,343.5C148.36,348.25 142.33,355.48 144,363.5L147.5,371L150.5,371L154.5,376L156,374.5L154.5,364L150.5,361L147.5,364L149,353.5L155.92,349.42L158,343.5L154,343.5ZM74,347.5L62,358.5L63.5,361L74,347.5ZM85,347.5L73.08,364.58L75.5,371L76.08,364.58L85.92,352.42L85,347.5ZM116,350.5L113,391.5L122.58,402.92L126,402.5L122,396.5L127,396.5L121,389.5L115.08,373.58L120,370.5L118.92,351.58L116,350.5ZM134,362.5L140.92,375.58L139.5,380C132.83,374.67 128.17,369.67 125.5,365L122.5,364L124.08,375.42C128.66,378.16 133.64,386.91 140.5,386L150.5,396L151,388.5L159,386.5L150.5,384L146.5,373L144.5,376L140.5,362L134,362.5ZM139,388.5L130,397.5L133,401.5L131,404.5L132.5,405L142,389.5L139,388.5ZM159,393.5L155.42,400.92L150,402.5L147,407.5C149.72,414.11 152.36,418.47 154.92,420.58L154.92,438.42L150,441.5L154.92,449.58L148,454.5L154.42,456.08L162,461.5L158.08,456.42L160.5,449L171.5,460L175,456.5L171.5,455L166.5,447L164.5,448L162.5,439L171.5,444L173,442.5L170,435.5L172,434.5L165,424.5L165.5,418L159,405.5L160.5,404L165.5,409L167,406.5L162,399.5L166,395.5L159,393.5ZM383,396.5L381,399.5C392.51,399.4 403.65,407.53 407,418.5L401,423.5C401,430.31 401.18,437.86 395.08,442.58L395.08,448.42L408,456.5L401.58,459.92L375,453.5L376.5,456C390.19,455.77 400.63,467.17 414.5,467L418,467.5L415,461.5L421.92,455.42C419.13,443.33 423.02,430.58 430.92,421.42L431.5,413L426.42,408.08C422.47,407.36 418.83,405.67 415.5,403L383,396.5ZM0,398.5L0,413.5L5.5,417L12.5,469C15.2,450.99 12.73,429.43 8,411.5L11.5,410L18.5,416L22,432.5C22.66,456.08 24.56,480.6 30.5,503L24,437.5C28.93,420.42 16.76,402.18 0,398ZM105,424.5L99,436.5L104.92,434.42L107,424.5L105,424.5ZM65,441.5L64,449.5L66.5,455L68,453.5C65.44,451.19 65.04,446.56 68,444.5L65,441.5ZM177,441.5L177.5,444L188,445.5L186.5,443L177,441.5ZM144,461.5C143.3,471.94 152.56,482.02 162.5,484L164,483.5C158.63,475.48 152.46,466.89 144.5,461L144,461.5ZM13,470.5L10.08,486.42L13,489.5L15.5,508C21.93,494.88 10.3,483.26 13.5,470L13,470.5ZM156,484.5L155,486.5L159.5,494L162,493.5L156,484.5ZM485,493.5L472.08,507.58L471,512L479.5,512L486,498.5L485,493.5ZM125,498.5L131.5,512L132,507.5L128,498.5L125,498.5Z"/>
  <path fill="#752342" stroke="#752342" stroke-width="0.5" stroke-linejoin="round" d="M500,71.5L495.5,77L498,77.5L499.5,84L502,82.5L499.08,76.58L502,72.5L500,71.5ZM369,85.5L368,87.5C373.37,100.86 370.28,116.17 367,129.5L369.5,131C372.6,117.57 369.05,102.54 371.5,89L390.5,115L391,112.5C382.12,105.29 378.73,94.16 372.42,85.08L369,85.5ZM322,101.5L320,103.5C323.94,107.56 326.78,112.72 328.5,119L330,118.5C330.8,112.12 328.68,104.07 322.5,101L322,101.5ZM458,138.5L450,144.5L448,154.5L458,138.5ZM346,211.5L350.92,241.42L348.08,245.58L352,252.5L349.42,255.92C338.91,253.97 327.96,257.69 320,264.5L323.5,269L330,266.5L323,263.5L328.5,260L330.5,265L338.42,262.08L341.92,267.58L343.5,277L345.5,277C355.45,287.32 343.37,302.05 345.5,313C351.06,302.57 355.07,288.96 350,277.5L351,276.5C345.58,271.88 338.55,269.39 338,259.5L339.5,258L347.58,261.92L351.5,261L354.92,253.58L351.08,248.42C357.26,236.09 344.19,226.16 348.5,214L350,213.5L346,211.5ZM393,212.5L389.5,216L388.92,223.42L381,236.5L374.5,241C370.83,228.67 369.5,219.67 370.5,214C368.89,218.39 368.72,224.56 370,232.5L375.08,262.42L380,266.5C379.94,271.11 378.28,277.78 375,286.5L376.5,295C382.04,267.64 394.42,242.13 398.92,214.58L393,212.5ZM183,217.5C180.28,221.44 173.28,227.78 162,236.5L161,239.5L175,230.5L175.5,228L181,225.5L181.5,219L186,219.5L183,217.5ZM156,246.5L149.5,255L157,248.5L156,246.5ZM269,254.5L249.58,259.08L247.08,266.42L252.5,272L255,271.5L256.5,266L263.5,267L264.5,269L277,261.5L275.5,257L281,257.5L276.5,255L272.5,257L269,254.5ZM362,254.5C361.64,275.95 355.75,296.43 353,317.5L345.08,355.42L348,359.5C348.58,376.66 341.62,393.93 349.5,410L348,410.5L353.5,417L358.5,412L363.58,418.92L374,412.5L375,397.5L371.5,395L365.5,403L357.5,402L353.5,407L351,405.5C349.06,399.44 348.39,390.78 349,379.5L350,376.5C351.39,363.22 353.03,355.19 354.92,352.42C353.32,345.36 350.44,336.51 355.5,330L359,331.5L357,343.5L359,349.5C363.31,354.61 355.4,372.61 365.5,376L370,383.5L369.08,389.42L373.5,394C377.96,382.14 376.59,368.97 373.5,357L374,369.5L371,369.5L362,313.5L365.5,285L361,272.5L362.5,271L365.5,273L365.92,260.58L362,254.5ZM268.5,257L271,258.5L266.5,266L256.5,263L252.5,269L250,265.5L252.58,262.08L268.5,257ZM105,267.5L94,273.5L97.5,277L101.5,273L108,271.5L105,267.5ZM23,281.5C26.01,295.2 9.36,298.85 11,311.5C13.61,319.56 14.92,327.19 14.92,334.42L12.42,336.92L0,339L0,357.5L16.92,365.58C10.19,376.81 21.41,385.63 18.92,396.42L13.58,397.92L5.42,392.08L0,392L0,394.5L20.92,404.58L25.5,423L26.5,417L30.5,434L28.92,398.58C6.31,379.45 28.24,352.06 23,328.5L26.92,323.42C14.01,321.77 35.3,290.18 23.5,281L23,281.5ZM221,287.5L219,289.5L219.92,295.42C216.69,303.53 215.22,309.39 215.5,313L221,312.5C214.83,303.54 223.74,296.7 223,288.5L221,287.5ZM158,303.5L153,310.5L157.5,306L163.5,311L167.5,303L163.5,306L158,303.5ZM23.5,308L25.92,320.42L23.5,322L21.08,318.42L23.5,308ZM144,321.5L144.5,327L149,325.5L144,321.5ZM204,334.5L200.5,367L214,383.5C217.94,389.56 220.61,395.89 222,402.5L219.08,410.58L221.92,422.42C212.17,444.79 203.11,467.43 190,488.5L192.58,490.92L199,489.5L194,487.5L194,485.5C209.57,462.51 221.51,436.68 227,409.5L229.5,407C238.22,417.53 236.24,434 234,446.5L227.5,467L229.5,470C237.11,455.9 240.61,439.49 240,423.5L240,421.5C246.85,417.35 234.28,407.83 239,402.5L237.08,389.58L250,383.5C236.33,373.17 228.17,365.33 225.5,360L220.5,363L216.5,350L215,359.5L212,359.5L207.92,336.58L204,334.5ZM190,342.5L190.5,352L193,351.5L192.92,343.58L190,342.5ZM337,367.5C333.72,372.22 331.75,378.53 331.08,386.42L334.5,389L336.92,385.42L336.08,376.58L338.92,373.42L337,367.5ZM215.5,368L218,369.5L217.5,379L215.5,368ZM181,373.5C177.67,382.17 176,390.83 176,399.5L174,403.5L177.5,410C186.38,400.82 186.03,384.17 181.5,373L181,373.5ZM68,379.5L67,385.5L69.5,387L71,379.5L68,379.5ZM190,385.5C182.4,402.95 194.82,423.63 184.5,440L183,441.5L197.5,444L198.5,450L184.5,446L183,450.5L188.5,450L191.5,454L195.5,451L202,451.5L202,444.5C194.54,426.56 193.86,405.04 192,385.5L190,385.5ZM231.5,388C233.11,390.39 234.28,395.56 235,403.5L239,423.5L236,425.5C235.94,419.56 233.31,407.92 228.08,390.58L231.5,388ZM508,389.5C498.69,398.32 483.64,398.09 477.5,411L477.5,406L474.08,411.58L475.5,416C484.8,403.58 500.24,399.68 512,391.5L512,389L508,389.5ZM24.5,402L27,402.5L27.5,413L24.5,402ZM208,405.5L208.5,429C215.27,422.89 213.94,412.97 211,405.5L208,405.5ZM30,440.5L29.92,448.42L27.5,450L28,471.5L31,471.5L30,440.5ZM512,458.5L507.5,462L503,475.5C502.93,489.29 492.26,500.93 485,512L488.5,512L495.58,503.08L499.42,503.08L499,512L512,512L512,501L502,501.5L512,491.5L512,476.5L508,468.5L512,465.5L512,458ZM396,468.5L407,482.5L414.42,484.92L418.5,478L412.5,482L405,472.5L412.42,471.08L418.5,476L419,473.5L414.5,470L396,468.5ZM457,468.5L440,488.5L440.5,491L453.5,489L462,478.5L459,475.5L457,468.5ZM0,486.5L0,494.5L5,496.5L4,498.5L10,502.5L0,486ZM474,486.5L460,501.5L469,501.5L476,493.5L474,486.5ZM202,490.5L187,496.5L175.5,512L177.5,512C186.5,501.67 196,494.5 206,490.5L202,490.5Z"/>
  <path fill="#6b2a59" stroke="#6b2a59" stroke-width="0.5" stroke-linejoin="round" d="M495,77.5L484.08,89.58L477.5,111C485.5,99.67 493,90.83 500,84.5L498,77.5L495,77.5ZM447,155.5L443.08,158.58L435.5,183C443.45,175.61 439.95,161.26 450,155.5L447,155.5ZM278,176.5C271.33,177.83 265.67,180.5 261,184.5L263.5,192L275,180.5L287,177.5L278,176.5ZM235,183.5C230.06,185.22 224.56,189.06 218.5,195L217,194.5L216.5,190C205.78,197.94 198.94,202.11 196,202.5L198,207.5L189,210.5L184.5,226L184.5,229C193.41,240.46 179.41,249.03 180.5,260L174.5,255L174,261.5L179.5,262L182.5,265L185.5,252L191.5,257L192.5,253L195,252.5L188,246.5L195,238.5L195.5,230L191.5,236L187.08,230.42L188,222.5L197.5,214L212.5,229L219.5,240L226.92,231.42L225.92,222.58L223.5,220L221.5,223L219,219.5L220.5,211L220,203.5L225,200.5L223.5,198L220.5,200L219,198.5C220.61,192.84 229.67,192.27 232.5,189L236,191.5L229.92,206.42L222.5,209L222,211.5L226.5,215L236,207.5L234.5,200L233.5,202L241,185.5L235,183.5ZM433,186.5C426.14,195.59 419.6,208.41 419.5,220L433,186.5ZM250,188.5L237.5,201L250.5,191L251.5,194L254,190.5L250,188.5ZM248,195.5L244.08,199.58L243,205.5L239,209.5L248.42,211.08L250.5,216L257,206.5L253.5,204L253,209.5L250,209.5L250.92,202.58L246,200.5L250,195.5L248,195.5ZM217.5,201L216,211.5L211.58,212.92L210.5,206L217.5,201ZM352,217.5C356,222.83 358.67,228.83 360,235.5L363,233.5L359,221.5L352,217.5ZM217.5,226L221.5,226L224,230.5L217,231.5L217.5,226ZM171,231.5L172.5,244L173.5,237L176.5,242L178,239.5L174,235.5L175.5,231L171,231.5ZM208,231.5L206.08,234.58L206.5,244L208.5,238L214,242.5L213.5,248L212.5,245L208.5,247L204.5,244L207.5,253L211.5,249L212.5,255L213.5,252L215.5,253L221,244.5L219.5,242L215,244.5L214.92,238.58L208,231.5ZM412,236.5C409.39,241.89 407.56,248.39 406.5,256L412,236.5ZM165,237.5L148,256.5L148.5,259L152.42,258.92L159.5,251L161,252.5L159,259.5L161.5,260L168.5,249L164.5,252L163.5,249L161.5,251L165.5,241L166.5,243L165,237.5ZM151,261.5L139.08,270.58L140.5,275L143.5,273L146,274.5L146.08,288.42L154.58,297.92L161,295.5L148,288.5L149.5,287L155.5,289L156,286.5L151.08,280.42L151.08,275.58L159,268.5L157.5,261L155,262.5L157,266.5L155.5,268L153.5,264L151.5,266L153,261.5L151,261.5ZM270,263.5L266,270.5L268.5,271L272,265.5L270,263.5ZM375,263.5L378.5,274L380,266.5L375,263.5ZM123,271.5L122,273.5L126,281.5L115.5,288L117.5,275L111.5,281L107.5,280L103,286.5L110.5,285L111,286.5C107.94,289.44 103.61,291.78 98,293.5L98.5,296L102.42,296.08L109.5,301L117.5,295C118.76,289.34 123.51,285.21 129,283.5L125,277.5L126,273.5L123,271.5ZM362,271.5L362.08,279.42L366.5,283L365.5,273L362,271.5ZM171,282.5L168.5,295L174,289.5L172,285.5L174,283.5L171,282.5ZM135,291.5L128,297.5L132.5,313L138,305.5L134.08,302.42L135,291.5ZM118,296.5L106.5,307C106.11,311.94 104.11,318.61 100.5,327L96.5,330L94,322.5L95.08,309.58L99,304.5L97.5,303L91.08,306.58L91,326.5L89.5,331L92,331.5L89,334.5C86.49,351 86.72,368.28 77,382.5L79.5,385L82.5,380L89,403.5L91.5,404L94.5,400L95.5,405L98.5,395L103.5,404L103.5,395L112.5,401L113,403.5L107.5,404L103,408.5L96.5,409L96.08,412.42L102.92,415.58L102.5,424L105.5,416L108,417.5L107,422.5L110.5,424L113.5,431L111,416.5L113.58,412.08L116.5,411L114,409.5L117,407.5L114.08,404.42L117,396.5L112.5,390L107.5,394L102,389.5L105,377.5L107.5,377L111.5,382L111.58,360.08L115,359.5L116.5,344C121.91,343.51 127.15,347.15 130.5,351L132,350.5L117,331.5L120.92,328.42L118.5,314L116.5,314L112,327.5L100,338.5L103,341.5L100.5,343L99.5,341L97.5,349L94,347.5L93,339.5L104,330.5L102,329.5L106.5,323L109.5,323L113,315.5L110,312.5L115.5,305L120.5,308L123,304.5L121,296.5L118,296.5ZM129,312.5C129.06,317.11 130.56,321.94 133.5,327L129,312.5ZM163,328.5L159.5,332L162.5,336L168,330.5L163,328.5ZM141,333.5L142.5,341L146,333.5L141,333.5ZM129,340.5L134.5,349L137,346.5L129,340.5ZM95.5,351L102.92,355.58L98.5,379L93,375.5L92.5,368L90.5,370L92.5,357L94.5,361L95.5,351ZM87.5,374L91,381.5L88,381.5L87.5,374ZM159,374.5L156,378.5L160.5,388L163,377.5L159,374.5ZM119,376.5L126.5,395L133,391.5C129.33,387.83 126.64,383.53 124.92,378.58L119,376.5ZM322,383.5L316.5,389L313,388.5L331.5,398L323,389.5L325,384.5L322,383.5ZM73,390.5L70,392.5L70,397.5L72.5,398L77,392.5L76.5,390L73,390.5ZM165,398.5L163,400.5L171.5,412L173,409.5L169,400.5L165,398.5ZM119,400.5L122,405.5L120,408.5L124.5,411L127,405.5L124.5,403L122.5,404L119,400.5ZM136,400.5L128.08,409.58L132,417.5L129.5,420L123,412.5L126,420.5L119.5,414L120,421.5L127.58,429.92L132.5,430L137,440.5L132.5,443L134,451.5L130.08,455.58L130,462.5L132.5,463L137.5,456L137.5,462L134,464.5L134.5,468L141,463.5L141.5,452L144.5,456L147,453.5L145,450.5L150,444.5L143,438.5L144,436.5L134,421.5L145,419.5L139,409.5L136,400.5ZM90,407.5L85.5,423L87.5,423L96,408.5L90,407.5ZM173,421.5L170,425.5L174,430.5L171,433.5L173.5,434L173,421.5ZM150,431.5L149.5,438L154,435.5L154,432.5L150,431.5ZM106,435.5L104.5,443L102.5,437L95.5,439L91,444.5L93.5,445L99.5,441L101,452.5C100.28,457.11 96.94,463.11 91,470.5L93.5,471L98.5,467L100.5,470L103,469.5L104.5,464L108,464.5L106.08,477.42L109,480.5C102.81,487.19 106.02,497.18 107.5,505L110.5,499L108,512L118.5,512C118.82,503.82 114.71,494.07 120.5,487L124.5,490L124,487.5C124.55,478.31 111.75,475.7 114.08,465.42L117,456.5L107,456.5C108.28,446.56 108.11,439.39 106.5,435L106,435.5ZM142.5,442L147,444.5L142.5,450L140,446.5L142.5,442ZM92,449.5L83,457.5L84.5,459L94.5,452L92,449.5ZM163,453.5L162,461.5L159.5,462L156,459.5L157.5,465L150,459.5L156,458.5L145.5,456L145,458.5L156.5,470L162.5,467L165.5,471L167,468.5L165,466.5L168,458.5L163,453.5ZM68,454.5L72,467.5L69.08,473.58L70.5,484L73.92,467.42L72,455.5L68,454.5ZM147,476.5L143.5,481L140.5,477L137.5,477L135.5,483L131.5,481L130,483.5L132.5,496L137.5,488L139.5,488C141.18,494.1 149.07,499.9 146,506.5L148,512L163.5,512L153,493.5L154,480.5L147,476.5ZM165,483.5L159,486.5L165,496.5L162,500.5L168,503.5C162.77,498.16 165.95,489.33 165.5,483L165,483.5ZM142.5,487L152.5,502L153.5,500L152.5,505L142.5,487ZM95,488.5L95,494.5L91.5,496L86.5,493L86.5,500L90,501.5L82,506.5L82,512L106,512L107,505.5L102,503.5L98.92,489.58L95,488.5ZM68,491.5L64,495.5L67.5,500L68,491.5ZM114.5,492L116.92,493.58L117.92,502.42L115.5,507L112.08,497.58L114.5,492ZM7,494.5L13.58,512L15.5,512L13.92,501.58L7,494.5ZM123,499.5L122.08,507.42L124.5,512L131,512L123,499.5Z"/>
  <path fill="#874e7c" stroke="#874e7c" stroke-width="0.5" stroke-linejoin="round" d="M494,90.5L485.5,103L496,91.5L494,90.5ZM229,172.5L231,173.5L224,179.5L223.92,184.42L217.5,186L212,191.5L218.5,190L217,194.5L230,184.5L237.5,183L241,187.5L234,199.5L235.5,204L239.5,196L250.5,188L254,190.5L246,200.5L250.92,202.58L250,209.5L253,209.5L253.08,204.58L263,189.5L261,184.5C265.67,180.5 271.33,177.83 278,176.5C269.67,176.83 263.83,176.33 260.5,175L244.58,182.92L238.5,179L236.5,181L231,177.5L239,175.5L229,172.5ZM269,186.5L270.5,193L269,186.5ZM352,190.5L347.08,193.58L347.5,199L348.5,197C349.9,198.96 352.87,199.53 355,198.5L352,190.5ZM344,199.5L343,206.5L350.5,214L355,209.5L344,199.5ZM222,201.5L219,210.5L225,219.5L227,215.5L222.08,211.42L224,201.5L222,201.5ZM257,207.5L248,218.5L254.5,221L260.92,215.42L260,207.5L257,207.5ZM217,226.5L217,231.5L224,230.5L217,226.5ZM173,237.5C171.61,244.11 167.78,251.61 161.5,260L159,259.5L161,252.5L159.5,251L152.42,258.92L148.58,259.08L143,265.5L153,261.5L151.5,266L157.5,261L159,268.5L151.08,275.58L151.08,280.42L159.5,285L160,287.5L154.5,289L149.5,287L148,288.5L155.58,293.92L160.5,295L163,292.5L162,289.5L171,284.5L170.5,282L166.5,284L163.08,280.42L166.5,269C163.9,257.9 172.37,251.32 176,242.5L173,237.5ZM192,253.5L198.5,264L202,262.5L192,253.5ZM138,270.5C134.64,273.14 131.44,276.11 126.5,276L125,277.5L129.5,280L135,277.5L134,279.5L136,282.5L129.5,282C124.49,285 118.8,288.84 117.5,295L107.5,301L102.42,296.08L98.5,296L97.5,293L91.08,297.58L91.5,303L96.5,301L98.5,307L100.5,305L103,306.5L95.5,309L93,323.5L96.5,330L100.5,327C104.11,318.61 106.11,311.94 106.5,307L118.5,296L121,296.5L121.5,300L128.5,293L131,293.5L131.5,296L140,281.5L137,279.5L138,270.5ZM127,296.5L125.08,298.58L128.5,314L130,305.5L127,296.5ZM115,305.5L110,314.5L113.5,317L118.5,314L120.92,328.42L117,333.5L130.5,351C127.15,347.15 121.91,343.51 116.5,344L119.5,357L122.5,356L125,359.5L122.5,361L120.5,358L118.08,363.58L120,370.5L115.08,373.58L117.5,380L118,377.5L122.42,376.08L133,391.5L122,396.5L126,401.5L128.5,409L133,399.5L130,397.5L139.5,388L142,389.5L136,399.5L139.92,403.58L139,409.5L145,419.5L134,421.5L144,436.5L143,438.5L149.5,444L154.92,438.42L154.92,420.58C152.36,418.47 149.72,414.11 147,407.5L149,401.5L155.42,400.92L159,395.5L152.5,390L150.5,396L140.5,386C133.64,386.91 128.66,378.16 124.08,375.42L121.5,362L125.5,365C128.17,369.67 132.83,374.67 139.5,380L140.92,375.58L134.5,364L131.5,366L129.5,361L133.5,364L140.5,362L142.08,370.42L147.5,373L148.5,376L149.5,374L148,379.5L150.5,384L157,383.5L150.5,371L147.5,371L144,363.5L147,353.5L141.5,355L139,352.5L147.5,353L149,348.5L145.5,346L141.5,348L137,346.5L134.5,349L129,342.5L134,339.5C129.39,330.78 126.36,321.81 124.92,312.58L115,305.5ZM112,317.5L112,323.5L103,331.5L105.5,333L112,327.5L112,317.5ZM98,334.5L92,342.5L94,347.5L97.5,349L99.5,339L103.5,334L98,334.5ZM73,370.5L78.5,377L80,371.5L73,370.5ZM87,374.5L88.5,383L91,376.5L87,374.5ZM119,383.5L124.5,393L124.92,387.58L119,383.5ZM103,395.5L107.5,404L113,403.5L103,395.5ZM94,400.5L89,404.5L92.5,408L103,408.5L95.08,404.42L94,400.5ZM169,400.5L168,402.5L173,409.5L171,413.5L172.5,415L175,410.5L169,400.5ZM120,404.5L114.5,411L122,405.5L120,404.5ZM126,412.5L129.5,420L132,417.5L126,412.5ZM0,414.5L7.5,426L9,424.5L5.5,417L0,414ZM105,416.5L103,423.5L108,417.5L105,416.5ZM106,430.5L102,441.5L104.5,443L106,430.5ZM150.5,431L154,432.5L154,435.5L149.5,438L150.5,431ZM162,439.5L164.5,448L168,442.5L162,439.5ZM172,443.5L171,454.5L174,454.5L172,443.5ZM149,445.5L145,450.5L147.58,453.92L153.5,454L154.92,449.58L149,445.5ZM159,448.5L158.08,456.42L160.5,459L165,452.5L159,448.5ZM141,452.5L141,463.5L137,464.5L149,474.5L144,461.5L146,459.5L141,452.5ZM166,454.5L168,458.5L166,463.5L173.5,466L175,463.5L166,454.5ZM68,465.5L67,485.5L65,488.5L67.5,490L68,465.5ZM160,467.5L155,470.5L164,483.5L162,484.5L164.5,485L164,481.5L168,478.5C168.57,473.64 164.81,468.83 160.5,467L160,467.5ZM12,469.5L6,489.5L12,496.5L14.5,508C14.83,501 13.36,493.81 10.08,486.42C11.97,480.42 12.78,474.61 12.5,469L12,469.5ZM493,475.5L488,488.5L484,490.5L486,498.5L480,512L482.5,512L497,475.5L493,475.5ZM154,480.5L153.08,494.42L164,512L174,512L162,500.5L165,494.5L162.5,492L159.5,494L155,485.5L162,483.5L154,480.5ZM120,487.5C115.11,494.68 118.36,504.07 119,512L122,512L124.5,500L127,495.5L120,487.5ZM134,491.5L133,495.5L142,512C139.94,502.39 137.44,495.39 134.5,491L134,491.5ZM145,493.5L146,498.5L154,504.5L145,493.5Z"/>
  <path fill="#f1c08e" stroke="#f1c08e" stroke-width="0.5" stroke-linejoin="round" d="M404,0C412.52,24.85 430.78,47.02 442.58,70.92L445.42,70.92L452.5,64L453.92,58.58L421.08,4.42L423,0L417,0C417.67,5 420.33,10.83 425,17.5L452,61.5L446.42,66.92C434.76,59.96 433.52,44.93 426,34.5L427,31.5C419.15,23.88 419.28,11.72 411.08,4.42L411,0L404.5,0ZM130,111.5C118.03,138.38 113.61,171.3 124.08,199.42L130,209.5L136,213.5L135.08,219.42L138.5,226L141.92,216.42L139.5,206L137.5,206L133,187.5L124.08,165.42L130,111.5ZM394,184.5L369,206.5L370.5,208L396,185.5L394,184.5ZM508,275.5C445.3,293 458.41,370.21 445.92,419.42C443.84,425.59 436.95,426.3 433,430.5L429,443.5L432,451.5L439,455.5L431.5,480L429.5,480L426.5,471L421,475.5L423.08,488.42L428.42,489.92L433.5,482L442,477.5C460.74,444.1 464.55,386.34 512,380L512,372.5L489.5,377L479.42,385.92L468.58,386.92L466.5,385L454.5,392L453,390.5C452.85,374.17 456.27,356.8 468.58,345.08L476.42,346.92L486,334.5L478,331.5L484.92,323.42C485.91,309.7 500.18,301.01 512,297.5L512,275L508,275.5ZM493,313.5L490,317.5L494.5,320L496.92,314.58L493,313.5ZM512,358.5L491,365.5C495.28,366.44 502.28,365.78 512,363.5L512,358.5ZM308,397.5L307,400.5C320.02,408.81 322.9,424.32 329.5,437L331,418.5C327,411.83 319.5,404.67 308.5,397L308,397.5ZM452.5,415L455.92,416.58C463.19,434.28 443.54,444.15 445.5,460L442,462.5C442.58,448.39 448.67,433.48 449,420.5L452.5,415ZM436.5,433L439,435.5L434.5,441L433,436.5L436.5,433Z"/>
</svg>