<svg width="512" height="512" viewBox="0 0 512 512" xmlns="http://www.w3.org/2000/svg">
  <rect width="512" height="512" fill="#64193f"/>
  <path d="M65.5 0L62 46.5L62 187.5L66.5 354.5L73.5 348L81 333.5L81.5 325L73.5 318.5L76.5 314.5L74 306L79 305.5L83 285.5L90 275.5L91.5 278.5L93.5 275L99.5 272.5L100.5 275.5L107.5 270L107 234.5L109.5 225L115.5 218L130 220.5L131 215.5L119 181.5L120 140.5L110 126.5L102 12.5L97 0L66 0Z M22 65.5L0 94.5L0 303.5L23.5 288.5L27 291.5L30 301.5L27 216.5L21 187.5L27 117.5L26 70.5L22.5 65.5Z M296 73.5L299.5 82L309 95.5L318.5 102L333.5 125.5L332 97.5L325.5 75L296.5 73Z M370 81.5L366.5 84.5L366.5 132.5L369.5 87L373.5 87L382.5 99.5L370.5 81.5Z M139 117.5L135 132.5L145.5 142L147 131.5L139.5 117Z M391 172.5L362 186.5L368.5 191L384 185.5L393.5 178L391.5 172.5Z M334.5 202L341 214.5L347 241.5L344 247.5L331.5 253L335.5 256.5L349.5 253L346.5 249.5L350 238.5L343.5 210L334.5 201.5Z M277.5 248L280 256.5L281.5 253.5L291.5 252.5L278 247.5Z M254 253.5L251.5 255.5L253.5 257.5L262.5 255.5L254.5 253.5Z M244 262.5L241.5 267L251.5 271.5L244.5 262.5Z M257 266.5L253 273L260.5 269.5L257.5 266.5Z M340 269L335 279.5L344.5 286L347.5 296.5L348 284.5L345.5 279L340.5 277L340.5 268.5Z M226 281.5L220.5 288L221 308.5L215 322.5L217 349.5L230 368.5L247.5 384.5L239 394.5L240.5 422.5L238 439L235 418.5L229.5 412L197.5 488.5L216.5 479.5L212 477.5L212 468.5L221.5 439L228.5 433L233 434.5L234 438.5L228.5 473.5L234 465.5L242 439.5L243 395.5L247.5 389L257.5 385.5L234.5 360L227 346.5L225 337.5L226.5 281.5Z M166 309.5L164.5 315.5L167.5 313.5L166.5 309.5Z M0 314L0 331L6 325.5L0 313.5Z M28 321L23 335.5L24 350.5L19 376.5L30 398.5L31.5 422.5L32 402.5L26 381.5L28.5 320.5Z M178 333L166 351.5L168.5 351.5L167.5 354.5L182 338.5L178.5 332.5Z M77 345.5L64.5 362.5L65 389.5L82.5 365.5L79 362.5L73 369.5L79 351.5L77.5 345.5Z M512 398.5L485 407.5L477.5 414L474 409L463 434.5L463.5 448L448.5 472.5L456.5 471L460 473.5L462 479.5L459 492.5L475.5 482L482 484L468 512L486.5 490.5L488 501L500.5 464L512 451L512 400.5L512 398Z M32 451L32 466.5L27.5 474.5L30.5 484.5L34 472.5L32.5 450.5Z M375 459.5L371 467.5L381 505L384.5 502.5L385.5 504.5L382.5 512L397 512L398.5 495L418.5 491L420 478L417 484.5L405.5 485L396 472.5L397 467.5L403 465.5L375.5 459Z M438 484.5L428 492.5L427 497.5L434.5 504L437 512L449 512L454 496.5L442 490.5L438.5 484.5Z M214 486.5L190 497.5L180.5 512L195 512L199.5 501L214.5 486.5Z" fill="#a9404d" stroke="none"/>
  <path d="M12 0L0 9L0 33.5L22 23.5L32 13.5L32 0L12.5 0Z M54.5 0L41.5 39L19.5 45L0 75.5L0 87L20.5 60L28 60.5L31 149.5L29.5 336.5L37.5 512L36.5 378.5L33 348.5L36 322.5L36 178.5L41 98.5L39 67.5L44.5 56.5L48 64.5L48 114.5L54 144.5L61.5 394.5L64.5 359.5L62 350.5L58 93.5L60 0L55 0Z M330.5 0L340 46.5L336.5 130.5L346.5 143.5L361.5 135.5L364 107.5L362 79.5L365 74.5L371.5 74L377 79.5L396 111L411.5 112L415.5 115.5L444.5 72.5L398 0L331 0Z M506.5 0L508 4.5L512 4L512 0L507 0Z M361.5 14.5L369 25.5L358.5 36.5L348.5 28L346 17.5L361 14.5Z M194 131.5L188 147.5L194 159.5L208.5 168.5L202.5 154.5L208 156.5L194.5 131Z M126.5 139.5L135 175.5L135.5 190L145.5 199L141.5 184.5L143.5 171.5L126.5 139.5Z M128 246L114.5 258.5L113.5 266L122.5 271.5L127 263.5L129.5 267L136 256.5L131.5 254L128.5 245.5Z M295 254L299 281.5L292 281.5L281 271L284 294.5L272 318.5L264.5 318L254 308.5L248 293.5L250 285.5L267.5 283L272.5 280.5L271.5 278L261.5 280L247.5 275L237 284.5L238 306.5L245 339.5L270 385.5L263 422.5L242 480.5L244 492.5L253.5 512L326 512L320 480.5L292 416.5L293 395.5L284.5 387L282 379.5L290 372.5L298.5 372L309 387L321 356.5L319.5 351.5L307.5 349.5L322.5 347.5L328 343.5L337 301.5L331.5 286L324 280.5L326.5 298.5L321 314.5L322 328.5L318 343.5L306.5 346.5L298 344.5L296 340.5L299 334.5L306.5 329.5L293 327.5L287 319.5L296 302.5L302.5 303L310.5 327L313 325.5L305 263.5L295.5 253.5Z M393 326L390 342.5L383.5 352.5L385.5 359L392 355.5L395 349.5L393.5 325.5Z M268.5 347L299.5 348L303.5 351.5L291 354.5L287.5 365L276.5 365L266 355.5L265 349.5L268 347.5Z M62 414L62.5 473.5L67 458.5L64 426.5L66 420.5L62.5 413.5Z M430 452.5L421.5 467L422.5 471.5L434.5 466L437 457.5L430.5 452.5Z" fill="#da7369" stroke="none"/>
  <path d="M0 0L0 8L11.5 0L0 0Z M33 0L29.5 17L0 35L0 72.5L6.5 68L19.5 45L29.5 40L40.5 40L43.5 35L54 0L34 0Z M399.5 0L402.5 10L419 31.5L404.5 0L400 0Z M361 14.5L346 17.5L348.5 28L358.5 36.5L369 25.5L361.5 14.5Z M222 45.5L216.5 54.5L224 76.5L227.5 105.5L237.5 96.5L225 56.5L228.5 45.5L222.5 45.5Z M44 56.5L39 66.5L41 98.5L36 178.5L36 322.5L33 349.5L36.5 378.5L35.5 440.5L39.5 512L57.5 512L63 496.5L60.5 422.5L62 414L63.5 419.5L65.5 415.5L61 408.5L61 399.5L65.5 394.5L60 391.5L62 360.5L57.5 308.5L59 277.5L54 144.5L48 114.5L48 64.5L44.5 56.5Z M512 97.5L503 102.5L471.5 143L446 187.5L440 205.5L440 217.5L445.5 226L497.5 229L506 220.5L508 214.5L499 200.5L503 192.5L502 181.5L512 175.5L512 97.5Z M131 108L127.5 116.5L128.5 131.5L131.5 107.5Z M224 107.5L207 119.5L199 131.5L218 162.5L274.5 175L287.5 172.5L293.5 178.5L303 172.5L305.5 166.5L303 163.5L281.5 161L262.5 150L226.5 140L221 131.5L219 117.5L224.5 107.5Z M127 134L119 164.5L128.5 182.5L132.5 201.5L142.5 214.5L144 201.5L135 189.5L135 175.5L126.5 145.5L127.5 133.5Z M393 157.5L385.5 165L381 176L393.5 166.5L393 169.5L401 167.5L402 171L402.5 158L398.5 159.5L393.5 157Z M388 184.5L364.5 195L366 209.5L384.5 199L388.5 184.5Z M256 220.5L223.5 259.5L226 260.5L235.5 249L247 245.5L251.5 231L258.5 223.5L256.5 220.5Z M288 220.5L268.5 241L283.5 246L301 257.5L305 263.5L307.5 285.5L309 255.5L299 238.5L298 222.5L288.5 220Z M441 229.5L431 235.5L426 245.5L423 263.5L424.5 270.5L436.5 265L460.5 262L463 247.5L461 240.5L454.5 234L441.5 229Z M364.5 235L367.5 257.5L368 236.5L365 234.5Z M113 259.5L107 263.5L111.5 278.5L116.5 269.5L120.5 270.5L113.5 266L113.5 259.5Z M368 262L367 270.5L370.5 283.5L368.5 261.5Z M512 270.5L484 282.5L470 297.5L456 327.5L453.5 362.5L466.5 321L480.5 302L482.5 294L491.5 288L512 283.5L512 270.5Z M279 272.5L269.5 274.5L275.5 277.5L272 280.5L248 287.5L253 307.5L266.5 319L274.5 316L284 295.5L283.5 276.5L279.5 272.5Z M317 276.5L321.5 313.5L326.5 294.5L324.5 285L317.5 276Z M309 297.5L313 325.5L309.5 328.5L314 329.5L315.5 336.5L314.5 343L307.5 345.5L315.5 346L322 325.5L320.5 319.5L316.5 324.5L313 320.5L309.5 297.5Z M411 300.5L408 305.5L409.5 315L415.5 304.5L411.5 300Z M184 318.5L182 324.5L188.5 328.5L190.5 327.5L187.5 324.5L196 323.5L198.5 319.5L184.5 318Z M307 329.5L299 334.5L296 340.5L298 344.5L306.5 346.5L299.5 342.5L300.5 336L306 335.5L307.5 329.5Z M164 360.5L158 369L166 364L164.5 360.5Z M377 369L377.5 380.5L385.5 371.5L377.5 368.5Z M290 372.5L282 381.5L293 395.5L292 416.5L320 480.5L326.5 512L345 512L346 505.5L323 446.5L318 423.5L304 402.5L305 392.5L309.5 388.5L302 374.5L290.5 372Z M429 449L437 460.5L434.5 467L423.5 470L420 475.5L421 487.5L425.5 491.5L441 481.5L448 469.5L442.5 477L436.5 476L438.5 456.5L429.5 448.5Z" fill="#dd917c" stroke="none"/>
  <path d="M60 0L58 92.5L61.5 198.5L60.5 0Z M112.5 0L114 38.5L111 55.5L120 73.5L121.5 103L126.5 108L130.5 108.5L132.5 105.5L132.5 112.5L136.5 102L159 75.5L170.5 69L177 73.5L181 86.5L175.5 100L160 114.5L158 127.5L162 150.5L154 167.5L148.5 165L135 144.5L131.5 128.5L128.5 133.5L129 145.5L143.5 171.5L141.5 184.5L148 192.5L140.5 220.5L144.5 223.5L139 223L138.5 235.5L133.5 227.5L117 231.5L112.5 258L125 250.5L129 244.5L130.5 249.5L135 243.5L145 243.5L158 232.5L161.5 223L172.5 216L164 207.5L175 200L167.5 197.5L175.5 193.5L166.5 191L164.5 169.5L170 154.5L188.5 125.5L180.5 124L176 118.5L177.5 104L186 83.5L177.5 66.5L172.5 63.5L173.5 59L197.5 46L226.5 44L258.5 52L277.5 64.5L296.5 64L309 59.5L317 40.5L306.5 0L113 0Z M324.5 0L331 23.5L329.5 48.5L335.5 129L338 120.5L338 54.5L331.5 18L325 0Z M454.5 0L455 26.5L460.5 37L466.5 41L507.5 6.5L502.5 0L455 0Z M24 58.5L0 89.5L0 91.5L4.5 89L19.5 66L24.5 65L28 120.5L23 187.5L28 213.5L30.5 283.5L29.5 69.5L28.5 61L24.5 58.5Z M365 74.5L362 80.5L362.5 134.5L367 80.5L375 83.5L389.5 108L395.5 111.5L377.5 80L372 74.5L365.5 74Z M155.5 215.5L157.5 219L150 226.5L149.5 220L155 215.5Z M62 250L63.5 352.5L62.5 249.5Z M259 249.5L256.5 251.5L259 253.5L266.5 254.5L259.5 249.5Z M292 253.5L286.5 258L288 265.5L283.5 270.5L291.5 281L297.5 282.5L299 268.5L292.5 253.5Z M238 269.5L230.5 276.5L226 296.5L227 340.5L233.5 357L259.5 385.5L251.5 390L248 395.5L243 442.5L236 463.5L223 482.5L198.5 504L197.5 512L252 512L242 480.5L263 422.5L267 384.5L257 360.5L247 345.5L238 306.5L238 280.5L244 273.5L250.5 272.5L238.5 269.5Z M333.5 280.5L337 302.5L335.5 329.5L342 316.5L345.5 296.5L342.5 288L334 280.5Z M299 301.5L291.5 307L287 320.5L293 327.5L304.5 330L309.5 327L310 323.5L303.5 305L299.5 301.5Z M268 347.5L265 349.5L266 355.5L276.5 365L287.5 365L291 354.5L303.5 351.5L299.5 348L268.5 347Z M225 438.5L221 447.5L219.5 463.5L221.5 465L231 449.5L231 440.5L225.5 438Z" fill="#ca5a5c" stroke="none"/>
  <path d="M219 45.5L199 52.5L197 57.5L213.5 82L220.5 101.5L220.5 109.5L227.5 103.5L224 76.5L216.5 54.5L219.5 45.5Z M512 77.5L471.5 121L435 185.5L430 200.5L432 211.5L417.5 232L406 265.5L393 323.5L395 349.5L387.5 359L378 350.5L377 331.5L378.5 334.5L380 320.5L368 239L366 266.5L368.5 261.5L371 281.5L367.5 272.5L367 290.5L376 368.5L385.5 371.5L376 379.5L373 417.5L376 423.5L375 432.5L380 450.5L402 460L413.5 460.5L415.5 458L409 438.5L417 420.5L409.5 411L380 399L382.5 388L390.5 383.5L426.5 392L441.5 387L446 380.5L445 360.5L449.5 358.5L446.5 355.5L447.5 349.5L453 372L456 327.5L470 297.5L484 282.5L512 269L512 177.5L501 183.5L503 192.5L499 203.5L508 215.5L500.5 228L448.5 227L442.5 223L440 215.5L442.5 195L469 146.5L503 102.5L512 96L512 77.5Z M200 125.5L196.5 130.5L208.5 159L204.5 157L208.5 167.5L205.5 167L206 170.5L211.5 176.5L226.5 171L238.5 173.5L240 180.5L246.5 182.5L258 177.5L258 175L273.5 176.5L270.5 173L218 162.5L199 132.5L200.5 125.5Z M290 185.5L272 199.5L268.5 195.5L260.5 207.5L261.5 214L253.5 221.5L262 223.5L261 218L263.5 218L267 210.5L290.5 185.5Z M357.5 193L354.5 207.5L363.5 235.5L368 233.5L369 211.5L365 208.5L363.5 194L357.5 192.5Z M249 219.5L233 238.5L239.5 233.5L238.5 238L241 236.5L249.5 219.5Z M441.5 229L454.5 234L461 240.5L463 247.5L460.5 262L436.5 265L424.5 270.5L423 263.5L426 245.5L431 235.5L441 229.5Z M335.5 264L334 270.5L329.5 273.5L332.5 276.5L340 270.5L336 263.5Z M106 273.5L101 275.5L95.5 285.5L110.5 279L106.5 273.5Z M267 274L269.5 277.5L275.5 277.5L267.5 273.5Z M325 275.5L320.5 277L322 281.5L325.5 275.5Z M169 286.5L162.5 290.5L166 291.5L169.5 286.5Z M97 288.5L89.5 291.5L96.5 293L106.5 289.5L97.5 288.5Z M411.5 300L415.5 304.5L409.5 315L408 305.5L411 300.5Z M124 303L121.5 310L126 308.5L125 318.5L133.5 337.5L124.5 302.5Z M170.5 307L170.5 311L174 312.5L174 307.5L171 306.5Z M133 318L136 339.5L144.5 347.5L145.5 340.5L141 340.5L133.5 317.5Z M172 332.5L164.5 334L161.5 343L158.5 344.5L163.5 344L172.5 332.5Z M151 347.5L144 358.5L146.5 372L144 376.5L139.5 364.5L144.5 365L138.5 363L140 377L134 376.5L131.5 380.5L138.5 389L133 396.5L128.5 397.5L133 398.5L134 403.5L142.5 388.5L151.5 398L147.5 407.5L155 425.5L155 437.5L150.5 440.5L151 446.5L157.5 454.5L157.5 449.5L168 453.5L174.5 462.5L177.5 454.5L170.5 454L163.5 447L162.5 439.5L167.5 443L185.5 444.5L176 440.5L178 434L175.5 436L170 433.5L166 427.5L168.5 416L171.5 414.5L162.5 399.5L166 396.5L174 406.5L173 402.5L164.5 391L148.5 380L148.5 371L151.5 374.5L155 368.5L149.5 354.5L153.5 349L151.5 347.5Z M116 354L112.5 369.5L114 391.5L120.5 401L126 402.5L121 399L118.5 391.5L126.5 396L115 379.5L115.5 373L121.5 371L117 363.5L116.5 353.5Z M120.5 362L126.5 377.5L131 379.5L132.5 375.5L129 375L120.5 361.5Z M152 388.5L156.5 389L159.5 395L153.5 398.5L151.5 393L154.5 393.5L151.5 388.5Z M0 400L0 414L7.5 422L9 428.5L12 483.5L16.5 502.5L15 469.5L17.5 465.5L23 467.5L26 473.5L26 494.5L29 498.5L24 423.5L19 411.5L0 399.5Z M160 404.5L166.5 411L165.5 417.5L159.5 404.5Z M105 426.5L100.5 436.5L105 434L105.5 426.5Z M146.5 464L149.5 476L160 481.5L156.5 473L146.5 463.5Z" fill="#bd797c" stroke="none"/>
  <path d="M494 77.5L486 83.5L479.5 95L478.5 109.5L489.5 93L504.5 81L494.5 77Z M369.5 87L369.5 117.5L370.5 95L373.5 93L379 95.5L374.5 88L370 86.5Z M458 139.5L442 161.5L436.5 180.5L458.5 139.5Z M278 176.5L270.5 179.5L271.5 188.5L278.5 176.5Z M268 183.5L254.5 203L255 207.5L269 192L268.5 183.5Z M230 187.5L214 198.5L205 213.5L194.5 212L190 213L188.5 217.5L180 218.5L179.5 222L163 235.5L157.5 247.5L164 244L166.5 237.5L162.5 251.5L166.5 253L171.5 245.5L168.5 241L171.5 239.5L172.5 243.5L173.5 236.5L175.5 241.5L175 235.5L180.5 228.5L186.5 237.5L184.5 244.5L190.5 246L195.5 234.5L189.5 230L190 225.5L197.5 222L206 233.5L205.5 244.5L208.5 240.5L211.5 244.5L213.5 241.5L214.5 248.5L215.5 242L225.5 232.5L220.5 230.5L216.5 233L217.5 219.5L219.5 226L221.5 224.5L227 229.5L218.5 209.5L221.5 202L222 211.5L227.5 217.5L228.5 210.5L232.5 207.5L251 215.5L250.5 211L246.5 209.5L251 204.5L250 201.5L246 202L247 193L233.5 202.5L237 190.5L230.5 187Z M428 198.5L422 206.5L420.5 217.5L428.5 198.5Z M348 213.5L346 223.5L350 238.5L346.5 249.5L349.5 253L326 259.5L320 265.5L323 269.5L333.5 269.5L336 262.5L339.5 264L340.5 277L345.5 279L348 285.5L345.5 311.5L353 295.5L353 287.5L341 263.5L352 255.5L350 223.5L357.5 228L362.5 247.5L364 240.5L358.5 219L348.5 213.5Z M369 229L376 269.5L375.5 288.5L383 276.5L391 236.5L387.5 233L375.5 236L369.5 228.5Z M171 252L169.5 260.5L172.5 254.5L175.5 256.5L171.5 251.5Z M148 254L133.5 261L133 270.5L124 270.5L114 278.5L112 286.5L114 289.5L119 288.5L121.5 283.5L123.5 285.5L127.5 283L124.5 274L128.5 276L134.5 274L151.5 256.5L148.5 253.5Z M269 254.5L251 256.5L245.5 263.5L253.5 272L257.5 266.5L264 271.5L269 270.5L275 258L281 260L281.5 266L286.5 263.5L280 256.5L269.5 254.5Z M365 255L360 282.5L361.5 288L366.5 289.5L365.5 254.5Z M150 262.5L138 272L142.5 272.5L137.5 278.5L139 286L143 286.5L152.5 296L146 278.5L146.5 269.5L150.5 262.5Z M99 272.5L92.5 278L98 276.5L99.5 272.5Z M171 286L160.5 295.5L153.5 292.5L156.5 296.5L154 298L158.5 300.5L153 314.5L154.5 319L160.5 322L160.5 327.5L165 320.5L160.5 314.5L168 303.5L163.5 297L167.5 297.5L170.5 290L177.5 291.5L171.5 285.5Z M23 288.5L0 305.5L6 326.5L0 332.5L0 352.5L9.5 358L15.5 366L19 388.5L15.5 396L0 394.5L19.5 406L25 423L28 420.5L30.5 425.5L30 398.5L19 376.5L24 350.5L23 335.5L29 317.5L28 293.5L23.5 288.5Z M220 289.5L217.5 292.5L215.5 320.5L221 308.5L220.5 289.5Z M136 290.5L132.5 299L130.5 296.5L129.5 299.5L133.5 315.5L136.5 290.5Z M355 321L346 343.5L346 368.5L342.5 382.5L344.5 406.5L352.5 416L370.5 416L372.5 418.5L376 385.5L375 352.5L373.5 356.5L368.5 354L361 323.5L355.5 320.5Z M166 324.5L159.5 336.5L159 331.5L151.5 333L145 343.5L146.5 347L149 347.5L167.5 330.5L166.5 324.5Z M138.5 331L141.5 335.5L147 335L146 330.5L138.5 330.5Z M105 335.5L100.5 339L97.5 348.5L90.5 353.5L93.5 345.5L89 348.5L88.5 365.5L94 357.5L90 380.5L87.5 382.5L86.5 376.5L79 380.5L78.5 393L83 392.5L91 404.5L94.5 400.5L97.5 406L103.5 404L103.5 394.5L110.5 400.5L113.5 398.5L110 406.5L107 404.5L101.5 409L91.5 407.5L91.5 413L99 417.5L103.5 425.5L105.5 415.5L107.5 426.5L112.5 427.5L114.5 421L119 419.5L120.5 427L131 436.5L131 461.5L134.5 465.5L140.5 463L142 457.5L137 449L138.5 444.5L150.5 466L164 466.5L164 459.5L159.5 463.5L147.5 455L143.5 448.5L147 444.5L136 433.5L133.5 426L127.5 427L123.5 423L128.5 425.5L124 406.5L112.5 410.5L120.5 402.5L113 392.5L111.5 368.5L107 359.5L111 349.5L110 338.5L105.5 335.5Z M215 337L205.5 359.5L227 392.5L216 410.5L219 429.5L193 484.5L193.5 492.5L174.5 512L180 512L193 495.5L211.5 487.5L197 487.5L229.5 412L235 418.5L238 438.5L240.5 422.5L239 394.5L247.5 383.5L230 368.5L217 350L215.5 336.5Z M161 371.5L156 380.5L161.5 388.5L164 379.5L161.5 371.5Z M357.5 375.5L368 390.5L360.5 399L352 398L350 388.5L351 377L353.5 379.5L357 375.5Z M311 380L311.5 389L328.5 395.5L325 386.5L314 387.5L311.5 379.5Z M179 385.5L173.5 393L168.5 395L177.5 411.5L184 394.5L183 386.5L179.5 385Z M494 388.5L475.5 407L475.5 413.5L512 397L512 388.5L496.5 393L494.5 388.5Z M166 401.5L171.5 411.5L171 406.5L166.5 401.5Z M163 406.5L161.5 409L165.5 412.5L163.5 406.5Z M169 417L166 426.5L168.5 432L173.5 433.5L174 422.5L169.5 416.5Z M193 426.5L185.5 441.5L194.5 446L185.5 446.5L198.5 450L201 441.5L193.5 426.5Z M31 433L30.5 445L25 446.5L29.5 468.5L31.5 432.5Z M107 434.5L103.5 441.5L102.5 436.5L96.5 440.5L98 464.5L105 481.5L104 488.5L101 492.5L87.5 496L81.5 512L105.5 512L109.5 499.5L108.5 512L118 512L117.5 492.5L120.5 487L125.5 491L136 512L138 512L132.5 494.5L134.5 495L133.5 489.5L142 512L161 512L150.5 496L154.5 506.5L144.5 497L146.5 496.5L142.5 488L147.5 493.5L147 482.5L150 480.5L140.5 469L137.5 477L129 484.5L122.5 481L116 468.5L114 447.5L107.5 434.5Z M68 452L68 461.5L71 460L73 468.5L69 473.5L71.5 477.5L74 461.5L68.5 451.5Z M231 459.5L224.5 470.5L225.5 476.5L231.5 459.5Z M512 462L504 470.5L501 486.5L487 512L507.5 512L512 512L512 461.5Z M169 464.5L164.5 468.5L167.5 475.5L169.5 468L173.5 466.5L169.5 464.5Z M406 467.5L399 470.5L402.5 479L409.5 484L418.5 483L419 474L415.5 479L410.5 474.5L417.5 471.5L406.5 467.5Z M11 470L0 476.5L10.5 475L11.5 469.5Z M453 471.5L439 485.5L444 491.5L455 487.5L461.5 479L459 472.5L453.5 471Z M71 479.5L68 490.5L64 492.5L61.5 512L67.5 512L71.5 479.5Z M161.5 485.5L165.5 495.5L167 487L162 485.5Z M0 489L0 502L10 512L14 512L13.5 500L0 488.5Z M166 497.5L163.5 500.5L166.5 503.5L166.5 497.5Z" fill="#6a2248" stroke="none"/>
  <path d="M405.5 0L430 50.5L442 70.5L446.5 70L454 58.5L421.5 0L406 0Z M277 68.5L249 96.5L249 101.5L259 113.5L284.5 133L294.5 130L311.5 138L339 136.5L320.5 105L297 78.5L277.5 68Z M398 111.5L356 140.5L347.5 152L340.5 166.5L339 186.5L343 192.5L378 176.5L394.5 150L405 155.5L410 162L417 141.5L418 121.5L412 112.5L398.5 111Z M127 118L120 148.5L120.5 163.5L127.5 132.5L127.5 117.5Z M119 167L121 190.5L138.5 234.5L142 213.5L132.5 201.5L128.5 182.5L119.5 166.5Z M407 166.5L399 176.5L398.5 182.5L405.5 175L407.5 166.5Z M327 211.5L313 219.5L307 233.5L311.5 244L321.5 251.5L336 249.5L343.5 242.5L337 216.5L334 212.5L327.5 211Z M316 257.5L308 274.5L312 309.5L317.5 320L321 315.5L315 280.5L320 261.5L316.5 257.5Z M492 291.5L482 297.5L466.5 321L455 355.5L446 418.5L430 435.5L429.5 447L438.5 456.5L436 473.5L439.5 477.5L448 467.5L473.5 406L490 388.5L512 379.5L512 292.5L492.5 291Z M314.5 393L313 401.5L324 419.5L357.5 512L381 512L378 490.5L356 421.5L337 401.5L315 392.5Z" fill="#ebc1a6" stroke="none"/>
  <path d="M61.5 0L62.5 39.5L65 0L62 0Z M98.5 0L104 26.5L104 62.5L108 74.5L110 126.5L120.5 144.5L129.5 108.5L120 100.5L120 73.5L111 55.5L111.5 39.5L114 38.5L112 0L99 0Z M308.5 0L317 39.5L312 55.5L303.5 63L278.5 64.5L290.5 75L325 74.5L331 90.5L333.5 116.5L329 40.5L331 22.5L323.5 0L309 0Z M423.5 0L425 9.5L454.5 61.5L472.5 39.5L463.5 40L456.5 30L453 15.5L453.5 0L424 0Z M170 69.5L159 75.5L137 101.5L132.5 113.5L131 136.5L151.5 168L157 164.5L162 150.5L158 127.5L160 114.5L175.5 100L181 88.5L177 73.5L170.5 69Z M367 80.5L366.5 83.5L372.5 81.5L367.5 80Z M139.5 117L147 131.5L145.5 142L135 132.5L139 117.5Z M26.5 124L25 164.5L21 187.5L27 216.5L27.5 239.5L28 213.5L23 187.5L27 159.5L26.5 123.5Z M394 170.5L391.5 171.5L393 179.5L398 173.5L394.5 170Z M227.5 173L212.5 190L205.5 194.5L203.5 190.5L201.5 197L197.5 198.5L202 199.5L212 191.5L233 183L230.5 178.5L238.5 174L228 172.5Z M360 185.5L357.5 188.5L360 191.5L369.5 191.5L360.5 185.5Z M353 189.5L346.5 193.5L350.5 203.5L348.5 203L349.5 208L354.5 209.5L357 196.5L353.5 189Z M191.5 196.5L191.5 200L161 223.5L158.5 232L141 255.5L146 255.5L146.5 250.5L157.5 244L168 225.5L177 222.5L179.5 217L193 206.5L193.5 202L197.5 200.5L192 196.5Z M155 215.5L149.5 220L150 226.5L157.5 219L155.5 215.5Z M253 216L249.5 218.5L250.5 222.5L254.5 220L253.5 215.5Z M115 218.5L107 233.5L109.5 259.5L116.5 232L133 226.5L130.5 221L115.5 218Z M233 240.5L227.5 250.5L234.5 243L233.5 240.5Z M268 243.5L263.5 246.5L274.5 249L279 255L277 248.5L279.5 246.5L268.5 243.5Z M281 254L282 257.5L285.5 255.5L285.5 259.5L291.5 254.5L281.5 253.5Z M317 268L317 273.5L320 274.5L321.5 269.5L317.5 267.5Z M258 270L254 274L265.5 272.5L258.5 269.5Z M90 275.5L82 286.5L78.5 306L74 306.5L76.5 314.5L73.5 319L78 319.5L82 326.5L79.5 338L71.5 350.5L78.5 346L73 365.5L74.5 370.5L76.5 364L84 362.5L91.5 305.5L81.5 308L92 303.5L91.5 300.5L95.5 302.5L98.5 300.5L94 299.5L97 293L85.5 292.5L93 288.5L91.5 281.5L94.5 280.5L90.5 275.5Z M210 276L200.5 296.5L211 280.5L210.5 275.5Z M229 278.5L225 294.5L227.5 321.5L226 297.5L229.5 278.5Z M337 280.5L346.5 296.5L345 286.5L337.5 280.5Z M99 285.5L96.5 287.5L102 289L99.5 285.5Z M170.5 292L169 304.5L173.5 305.5L177 298.5L171 291.5Z M163 312.5L161.5 316.5L167 318L163.5 312.5Z M226.5 324L225 338.5L228.5 347.5L226.5 323.5Z M180 326.5L178.5 332L182.5 335.5L186 330.5L180.5 326.5Z M173 328.5L166.5 333.5L176.5 329.5L173.5 328.5Z M380.5 329L381.5 344.5L383.5 335.5L380.5 328.5Z M154 342.5L152.5 348L157.5 342.5L154.5 342Z M27 351L26 381.5L28.5 388.5L27.5 350.5Z M164 353L159.5 361.5L168.5 356.5L164.5 352.5Z M249.5 377L257 387L259.5 386L249.5 376.5Z M252 387.5L243 395.5L243 430.5L238.5 455.5L243 442.5L248 395.5L255.5 387.5L252.5 387Z M444 390.5L432.5 394L404.5 393L403 395.5L427.5 414.5L443.5 413.5L448.5 401.5L448 392.5L444.5 390Z M227 433.5L221.5 439L212 468.5L213.5 479L222.5 472L231 456.5L234 436.5L227.5 433Z M462 435L453.5 463.5L464 447.5L462.5 434.5Z M225.5 438L231 440.5L231 449.5L221.5 465L219.5 463.5L221 447.5L225 438.5Z M376 456.5L370.5 461L370.5 465.5L377.5 459L414.5 468.5L376.5 456.5Z M66 464L66 475L63.5 471.5L62 477.5L62.5 489.5L63 484L65.5 488.5L68 482.5L66.5 463.5Z M33 475L31 484.5L28 480.5L32.5 498.5L35 490.5L33.5 474.5Z M12 477.5L8.5 486.5L15.5 503.5L12.5 477.5Z M419.5 488L416.5 492L398.5 495L399 512L424.5 512L435.5 512L435 504.5L427 497.5L427.5 492.5L423 492.5L419.5 487.5Z M486 490.5L473.5 503L471 512L482.5 512L488.5 494.5L486.5 490.5Z" fill="#b2525e" stroke="none"/>
  <path d="M229 46.5L225 49.5L225 56.5L237.5 96.5L219.5 112.5L223.5 137L227.5 141L263 150.5L281.5 161L302.5 163L305.5 166.5L303 172.5L286.5 186.5L294.5 181.5L295 183.5L272 204.5L263.5 218L261 218L262 223.5L251.5 231L247 245.5L235 249.5L223.5 260L218.5 268.5L220.5 270L214.5 274L202.5 298L196.5 316L203 312.5L227 279.5L288 220.5L298.5 223L299 238.5L309 255.5L308 271L316 257.5L320.5 262.5L323 260.5L330.5 251.5L316.5 250L307 232.5L313 219.5L327.5 211L335 213.5L341 225L334.5 201.5L345.5 193.5L339 186.5L340.5 166L355.5 140.5L345.5 144.5L340.5 136.5L311.5 138L300.5 131L293.5 130L286.5 133L279 130.5L259.5 114L248.5 99.5L254.5 89L272.5 71L280.5 67L260 53.5L238.5 46.5L229.5 46.5Z M394 150.5L387 161L393.5 157L398.5 159.5L402.5 157.5L403 171.5L410 165L409 159.5L399 150.5L394.5 150Z M400 173.5L387.5 187L386.5 194.5L399.5 183.5L400.5 173.5Z M273 262.5L268.5 273.5L274.5 275L281 268.5L273.5 262.5Z M315 273L318.5 302.5L320 286.5L315.5 272.5Z M503 284.5L485.5 291L482.5 295.5L493.5 291L512 290L512 284.5L503.5 284Z M313 314L313 320.5L317 324.5L319.5 320.5L315 319.5L313.5 313.5Z M191 322.5L187.5 325L190.5 327.5L182.5 340.5L194.5 326L191.5 322.5Z M309 329.5L306 335.5L300.5 336L300 343.5L306.5 345.5L314.5 343L315 331.5L309.5 329Z M175 333.5L166.5 342.5L156.5 346L154.5 371.5L156.5 376.5L164.5 364.5L158 368.5L158.5 361L175.5 333.5Z M308 389.5L304 402.5L318 423.5L346.5 512L356 512L355 499.5L340 470.5L328 429.5L313 401.5L316.5 391.5L308.5 389Z M176 412L175.5 436L180 426.5L176.5 411.5Z M17 465.5L16 512L28.5 512L31 505.5L26 494.5L26 473.5L23 467.5L17.5 465.5Z" fill="#d6aca2" stroke="none"/>
  <path d="M235.5 175.5L230.5 178.5L233.5 182.5L231 184.5L195 201.5L184.5 216L194.5 212L205 213.5L214.5 198L232.5 187L237 191.5L233 202L246.5 192.5L249.5 194.5L246 202L251 203.5L246.5 209.5L251 211.5L249.5 217.5L253.5 215.5L255.5 219L260 215.5L261.5 209.5L257.5 208L257.5 204.5L255 207.5L254 203.5L268.5 183.5L270 192L270.5 179.5L277.5 176.5L261.5 176L245.5 183.5L239.5 181.5L238.5 176L236 175.5Z M345 194.5L335.5 202L343 208.5L345.5 218.5L348.5 213.5L357.5 217.5L354 209.5L348.5 207.5L350 212.5L341.5 205L349.5 206L345.5 194.5Z M222 201.5L218.5 210L228.5 226.5L232.5 221.5L222.5 212L222.5 201.5Z M217 220L219 232L227 231.5L228 228L226 230.5L221.5 224.5L219.5 226.5L217.5 219.5Z M172.5 225L168.5 225.5L170.5 229.5L172.5 224.5Z M173 237L172.5 244L166 253.5L162.5 251.5L166.5 237.5L162 247.5L162.5 243.5L151 248.5L149.5 254.5L151.5 256.5L142.5 266L133.5 274L125 276L127.5 283.5L123.5 285.5L121.5 283.5L114.5 289.5L112 286.5L113.5 280L107 280.5L101.5 287.5L107.5 289L94.5 297L95 300.5L98.5 300.5L90 308.5L86 358.5L76.5 376L68.5 383L67.5 387.5L74 383.5L75 385.5L66 396.5L67.5 400.5L72.5 399L72.5 391.5L78.5 385.5L80 388L79.5 380L86.5 376.5L89.5 381L92 368.5L91 363L88 364.5L88.5 349L92.5 345.5L93.5 349.5L97.5 348.5L100.5 339L108.5 335.5L111 349.5L107 360.5L112.5 368.5L117.5 354L117 363.5L122.5 372.5L119.5 370.5L116 372.5L115 379.5L126.5 396.5L119.5 393L121 399L126.5 402.5L121 401.5L112.5 410.5L124 406.5L127.5 426.5L133 425.5L136 433.5L146.5 443L147 446.5L143.5 448.5L147.5 455L159.5 463.5L162.5 463L163 459.5L165 461.5L163.5 466.5L153.5 464.5L162.5 483.5L149.5 476L145.5 467.5L148.5 469.5L147.5 462L139.5 450L142 457.5L137.5 464.5L150 479.5L147 482.5L148 493.5L163.5 512L171.5 512L163.5 500.5L165.5 496.5L161.5 485.5L165.5 486L164.5 481.5L168 477.5L164.5 468.5L174.5 463.5L164 451.5L157.5 449.5L158.5 454L154.5 455.5L150.5 440.5L154.5 438L155 425.5L147.5 407.5L148.5 399.5L151.5 398L142.5 388.5L133.5 404L133 398.5L128.5 397.5L133 396.5L138.5 388L125.5 377L127.5 375.5L120.5 362L129 375L139.5 377.5L137.5 364.5L148 351.5L132.5 337L125 318.5L126 308.5L121.5 309.5L124.5 302.5L129 314L130 297L133 298L140 282.5L137.5 272.5L150 262.5L146 276.5L148.5 289L160.5 295.5L168.5 287L165.5 281.5L172.5 277.5L169.5 277L167 270.5L169 254.5L172.5 249.5L176 254.5L173.5 236.5Z M371.5 255.5L374.5 286.5L376 269.5L372 255.5Z M194 257L198 263.5L201.5 262.5L194.5 256.5Z M169 292L164.5 309.5L169 306.5L169.5 291.5Z M131 325L135.5 339.5L134.5 327.5L131.5 324.5Z M147 333L146.5 335.5L139.5 334.5L141 340L146.5 340.5L150.5 336L151.5 332.5L147.5 332.5Z M149 372L151.5 379.5L149.5 382L155.5 384.5L156 380L153.5 380.5L149.5 371.5Z M357 375.5L353.5 379.5L351 377L350 388.5L352 398L360.5 399L368 390.5L357.5 375.5Z M151.5 388.5L154.5 393.5L151.5 393L153.5 398.5L159.5 395L157 389.5L152 388.5Z M103 395L102.5 405L96 405.5L94.5 400.5L89.5 406L98.5 409L107 404.5L110.5 406L113.5 399L110.5 400.5L103.5 394.5Z M164.5 397L162.5 401L170 404L172.5 410.5L173 405.5L164.5 396.5Z M7.5 399.5L21.5 411L19 405.5L8 399.5Z M512 452.5L500.5 464L484 512L501 486.5L504 470.5L512 460.5L512 452.5Z M70 460L67.5 463L68.5 473.5L73 468.5L70.5 459.5Z M399 466.5L396 473.5L402 482.5L409.5 486L416 485L403 479.5L399 470.5L405.5 467L399.5 466.5Z M11 474.5L0 477L0 486.5L13.5 500L14.5 506.5L15 497.5L8.5 486.5L11.5 474.5Z M69 478L67.5 488L63 487L63.5 492.5L68.5 490L69.5 477.5Z M460 481.5L446.5 492.5L454 496.5L451 512L466 512L482 486.5L479.5 481.5L475.5 482L459.5 493L460.5 481.5Z M119 487.5L119.5 512L121.5 512L122.5 504.5L126 512L134 512L125.5 491L120 487.5Z M142.5 488L147.5 502L148.5 500.5L154.5 506.5L142.5 487.5Z M134 491L134.5 500.5L140 512L142 506.5L134.5 490.5Z" fill="#763764" stroke="none"/>
  <path d="M327.5 0L338.5 56.5L339 37.5L328 0Z M504.5 0L505.5 5L512 6L504.5 0Z M207 44.5L191.5 48L173.5 59.5L172.5 63.5L177.5 66.5L186 83.5L178.5 102.5L176 118.5L180.5 124L188.5 125.5L165 165.5L166.5 191L175.5 193.5L167.5 197.5L175 200L164 206.5L171.5 214.5L191.5 200L192 196.5L200.5 198L203.5 190.5L206 194.5L227 174.5L227.5 171.5L223.5 171L211.5 176.5L194 159.5L188 146.5L193.5 132L220.5 106.5L213 80.5L197 58.5L199 52.5L218.5 45.5L207.5 44Z M429 201L413 237.5L381.5 344.5L380 331L378.5 334.5L377 331L378.5 351.5L383.5 352L390 342.5L407.5 261.5L417.5 232L432 211.5L429.5 200.5Z M238 234.5L231.5 240.5L237 239.5L238.5 234.5Z M149 239.5L143 244.5L142 250.5L147.5 246.5L149.5 239.5Z M265 247.5L260.5 251L275 254.5L274 249.5L265.5 247Z M135.5 254L132.5 259.5L139.5 257L135.5 253.5Z M321 270.5L319.5 275.5L325.5 276L325.5 280L333.5 289.5L334 278L321.5 270.5Z M247 272.5L239.5 279L248.5 275L261.5 280L268.5 276.5L267 272.5L257.5 276L247.5 272.5Z M97 278.5L92 282.5L93.5 288.5L99.5 280.5L97.5 278.5Z M204 292.5L196.5 306.5L199.5 294L196.5 296L188 317L194.5 318L204.5 292.5Z M335 315L327.5 344L313.5 348.5L316 352.5L320 352L321.5 358.5L335.5 331L335.5 314.5Z M29 327L28 355.5L31.5 382.5L29.5 326.5Z M153 349.5L149.5 354.5L153.5 363.5L157 355.5L153.5 349.5Z M447 350L446.5 355.5L450.5 358.5L447.5 349.5Z M70 352.5L63.5 357L67.5 358L70.5 352.5Z M446 358.5L446 381.5L437.5 390L424.5 392L390.5 383.5L383.5 387L379.5 395L380.5 399.5L398.5 405L415 415.5L417 423.5L409 438.5L414.5 460L402 460L380.5 451L373.5 420.5L368.5 459L382.5 457L410 465.5L421 473L429 456.5L430 432.5L443.5 421L445.5 414L427.5 414.5L405.5 400L403 394.5L448 391.5L452 367.5L446.5 358.5Z M266 381L267.5 398.5L270 385.5L266.5 380.5Z M65 422.5L65 441.5L67.5 444.5L69.5 427.5L65.5 422.5Z M35 480L33 498L28.5 494.5L32.5 512L35.5 512L37 503.5L35.5 479.5Z" fill="#c26b69" stroke="none"/>
</svg>
