<svg width="400" height="400" viewBox="0 0 400 400" xmlns="http://www.w3.org/2000/svg">
  <rect width="400" height="400" fill="#83f183"/>
  <path d="M0 0L0 199L137 200L117 188.5L107 176.5L100 156.5L101 138.5L113 116.5L132.5 103L156.5 100L175.5 106.5L199.5 99L199.5 0L0 0Z M175 194.5L163.5 199.5L187.5 199.5L175.5 194.5Z" fill="#ffb6c1" stroke="none"/>
  <path d="M301.5 201L298 218.5L288 234.5L276.5 244L256.5 251L238.5 250L221 241.5L207.5 227L200 209L201 400L400 400L400 201L302 200.5Z M300.5 250.5L350 351L250.5 350.5L300 251Z" fill="#e7a7d4" stroke="none"/>
  <path d="M0 201L0 400L199 400L199.5 202L0 200.5Z M51 250.5L150 250.5L150.5 350L51 350.5L50.5 251Z" fill="#96c5e8" stroke="none"/>
  <path d="M50.5 251L50.5 350L150 350.5L150.5 251L51 250.5Z" fill="#ffd700" stroke="none"/>
  <path d="M193 100.5L174.5 107L162.5 117L151 138.5L150 155.5L157 176.5L166.5 188L182 197.5L197.5 201L203.5 182L213 166.5L232 153.5L250 149.5L251 145.5L244 124.5L234 112.5L212.5 101L193.5 100Z" fill="#70ade7" stroke="none"/>
  <path d="M300 251L250.5 350.5L350 351L300.5 250.5Z" fill="#ff4500" stroke="none"/>
  <path d="M143 100.5L124.5 107L112.5 117L101 138.5L100 156.5L107 176.5L117 188.5L138.5 200L156.5 201L174.5 194.5L163 184.5L154 170.5L150 144.5L157.5 124L174.5 106.5L162.5 101L143.5 100Z" fill="#ff6245" stroke="none"/>
</svg>
