<svg xmlns="http://www.w3.org/2000/svg" width="400" height="400" viewBox="0 0 400 400">
  <rect width="400" height="400" fill="#87ceeb"/>
  <path fill="#98fb98" stroke="#98fb98" stroke-width="0.5" stroke-linejoin="round" d="M200,0L200,99.5C226.66,99.56 251.13,122.59 251,149.5C257.76,150.43 265.77,150.53 271.5,155L272.5,155C282.64,159.77 291.23,168.36 296,178.5L296,179.5C300.19,185.13 301.39,192.63 301,199.5L400,200L400,0L200.5,0Z"/>
  <path fill="#ffb6c1" stroke="#ffb6c1" stroke-width="0.5" stroke-linejoin="round" d="M0,0L0,199.5L138,199.5C78.33,187.26 96.13,90.26 156.5,100C163.26,100.79 169.91,103.04 175.5,107C182.39,102.15 191.04,99.33 199.5,100L200,0L0,0ZM175,194.5L163,199.5L188,199.5L175,194.5Z"/>
  <path fill="#dda0dd" stroke="#dda0dd" stroke-width="0.5" stroke-linejoin="round" d="M301,200.5C304.08,251.31 226.03,270.77 206,223.5L200.5,208L200,400L400,400L400,200.5L301,200.5ZM300.5,250L351,350.5L250,350.5L300.5,250Z"/>
  <path fill="#ffd700" stroke="#ffd700" stroke-width="0.5" stroke-linejoin="round" d="M50,250.5L50.5,351L151,350.5L150.5,250L50,250.5Z"/>
  <path fill="#32cd32" stroke="#32cd32" stroke-width="0.5" stroke-linejoin="round" d="M243,150.5C220.93,153.5 202.94,172.56 200,194.5C190.89,248.97 276.14,266.15 296,221.5C301.41,213.8 301.55,203.47 301,194.5C300.95,187.05 296.44,181.19 293.92,174.58C289.3,165.72 280.96,159.48 272.5,155L271.5,155C263.51,149.39 252.75,149.47 243.5,150L243,150.5Z"/>
  <path fill="#4169e1" stroke="#4169e1" stroke-width="0.5" stroke-linejoin="round" d="M193,100.5C134.85,106.27 139.67,203.06 199.5,201C199.37,174.04 223.21,149.04 250.5,150C252.13,120.72 222.26,95.71 193.5,100L193,100.5Z"/>
  <path fill="#ff4500" stroke="#ff4500" stroke-width="0.5" stroke-linejoin="round" d="M300,250.5L250,350.5L351,350.5L300,250.5Z"/>
  <path fill="#ff6347" stroke="#ff6347" stroke-width="0.5" stroke-linejoin="round" d="M143,100.5L127.5,106C84.85,127.36 103.02,210.16 156.5,201C163.05,200.26 169.43,198.03 175,194.5C166.16,189.49 159.54,181.21 155,172.5L155,171.5C142.01,149.22 153.86,119.1 175,106.5C165.76,100.54 154.32,98.69 143.5,100L143,100.5Z"/>
</svg>