<svg xmlns="http://www.w3.org/2000/svg" width="400" height="400" viewBox="0 0 400 400">
  <rect width="400" height="400" fill="#ffffff"/>
  <path fill="#ffff00" stroke="#ffff00" stroke-width="0.5" stroke-linejoin="round" d="M250,200.5L250.5,351L351,350.5L350.5,200L250,200.5Z"/>
  <path fill="#0000ff" stroke="#0000ff" stroke-width="0.5" stroke-linejoin="round" d="M200,50.5L200.5,151L351,150.5L350.5,50L200,50.5Z"/>
  <path fill="#008000" stroke="#008000" stroke-width="0.5" stroke-linejoin="round" d="M125,200.5L50,350.5L201,350.5L125,200.5Z"/>
  <path fill="#ff0000" stroke="#ff0000" stroke-width="0.5" stroke-linejoin="round" d="M93,50.5L78.5,55C68.36,59.77 59.77,68.36 55,78.5L55,79.5C41.4,102.83 55.1,135.2 78.5,146L79.5,146C87.2,151.41 97.53,151.55 106.5,151C112.63,150.5 118.36,148.24 123.5,145C166.15,123.18 147.17,40.16 93.5,50L93,50.5Z"/>
</svg>