<svg xmlns="http://www.w3.org/2000/svg" width="400" height="400" viewBox="0 0 400 400">
  <rect width="400" height="400" fill="#eeeeee"/>
  <path fill="#8e01d0" stroke="#8e01d0" stroke-width="0.5" stroke-linejoin="round" d="M163,3L194,3L194,4L163,4ZM204,3L238,3L238,4L204,4ZM146,7L194,7L194,8L146,8ZM204,7L255,7L255,8L204,8ZM134,11L177,11L177,12L134,12ZM224,11L267,11L267,12L224,12ZM123,15L155,15L155,16L123,16ZM246,15L278,15L278,16L246,16ZM114,19L141,19L141,20L114,20ZM260,19L287,19L287,20L260,20ZM106,23L130,23L130,24L106,24ZM271,23L295,23L295,24L271,24ZM99,27L121,27L121,28L99,28ZM280,27L302,27L302,28L280,28ZM181,71L220,71L220,72L181,72ZM163,75L233,75L233,76L163,76ZM152,79L249,79L249,80L152,80ZM149,83L172,83L172,84L149,84ZM229,83L258,83L258,84L229,84ZM373,84.5L370.08,91.42L377.42,94.92L380.92,87.58L373,84.5ZM135,87L159,87L159,88L135,88ZM242,87L266,87L266,88L242,88ZM96,142.5L93.08,149.42L100.42,152.92L103.92,145.58L96,142.5ZM171,147L193,147L193,148L171,148ZM206,147L230,147L230,148L206,148ZM165,151L188,151L188,152L165,152ZM213,151L236,151L236,152L213,152ZM52,183.5L49,188.5L54.5,192L58,186.5L52,183.5ZM118,196.5L118,201.5L124,201.5L123.5,196L118,196.5ZM168,251L208,251L208,252L168,252ZM175,255L208,255L208,256L175,256ZM187,259L214,259L214,260L187,260ZM247,311L269,311L269,312L247,312ZM139,315L165,315L165,316L139,316ZM236,315L262,315L262,316L236,316ZM147,319L182,319L182,320L147,320ZM157,323L234,323L234,324L157,324ZM171,327L230,327L230,328L171,328ZM96,371L117,371L117,372L96,372ZM284,371L305,371L305,372L284,372ZM103,375L125,375L125,376L103,376ZM276,375L298,375L298,376L276,376ZM110,379L135,379L135,380L110,380ZM266,379L291,379L291,380L266,380ZM119,383L148,383L148,384L119,384ZM253,383L282,383L282,384L253,384ZM128,387L153,387L153,388L128,388ZM237,387L273,387L273,388L237,388ZM162,391L261,391L261,392L162,392ZM154,395L247,395L247,396L154,396ZM176,399L225,399L225,400L176,400Z"/>
  <path fill="#490380" stroke="#490380" stroke-width="0.5" stroke-linejoin="round" d="M177,11L224,11L224,12L177,12ZM155,15L246,15L246,16L155,16ZM141,19L260,19L260,20L141,20ZM140,23L165,23L165,24L140,24ZM236,23L271,23L271,24L236,24ZM252,27L280,27L280,28L252,28ZM264,31L288,31L288,32L264,32ZM274,35L296,35L296,36L274,36ZM172,83L229,83L229,84L172,84ZM159,87L190,87L190,88L159,88ZM199,87L242,87L242,88L199,88ZM149,91L182,91L182,92L149,92ZM235,95L259,95L259,96L235,96ZM245,99L266,99L266,100L245,100ZM115,101.5L115,106.5L121,106.5L120.5,101L115,101.5ZM178,155L223,155L223,156L178,156ZM171,159L230,159L230,160L171,160ZM59,185.5L57.08,190.42L62.42,192.92L64.92,187.58L59,185.5ZM169,239L190,239L190,240L169,240ZM211,239L232,239L232,240L211,240ZM174,243L227,243L227,244L174,244ZM182,247L219,247L219,248L182,248ZM138,303L161,303L161,304L138,304ZM240,303L263,303L263,304L240,304ZM151,307L173,307L173,308L151,308ZM154,311L247,311L247,312L154,312ZM165,315L236,315L236,316L165,316ZM234,318.5L234,330.5L246.5,331L246.5,318L234,318.5ZM182,319L219,319L219,320L182,320ZM29,333.5L25.08,340.42L29.58,344.92L35,343.5L37,337.5L29,333.5ZM102,363L123,363L123,364L102,364ZM278,363L299,363L299,364L278,364ZM109,367L132,367L132,368L109,368ZM269,367L292,367L292,368L269,368ZM0,369.5L0,374.42L6.42,376.92L8.92,371.58L0,369ZM117,371L143,371L143,372L117,372ZM258,371L284,371L284,372L258,372ZM125,375L156,375L156,376L125,376ZM245,375L276,375L276,376L245,376ZM135,379L177,379L177,380L135,380ZM224,379L266,379L266,380L224,380ZM148,383L253,383L253,384L148,384ZM164,387L237,387L237,388L164,388Z"/>
  <path fill="#05f603" stroke="#05f603" stroke-width="0.5" stroke-linejoin="round" d="M115,29.5L111.08,37.42L115.58,41.92L122.5,40L123.92,33.58L115,29.5ZM178,31L223,31L223,32L178,32ZM158,35L243,35L243,36L158,36ZM57,38.5L57,43.5L63,43.5L62.5,38L57,38.5ZM144,39L257,39L257,40L144,40ZM134,43L167,43L167,44L134,44ZM234,43L267,43L267,44L234,44ZM125,47L152,47L152,48L125,48ZM249,47L276,47L276,48L249,48ZM118,51L141,51L141,52L118,52ZM260,51L283,51L283,52L260,52ZM381,52.5L377.08,56.58L378.08,61.42L384.42,63.92L388.92,56.58L381,52.5ZM111,55L132,55L132,56L111,56ZM269,55L290,55L290,56L269,56ZM177,103L227,103L227,104L177,104ZM163,107L238,107L238,108L163,108ZM154,111L184,111L184,112L154,112ZM217,111L247,111L247,112L217,112ZM147,115L170,115L170,116L147,116ZM231,115L254,115L254,116L231,116ZM183,175L218,175L218,176L183,176ZM179,179L222,179L222,180L179,180ZM181,223L220,223L220,224L181,224ZM186,227L215,227L215,228L186,228ZM226,278.5L224.08,283.42L229.42,285.92L231.92,280.58L226,278.5ZM144,283L165,283L165,284L144,284ZM236,283L257,283L257,284L236,284ZM225,287L251,287L251,288L225,288ZM158,291L243,291L243,292L158,292ZM168,295L233,295L233,296L168,296ZM115,347L136,347L136,348L115,348ZM121,351L146,351L146,352L121,352ZM130,355L159,355L159,356L130,356ZM242,355L271,355L271,356L242,356ZM139,359L179,359L179,360L139,360ZM222,359L262,359L262,360L222,360ZM151,363L180,363L180,364L151,364ZM191,363L250,363L250,364L191,364ZM190,367L235,367L235,368L190,368Z"/>
  <path fill="#0000fc" stroke="#0000fc" stroke-width="0.5" stroke-linejoin="round" d="M165,23L236,23L236,24L165,24ZM149,27L252,27L252,28L149,28ZM140,31L178,31L178,32L140,32ZM223,31L264,31L264,32L223,32ZM127,35L158,35L158,36L127,36ZM243,35L274,35L274,36L243,36ZM123,39L144,39L144,40L123,40ZM257,39L282,39L282,40L257,40ZM112,43L134,43L134,44L112,44ZM267,43L289,43L289,44L267,44ZM199,95L222,95L222,96L199,96ZM177,99L222,99L222,100L177,100ZM227,103L253,103L253,104L227,104ZM141,107L163,107L163,108L141,108ZM238,107L260,107L260,108L238,108ZM184,163L217,163L217,164L184,164ZM177,167L224,167L224,168L177,168ZM175,231L226,231L226,232L175,232ZM180,235L221,235L221,236L180,236ZM190,239L211,239L211,240L190,240ZM144,295L168,295L168,296L144,296ZM233,295L257,295L257,296L233,296ZM152,299L183,299L183,300L152,300ZM218,299L249,299L249,300L218,300ZM161,303L229,303L229,304L161,304ZM173,307L228,307L228,308L173,308ZM108,355L130,355L130,356L108,356ZM271,355L293,355L293,356L271,356ZM115,359L139,359L139,360L115,360ZM262,359L286,359L286,360L262,360ZM123,363L151,363L151,364L123,364ZM250,363L278,363L278,364L250,364ZM132,367L166,367L166,368L132,368ZM235,367L269,367L269,368L235,368ZM143,371L258,371L258,372L143,372ZM239,373.5L184,375.5L245,375.5L239,373.5ZM156,375L177,375L177,376L156,376ZM184,379L224,379L224,380L184,380Z"/>
  <path fill="#f7fa03" stroke="#f7fa03" stroke-width="0.5" stroke-linejoin="round" d="M167,43L194,43L194,44L167,44ZM204,43L234,43L234,44L204,44ZM152,47L193,47L193,48L152,48ZM205,47L249,47L249,48L205,48ZM141,51L179,51L179,52L141,52ZM222,51L260,51L260,52L222,52ZM132,55L160,55L160,56L132,56ZM241,55L269,55L269,56L241,56ZM253,59L277,59L277,60L253,60ZM263,63L284,63L284,64L263,64ZM184,111L217,111L217,112L184,112ZM170,115L231,115L231,116L170,116ZM160,119L241,119L241,120L160,120ZM153,123L177,123L177,124L153,124ZM224,123L248,123L248,124L224,124ZM189,183L212,183L212,184L189,184ZM185,187L216,187L216,188L185,188ZM183,211L218,211L218,212L183,212ZM187,215L214,215L214,216L187,216ZM266,247.5L266,250.5L263,251.5L266,252.5L265.5,255L271.42,255.92L275,251.5L273.5,248L266,247.5ZM150,275L171,275L171,276L150,276ZM230,275L251,275L251,276L230,276ZM180,283L224,283L224,284L180,284ZM180,287L225,287L225,288L180,288ZM108,335.5L108,341.5L118.5,346L119.5,336L134,335.5L108,335.5ZM120,339L143,339L143,340L120,340ZM128,343L154,343L154,344L128,344ZM207,343.5L204,346.5L205,350.5L146,351.5L212,350.5L213,346.5L207,343.5ZM136,347L168,347L168,348L136,348ZM233,347L263,347L263,348L233,348ZM233,351L255,351L255,352L233,352ZM159,355L242,355L242,356L159,356ZM188,359L222,359L222,360L188,360Z"/>
  <path fill="#f87f02" stroke="#f87f02" stroke-width="0.5" stroke-linejoin="round" d="M201,51L222,51L222,52L201,52ZM160,55L241,55L241,56L160,56ZM148,59L253,59L253,60L148,60ZM139,63L169,63L169,64L139,64ZM232,63L263,63L263,64L232,64ZM133,67L155,67L155,68L133,68ZM246,67L271,67L271,68L246,68ZM256,71L278,71L278,72L256,72ZM177,123L224,123L224,124L177,124ZM230,124.5L229.5,127L210,127.5L229.5,128L229.5,131L215,131.5L229.5,132L228,135.5L241.5,135L240.5,124L230,124.5ZM167,127L204,127L204,128L167,128ZM159,131L186,131L186,132L159,132ZM38,142.5L35,147.5L40.5,151L44,145.5L38,142.5ZM389,194.5L389,201.5L400,202L400,194L389,194.5ZM190,199L211,199L211,200L190,200ZM190,203L211,203L211,204L190,204ZM156,267L179,267L179,268L156,268ZM222,267L245,267L245,268L222,268ZM163,271L238,271L238,272L163,272ZM187,275L230,275L230,276L187,276ZM186,279L216,279L216,280L186,280ZM120,327L141,327L141,328L120,328ZM260,327L281,327L281,328L260,328ZM345,330.5L343.08,335.42L348.42,337.92L350.92,332.58L345,330.5ZM127,331L150,331L150,332L127,332ZM251,331L274,331L274,332L251,332ZM134,335L162,335L162,336L134,336ZM239,335L267,335L267,336L239,336ZM143,339L180,339L180,340L143,340ZM221,339L258,339L258,340L221,340ZM154,343L207,343L207,344L154,344ZM225,343.5L227,344.5L224,347.5L226.5,352L233,351.5L232,344.5L247,343.5L225,343.5ZM168,347L204,347L204,348L168,348Z"/>
  <path fill="#fc0100" stroke="#fc0100" stroke-width="0.5" stroke-linejoin="round" d="M169,63L232,63L232,64L169,64ZM155,67L246,67L246,68L155,68ZM116,70.5L112.08,77.42L119.42,81.92L124,75.5L122,71.5L116,70.5ZM145,71L181,71L181,72L145,72ZM136,75L163,75L163,76L136,76ZM244,75L265,75L265,76L244,76ZM249,79L272,79L272,80L249,80ZM186,131L215,131L215,132L186,132ZM173,135L228,135L228,136L173,136ZM165,139L236,139L236,140L165,140ZM159,143L180,143L180,144L159,144ZM221,143L242,143L242,144L221,144ZM162,259L187,259L187,260L162,260ZM214,259L239,259L239,260L214,260ZM169,263L232,263L232,264L169,264ZM179,267L222,267L222,268L179,268ZM126,319L147,319L147,320L126,320ZM254,319L275,319L275,320L254,320ZM133,323L157,323L157,324L133,324ZM247,323L268,323L268,324L247,324ZM141,327L171,327L171,328L141,328ZM150,331L251,331L251,332L150,332ZM162,335L239,335L239,336L162,336ZM180,339L221,339L221,340L180,340Z"/>
  <path fill="#55cf9e" stroke="#55cf9e" stroke-width="0.5" stroke-linejoin="round" d="M194,0L194,10.5L203.5,11L203.5,0L194.5,0ZM8,47.5L8,54.5L16,54.5L15.5,47L8,47.5ZM166,93.5L166,103.5L177,103.5L176.5,93L166,93.5ZM71,126.5L71,137.5L82.5,138L82.5,126L71,126.5ZM55,127.5L55,133.5L62,133.5L61.5,127L55,127.5ZM369,175.5L367,179.5L371.5,182L374,177.5L369,175.5ZM133,194.5L133,202.5L142,202.5L141.5,194L133,194.5ZM139,223.5L139,233.5L150,233.5L149.5,223L139,223.5ZM19,240.5L19,246.5L26,246.5L25.5,240L19,240.5ZM38,263.5L36,267.5L40.5,270L43,265.5L38,263.5ZM68,326.5L68.58,333.92L73.92,328.58L68,326.5ZM45,329.5L42.08,335.42L48.42,338.92L51.92,332.58L45,329.5ZM13,383.5L9.08,390.42L16.42,394.92L20.92,390.42L18.42,384.08L13,383.5Z"/>
  <path fill="#52292f" stroke="#52292f" stroke-width="0.5" stroke-linejoin="round" d="M133,91.5L133,103.5L146,103.5L145.5,91L133,91.5ZM304,239.5L305,242.5L298,251.5L307.42,255.92L311.58,251.08L316.5,251L316.5,239L304,239.5ZM145,305.5L145.58,312.92L150.92,307.58L145,305.5ZM47,324.5L47,328.5L52.5,334L57,333.5L56.5,324L47,324.5ZM43,374.5L43,384.5L59,383.5L54,382.5L53.5,374L43,374.5ZM342,376.5L342,382.5L349,382.5L348.5,376L342,376.5Z"/>
  <path fill="#2971b6" stroke="#2971b6" stroke-width="0.5" stroke-linejoin="round" d="M130,22.5L130.5,32L139.5,32L139.5,22L130,22.5ZM122,64.5L122.5,75L132.5,75L132.5,64L122,64.5ZM192,85.5L188.08,93.42L196.42,97.92L200.92,89.58L192,85.5ZM83,90.5L83,99.5L92.5,100L92.5,90L83,90.5ZM49,111.5L47,115.5L51.5,118L54,113.5L49,111.5ZM229,301.5L229,308.5L237,308.5L236.5,301L229,301.5ZM218,340.5L215.08,346.42L221.42,349.92L224.92,343.58L218,340.5Z"/>
  <path fill="#a3965e" stroke="#a3965e" stroke-width="0.5" stroke-linejoin="round" d="M298,13.5L296.08,18.42L301.42,20.92L303.92,15.58L298,13.5ZM197,40.5L193.08,47.42L197.58,51.92L203.92,49.42L204.92,44.58L197,40.5ZM281,84.5L281,91.5L288.5,92L288.5,84L281,84.5ZM328,174.5L328,178.5L332.5,179L332.5,174L328,174.5ZM238,194.5L236.08,199.42L241.42,201.92L243.92,196.58L238,194.5ZM344,209.5L341,214.5L346.5,218L350,212.5L344,209.5ZM211,248.5L208.08,255.42L211.58,258.92L219,255.5L215,251.5L217,249.5L211,248.5ZM374,303.5L374,310.5L381.5,311L381.5,303L374,303.5ZM305,353.5L303,357.5L307.5,360L310,355.5L305,353.5ZM183,359.5L180.08,366.42L183.58,369.92L190.92,366.42L190.92,362.58L183,359.5ZM81,380.5L81,390.5L92,390.5L91.5,380L81,380.5Z"/>
  <path fill="#bc2e6a" stroke="#bc2e6a" stroke-width="0.5" stroke-linejoin="round" d="M142,79.5L142,85.5L149,85.5L148.5,79L142,79.5ZM123,139.5L120,144.5L125.5,148L129,142.5L123,139.5ZM16,161.5L16.08,169.42L26,170.5L25.5,161L16,161.5ZM169,277.5L169,287.5L180,287.5L179.92,281.58L176.5,277L169,277.5ZM263,339.5L263,351.5L276,351.5L275.5,339L263,339.5ZM94,356.5L90.08,363.42L97.42,367.92L101.92,363.42L99.42,357.08L94,356.5ZM356,374.5L356,385.5L367.5,386L367.5,374L356,374.5Z"/>
  <path fill="#c57fd2" stroke="#c57fd2" stroke-width="0.5" stroke-linejoin="round" d="M312,37.5L312,47.5L323,47.5L322.5,37L312,37.5ZM370,292.5L370,304.5L382.5,305L382.5,292L370,292.5ZM107,342.5L104,347.5L109.5,351L113,345.5L107,342.5ZM155,385.5L152.08,391.42L158.42,394.92L161.92,391.42L158.42,385.08L155,385.5Z"/>
  <path fill="#b33ca6" stroke="#b33ca6" stroke-width="0.5" stroke-linejoin="round" d="M194,142.5L194,152.5L204.5,153L204.5,142L194,142.5ZM180,272.5L177.08,278.42L183.42,281.92L186.92,275.58L180,272.5ZM35,340.5L35,348.5L44,348.5L43.5,340L35,340.5Z"/>
  <path fill="#d225ca" stroke="#d225ca" stroke-width="0.5" stroke-linejoin="round" d="M67,21.5L67.58,28.92L79,27.5L73.5,27L73.5,24L79,23.5L67,21.5ZM78,321.5L78,326.5L84,326.5L83.5,321L78,321.5ZM179,373.5L176,378.5L181.5,382L185,376.5L179,373.5Z"/>
</svg>