<svg xmlns="http://www.w3.org/2000/svg" width="400" height="400" viewBox="0 0 400 400">
  <rect width="400" height="400" fill="#f6f6f6"/>
  <path fill="#dfdfdf" stroke="#dfdfdf" stroke-width="0.5" stroke-linejoin="round" d="M0,4.5L0,7L79,5.5L0,4ZM164,4.5L148,5.5L193.5,7L193.5,4L164,4.5ZM204,4.5L204.5,7L253,5.5L204,4.5ZM322,4.5L400,7L400,4L322,4.5ZM0,12.5L0,15L79,13.5L0,12ZM135,12.5L276,13.5L135,12.5ZM322,12.5L400,15L400,12L322,12.5ZM115,20.5L293,21.5L115,20.5ZM0,28.5L0,31L77.42,28.08L0,28ZM100,28.5L95,29.5L115,29.5L100,28.5ZM140,28.5L142.5,31L306,29.5L140,28.5ZM322,28.5L320,29.5C344.7,37.8 373.86,30.05 400,31L400,28L322,28.5ZM380,35.5L369,37.5L389,35.5L380,35.5ZM88,36.5L83,37.5L108.5,39L111,36.5L88,36.5ZM124,36.5L126.5,39L312,38.5L309.5,36L124,36.5ZM78,43.5L0,44L0,47L190.5,47L193,44.5L78,43.5ZM360,43.5L323,44.5L325.5,47L400,47L400,44L360,43.5ZM205,44.5L207.5,47L309.5,47L312,44.5L205,44.5ZM97,48.5L96.5,52L16,53.5C31.96,61.67 51.31,52.04 68.5,56L377.5,56L380,52.5L102,51.5L101.5,48L97,48.5ZM387,52.5L388.58,54.92L400,55L400,52L387,52.5ZM59,60.5L50,63.5L135,62.5L132.5,60L59,60.5ZM141,60.5L142.5,63L328.5,61L141,60.5ZM377,60.5L349,61.5L350.58,63.92L378,61.5L377,60.5ZM50,67.5L0,68L0,71L121.5,71L121.5,68L50,67.5ZM350,67.5L133.5,68L133.5,71L232.5,71L232.5,76L124,76.5L126.5,79L361,76.5L244,75.5L244.5,71L400,71L400,68C386.33,68.67 373.17,68.33 360.5,67L350,67.5ZM50,75.5L39,77.5L109.5,79L112,76.5L50,75.5ZM39,84.5L36,85.5L139.5,87L142,84.5L39,84.5ZM149,84.5L151.5,87L192,85.5L149,84.5ZM198,84.5L199.5,87L281,86.5L278.5,84L198,84.5ZM290,84.5L289,86.5L365,85.5L290,84.5ZM33,92.5L31,93.5L82.5,95L82.5,92L33,92.5ZM93,92.5L93.5,95L133,94.5L130.5,92L93,92.5ZM147,92.5L146,94.5L166,94.5L164.42,92.08L147,92.5ZM178,92.5L177,94.5L186.42,94.92L188,92.5L178,92.5ZM201,92.5L203.5,95L221.5,95L221.5,92L201,92.5ZM234,92.5L234.5,95L371,93.5L234,92.5ZM28,100.5L26,101.5L115,102.5L112.5,100L28,100.5ZM122,100.5L121,102.5L131.42,102.92L133,100.5L122,100.5ZM146,100.5L147.58,102.92L163.5,103L166,100.5L146,100.5ZM177,100.5L179.5,103L223,101.5L177,100.5ZM234,100.5L372.5,103L375,101.5L234,100.5ZM24,108.5L22,109.5L376.5,111L379,109.5L24,108.5ZM20,116.5L18,117.5L46.5,119L49,117.5L20,116.5ZM53,116.5L54.5,119L113.5,119L116,116.5L53,116.5ZM120,116.5L122.5,119L383,117.5L120,116.5ZM16,124.5L202.5,127L205,125.5L16,124.5ZM210,124.5L211.5,127L230,126.5L227.5,124L210,124.5ZM242,124.5L241,126.5C287.2,142.06 342.42,145.32 387,125.5L242,124.5ZM13,132.5L52.5,135L55,132.5L13,132.5ZM83,132.5L83.5,135L227.5,135L230,132.5L83,132.5ZM241,132.5L243.5,135L390,133.5L241,132.5ZM11,140.5L9,141.5L118.5,143L121,141.5L11,140.5ZM129,140.5L130.5,143L392,141.5L129,140.5ZM155,146.5L104,148.5L106.5,151L154.5,151L155.5,153L162.5,151L193.5,151L193.5,148L155,146.5ZM8,148.5L34.42,150.92L36,148.5L8,148.5ZM43,148.5L45.5,151L90.5,151L93,148.5L43,148.5ZM205,148.5L205.5,151L395,149.5L205,148.5ZM6,156.5L400,157.5L6,156.5ZM5,164.5L0,165.5L15.5,167L15.5,164L5,164.5ZM26,164.5L26.5,167L400,165.5L26,164.5ZM0,172.5L400,175L400,172L0,172ZM0,180.5L0,183L64.5,183L67,180.5L0,180ZM72,180.5L74.5,183L369,181.5L72,180.5ZM373,180.5L374.5,183L400,184L400,180L373,180.5ZM0,188.5L0,191L50,189.5L0,188ZM65,188.5L67.5,191L400,192L400,188L65,188.5ZM0,196.5L0,199L118,198.5L115.5,196L0,196ZM125,196.5L124,198.5L132.5,199L132.5,196L125,196.5ZM142,196.5L142.5,199L236,198.5L233.5,196L142,196.5ZM245,196.5L244,198.5L388.5,199L388.5,196L245,196.5ZM0,204.5L0,207L400,208L400,204L0,204ZM0,212.5L0,215L340.5,215L340.5,212L0,212ZM350,212.5L350.5,215L367.5,215L367.5,212L350,212.5ZM379,212.5L379.5,215L400,216L400,212L379,212.5ZM0,220.5L0,223L400,224L400,220L0,220ZM0,228.5L138.5,231L138.5,228L0,228ZM150,228.5L150.5,231L400,231L400,228L150,228.5ZM5,236.5L400,237.5L5,236.5ZM7,244.5L17.42,246.92L19,244.5L7,244.5ZM26,244.5L28.5,247L301,245.5L26,244.5ZM317,244.5L317.5,247L396,245.5L317,244.5ZM216,250.5L215,253.5L263.5,255L266,252.5C250.29,246.7 231.6,258.16 216.5,250L216,250.5ZM9,252.5L207.5,255L207.5,252L9,252.5ZM273,252.5L275.5,255L297.5,255L300,252.5L273,252.5ZM310,252.5L312.5,255L394,253.5L310,252.5ZM11,260.5L392,261.5L11,260.5ZM14,268.5L35.5,271L38,269.5L14,268.5ZM42,268.5L43.5,271L389,269.5L42,268.5ZM17,276.5L169,278.5L166.5,276L17,276.5ZM187,276.5L189.5,279L386,277.5L187,276.5ZM20,284.5L166.5,287L169,284.5L20,284.5ZM180,284.5L182.5,287L226,285.5L180,284.5ZM231,284.5L232.5,287L382,285.5L231,284.5ZM24,292.5L369.5,295L369.5,292L24,292.5ZM341,296.5L338.5,300L239.5,300L237,302.5L338.5,303L339.5,306L347.5,306L348.5,303L369.5,303L369.5,300L348.5,300L347.5,297L341,296.5ZM28,300.5L196.5,303L199,301.5L28,300.5ZM204,300.5L205.5,303L229,302.5L227.42,300.08L204,300.5ZM33,308.5L140.5,311L143,308.5L33,308.5ZM151,308.5L153.5,311L369,309.5L151,308.5ZM38,316.5L364,317.5L38,316.5ZM0,324.5L0,327L47,326.5L44.5,324L0,324ZM58,324.5L57,326.5L76.42,326.92L78,324.5L58,324.5ZM84,324.5L86.5,327L233.5,327L233.5,324L84,324.5ZM247,324.5L247.5,327L400,327L400,324L247,324.5ZM0,332.5L0,335L29,333.5L0,332ZM73,332.5L74.5,335L343,334.5L340.5,332L73,332.5ZM352,332.5L351,334.5L400,335L400,332L352,332.5ZM46,340.5L44,342.5L48.5,344L105.5,343L108,340.5L46,340.5ZM119,340.5L119.5,343L217,341.5L119,340.5ZM224,340.5L225.5,343L263,342.5L260.5,340L224,340.5ZM277,340.5L276,342.5L357,341.5L277,340.5ZM48,347.5C32.91,354.95 14.86,333.09 0,348L0,351L102.5,351L105,348.5L48,347.5ZM340,347.5L276,348.5L278.5,351L400,351L400,348L340,347.5ZM115,348.5L116.5,351L205,349.5L115,348.5ZM233,348.5L234.58,350.92L260.5,351L263,348.5L233,348.5ZM30,355.5L20,357.5L57,357.5L30,355.5ZM330,355.5L310,356.5L311.58,358.92L357,357.5L330,355.5ZM77,356.5L72,357.5L92,357.5L77,356.5ZM101,356.5L102.5,359L300.5,359L303,356.5L101,356.5ZM20,363.5L0,364L0,367L40.5,368C53.05,364.47 67.34,371.87 79,365.5C67.34,359.12 53.02,366.6 40.5,363L39.5,366L36.5,366L35.5,363L20,363.5ZM320,363.5L319,365.5L320,367.5L400,367L400,364L320,363.5ZM101,364.5L103.5,367L177.5,367L180,364.5L101,364.5ZM191,364.5L193.5,367L315,365.5L191,364.5ZM10,371.5L9,373.5L20.5,376C39.83,371.84 60.1,377.94 79,373.5L10,371.5ZM101,372.5L98,373.5C124.31,378.79 154.28,385.01 179,373.5L101,372.5ZM183,372.5L182,373.5C199.31,381.63 220.95,380.7 239,374.5L236.5,372L183,372.5ZM244,372.5L243,374.5C261.98,381.11 283.56,377.55 303,373.5L244,372.5ZM322,372.5L400,375L400,372L322,372.5ZM117,380.5L176.5,383L179,381.5L117,380.5ZM184,380.5L182,381.5L184.5,383L289,381.5L184,380.5ZM22,388.5L21,390.5C39.68,396.94 61.49,396.24 80,389.5L22,388.5ZM138,388.5L130,389.5L152,390.5L150.42,388.08L138,388.5ZM163,388.5L162,390.5C196.46,400 235.17,393.36 271,389.5L163,388.5ZM322,388.5L400,391L400,388L322,388.5Z"/>
  <path fill="#e0e1e1" stroke="#e0e1e1" stroke-width="0.5" stroke-linejoin="round" d="M77,4.5L79,5.5L164,4.5L77,4.5ZM237,4.5L253,5.5L322,4.5L237,4.5ZM77,12.5L79,13.5L135,12.5L77,12.5ZM266,12.5L276,13.5L269,14.5L295.5,16L298,12.5L266,12.5ZM302,12.5L305.5,15L322,12.5L302,12.5ZM295,19.5L286,20.5L293,21.5L332.5,23L332.5,20L297.5,21L295,19.5ZM0,20.5L7,21.5L0,23L67,21.5L0,20ZM71,20.5L77,21.5L115,20.5L71,20.5ZM337,20.5L337.5,23L400,23L400,20L337,20.5ZM78,28.5L78,30.5L100,28.5L78,28.5ZM301,28.5L306,29.5L322,28.5L301,28.5ZM0,36.5L7,37.5L0,39L88,36.5L0,36ZM321,36.5L327,37.5L400,39L400,36L321,36.5ZM375,59.5L348.5,63L349.5,61L377,60.5L375,59.5ZM0,60.5L7,61.5L59,60.5L0,60ZM388,60.5L400,61.5L387,62.5L400,63L400,60L388,60.5ZM359,75.5L360.5,78L400,79L400,76L359,75.5ZM0,76.5L7,77.5L0,79L41,76.5L0,76ZM0,84.5L0,87L39,84.5L0,84ZM362,84.5L369.5,88L372,84.5L362,84.5ZM379,84.5L382.5,87L400,87L400,84L379,84.5ZM381,91.5L379,94.5L400,95L400,92L381,91.5ZM0,92.5L0,95L33,92.5L0,92ZM0,100.5L0,103L28,100.5L0,100ZM373,100.5L374,102.5L400,103L400,100L373,100.5ZM0,108.5L0,111L24,108.5L0,108ZM377,108.5L378,110.5L400,111L400,108L377,108.5ZM0,116.5L0,119L20,116.5L0,116ZM381,116.5L382,118.5L400,119L400,116L381,116.5ZM0,124.5L0,127L16,124.5L0,124ZM385,124.5L387,125.5L400,127L400,124L385,124.5ZM0,132.5L0,135L13,132.5L0,132ZM388,132.5L390,133.5L400,135L400,132L388,132.5ZM0,140.5L0,143L11,140.5L0,140ZM390,140.5L391,142.5L400,143L400,140L390,140.5ZM0,252.5L0,255L9,252.5L0,252ZM0,260.5L0,263L11,260.5L0,260ZM390,260.5L392,261.5L400,263L400,260L390,260.5ZM0,268.5L0,271L14,268.5L0,268ZM387,268.5L389,269.5L400,271L400,268L387,268.5ZM0,276.5L0,279L17,276.5L0,276ZM384,276.5L386,277.5L400,279L400,276L384,276.5ZM0,284.5L0,287L20,284.5L0,284ZM381,284.5L380,286.5L400,287L400,284L381,284.5ZM0,292.5L0,295L24,292.5L0,292ZM383,292.5L383.5,295L400,295L400,292L383,292.5ZM0,300.5L0,303L28,300.5L0,300ZM383,300.5L383.5,303L400,303L400,300L383,300.5ZM0,308.5L0,311L33,308.5L0,308ZM382,308.5L383.58,310.92L400,311L400,308L382,308.5ZM0,316.5L0,319L38,316.5L0,316ZM363,316.5L361,318.5L400,319L400,316L363,316.5ZM345,339.5L357,341.5L348,342.5C364.47,348.29 383.28,344.73 400,341L345,339.5ZM0,340.5L7,341.5L0,342.5L22.5,343L22.5,340L0,340ZM0,356.5L7,357.5L0,359L57,357.5L0,356ZM350,356.5L321,358.5L400,359L400,356L350,356.5ZM77,364.5L79,365.5L88,364.5L77,364.5ZM77,372.5L79,373.5L101,372.5L77,372.5ZM300,372.5L303,373.5L322,372.5L300,372.5ZM0,380.5L7,381.5L0,382.5L9.5,384L12.58,381.08L42.5,383L42.5,380L0,380ZM54,380.5L57,381.5L80.5,383L80.5,380L54,380.5ZM92,380.5L92.5,383L120,382.5L112,381.5L92,380.5ZM284,380.5L289,381.5L341.5,383L341.5,380L284,380.5ZM368,380.5L368.5,383L400,383L400,380L368,380.5ZM92,388.5L92.5,391L138,388.5L92,388.5ZM263,388.5L271,389.5L322,388.5L263,388.5ZM245,400L322,400L245.5,396L245,400Z"/>
  <path fill="#9402d2" stroke="#9402d2" stroke-width="0.5" stroke-linejoin="round" d="M163,3L194,3L194,4L163,4ZM204,3L238,3L238,4L204,4ZM146,7L194,7L194,8L146,8ZM204,7L255,7L255,8L204,8ZM134,11L177,11L177,12L134,12ZM224,11L267,11L267,12L224,12ZM123,15L155,15L155,16L123,16ZM246,15L278,15L278,16L246,16ZM114,19L141,19L141,20L114,20ZM260,19L287,19L287,20L260,20ZM67,21.5L65,27.5L73,26.5L74,23.5L67,21.5ZM106,23L130,23L130,24L106,24ZM271,23L295,23L295,24L271,24ZM99,27L121,27L121,28L99,28ZM280,27L302,27L302,28L280,28ZM181,71L220,71L220,72L181,72ZM163,75L233,75L233,76L163,76ZM152,79L249,79L249,80L152,80ZM149,83L172,83L172,84L149,84ZM229,83L258,83L258,84L229,84ZM373,84.5L370.08,91.42L377.42,94.92L380.92,87.58L373,84.5ZM135,87L159,87L159,88L135,88ZM242,87L266,87L266,88L242,88ZM96,142.5L83,143.5L94,144.5L92.5,147L81,147.5L92.5,148L96.58,152.92L100.42,152.92L103.92,145.58L96,142.5ZM171,147L194,147L194,148L171,148ZM205,147L230,147L230,148L205,148ZM165,151L188,151L188,152L165,152ZM213,151L236,151L236,152L213,152ZM52,183.5L49,188.5L54.5,192L58,186.5L52,183.5ZM118,196.5L118,201.5L124,201.5L123.5,196L118,196.5ZM168,251L208,251L208,252L168,252ZM175,255L208,255L208,256L175,256ZM187,259L214,259L214,260L187,260ZM247,311L269,311L269,312L247,312ZM139,315L165,315L165,316L139,316ZM236,315L262,315L262,316L236,316ZM147,319L182,319L182,320L147,320ZM78,321.5L78,326.5L84,326.5L83.5,321L78,321.5ZM157,323L234,323L234,324L157,324ZM171,327L230,327L230,328L171,328ZM96,371L117,371L117,372L96,372ZM284,371L305,371L305,372L284,372ZM103,375L125,375L125,376L103,376ZM276,375L298,375L298,376L276,376ZM110,379L135,379L135,380L110,380ZM266,379L291,379L291,380L266,380ZM119,383L148,383L148,384L119,384ZM253,383L282,383L282,384L253,384ZM128,387L153,387L153,388L128,388ZM237,387L273,387L273,388L237,388ZM162,391L261,391L261,392L162,392ZM154,395L247,395L247,396L154,396ZM176,399L225,399L225,400L176,400Z"/>
  <path fill="#4b0380" stroke="#4b0380" stroke-width="0.5" stroke-linejoin="round" d="M177,11L224,11L224,12L177,12ZM155,15L246,15L246,16L155,16ZM141,19L260,19L260,20L141,20ZM140,23L165,23L165,24L140,24ZM236,23L271,23L271,24L236,24ZM252,27L280,27L280,28L252,28ZM264,31L288,31L288,32L264,32ZM274,35L296,35L296,36L274,36ZM172,83L229,83L229,84L172,84ZM159,87L190,87L190,88L159,88ZM199,87L242,87L242,88L199,88ZM149,91L182,91L182,92L149,92ZM235,95L259,95L259,96L235,96ZM245,99L266,99L266,100L245,100ZM115,101.5L115,106.5L121,106.5L120.5,101L115,101.5ZM178,155L223,155L223,156L178,156ZM171,159L230,159L230,160L171,160ZM16,161.5L14,163.5L16,166.5L13,167.5L16,168.5L15.5,171L26,170.5L25.5,167L22.5,167L22.5,164L25.5,164L25.5,161L16,161.5ZM59,185.5L57.08,190.42L62.42,192.92L64.92,187.58L59,185.5ZM169,239L190,239L190,240L169,240ZM211,239L232,239L232,240L211,240ZM174,243L227,243L227,244L174,244ZM182,247L219,247L219,248L182,248ZM138,303L161,303L161,304L138,304ZM240,303L263,303L263,304L240,304ZM151,307L173,307L173,308L151,308ZM154,311L247,311L247,312L154,312ZM165,315L236,315L236,316L165,316ZM234,318.5L234,330.5L246.5,331L246.5,318L234,318.5ZM182,319L219,319L219,320L182,320ZM29,333.5L24,343.5L29.5,345L35,343.5L37,337.5L29,333.5ZM102,363L123,363L123,364L102,364ZM278,363L299,363L299,364L278,364ZM109,367L132,367L132,368L109,368ZM269,367L292,367L292,368L269,368ZM0,369.5L0,374.42L6.42,376.92L8.92,371.58L0,369ZM117,371L143,371L143,372L117,372ZM258,371L284,371L284,372L258,372ZM125,375L156,375L156,376L125,376ZM245,375L276,375L276,376L245,376ZM135,379L177,379L177,380L135,380ZM224,379L266,379L266,380L224,380ZM148,383L253,383L253,384L148,384ZM164,387L237,387L237,388L164,388Z"/>
  <path fill="#0000fe" stroke="#0000fe" stroke-width="0.5" stroke-linejoin="round" d="M165,23L236,23L236,24L165,24ZM149,27L252,27L252,28L149,28ZM140,31L178,31L178,32L140,32ZM223,31L264,31L264,32L223,32ZM127,35L158,35L158,36L127,36ZM243,35L274,35L274,36L243,36ZM123,39L144,39L144,40L123,40ZM257,39L282,39L282,40L257,40ZM112,43L134,43L134,44L112,44ZM267,43L289,43L289,44L267,44ZM199,95L222,95L222,96L199,96ZM177,99L222,99L222,100L177,100ZM227,103L253,103L253,104L227,104ZM141,107L163,107L163,108L141,108ZM238,107L260,107L260,108L238,108ZM184,163L217,163L217,164L184,164ZM177,167L224,167L224,168L177,168ZM175,231L226,231L226,232L175,232ZM180,235L221,235L221,236L180,236ZM190,239L211,239L211,240L190,240ZM144,295L168,295L168,296L144,296ZM233,295L257,295L257,296L233,296ZM152,299L183,299L183,300L152,300ZM218,299L249,299L249,300L218,300ZM161,303L229,303L229,304L161,304ZM173,307L228,307L228,308L173,308ZM108,355L130,355L130,356L108,356ZM271,355L293,355L293,356L271,356ZM115,359L139,359L139,360L115,360ZM262,359L286,359L286,360L262,360ZM123,363L151,363L151,364L123,364ZM250,363L278,363L278,364L250,364ZM132,367L166,367L166,368L132,368ZM235,367L269,367L269,368L235,368ZM143,371L258,371L258,372L143,372ZM239,373.5L184,375.5L245,375.5L239,373.5ZM156,375L177,375L177,376L156,376ZM184,379L224,379L224,380L184,380Z"/>
  <path fill="#02fd00" stroke="#02fd00" stroke-width="0.5" stroke-linejoin="round" d="M178,31L223,31L223,32L178,32ZM158,35L243,35L243,36L158,36ZM144,39L257,39L257,40L144,40ZM134,43L167,43L167,44L134,44ZM234,43L267,43L267,44L234,44ZM125,47L152,47L152,48L125,48ZM249,47L276,47L276,48L249,48ZM118,51L141,51L141,52L118,52ZM260,51L283,51L283,52L260,52ZM381,52.5L377.08,56.58L378.08,61.42L384.42,63.92L388.92,56.58L381,52.5ZM111,55L132,55L132,56L111,56ZM269,55L290,55L290,56L269,56ZM177,103L227,103L227,104L177,104ZM163,107L238,107L238,108L163,108ZM154,111L184,111L184,112L154,112ZM217,111L247,111L247,112L217,112ZM147,115L170,115L170,116L147,116ZM231,115L254,115L254,116L231,116ZM183,175L218,175L218,176L183,176ZM179,179L222,179L222,180L179,180ZM181,223L220,223L220,224L181,224ZM186,227L215,227L215,228L186,228ZM144,283L165,283L165,284L144,284ZM236,283L257,283L257,284L236,284ZM225,287L251,287L251,288L225,288ZM158,291L243,291L243,292L158,292ZM168,295L233,295L233,296L168,296ZM115,347L136,347L136,348L115,348ZM121,351L146,351L146,352L121,352ZM130,355L159,355L159,356L130,356ZM242,355L271,355L271,356L242,356ZM139,359L179,359L179,360L139,360ZM222,359L262,359L262,360L222,360ZM151,363L180,363L180,364L151,364ZM191,363L250,363L250,364L191,364ZM190,367L235,367L235,368L190,368Z"/>
  <path fill="#fdfe01" stroke="#fdfe01" stroke-width="0.5" stroke-linejoin="round" d="M167,43L194,43L194,44L167,44ZM204,43L234,43L234,44L204,44ZM152,47L193,47L193,48L152,48ZM205,47L249,47L249,48L205,48ZM141,51L179,51L179,52L141,52ZM222,51L260,51L260,52L222,52ZM132,55L160,55L160,56L132,56ZM241,55L269,55L269,56L241,56ZM253,59L277,59L277,60L253,60ZM263,63L284,63L284,64L263,64ZM184,111L217,111L217,112L184,112ZM170,115L231,115L231,116L170,116ZM160,119L241,119L241,120L160,120ZM153,123L177,123L177,124L153,124ZM224,123L248,123L248,124L224,124ZM189,183L212,183L212,184L189,184ZM185,187L216,187L216,188L185,188ZM183,211L218,211L218,212L183,212ZM187,215L214,215L214,216L187,216ZM150,275L171,275L171,276L150,276ZM230,275L251,275L251,276L230,276ZM180,283L224,283L224,284L180,284ZM180,287L225,287L225,288L180,288ZM120,339L143,339L143,340L120,340ZM128,343L154,343L154,344L128,344ZM207,343.5L204,346.5L205,350.5L146,351.5L212,350.5L213,346.5L207,343.5ZM136,347L168,347L168,348L136,348ZM233,347L263,347L263,348L233,348ZM233,351L255,351L255,352L233,352ZM159,355L242,355L242,356L159,356ZM188,359L222,359L222,360L188,360Z"/>
  <path fill="#f88104" stroke="#f88104" stroke-width="0.5" stroke-linejoin="round" d="M201,51L222,51L222,52L201,52ZM160,55L241,55L241,56L160,56ZM148,59L253,59L253,60L148,60ZM139,63L169,63L169,64L139,64ZM232,63L263,63L263,64L232,64ZM133,67L155,67L155,68L133,68ZM246,67L271,67L271,68L246,68ZM256,71L278,71L278,72L256,72ZM177,123L224,123L224,124L177,124ZM230,124.5L229.5,127L210,127.5L229.5,128L229.5,131L215,131.5L229.5,132L228,135.5L241.5,135L240.5,124L230,124.5ZM167,127L204,127L204,128L167,128ZM159,131L186,131L186,132L159,132ZM38,142.5L35,147.5L40.5,151L44,145.5L38,142.5ZM389,194.5L389,201.5L400,202L400,194L389,194.5ZM190,199L211,199L211,200L190,200ZM190,203L211,203L211,204L190,204ZM344,209.5L340,215.5L346.5,218L351,211.5L344,209.5ZM156,267L179,267L179,268L156,268ZM222,267L245,267L245,268L222,268ZM163,271L238,271L238,272L163,272ZM187,275L230,275L230,276L187,276ZM186,279L216,279L216,280L186,280ZM374,303.5L374,310.5L381.5,311L381.5,303L374,303.5ZM120,327L141,327L141,328L120,328ZM260,327L281,327L281,328L260,328ZM345,330.5L342,335.5L348.42,337.92L350.92,332.58L345,330.5ZM127,331L150,331L150,332L127,332ZM251,331L274,331L274,332L251,332ZM134,335L162,335L162,336L134,336ZM239,335L267,335L267,336L239,336ZM143,339L180,339L180,340L143,340ZM221,339L258,339L258,340L221,340ZM154,343L207,343L207,344L154,344ZM225,343L247,343L247,344L225,344ZM226,345.5L224,347.5L226.5,352L233,351.5L232.5,345L226,345.5ZM168,347L204,347L204,348L168,348Z"/>
  <path fill="#fe0100" stroke="#fe0100" stroke-width="0.5" stroke-linejoin="round" d="M169,63L232,63L232,64L169,64ZM155,67L246,67L246,68L155,68ZM116,70.5L112.08,77.42L119.42,81.92L124,75.5L121.5,71L116,70.5ZM145,71L181,71L181,72L145,72ZM136,75L163,75L163,76L136,76ZM244,75L265,75L265,76L244,76ZM249,79L272,79L272,80L249,80ZM186,131L215,131L215,132L186,132ZM173,135L228,135L228,136L173,136ZM165,139L236,139L236,140L165,140ZM159,143L180,143L180,144L159,144ZM221,143L242,143L242,144L221,144ZM162,259L187,259L187,260L162,260ZM214,259L239,259L239,260L214,260ZM169,263L232,263L232,264L169,264ZM179,267L222,267L222,268L179,268ZM126,319L147,319L147,320L126,320ZM254,319L275,319L275,320L254,320ZM133,323L157,323L157,324L133,324ZM247,323L268,323L268,324L247,324ZM141,327L171,327L171,328L141,328ZM150,331L251,331L251,332L150,332ZM162,335L239,335L239,336L162,336ZM180,339L221,339L221,340L180,340Z"/>
  <path fill="#ce4f9c" stroke="#ce4f9c" stroke-width="0.5" stroke-linejoin="round" d="M312,37.5L312,47.5L323,47.5L322.5,37L312,37.5ZM281,84.5L281,91.5L288.5,92L288.5,84L281,84.5ZM194,142.5L194,152.5L204.5,153L204.5,142L194,142.5ZM180,272.5L176.5,277L169.5,277L169,287.5L180,287.5L180,282.5L183.42,281.92L186.92,275.58L180,272.5ZM370,292.5L370,304.5L382.5,305L382.5,292L370,292.5ZM263,339.5L263,351.5L276,351.5L275.5,339L263,339.5ZM35,340.5L35,346.5L44.5,347L44.5,344L48,343.5L44.5,343L43.5,340L35,340.5ZM94,356.5L90.08,363.42L97.42,367.92L101.92,363.42L99.42,357.08L94,356.5ZM179,373.5L176,378.5L181.5,382L185,376.5L179,373.5ZM356,374.5L356,385.5L367.5,386L367.5,374L356,374.5ZM81,380.5L81,390.5L92,390.5L91.5,380L81,380.5ZM155,385.5L152.08,391.42L158.42,394.92L161.92,391.42L158.42,385.08L155,385.5Z"/>
  <path fill="#612632" stroke="#612632" stroke-width="0.5" stroke-linejoin="round" d="M142,79.5L142,85.5L149,85.5L148.5,79L142,79.5ZM133,91.5L133,103.5L146,103.5L145.5,91L133,91.5ZM123,139.5L120,144.5L125.5,148L129,142.5L123,139.5ZM304,239.5L305,242.5L298,251.5L307.42,255.92L311.58,251.08L316.5,251L316.5,239L304,239.5ZM47,324.5L47,328.5L52.5,334L57,333.5L56.5,324L47,324.5ZM43,374.5L43,384.5L59,383.5L54,382.5L53.5,374L43,374.5ZM342,376.5L342,382.5L349,382.5L348.5,376L342,376.5Z"/>
  <path fill="#8ac965" stroke="#8ac965" stroke-width="0.5" stroke-linejoin="round" d="M194,0L194,10.5L203.5,11L203.5,0L194.5,0ZM298,13.5L296.08,18.42L301.42,20.92L303.92,15.58L298,13.5ZM197,40.5L193.08,47.42L197.58,51.92L203.92,49.42L204.92,44.58L197,40.5ZM8,47.5L8,54.5L16,54.5L15.5,47L8,47.5ZM166,93.5L166,103.5L177,103.5L176.5,93L166,93.5ZM55,127.5L55,133.5L62,133.5L61.5,127L55,127.5ZM328,174.5L328,178.5L332.5,179L332.5,174L328,174.5ZM369,175.5L367,179.5L371.5,182L374,177.5L369,175.5ZM211,248.5L208.08,255.42L211.58,258.92L219,255.5L215,251.5L217,249.5L211,248.5ZM266,248.5L266,254.5L272.5,255L272.5,248L266,248.5ZM38,263.5L36,267.5L40.5,270L43,265.5L38,263.5ZM45,329.5L42.08,335.42L48.42,338.92L51.92,332.58L45,329.5ZM108,335.5L108,341.5L118.5,346L118.5,335L108,335.5ZM183,359.5L180.08,366.42L183.58,369.92L190.92,366.42L190.92,362.58L183,359.5Z"/>
  <path fill="#5ad9ca" stroke="#5ad9ca" stroke-width="0.5" stroke-linejoin="round" d="M222,90.5L222.08,100.42L232.42,101.92L233.5,90L222,90.5ZM71,126.5L71,137.5L82.5,138L82.5,126L71,126.5ZM133,194.5L133,202.5L142,202.5L141.5,194L133,194.5ZM368,208.5L368,218.5L378.5,219L378.5,208L368,208.5ZM139,223.5L139,233.5L150,233.5L149.5,223L139,223.5ZM19,240.5L19,246.5L26,246.5L25.5,240L19,240.5ZM68,326.5L68.58,333.92L73.92,328.58L68,326.5Z"/>
  <path fill="#3273bc" stroke="#3273bc" stroke-width="0.5" stroke-linejoin="round" d="M130,22.5L130.5,32L139.5,32L139.5,22L130,22.5ZM122,64.5L122.08,73.42L132.5,75L132.5,64L122,64.5ZM192,85.5L188.08,93.42L196.42,97.92L200.92,89.58L192,85.5ZM83,90.5L83,99.5L92.5,100L92.5,90L83,90.5ZM49,111.5L47,115.5L51.5,118L54,113.5L49,111.5ZM229,301.5L229,308.5L237,308.5L236.5,301L229,301.5ZM218,340.5L215.08,346.42L221.42,349.92L224.92,343.58L218,340.5ZM107,342.5L104,347.5L106.5,350L115,348.5L115,346.5C113.75,342.98 110.13,343.28 107.5,342L107,342.5Z"/>
  <path fill="#2a914c" stroke="#2a914c" stroke-width="0.5" stroke-linejoin="round" d="M115,29.5L111.08,37.42L115.58,41.92L122.5,40L123.92,33.58L115,29.5ZM57,38.5L57,43.5L63,43.5L62.5,38L57,38.5ZM238,194.5L236.08,199.42L241.42,201.92L243.92,196.58L238,194.5ZM226,278.5L224.08,283.42L229.42,285.92L231.92,280.58L226,278.5ZM145,305.5L145.58,312.92L150.92,307.58L145,305.5ZM305,353.5L303,357.5L307.5,360L310,355.5L305,353.5ZM13,383.5L9.08,390.42L16.42,394.92L20.92,390.42L18.42,384.08L13,383.5Z"/>
</svg>