<svg xmlns="http://www.w3.org/2000/svg" width="400" height="400" viewBox="0 0 400 400">
  <rect width="400" height="400" fill="#f2f1da"/>
  <path fill="#16cec8" stroke="#16cec8" stroke-width="0.5" stroke-linejoin="round" d="M366,30.5C336.75,37.59 351.06,91.25 384.42,79.92L394.92,69.42C398.31,63.47 400,57.53 400,51.58C393.75,39.18 381.76,26.67 366.5,30L366,30.5ZM0,100.5L0,148.5L49,148.5L48.5,100L0,100ZM76,130.5L66,138.5L65.08,147.42L70,155.5C75.13,160.45 83.87,160.45 89,155.5L93.92,147.42L93,138.5C90,132.69 83.13,128.52 76.5,130L76,130.5ZM290,150.5L290,210.5L326,210.5L325.5,150L290,150.5ZM112,230.5L101.08,239.58L101.08,252.42L109.5,261L119.42,261.92C134.78,258.85 136.4,236.85 122.5,231L112,230.5ZM371,250.5L370.5,291L350,291.5L350.5,299L400,299L400,250.5L371,250.5ZM230,300.5L213,349.5L219,355.5L213.5,359L210.5,356L205,370.5L256,370.5L230,300.5ZM350,300.5L333,349.5L339,355.5L333.5,359L330.5,356L325,370.5L376,370.5L373.5,359L379,353.5L376.5,351L368.5,350L350,300.5ZM53,350.5L50,355.5L55.5,359L59,353.5L53,350.5ZM53,375.5L50,380.5L55.5,384L59,378.5L53,375.5ZM373,375.5L370,380.5L375.5,384L379,378.5L373,375.5ZM92,376.5L90,380.5L95.5,384L99,378.5L97.5,376L92,376.5Z"/>
  <path fill="#ef7672" stroke="#ef7672" stroke-width="0.5" stroke-linejoin="round" d="M40,30.5L31,37.5L30.08,45.42L34.58,52.92L40.58,55.92L48.5,55L55.92,45.42L55,37.5L51.42,33.08L40,30.5ZM148,30.5C138.93,32.5 134.56,43.01 135.08,51.42C138.53,57.32 143.49,63.17 150,65.5L150.5,99L199,98.5L198.5,50L170,49.5L168,40.5L159.5,32L148,30.5ZM284,50.5C286.39,67.26 264.48,80.99 250.5,71L250.5,99L299,98.5L298.5,50L284,50.5ZM20,150.5L20,210.5L56,210.5L55.5,150L20,150.5ZM335,230.5L335,290.5L371,290.5L370.5,230L335,230.5ZM290,300.5L265,370.5L316,370.5L290,300.5ZM13,350.5L10,355.5L15.5,359L19,353.5L13,350.5ZM133,350.5L130,355.5L135.5,359L139,353.5L133,350.5ZM293.5,350L299,355.5L293.5,359L290,353.5L293.5,350ZM13,375.5L10,380.5L15.5,384L19,378.5L13,375.5ZM133,375.5L130,380.5L135.5,384L139,378.5L133,375.5Z"/>
  <path fill="#2ab177" stroke="#2ab177" stroke-width="0.5" stroke-linejoin="round" d="M100,100.5L100.5,149L149,148.5L148.5,100L100,100.5ZM200,100.5L200,132.5C204.61,139.22 207.44,144.72 208.5,149L249,148.5L248.5,100L200,100.5ZM0,200.5L0,248.5L49,248.5L48.5,211L20,210.5L19.5,200L0,200ZM100,200.5L101.5,239L109.5,231L119.42,230.08C127.13,232.17 133.82,240.31 132,248.5L149,248.5L149,200.5L146,200.5L146,210.5L110,210.5L109.5,200L100,200.5ZM376,350.5L379,355.5L372.5,358L376,370.5L350,371.5L350,400L400,400L400,350.5L376,350.5ZM373.5,375L379,380.5L373.5,384L370,378.5L373.5,375Z"/>
  <path fill="#93c7d8" stroke="#93c7d8" stroke-width="0.5" stroke-linejoin="round" d="M185,130.5C157.93,135.3 174.77,181.48 198.5,165L200,210.5L236,210.5L235.5,150C221.5,164.57 217.04,150.83 208,148.5C208.03,137.07 196.45,127.88 185.5,130L185,130.5ZM294,130.5C281.86,132.3 272.57,145.17 275.08,157.42C279.08,165.42 283.89,171.28 289.5,175L290.5,150L322,149.5C319.2,137.4 307.42,127.49 294.5,130L294,130.5ZM65,230.5L65,288.5L67.5,291L101,290.5L100.5,230L65,230.5ZM110,300.5L85,370.5L136,370.5L110,300.5ZM173,350.5L170,355.5L175.5,359L179,353.5L173,350.5ZM293,350.5L290,355.5L295.5,359L299,353.5L293,350.5ZM190,352.5L196,370.5L152.5,371L150,373.5L151.5,400L197.5,400C202.64,385.82 197.55,370.13 197.92,355.58L190,352.5ZM293,375.5L290,380.5L295.5,384L299,378.5L293,375.5Z"/>
  <path fill="#af8fd2" stroke="#af8fd2" stroke-width="0.5" stroke-linejoin="round" d="M257,30.5C233.4,40.44 257.89,80.6 280.5,64C283.88,58.89 283.97,52.86 283.92,47.58C283.86,42.04 278.33,37.83 274,33.5C270.08,29.58 263.44,30.06 257.5,30L257,30.5ZM326,200.5L326,210.5L300,211.5L300,248.5L310.5,249C314.19,232.51 334.14,226.26 349,229.5L348.5,200L326,200.5ZM155,230.5L155,290.5L191,290.5L190.5,230L155,230.5ZM50,300.5L25,370.5L72.5,371L74.92,366.58L50,300.5ZM53.5,350L59,355.5L53.5,359L50,353.5L53.5,350ZM253,350.5L250,353.5L253.5,363L259,353.5L253,350.5ZM253,375.5L250,380.5L255.5,384L260,378.5L253,375.5Z"/>
  <path fill="#8ac629" stroke="#8ac629" stroke-width="0.5" stroke-linejoin="round" d="M300,100.5L300,129.5C310.3,130.68 319.81,138.32 321.5,149L349,148.5L348.5,100L300,100.5ZM236,200.5L236,210.5L200,211.5L200,248.5L204.5,249C205.82,228.26 237.55,222.08 244.5,243L245.5,230L248.5,230L248.5,200L236,200.5ZM50,250.5L50.5,299L98.5,299L98.5,291L67.5,291L65,288.5L64.5,250L50,250.5ZM150,250.5L150.5,299L199,298.5L198.5,250L191,250.5L190.5,291L155,290.5L154.5,250L150,250.5ZM69,350.5L74.92,366.58L72.5,371L50.5,371L50.5,378L55.5,375L59,380.5L53.5,384L50.5,381L50,400L98.5,400L98.5,381L93.5,384L90,378.5L98,376.5L98.5,371L85,370.5L92,350.5L69,350.5Z"/>
  <path fill="#b61a49" stroke="#b61a49" stroke-width="0.5" stroke-linejoin="round" d="M300,0L300.5,49L344.5,49L349,41.5L349,0L300.5,0ZM150,150.5L150.5,199L199,198.5L198.5,165C187.35,173.88 170.3,163.23 169.5,150L150,150.5ZM250,150.5L250.5,199L290,198.5L290,175.5C280.25,171.94 273.16,161.05 275,150.5L250,150.5Z"/>
  <path fill="#f6b300" stroke="#f6b300" stroke-width="0.5" stroke-linejoin="round" d="M245,230.5L245,290.5L281,290.5L280.5,230L245,230.5ZM330,230.5C302.5,234.39 305.71,281.39 334.5,280L334.5,230L330,230.5ZM170,300.5L145,370.5L196,370.5L170,300.5ZM173.5,350L179,355.5L173.5,359L170,353.5L173.5,350ZM333,350.5L330,355.5L335.5,359L339,353.5L333,350.5ZM333,375.5L330,380.5L335.5,384L339,378.5L333,375.5Z"/>
  <path fill="#155b39" stroke="#155b39" stroke-width="0.5" stroke-linejoin="round" d="M400,50.5L400,61.42C393.3,81.77 363.7,92.92 350.5,72L350.5,99L400,99L400,50.5ZM0,300.5L0,348.5L32.5,349C37.72,332.53 51.5,317.43 48.5,300L0,300ZM100,300.5L100.5,327L110,300.5L100,300.5ZM111,300.5L128.5,349L149,348.5L148.5,300L111,300.5Z"/>
  <path fill="#2416d8" stroke="#2416d8" stroke-width="0.5" stroke-linejoin="round" d="M100,0L100,48.5L134.5,49C135.45,40.29 141.1,32.28 149,28.5L149,0L100.5,0ZM350,150.5L350.5,199L400,199L400,150.5L350,150.5Z"/>
  <path fill="#8e5ebd" stroke="#8e5ebd" stroke-width="0.5" stroke-linejoin="round" d="M53,50.5L50,53.5L50.5,99L99,98.5L98.5,50L53,50.5ZM300,300.5C293.8,318.33 303.36,333.16 308.5,349L332.5,349C337.72,332.53 351.5,317.43 348.5,300L300,300.5Z"/>
  <path fill="#74148f" stroke="#74148f" stroke-width="0.5" stroke-linejoin="round" d="M200,0L200.5,49L239.5,49C241.34,43.17 244.23,37.53 249,33.5L248.5,0L200.5,0ZM56,150.5L56.5,199L99,198.5L98.5,150L93.58,150.08C88.52,161.48 71.12,162.25 66,150.5L56,150.5Z"/>
  <path fill="#f5da6e" stroke="#f5da6e" stroke-width="0.5" stroke-linejoin="round" d="M110,150.5L110,210.5L146,210.5L145.5,150L110,150.5ZM221,230.5C198.95,236.56 211.29,277.05 237,267.5L245,256.5L245,244.5C242.07,234.65 231.47,227.88 221.5,230L221,230.5ZM213,350.5L210,355.5L215.5,359L219,353.5L213,350.5ZM213,375.5L210,380.5L215.5,384L219,378.5L213,375.5Z"/>
  <path fill="#000000" stroke="#000000" stroke-width="0.5" stroke-linejoin="round" d="M0,0L0,48.5L30.5,49L30.08,40.58L34.58,33.08L40.58,30.08L49,30.5L48.5,0L0,0Z"/>
  <path fill="#5859e9" stroke="#5859e9" stroke-width="0.5" stroke-linejoin="round" d="M200,300.5L200,348.5L212.5,349L230,300.5L200,300.5ZM231,300.5L248.5,349L248.5,300L231,300.5Z"/>
</svg>