<svg xmlns="http://www.w3.org/2000/svg" width="512" height="512" viewBox="0 0 512 512">
  <rect width="512" height="512" fill="#a53f4e"/>
  <path fill="#60183f" stroke="#60183f" stroke-width="0.5" stroke-linejoin="round" d="M512,5.5L507.5,7C471.71,37.99 440.43,73.16 416,114.5C427.54,153.04 400.35,189.87 370,210.5L368.08,224.42L372.5,234L385.92,240.58C383.77,254.87 384.86,270.49 378,283.5L379,285.5L375.5,286L381.08,325.42L384.5,329L399,276.5C411.65,243.31 420.88,209.31 437,177.5L436,174.5C446.34,150.75 466.97,133.13 477.92,109.42C476.25,98.23 481.18,86.57 490,79.5L498.42,77.08L504.42,79.92L512,73.5L512,5ZM373,91.5L369,97.5L368,129.5L370.5,130L391,114.5L373,91.5ZM289,177.5L279.5,178L271,190.5L272.5,195L291,179.5L289,177.5ZM231,209.5L228,215.5L235,221.5L229.5,222L232.5,236L247.92,218.42L244.5,211L231,209.5ZM348,222.5C357.4,233.09 344.17,244.06 351,254.5L340,261.5L343,273.5L348,277.5L351,283.5L347,308.5C335.51,331.34 324.66,354.58 312.08,376.58L313.5,384L327.42,382.08L330.92,388.58L330,396.5L344.5,406L345.92,395.58L344.08,393.42C344.75,384.19 346.39,376.89 349,371.5L348.92,355.58L347.08,353.42C346.58,343.95 348.01,332.78 355.5,326L360,328.5C362.72,341.78 366.22,352.61 370.5,361L374,359.5C376.03,335.48 366.61,312.47 366.92,288.58L362,282.5L361.08,274.58L365,271.5L364.5,246L362.5,247L357.5,227L348,222.5ZM179,229.5L175,237.5L177,241.5L175.08,250.42L178,257.5L174.5,261L173.5,259L169,263.5L171.5,277L173,278.5L171,280.5L175,283.5L172,285.5L183,308.5L180.5,311L176.5,306L176,312.5L169,318.5L170,320.5L165,327.5L166.5,330L180.5,325L187.5,315C198.41,287.6 214.33,262.71 231,238.5L225.5,233L217.5,250L216.5,246L215.5,253L212.5,249L213.5,256L207,252.5L204,247.5L205.92,236.58L199.5,231L192.08,245.58L196.5,258L202,262.5L198.5,264L190.5,253L183.08,250.42C178.71,243.27 183.81,237.22 184,230.5L179,229.5ZM134,244.5L131,247.5L134.5,253L139.5,254L140.5,245L134,244.5ZM182.5,255L185.5,271L182.5,255ZM269,255.5L260,259.5L261,264.5L265.5,267L276.5,261L282.5,265L285,262.5C280.61,258.89 275.44,256.39 269.5,255L269,255.5ZM140,289.5C134.85,302.26 130.47,320.3 140.5,332L146,329.5L146.5,326L152,328.5L153.5,334L160,326.5L158,323.5L161,322.5L154.08,318.42C153.42,313.86 154.39,308.22 157,301.5L140,289.5ZM218,292.5L202.08,314.58L201.92,318.42C185.27,333.04 176.96,355.1 162,371.5L163,372.5C164.39,382.44 166.25,389.58 168.58,393.92L177.5,390L180.92,399.58L179.5,433L181.5,432L181.92,436.42L177,438.5L180.5,442L184.5,443L188.5,437L198,442.5L197,445.5L197.5,449L179.5,446L173,444.5L175.5,454L178,456.5L173.5,467L169.5,467L167,489.5L165,490.5C164.73,498.76 167.8,507.75 175.5,512L188,496.5L196,492.5L193,489.5L197,477.5C205.79,465.75 210.28,451.19 216,437.5L218.92,435.42L223,424.5L219.08,410.58L233,394.5C232.35,383.78 225.19,374.84 217.5,368L210.08,361.42L215,350.5L216.5,306L218.5,307L218,292.5ZM0,351.5L0,394.5L16.5,398L20,393.5C15.83,380.1 20.39,364.77 10,353.5L0,351ZM512,382.5C503.5,382.39 494.58,387.77 491,395.5C497.94,395.11 504.94,393.11 512,389.5L512,382.5ZM80,393.5L73.08,404.58L70,425.5C68.06,431.56 67.72,440.22 69,451.5C84.5,469.46 62.82,491.92 68,512L80.5,512C80.02,498.82 91.72,490.56 102,485.5L102.92,479.58C98.31,469.53 95.67,456.83 95,441.5L101,432.5L101.5,423L90,412.5L89,403.5L91,402.5C88.28,398.56 84.78,395.39 80.5,393L80,393.5ZM358,413.5L352,415.5L367.5,453C375.02,441.96 364.9,425.81 372.92,414.58L358,413.5ZM0,418.5L0,475L9.42,472.92L11.92,468.42L6.92,424.58L0,418ZM26,419.5C25.33,432.83 25.83,443 27.5,450L30,448.5L31,425.5L29,419.5L26,419.5ZM116,422.5L111.5,429L108.5,429L108,434.5C121.68,445.23 112.18,463.13 119.5,476L129.42,481.92L135.92,474.42L133,467.5C132.44,458.21 119.95,451.48 130.92,440.58C130.17,431.42 117.69,431.2 116.5,422L116,422.5ZM226,469.5L207.5,489C214.21,485.61 221.25,481.78 226,475.5L226,469.5ZM410,471.5L409.08,475.42L415.5,482L419,474.5L410,471.5ZM499,505.5L494,512L500.5,512L499,505.5Z"/>
  <path fill="#d06362" stroke="#d06362" stroke-width="0.5" stroke-linejoin="round" d="M59,0L58,118.5L61,169.5L59.5,0ZM123,0C122.55,13.34 129.63,25.72 134.92,37.58L134.08,47.42L152.5,64L156.5,63L158.5,65C164.44,64.39 171.08,65.08 178.42,67.08C197.77,85.87 169.79,102.48 171.08,122.42L176.92,131.58L176.92,137.42L160.08,165.58L160.08,176.42L162.92,179.58L160.5,189L152.5,195C143.84,182.39 156.05,165.89 139,155.5L127,140.5C136.3,148.68 126.92,167.93 142,173.5L137,184.5L145.5,198L144.5,214C148.56,208.72 153.56,204.39 159.5,201L160,204.5L167.58,211.92L173,211.5C175.67,208.83 181.5,205.67 190.5,202L193.5,197L200.42,196.92L202.92,189.58L181,152.5C183.45,138.31 195.1,126.92 206.5,119L205.5,109C201.22,112.81 193.86,105.41 191,105.5L198.92,89.42C199.08,80.43 193.86,71.97 187,66.5L186.08,60.58L193,51.5L228.5,44L257.5,52L259.5,48L279.58,53.92C311.46,52.42 305.7,21.02 302.5,0L123.5,0ZM325,0L332,26.5L334,128.5L337.5,131C339.65,129.07 341.26,124.99 339,122.5C337.02,84.08 351.95,42.48 330,6.5L330,0L325.5,0ZM501,0L504.58,6.92L512,5.5L512,0L501.5,0ZM483,10.5L472.08,19.58L471,24.5L476.5,33L490.92,19.42L488.42,10.08L483,10.5ZM225.5,30L231.42,30.08L242.92,37.58L241.5,43L236.5,44C228.5,42 222,39.5 217,36.5L225.5,30ZM413,52.5C409.67,53.83 405.33,57.83 400,64.5L402.58,68.92C408.47,68.25 415.25,66.08 422.92,62.42L421.5,57L413,52.5ZM24,55.5L19.5,59L8.5,79L0,84L0,90C5,86 10,80.17 15,72.5L21.58,62.08L25.5,62C32.36,73.51 22.66,88.28 29,99.5L29,143.5C25.49,172.23 29.05,201.51 29,230.5L30,259.5C50.09,294.45 19.96,323.88 28,357.5L29,360.5C30.97,373.1 25.71,388.56 33,400.5L33.5,412C38.85,400.17 26.42,390.37 33,378.5L29,350.5L31,203.5C30.92,159.58 32.96,116.31 30,72.5L29.5,58L24,55.5ZM363,69.5L359,74.5L362,120.5L360.5,136L363,133.5C365,120.83 365.67,111.83 365,106.5L364,84.5L367.58,78.08L371.42,78.08C384.2,86.83 381.64,104.2 394.5,113L403.5,110L404.92,100.58C387.41,93.83 385.2,66.46 363.5,69L363,69.5ZM148,239.5L144.5,246L147.5,247L151,240.5L148,239.5ZM127,244.5L129,246.5L127.5,249L126.5,245L114.5,258L115.5,261L130.5,253L130,248.5L130.5,244L127,244.5ZM261,247.5L259,249.5C259.92,252.71 263.38,254.6 266.5,255L268.5,253L272.5,256L276,250.5L269.42,247.08L261,247.5ZM293,252.5L290.92,269.42L285.5,272L282.5,269L283,274.5L285.92,276.58C302.24,293.6 277.18,307.86 284,325.5L291.58,331.92L304.5,331L312,326.5L308,310.5C305.88,290.66 306.2,268.78 293.5,252L293,252.5ZM61,257.5L64.5,357L66.5,355L64.5,356L61,257.5ZM243,270.5L234.08,276.58C231.5,307.1 228.27,343.83 251.92,367.58L262,386.5L254,397.5C254.59,414.31 248.43,431.18 243,446.5L244,447.5C235.39,468.93 224.23,490.61 217,512L272.5,512L271.08,498.58L275.58,491.08L298.42,495.92L303.92,490.42C297.88,468.44 289.2,445.77 278,425.5L278.92,402.58L277,399.5C274.04,392.75 271.31,385.24 272,377.5L276.58,371.08L295.42,366.92L298,363.5L293,355.5L308.5,353L316.5,366C329.2,345.72 341.65,323.88 343.92,299.58L333.5,277L332.5,279L331.5,277L329.08,285.42C338.04,303.23 326.15,321.35 327,339.5L321.5,345L304.5,349L262.58,341.92C245.9,329.21 239.96,305.17 240.5,285L246.5,279L266,278.5L265,273.5L260.5,273L257.5,276L243,270.5ZM62,363.5L62.5,392L64,364.5L62,363.5ZM445,413.5L433,415.5L438.5,421L442.42,420.92L445,413.5ZM35,479.5L34,498.5L31.08,500.58L31,512L34.5,512L35,479.5Z"/>
  <path fill="#bd5359" stroke="#bd5359" stroke-width="0.5" stroke-linejoin="round" d="M61,0L63,52.5L65,0L61.5,0ZM98,0L98.08,14.42L100.92,17.58C103.17,56.19 105.42,94.28 111,132.5L119.92,140.58L120.5,145C120.41,130.48 125.48,117.12 132.5,105C137.22,108.98 127.86,116.88 132,121.5L128,137.5L139,155.5C156.05,165.89 143.84,182.39 152.5,195L160.5,189L162.92,179.58L160.08,176.42L160.08,165.58L176.92,137.42L176.92,131.58L171.08,122.42C169.92,102.39 197.5,86.13 178.42,67.08C171.08,65.08 164.44,64.39 158.5,65L156.5,63L152.5,64L134.08,47.42L134.92,37.58C128.96,25.76 123.8,13.42 122.5,0L98.5,0ZM303,0C305.31,21.02 311.61,52.42 279.58,53.92L259.5,48L258,51.5L290.58,74.92C300.06,69.4 311.43,78.32 320.5,71C324.17,74.67 327.67,80.17 331,87.5L333.5,128L333,25.5L324.5,0L303.5,0ZM423,0C423.06,3.61 428.25,14.25 438.58,31.92L439,33.5C443.47,43.14 454.47,50.64 454.5,62L455.08,57.58L476.5,33L471,24.5L472.08,19.58L481,11.5L488.42,10.08L490.5,20L484.5,28L506,7.5L501,0L423.5,0ZM225,30.5L217,36.5C222,39.5 228.5,42 236.5,44L241.5,43L242.92,37.58L231.42,30.08L225,30.5ZM21,62.5L15,70.5L15.5,73L23.5,66C30.31,86.5 38.15,106.84 25.92,130.42L23,167.5C19,181.1 16.92,197.14 25.92,209.58L29.5,286L29,230.5C29.05,201.51 25.49,172.23 29,143.5L29,99.5C22.66,88.28 32.36,73.51 25.5,62L21,62.5ZM367,78.5L365,85.5L366,90.5L366,84.5L370.5,81C381.03,89.02 382.4,105 393.5,113L375.5,82L367,78.5ZM365,94.5L365,106.5C365.67,111.17 365,120.17 363,133.5L366,127.5L365,94.5ZM137.5,125L141.92,126.58L143.92,131.58L142.5,140C137.99,137.84 134.49,132.59 135,127.5L137.5,125ZM360,185.5L358.5,189L364.5,193L366,191.5L360,185.5ZM62,191.5L63,224.5L62,191.5ZM208,192.5L205.5,195L204.5,193L203.5,195L202.5,193L200.42,196.92L193.5,197L190.5,202C181.5,205.67 175.47,208.97 172.42,211.92L167,211.5L160,204.5L159.5,201C147.92,203.58 144.66,214.19 139.08,222.58L138.5,236L130.5,220L114,216.5C101.28,226.99 101.53,246.85 109.5,260C117.91,256.62 120.51,244.45 130.5,244L134,242.5L138.5,244L141.5,241L143,242.5L140,244.5L142.5,246L148.5,239L151,240.5L148,248.5L142.5,251L141.5,249L140.5,255L138,255.5L147,254.5L144.5,254L146.5,250L148.5,251L168,227.5L166,225.5L178,222.5L180.5,215L181.5,217L192,206.5L196.92,199.58L202.5,199L203.5,196L205.5,197L210,192.5L208,192.5ZM233,240.5L227.5,251L235,241.5L233,240.5ZM267,243.5L262,247.5L269.42,247.08L276,250.5L278.5,256L280,251.5L276,247.5L281,246.5L271.5,246L267,243.5ZM258,250.5L255,252.5L267,255.5L258,250.5ZM292,252.5L282.5,254L286.5,265L283,269.5L285.5,272L290.92,269.42L292,252.5ZM63,264.5L63,280.5C51.5,306.49 71.41,314.09 64.5,334L63,264.5ZM240,266.5L228,281.5L224,299.5C228.8,323.33 217.65,353.66 243,369.5L243,371.5C249.67,378.83 254.5,383 257.5,384L258,385.5C226.37,390.07 252.77,431.98 238.08,450.58C236.03,459.86 232.33,468.17 227,475.5L222.5,482C211.72,489.84 195.25,496.2 194,512L217,512C224.23,490.61 235.39,468.93 244,447.5L243,446.5C247.86,431.43 254.79,414.18 254,397.5L262,386.5L238,347.5C233.76,324.65 229.23,300.03 234.08,276.58L249,270.5L240,266.5ZM258,269.5L252,273.5L257.5,276L267,272.5L258,269.5ZM90,275.5L88.5,278L86.5,277C79.76,283.32 78.95,293.89 80.92,302.42L77.5,309L74.5,307L78,313.5L75,317.5L86.5,321L89,315.5L86.5,307L81,308.5C85.67,305.83 89.67,301.83 93,296.5L85,292.5L93,288.5L92.5,282L95,280.5L90,275.5ZM210,275.5C205.27,284.06 203.14,294.48 195.5,301L192,305.5L192,308.5L195.5,310L212,276.5L210,275.5ZM334,278.5L343.92,299.58L340.5,320C344.11,308.94 346.25,299.47 346.92,291.58L334,278.5ZM174,293.5L169,303.5L170.5,305L176.5,297L174,293.5ZM180,326.5L178,331.5L182.5,335L186,329.5L180,326.5ZM380,328.5L381.5,345C382.5,338 382.17,332.33 380.5,328L380,328.5ZM86,331.5L70,351.5L71.5,353L80.5,343L81.92,348.42L73,367.5L74.5,370C74.89,367.06 77.22,362.72 81.5,357L83.5,358L88,332.5L86,331.5ZM63,337.5L64.5,356L63,337.5ZM164,352.5L159.5,362L169,355.5L164,352.5ZM28,360.5C24.98,371.38 24.2,383.59 29.5,394L28,360.5ZM407,394.5L406,397.5L431.5,415L444.42,413.92C446.81,408.31 447.83,402 447.5,395L407,394.5ZM226,432.5C218.25,445.89 211.78,462.63 209.08,478.42L211.5,482L226,467.5C225.15,456.16 239.15,447.98 234,435.5L226,432.5ZM463,432.5L450.5,469L464.92,448.42L463,432.5ZM376,456.5L370.08,461.58L370.5,466L372.08,461.58L380.5,459C388.07,458.26 394.25,466.33 402,463.5L376,456.5ZM67,467.5L64.5,480L63.5,475L62.5,482L65.5,487L67,467.5ZM33,474.5L32,485.5L29.5,483L31.5,500L34,498.5L33,474.5ZM420,487.5L417.42,491.92L402.58,496.08L399.08,500.58L400,512L435.5,512L434.5,504L427.08,497.42L428,492.5L423.5,493L420,487.5ZM481,499.5L475.5,502L471.5,512L481.5,512L484,500.5L481,499.5Z"/>
  <path fill="#dd7a6b" stroke="#dd7a6b" stroke-width="0.5" stroke-linejoin="round" d="M0,0L0,40C17.19,35.62 37.01,19.45 34.5,0L0,0ZM53,0C52.28,6.28 48.58,19.08 41.92,38.42L38.5,41C31.83,41 25.67,42.17 20,44.5C10.31,52.38 10.85,66.53 0,73.5L0,84L8.5,79L19.5,59L26.5,55L30,72.5C32.96,116.31 30.92,159.58 31,203.5L32,304.5C32.17,328.46 25.87,352.85 33,376.5L33,378.5C26.64,390.21 38.25,399.84 34,411.5L35,463.5C42.13,473.62 28.06,481.46 37,491.5L35,512L39,512C40.47,478.75 32.98,445.55 37,412.5L37,370.5L35,361.5C36.29,325.88 35.72,290.91 35,255.5L37,253.5C38.37,208.8 30.72,162.95 43.5,119L45.5,119L54,143.5L58,289.5C55.24,322.86 62.4,356.17 60,389.5L61.5,395L64,393.5L62,372.5C62.06,366.56 63.06,361.89 65,358.5L62,357.5L58.5,0L53.5,0ZM330,0L330,6.5C351.95,42.48 337.02,84.08 339,122.5C341.1,124.8 339.84,128.51 338,130.5L345.5,144L359.92,136.42L362,118.5L359,74.5L363,69.5L374.5,71C388.22,77.03 390.06,94.95 404.5,100L403.5,110L400,110.5L415.5,114L446,71.5L442.5,72C430.3,46.52 410.81,25.05 398.5,0L330.5,0ZM413.5,52L421.5,57L420.5,65L406.42,68.92L400,66.5L400,64.5C405.33,57.83 409.67,53.83 413,52.5L413.5,52ZM43.5,55C52.66,69.07 49.93,89.5 44.5,104L42.08,101.42C38.45,86.68 35.06,69.55 43,55.5L43.5,55ZM193,135.5L190.5,148L193.5,147L199.5,153L193,135.5ZM127,141.5L139.5,195L144.5,198L146,196.5L137,184.5L142,173.5L127,141.5ZM128,252.5L114.5,260L115,263.5L113,264.5L122.5,272L127.5,263L129.5,264L132.5,258L135.5,258L128,252.5ZM295,253.5C305.79,270.53 306.15,291.16 308,310.5L309.5,316L310.92,311.58L306,273.5C307.6,265.34 302.84,256.7 295.5,253L295,253.5ZM285,276.5C286.33,290.42 282.12,305.53 272,315.5L265.58,315.92C256.54,310.58 247.66,299.82 249.08,288.58L253.58,284.08L266,281.5C258.28,279.22 251.78,278.39 246.5,279L240.5,285C238.9,305.14 247.04,328.85 262.58,341.92L305.5,348L317,346.5L306.5,347L297,343.5L297.08,337.58L301,331.5L291.58,331.92L284,325.5C277.18,307.66 302.7,293.13 285.5,276L285,276.5ZM326,285.5C326.67,296.83 325.03,307.19 321.08,316.58C321.97,322.23 325.55,332.38 320,337.5L317,345.5L327,339.5C326.31,321.67 337.22,304.29 329.92,286.58L326,285.5ZM391,332.5C391.73,340.6 387.04,346.75 384,353.5L387.5,355L390,352.5L393,332.5L391,332.5ZM301,353.5L293,355.5C295.71,357.5 298.26,360.94 298,364.5L276.58,371.08L272,377.5C269.16,394.93 288.93,407.01 278,425.5C289.14,445.95 297.96,468.41 303.92,490.42L298.42,495.92L275.58,491.08L271.08,498.58L273.5,512L327.5,512C328.58,470.24 288.05,437.95 292.5,395L284,388.5L282.08,379.58L285.5,375L300.42,373.08L309.5,382L315.92,364.58L308.5,353L301,353.5ZM62,397.5L60,410.5L62,412.5C54.96,431.91 58.31,454.04 62.5,474C65.44,465.61 66.28,457.78 65,450.5L63,417.5L66,416.5L63.08,414.42L62,397.5ZM429,451.5L421,468.5L422.5,471L434.5,467L437,456.5L429,451.5Z"/>
  <path fill="#cb837c" stroke="#cb837c" stroke-width="0.5" stroke-linejoin="round" d="M218,46.5L211.58,48.08L205,55.5C205.99,73.67 235.61,84.3 224.5,107L231.5,100C234.02,81.55 219.48,68.79 218.08,51.58L221,48.5L218,46.5ZM512,74.5C492.26,111.95 453.88,137.54 440,179.5L436,193.5C436,204.17 434.64,213.47 431.92,221.42C428.03,226.19 424.03,235.53 419.92,249.42C408.09,283.35 393.09,316.29 390,352.5L387.5,355L376,355.5L376.5,396L385.5,382C398.83,376.63 414.28,390.28 425.92,378.42L431.92,359.42C431.31,348.14 433.97,334.47 439.92,318.42C439.22,289.43 470.74,275.28 492,262.5L497.92,254.42L497,249.5L512,242.5L512,74ZM207,119.5L197,128.5L195.08,138.42C201.11,150.21 200.52,167.27 216.5,172L227.5,170L236.5,173L239.5,171L243.5,179L249,175.5L245,169.5C253.33,174.32 263.23,178.33 273,176.5L273.5,174L285.5,177L286,174.5L283,173.5L284.5,172C268.8,166.24 252.13,159.36 234.58,160.92C220.81,155.08 200.15,135.3 209,119.5L207,119.5ZM399,160.5L383.5,176L399.5,168L401.5,171L403,166.5L399.5,167L399,160.5ZM286,188.5L282.5,195L289,189.5L286,188.5ZM368,192.5L361.08,195.58C361.08,200.14 362.56,205.94 365.5,213L370,209.5L366,204.5L367.08,195.58L371,192.5L368,192.5ZM363,218.5L360,220.5L363.5,231L367.5,231L368,219.5L363,218.5ZM245,230.5L237.5,241L241.5,240L245,230.5ZM279,237.5L269,241.5L286,246.5L283.92,238.58L279,237.5ZM368,239.5L366.5,268L368.5,263L370.5,274L368,239.5ZM335,263.5L334.5,270L331,274.5L339,272.5L340,269.5L335,263.5ZM512,268.5L494.5,273C462.2,286.75 449.61,332.02 452.5,364L454,354.5C452.29,318.54 474.27,278.2 512,270.5L512,268ZM108,270.5L105,274.5L110.5,279L113,276.5L111.5,271L110.5,276L108,270.5ZM280,271.5L281,275.5L268,274.5L270,276.5L269,280.5L253.58,284.08L249.08,288.58L250.5,295L253.5,289C260.78,287.72 268.78,287.72 277.5,289L281.5,298C283.78,290.94 284.61,284.11 284,277.5L280,271.5ZM367,272.5C369.06,303.11 371.08,322.42 373.08,330.42L375.5,332L378,313.5L371.5,274L370.5,281L367,272.5ZM318,276.5L323,290.5C319.98,298.49 318.37,307.8 321.5,316C325.17,307 327,297.5 327,287.5L322,277.5L318,276.5ZM320,320.5L316.92,343.42L310,345.5L318,344.5L320,337.5C324.62,333.24 323.36,324.71 320.5,320L320,320.5ZM169,334.5L162.5,337L163.5,344L167.5,336L169,334.5ZM290,373.5L282.08,379.58L284,388.5L292.5,395L293,411.5L295,411.5L299,391.5L304.58,388.08L309,387.5L305.92,376.58L300.42,373.08L290,373.5ZM11,413.5L9.5,430L11.08,423.58L17.42,421.08L21,431.5C25.95,443.7 19.42,457.18 25.5,469L24,437.5C25.23,429.22 23.33,419.98 17.5,414L11,413.5Z"/>
  <path fill="#bc7272" stroke="#bc7272" stroke-width="0.5" stroke-linejoin="round" d="M209,46.5C200.03,46.75 189.17,51.41 186.08,60.58L187,66.5C193.86,71.97 199.08,80.43 198.92,89.42L191,105.5C193.86,105.41 201.22,112.81 205.5,109L207.5,119L223.92,106.42C223.58,87.51 211.93,71.66 205,55.5L211.58,48.08L218,46.5L209,46.5ZM512,75.5C437.47,142.59 410.7,244.71 383.5,337L381.5,345L378.5,317L375.5,332L372.5,329L376.5,355L383.5,354C387.19,347.34 391.25,340.62 391,332.5L394,326.5C406.39,286.84 417.8,246.36 436,209.5C436.79,201.54 433.41,187.24 441,180.5L440,179.5C453.76,137.72 492.28,111.77 512,75ZM196,128.5C189.75,134.57 180.32,142.75 181,152.5C181.57,167.5 201.03,173.9 202,188.5L205,189.5L205,192.5L207.5,193C213.02,187.12 225.51,192.23 224.5,177L229,175.5L227,172.5L238.5,173L243.5,181L251,174.5L249,169.5L245,169.5L249,175.5L243.5,179L239.5,171L236.5,173L220.5,170L216.5,172C203.75,168.49 202.84,153.87 193.5,147L190.5,148L192.08,136.58L197,130.5L196,128.5ZM356,188.5L357,206.5L355,208.5L359.5,222L367.5,219L369.5,210L365.5,213C362.56,205.94 361.08,200.14 361.08,195.58L365,193.5L356,188.5ZM280,194.5L270,201.5L270.5,204L280,194.5ZM248,219.5L249,221.5L234.5,240L235.5,242L253,222.5L248,219.5ZM512,243.5L497,249.5L497.92,254.42C491.51,265.36 479.91,275.03 467,276.5C458.72,288.24 436.36,299.71 439.92,318.42C433.97,334.47 431.31,348.14 431.92,359.42L429.08,363.58C428.97,368.81 427.78,373.94 425.5,379C413.64,389.76 398.71,376.85 385.5,382L375.5,395L375,412.5L373,414.5L369.08,453.42L372.5,458L375.5,456L414.5,468L420.5,474L421,468.5L428.92,453.42C428.36,447.53 429.56,439.39 432.5,429L441,421.5L437.5,422C431.61,408.77 414.45,408.34 406,397.5L407.58,394.08L447.5,395C454.06,375.72 455.93,354.83 453,334.5C460.12,311.96 469.32,280.72 494.5,273L512,269L512,243.5ZM226,249.5L219,260.5L221.5,261L228,251.5L226,249.5ZM321,270.5L322,274.5L318,275.5L326.5,285L329,284.5L329.08,278.58L336,275.5L321,270.5ZM267,272.5L264,274.5L266,278.5L262,280.5L268.5,281L270,276.5L267,272.5ZM101,274.5L92,283.5L94,289.5L85,292.5L94,293.5L103,289.5L99,287.5L106.58,280.08L111,279.5L104.5,274L101,274.5ZM175,298.5L180.5,310L182,305.5L175,298.5ZM191,308.5C188.8,310.99 189.14,315.72 185,316.5L191.58,318.92L197,317.5L195,316.5L197.5,308L195.5,310L191,308.5ZM155,346.5L150,348.5L152,349.5L149,351.5L147.5,365L154.5,370L156.92,354.58L155,346.5ZM0,400.5L0,414L8.5,424L9,415.5L17.5,414C22.93,419.62 25.24,428.11 23.5,436C29.32,419.78 16.4,401.88 0,400ZM66,429.5L67.5,445L69,429.5L66,429.5ZM27,487.5L30.5,503L27,487.5Z"/>
  <path fill="#64224e" stroke="#64224e" stroke-width="0.5" stroke-linejoin="round" d="M494,77.5C482.18,82.97 475.45,97.44 478.5,110C487.5,100.04 490.72,85.52 505,80.5L494,77.5ZM456,142.5C449.4,153.27 440.18,162.37 436,174.5L436.5,181L456,142.5ZM278,176.5L267,182.5L262,187.5L264.5,187L266,189.5L253,205.5L255.5,209C257.22,204.06 259.89,199.72 263.5,196L261.5,205L267,200.5L270.5,184L271.5,190L279.5,178L286,177.5L278,176.5ZM228,186.5L226.5,190C217.73,196.13 206.63,199.88 203.5,212L194.5,211L188.5,219L186.5,216L179,219.5L180,225.5L174.5,226L156.08,247.58L156.5,252L162.5,243L163.5,245L167,238.5L161,253.5L165.42,253.92L172.92,244.42L173.5,237L174.5,243L177,241.5L175,237.5L179.5,229L184,230.5C183.81,237.22 178.71,243.27 183.08,250.42L190.5,253L194.5,256L192.08,245.58L199.5,231L205.5,236L206,246.5L204,247.5L207.5,253L210,252.5L208,249.5L214,250.5L215.5,253L216.5,246L217.5,250L218.5,243L219.5,245L221.5,236L222.5,240L228,232.5L220.5,230L219.5,233L217,227.5L221.5,225L223.5,230L226.5,231L226,222.5L221.08,216.42L219.5,210L222.5,201L222.08,211.42L228,215.5L231.58,209.08L244.5,211L248.5,218L252.5,210L250.5,211L252,202.5L249.5,199L246.5,201L251,193.5L247.5,191L241.5,197L239.5,196L236.5,201L234,198.5L239,186.5L228,186.5ZM427,199.5L420.5,218L427,199.5ZM350,216.5L347,221.5L357.5,227L362.5,247L362,231.5L356.5,221L350,216.5ZM369,228.5L370,241.5L379,270.5L378.5,283C385.11,270.29 383.46,254.49 385.92,240.58L372.5,234L369,228.5ZM172,249.5L169,259.5C167.72,262.89 167.56,267.72 168.5,274L169,263.5L173.5,259L174.5,261L176,256.5L172,249.5ZM152,253.5L139,258.5L138.5,261L134.5,260C131.81,272.86 113.48,268.58 109,281.5L112,284.5L109.08,292.42L114.5,296L121.5,284L123.5,287L125.5,284L127.5,285L129,282.5L124.5,273L127.5,277L137,271.5L155,254.5L152,253.5ZM365,257.5L365,271.5L361.5,274L362,282.5L366.5,288L365,257.5ZM151,261.5L137,272.5L139,276.5L137,279.5L140,280.5C140.63,286.15 135.77,290.82 132,294.5L133,298.5L131,299.5L130.5,296L128,297.5L133.5,316C139.64,307.58 131.6,296.55 140.5,289L154,297.5L157,301.5L155.5,308L163.5,309L168,301.5L166.5,300L165.5,302L164.5,296L167.5,298L170.5,290L178,291.5L171.5,285C168.11,289.61 164.44,292.94 160.5,295L149,287.5C147.52,283.55 143.88,277.28 147.5,273L152,271.5L152.5,269L155.5,270L158,264.5L154.5,263L150.5,267L153,261.5L151,261.5ZM129,311.5L133.5,327L129,311.5ZM160,318.5L157,319.5L161,323.5L159,325.5L160.5,328L162,322.5L165,321.5L160,318.5ZM164,326.5L163,328.5L165,329.5L153.5,334L152.5,332L145,345.5L149.5,348L168,330.5L164,326.5ZM355,326.5C350.39,335.22 347.75,344.19 347.08,353.42L348.5,355L354,332.5L360,329.5L355,326.5ZM109,330.5L100.08,338.58L96.5,349L93.5,344L87,353.5L89.5,361L87.5,360L85,367.5L87.92,373.42L79.5,384L78.5,395L80.5,393C84.78,395.39 88.28,398.56 91,402.5L89,403.5L92.5,405L94.5,400L95,405.5L101.42,405.92L103.5,396L106.92,404.42L102.42,408.92L90.5,406L90.5,414L101.92,423.58L102.5,430L105.5,417L107,434.5L103.5,442L102.5,436L95,440.5C95.08,453.75 93.79,468.6 102.92,479.58L102,485.5C94.15,487.75 89.54,494.23 84,499.5L81,512L105.5,512L109.5,499L111,500.5L108,512L118.5,512L120.5,488L122.5,491L123.5,489L135.5,512L138,512L138,504.5L132,494.5L134.5,496L134.5,491C139.32,496.72 142.81,504.38 142,512L163,512L161.5,508L159.5,508C157.78,503.72 154.61,499.56 150,495.5L152,493.5L147,482.5L151,482.5L150.92,478.58L137,464.5L141,462.5L140.5,450L149,465.5L157,468.5L153.5,464L164.5,467L166,456.5L163.5,456L161.5,463C158.47,457.87 152.92,457.25 148,455.5L143.5,447L146.5,450L146.5,441L144.5,441L138.5,431L135.5,431L130.5,421L129.5,424L124,410.5L124.5,405L113,410.5L121,402.5C108.36,395.71 115.13,377.02 111.92,367.58L108,360.5L110.5,362L110.5,355L112.5,357L112,330.5L109,330.5ZM138,330.5L142.5,341L144.5,335L146.5,336L146.92,331.58L140.5,332L138,330.5ZM374,352.5L374,359.5L369,362.5L374.5,369L374,352.5ZM211,355.5L210.08,361.42L216.5,368L211,355.5ZM92.5,357L94,357.5L90.5,371L89,366.5L92.5,357ZM161,371.5L156,381.5L167,391.5L161,371.5ZM346,378.5C340.02,387.21 349.79,396.35 345,405.5L351.58,414.92L359,412.5L353.58,410.92L348,400.5L346,378.5ZM322,382.5L311.5,383L311,388.5L329.5,397L330.92,388.58L327.42,382.08L322,382.5ZM175,390.5L168,394.5L178,410.5L180.92,403.42L178,390.5L175,390.5ZM232,395.5L219.08,410.58L221.5,421L224,409.5L232.5,401L232,395.5ZM165,400.5L171.5,412L172.5,410L176.5,424C176.78,419.72 175.78,414.39 173.5,408L165,400.5ZM169,415.5L169,423.5L166,426.5L172.5,434L175,431.5C175.08,425.58 174.62,419.1 169.5,415L169,415.5ZM116.5,422C117.69,431.2 130.17,431.42 130.92,440.58C128.48,449.24 124.69,460.6 133.5,468L134.5,466L135.92,474.42L129.42,481.92L119.5,476C112.18,463.13 121.68,445.23 108,434.5L108.5,429L112.5,430L116.5,422ZM188,437.5L185,442.5L195.5,444L197,447.5L185,446.5L197.5,449L199,447.5L197,445.5L198,442.5L188,437.5ZM68,447.5L69.5,461L71,459.5L72.92,470.42L70,472.5L71.5,482C76.09,472.71 76.46,459.31 69,451.5L68,447.5ZM169,464.5L167.5,468L164,468.5L167.5,476L169.5,467L174,466.5L169,464.5ZM408,470.5L407.5,477L413,480.5L409.08,475.42L414,470.5L408,470.5ZM161,485.5L165.5,497L165,490.5L167,489.5L161,485.5ZM142.5,487L155,505.5L153.5,506L142.5,487ZM512,488.5L512,512L493.5,512L499.5,505L501.5,512L507.5,502L512,502L512,500L506,498.5L512,495.5L512,488.5ZM68,491.5L64.5,492L64,498.5L62,501.5L65,505.5L64,512L69,512L68,491.5ZM0,492.5L0,512L15.5,512L13.92,501.58L0,492ZM164,497.5L162,500.5L166.5,504L168,502.5L164,497.5Z"/>
  <path fill="#e69075" stroke="#e69075" stroke-width="0.5" stroke-linejoin="round" d="M35,0C36.31,19.48 17.51,35.61 0,40L0,73C11.11,66.46 10.31,52.21 20,44.5C25.67,42.17 32.14,40.97 39.42,40.92C48.17,29.6 54.74,14.43 52.5,0L35.5,0ZM399,0C400.32,13.55 413.78,20.09 418.5,32L420,31.5C410.06,14.78 404.72,4.28 404,0L399.5,0ZM43,55.5C35.06,69.55 38.45,86.68 42.08,101.42L44.5,104C49.93,89.5 52.66,69.07 43.5,55L43,55.5ZM129,118.5L127,130.5L128.5,132L131,128.5L129,124.5L131,120.5L129,118.5ZM43,119.5C31.24,163.54 38.14,208.93 37,253.5L35,255.5C35.63,291.07 36.45,325.67 35,361.5L36.92,369.58L37,412.5C32.98,445.55 40.47,478.75 39,512L60,512L60,500.5L62.92,497.42C62.03,469.65 52.32,439.3 62,412.5L60,410.5C60.06,404.56 61.39,399.22 64,394.5L61.5,395L60,389.5C62.4,356.17 55.24,322.86 58,289.5L54,143.5L46,119.5L43,119.5ZM125,141.5L121.08,164.42L138.5,207L141.5,209L143,198.5L135.5,191L135,177.5L125,141.5ZM379,189.5L367.08,195.58L366,204.5L369.5,209L376,203.5L381,189.5L379,189.5ZM288,247.5C295.61,251.89 300.94,255.89 304,259.5L306.5,275C307.44,267.39 307.28,261.22 306,256.5L288,247.5ZM260,287.5L251.08,291.58C248.79,301.83 257.44,311.36 265.58,315.92L271.42,315.92C276.42,309.58 279.61,304.11 281,299.5L281,292.5L276.5,289L272.5,299L264.58,301.92L259,293.5L266,288.5L260,287.5ZM468,302.5C459.34,316.88 452.06,333.69 454.5,351L459,326.5C454.35,313.7 466.73,312.9 469,304.5L468,302.5ZM299,391.5C281.93,434.44 330.63,469.05 328,512L338.5,512C339.02,490.07 326.37,470.18 319,450.5C317.7,429.71 294,412.89 301,391.5L299,391.5ZM436,462.5L434.5,467L427.58,468.08L420.08,475.58L421.08,487.42L428.5,491L442.5,478L425.5,490L423,488.5L422.08,479.58L431.5,480L436,462.5Z"/>
  <path fill="#e4c3b4" stroke="#e4c3b4" stroke-width="0.5" stroke-linejoin="round" d="M278,67.5C266.52,74.74 257.52,86.16 249.08,96.58L249.5,102C261.73,116.52 276.39,139.11 298.42,132.08C309.26,142.56 327.41,144.57 341,138.5L341,136.5C326.49,125.78 326.32,103.41 309,95.5L295,76.5L278,67.5ZM398,111.5C380.54,113.82 373.66,138.63 356,141.5L357,144.5L353,147.5L336,182.5L337.08,187.42L345.5,194C361.35,181.68 386.88,180.02 389.5,155L398.5,150L410.5,161C417.17,146.86 422.5,128.62 414.5,114L398,111.5ZM407,167.5L399,177.5L401.5,181L407,167.5ZM322,218.5L317.08,225.58L317.08,233.42C321.69,239.47 327.5,244.67 334.5,249L342,242.5L339.92,228.58L328.42,218.08L322,218.5ZM312,270.5L309.08,273.58L310,283.5C306.34,295.39 312.32,308.09 316.5,319L318.5,319C324.18,302.69 310.73,287.15 315,270.5L312,270.5ZM512,323.5L502.08,328.58L490.08,351.58L491.58,355.92L512,354.5L512,323.5ZM326,397.5C337.43,423.93 332.51,455.06 348,480.5C352.83,490.36 360.35,500.35 360,512L382,512C370.02,472.28 371.51,414.97 326.5,397L326,397.5Z"/>
  <path fill="#ddafa1" stroke="#ddafa1" stroke-width="0.5" stroke-linejoin="round" d="M245,50.5L241.5,54C234.47,66.79 236.46,81.85 242,94.5L227.08,110.58L227.08,115.42L239.5,133C259.21,136.88 275.11,149.73 293.58,156.92L322,156.5L322,158.5C307.74,177.29 287.38,189.03 272,206.5L276.5,215L302.42,205.08L305.92,214.42C298.38,226.73 302.07,241.73 310,252.5L308.5,289L310,272.5L314.5,270L315.5,273C316.46,260.36 328.46,250.03 340.5,248L344,243.5L341,222.5L334,201.5L344,193.5L337.08,187.42L336,182.5L353,147.5L361,137.5L345.5,145L341.5,138C328.03,144.99 309.37,142.57 298.42,132.08C276.14,139.17 261.37,116.08 249.08,101.42L249.08,96.58C257.64,85.93 266.88,74.54 278.5,67L281,67.5C266.67,57.83 254.83,52 245.5,50L245,50.5ZM398,150.5L393.58,151.08L387.5,161L394.58,154.08L402.5,156L403.5,171L408.5,168L409.5,159L398,150.5ZM400,173.5C395.17,179.06 389.52,183.81 389.5,192L402,181.5L399,177.5L402,173.5L400,173.5ZM322.5,218L328.42,218.08L339.92,228.58L342,242.5L334.5,249C327.5,244.67 321.69,239.47 317.08,233.42L317.08,225.58L322.5,218ZM256,239.5L245.5,254L235.5,253C222.19,273.76 202.87,288.86 196,313.5L198.5,315C219.69,292.29 234.82,263.22 262,245.5L256,239.5ZM273,262.5L269,272.5L277.42,273.92L281,269.5L273,262.5ZM315,276.5L317.5,299L319,295.5L315,276.5ZM308,333.5L306,338.5L308,341.5L305,341.5L306,339.5L302.5,337L300,339.5L304.58,344.92L313,342.5L313,336.5L308,333.5ZM164,344.5L158,346.5C156.04,347.9 155.47,350.87 156.5,353L159.5,353L160,355.5L154,371.5L157.5,377L157,368.5C156.22,359.31 166.57,351.87 169,344.5L164,344.5ZM308,390.5C306.72,393.22 306.39,398.22 307,405.5C328.85,436.38 336.97,476.25 349,512L359.5,512C361.98,501.43 352.97,492.7 350,483.5C341.26,468.01 334.17,449.73 334.92,431.58C330.25,423.3 318.96,408.07 326.5,397L328,396.5C321.5,394.26 315.77,388.68 308.5,390L308,390.5ZM177,414.5L176.5,426L175.5,423L175,430.5L177.5,431L179.92,427.42L177,414.5ZM19,498.5L16.08,504.58L17,512L30,512L31,507.5L26,498.5L19,498.5Z"/>
  <path fill="#812b46" stroke="#812b46" stroke-width="0.5" stroke-linejoin="round" d="M369,85.5L367,124.5L368.5,125L370,93.5L373.5,91L378.5,97L379,94.5L372.42,85.08L369,85.5ZM316,98.5L328.5,118L331,117.5C330.28,112.22 327.94,106.56 324,100.5L316,98.5ZM189,210.5L186,215.5L188.5,219L194,211.5L189,210.5ZM345,210.5L344,220.5C347.27,229.14 353.12,242.04 345,250.5L348,252.5L327.5,260L327.5,264L321.5,262L319,267.5L325.5,272L325.5,268L330,271.5L334.92,268.42L335.5,262C339.33,263.11 341.3,267.75 341,271.5L337,277.5L346,281.5L348,289.5L346.5,305L351,283.5L343,273.5L340,261.5L351,254.5C343.93,243.69 358.33,232.2 347,221.5L352,215.5L345,210.5ZM355,213.5L352,217.5L358.5,221L355,213.5ZM176,223.5L172.5,224L171.5,227L168,225.5L170.5,230L174.5,226L180,225.5L176,223.5ZM372,252.5L371.08,261.58L374.5,285L375.5,280L377.5,283L380,269.5L372,252.5ZM252,255.5L243,264.5L254.5,273L257.5,267L266.42,271.92L272,267.5L270.5,263L265.5,267L261,264.5L260,259.5L267,256.5L254.58,256.92L252,255.5ZM104,268.5L92.08,275.58L93.5,279L108,271.5L104,268.5ZM21,277.5C18.33,288.6 7.7,290.94 0,296.5L0,350.5L9.42,353.08C20.61,364.11 15.74,379.99 20,393.5L14.5,400L4,397.5C15.64,400.86 23.74,411.36 25.5,423L26,419.5L28.5,419L32,423.5C26.15,413.98 35.33,401.13 28,391.5L23.08,387.42C11.29,371.47 30.81,356.48 26,339.5L25,334.5C33.49,317.83 27.76,299.16 27.92,281.58L21,277.5ZM221,287.5L218.5,307L216.5,306L215.5,325L221,319.5L223,287.5L221,287.5ZM167,304.5L163.5,309L155,308.5L156,311.5L153,313.5L154.5,316L157,314.5L166,319.5L161,315.5L167,304.5ZM356,330.5C347.7,343.48 348.42,359.8 348.92,374.42L347,380.5L347,401.5L353.58,410.92L362.58,413.92L373.5,413C375.17,397.33 375.83,381.33 375.5,365L374.5,369L369,363.5L370,361.5C366.06,352.78 363.06,342.78 361,331.5L356,330.5ZM215,336.5L213,351.5C210.66,370.93 238.25,380.69 232.5,401C215.45,407.44 227.92,424.71 218.92,435.42L216,437.5C210.28,451.19 205.79,465.75 197,477.5L193,489.5L196,492.5C187.83,498.36 176.01,497.36 174,512L182.5,512C185.17,506 188.83,500.67 193.5,496L208,489.5L206.5,486L198.5,488C208.05,463 220.4,439.29 229.5,414L231.5,414C240.71,430.9 236.54,453.49 225,468.5L226.5,476C233.78,465.08 238.38,451.71 238,438.5L241,412.5C241.35,404.65 237.18,396.34 243,389.5L252,385.5L249,382.5C237.33,372.17 230,364.5 227,359.5L225,353.5L217,344.5L215,336.5ZM69,375.5L66.5,389L74.5,382L75.5,387L80,384.5L78,383.5L85,375.5L76.5,382L69,375.5ZM74,387.5L66,395.5L67.5,401L70.5,398L74,397.5L73,393.5L76.5,391L74,387.5ZM508,390.5L501.42,394.92L491,395.5L491.5,392L474.08,409.58L474,415.5L476.5,416C484.66,405.55 499.83,404.78 512,402.5L512,390L508,390.5ZM31,431.5L30,448.5L27.5,450L25.5,441L28.08,472.42L30.5,474L31,431.5ZM70,455.5L68,461.5L70,472.5L72.92,470.42L70,455.5ZM512,457.5L504.5,462C498.58,478.82 495.2,496.23 486,512L490.08,512C501.36,497.67 508.67,489.5 512,487.5L512,457.5ZM398,466.5L395.08,473.42L401,481.5L413.42,485.92L419,481.5L418.5,478L415.5,482L407.08,476.42L408.58,470.08L416,470.5L398,466.5ZM456,467.5C446.01,471.07 445.66,484.23 435,487.5L445.58,496.92L455.42,495.92L466.92,478.42L466.92,470.58L456,467.5ZM11,472.5L0,475.5L0,491.5L13.5,501L12.5,497L0,487.42L0,482L12,474.5L11,472.5ZM474,483.5L456,499.5L453,512L464.5,512L477.92,491.42L474,483.5Z"/>
  <path fill="#d49991" stroke="#d49991" stroke-width="0.5" stroke-linejoin="round" d="M226,45.5L218.5,51C216.67,68.24 236.62,81.25 231.5,100L212,116.5L206,125.5L213,142.5C226.25,170.99 260.88,156.41 282.5,172L286.5,171L293,178.5L275.5,197L290.5,185L292.5,187C306.22,181.52 310.25,166.29 322,158.5L320.42,155.08L293.58,156.92L282.5,151C274.22,148.86 265.03,144.58 258.5,139L239.5,133L227.08,115.42L227.5,110L242,94.5C236.46,81.85 234.47,66.79 241.5,54L250,49.5L226,45.5ZM394,154.5C391,156.83 386,163.83 379,175.5L399.5,160L400.5,166L402.5,171L406,163.5L402.5,156L394,154.5ZM391,182.5L381,189.5L377,202.5L388,192.5L391,182.5ZM274,202.5L263.5,218L261.5,215L260.5,222L258.5,218L239.5,239C234,254.18 208.06,266.56 209,285.5L210,286.5C222.38,278.48 224.88,262.56 235.5,253L245.5,254L256.5,239L258.5,239L262.5,246C270.56,240.72 277.19,237.75 282.42,237.08C284.37,244.99 291.13,248.04 297.5,251L306,256.5L307.5,274L310,252.5L307,246.5C299.33,237.74 300.78,224.19 305.92,214.42L302.42,205.08L276.5,215L272,206.5L274,202.5ZM363,231.5L367.5,257L366.5,231L363,231.5ZM114,268.5L112,277.5L116,275.5L114,274.5L118,269.5L114,268.5ZM512,271.5C493.99,274.41 476.56,285.64 469,302.5L463.5,317C470.7,294.3 491.22,283.38 512,279.5L512,271.5ZM316,276.5L321,300.5L323,290.5L316,276.5ZM266,288.5L259,295.5L264.58,301.92L272.5,299L275.92,293.42L274.42,288.08L266,288.5ZM311,308.5L314,326.5L305.5,334L302.5,332L299.08,336.58L299,343.5L304,344.5L300,339.5L302.5,337L305.5,339L308.5,333L310.5,333L313,342.5L305,345.5L316.92,343.42L317.92,323.58L311,308.5ZM200,316.5L195.42,318.92L184.58,318.08L182,324.5L188,328.5L185.5,335L189.5,333L200,316.5ZM177,330.5L167.5,336L164,343.5L169.5,345L177,330.5ZM174,350.5L168,358.5L172,357.5L176,351.5L174,350.5ZM305,388.5L301.08,390.58C296.73,400.69 299.68,413.25 308,420.5C315.1,452.17 337.12,478.89 339,512L349,512C335.13,476.95 329.03,436.35 307,405.5L306.08,394.58L311,389.5L305,388.5ZM14,421.5L10,430.5L16.5,504L19.58,498.08L27.5,500L21,424.5L14,421.5ZM175,431.5L171,439.5L173.5,441L182,435.5L181.5,433L178,433.5L175,431.5Z"/>
  <path fill="#efc393" stroke="#efc393" stroke-width="0.5" stroke-linejoin="round" d="M405,0C408.79,16.29 419.73,30.84 428,45.5L442.5,71L452.5,64L453.92,58.58C443.26,39.47 427.98,20.62 422,0L405.5,0ZM129,113.5C118.33,143.41 109.95,182.89 130.92,210.58C128.72,219.66 133.69,227.89 138.5,235C134.68,225.78 144.53,218.76 141.92,209.58L134.08,200.42L128,174.5L121.08,164.42L128,133.5L128,120.5L129,113.5ZM505,282.5C442.46,296.13 460.08,377.3 443.5,423C432.91,426.01 427.03,437.09 429.08,447.42L438,454.5C437.94,459.11 435.78,467.61 431.5,480L422.08,479.58L423,488.5L427.5,490L443.5,477C457.14,449.41 461.59,415.27 486,394.5L486,392.5C490.33,388.83 499,385 512,381L512,355L491.58,355.92L490.08,351.58C495.42,341.06 498.69,325.83 512,322.5L512,283.5L505,282.5ZM326,402.5L324,406.5C329.94,410.46 326.23,420.23 332.5,424C332.78,419.06 330.78,411.72 326.5,402L326,402.5Z"/>
  <path fill="#793b6a" stroke="#793b6a" stroke-width="0.5" stroke-linejoin="round" d="M233,174.5L227,181.5L231,182.5L224.5,187C218.56,188.39 212.22,191.72 205.5,197L203.5,196L201.5,200L193,202.5L195,204.5L189,209.5L203.5,212C206.64,199.5 218.29,196.13 227,189.5L230.5,186L239,186.5L234,198.5L236.5,201L239.5,196L241.5,197L249.5,191L251.5,192L246.5,201L251,203.5L250.5,211L252.5,210L249,217.5L254,215.5L254.5,220L258.5,214L259.5,216L261,212.5L259.5,208L258.5,212L256.5,207L255.5,209L254,202.5L266,189.5L264.5,187L266,181.5L278,176.5L262.5,176L257.5,180L255.5,179L243.5,191L246,186.5L243,184.5L244,182.5L240.5,183L239,175.5L233,174.5ZM349,192.5L341,199.5L342,201.5L340,202.5L354,216.5L356,211.5L348,195.5L351,192.5L349,192.5ZM222,201.5L221.08,216.42L226,220.5L227,217.5L222.08,211.42L222,201.5ZM221,225.5L217,227.5L219.5,233L220.5,230L227,231.5L223.5,230L221,225.5ZM165,239.5L163.5,245L162.5,243L156.5,252L153.5,248L155,254.5L144.5,266L153,261.5L150.5,267L156.5,263L158,264.5L155.5,270L152.5,269L152,271.5L147.5,273C145.41,275.57 145.41,279.43 147.5,282L149.5,274L150,280.5L148,288.5L154.5,292L156.5,290L162,291.5L157.5,285L162,283.5L160.5,281L157.5,283L160.5,266L162.5,277L166.5,261L167.5,264L173,247.5L171.5,246L165.42,253.92L161,253.5L165.92,243.42L165,239.5ZM107,280.5L101,287.5L108,287.5L92,297.5L95.5,301L99.5,299L100,300.5L91.5,305C87.65,315.62 85.84,327.3 88,338.5L87.5,350L93.5,344L98,348.5L100.08,338.58L109.5,330L112,330.5L112.5,357L110.5,355L108,362.5L112.5,368L116.5,349L119,350.5C119.72,355.78 121.22,359.94 123.5,363L127.5,361L129.5,366L135,365.5L131,360.5L132.5,359L136.5,360L137.5,363L141,359.5L138.5,354L134,350.5L136.5,351L140,346.5L131,339.5L133,338.5L129.5,331L127.5,337L125.5,336L125.5,326L123.5,329L121,328.5L120,311.5L123,302.5L122.08,296.58L128,285.5L125.5,284L123.5,287L121.5,284L114.5,296L109.08,292.42L112,284.5L109,281.5L111,280.5L107,280.5ZM117.5,308L118,310.5C112.87,316.07 113.64,326.22 106,329.5L117.5,308ZM123,312.5L123.5,324L126,322.5L123,312.5ZM139,349.5L139,353.5L142.5,357L148,351.5L146.5,349L145,350.5L139,349.5ZM86,350.5C85.94,355.11 82.97,363.47 77.08,375.58L77.5,381L88,371.5L84,366.5L88,355.5L86,350.5ZM149,372.5C147.29,376.87 150.79,380.06 151.5,384L156,381.5L155.5,379L151.5,377L149,372.5ZM119,375.5L119.08,385.42L127.58,395.92L133,390.5L125,380.5L127,379.5L119,375.5ZM152,388.5L158.5,396L158.92,392.58L152,388.5ZM122,396.5L128.5,402L131,400.5L129.5,405L133,401.5L132.5,399L122,396.5ZM139,396.5C136.33,401.17 132.67,405.17 128,408.5L132,412.5L131.5,415L127.5,410L125,413.5L129.5,424L130.5,421L135.5,431L138.5,431L143.5,440L146.5,435L151.5,439L155,434.5L154,426.5L146,419.5L144.5,414L146,411.5L138,400.5L141,398.5L139,396.5ZM121,402.5L113,410.5L125,405.5L126.5,408L128,405.5L121,402.5ZM148,442.5L146.5,450L143.5,447L147.5,452L150.5,452L148,442.5ZM140,450.5L141.5,463L145,456.5L140,450.5ZM161,451.5L160,453.5L162,454.5L159,456.5L161.5,461L163,456.5L166,453.5L161,451.5ZM154,465.5L157,468.5L154,469.5L159,474.5L167,472.5L164.5,467L154,465.5ZM12,474.5L0,482.58L0,488L12.5,497L14.5,507C14.78,500.72 13.31,493.86 10.08,486.42L12,474.5ZM151,479.5L152,483.5L147,482.5L151.5,494L150,495.5C158.54,497.87 157.2,506.76 162,512L171.5,512L162,500.5L165,494.5L162.5,492L163,495.5L158.5,499L156.5,494L155.5,497L156,480.5L151,479.5ZM157,481.5L160.5,490L161,485.5L165.5,487L166,485.5L157,481.5ZM496,484.5L484.5,512L498,484.5L496,484.5ZM120,488.5L119,512L122,512L121.08,499.58L124.5,496L123.5,489L122.5,491L120,488.5ZM134,491.5L133,496.5L139,512L142,512C142.81,504.38 139.32,496.72 134.5,491L134,491.5ZM145,493.5L155,505.5L145,493.5ZM125,502.5L125.5,512L131,512L125,502.5Z"/>
  <path fill="#8f5d89" stroke="#8f5d89" stroke-width="0.5" stroke-linejoin="round" d="M251,174.5L243.5,181L239.5,177L241.5,182L244,182.5L243,184.5L245.5,186L255.5,179L257.5,180L262,175.5L251,174.5ZM227,176.5L215,188.5L224.5,187L231,182.5L227,181.5L230,177.5L227,176.5ZM354,189.5L348,195.5L351,207.5L354.5,210L356.92,194.58L354,189.5ZM262,198.5L257.08,206.58L258.5,212L259.5,208L261,212.5L259.5,216L258.5,214L258,216.5L260.5,217L271,205.5L269.5,202L260,205.5L262,198.5ZM225,218.5L229.5,236L231,230.5L227.92,219.58L225,218.5ZM166,261.5L162.5,277L160.5,266L157.5,283L160.5,281L162,283.5L157.5,285L154.5,283L162,291.5L156.5,290L155,291.5L160.42,293.92C165.08,291.92 168.61,289.44 171,286.5L170.5,285L166.5,288L169.5,279L166,261.5ZM126,277.5L130,283.5L135.42,284.92L140,281.5L136.5,278L131.5,281L126,277.5ZM100,285.5L99,287.5L104.5,291L108,287.5L100,285.5ZM127,286.5L122.08,296.58L124,303.5L121,312.5L121,328.5L123.5,329L125.5,326L127.5,337L129.5,331L133,338.5L131,339.5L138.5,347L134,350.5L136.5,354L139,353.5L139,349.5L146.5,349L147.5,351L150,348.5L146.5,348L144,344.5L146,338.5L142.5,342L128.5,296L131.5,296L137,287.5L125.5,295L130,289.5L127,286.5ZM125.5,298L127,298.5C126.77,308.88 135.73,316.82 134,327.5L132.5,328C125.06,319.21 132.87,307.47 125,298.5L125.5,298ZM99,299.5L87.5,306L87.08,313.42L89.5,315L91.5,305L100,300.5L99,299.5ZM123.5,312L126,322.5L123.5,324L123.5,312ZM116,349.5L114.5,371L113.5,365L113,392.5C119.39,399.44 124.39,403.78 128,405.5L125,412.5L127,412.5L128.5,408C132.83,405 136.5,401 139.5,396L141,398.5L138,400.5L146,411.5L144,414.5L151.5,426L154,426.5L151.5,439L146.5,435L144.5,440L146.5,439L149.92,443.58L151.5,453L147,452.5L161,460.5L162,454.5L160,453.5L161.5,451L172.92,461.58L173.5,466L177.5,454L174.5,456L171.5,455L163,445.5L165.5,443L176,443.5L170,436.5L171.5,435L172.5,437L174,434.5L169.58,432.92L165,424.5L168.5,415L172,414.5L167.5,411L166.5,414L161.5,406L166.5,411L168,407.5L162.5,399L165,395.5L159.5,392L158.5,396L156.5,395L155.5,397L156,393.5L152,390.5L155.5,389L158.5,392L162,389.5L154.5,383L151.5,384L152,380.5L149,377.5L149.5,372L153.5,379L155,373.5L146,361.5L147,353.5L143.5,354L142.5,357L140,355.5L137.5,363L136.5,360L131,360.5L135,365.5L129.5,366L127.5,361L123.5,363C121.22,359.94 119.72,355.78 119,350.5L116,349.5ZM119.5,375L127,379.5L125,380.5L133,394.5L127.58,395.92L119.08,385.42L119.5,375ZM121.5,395L124.5,398L132.5,399L133,401.5L129.5,405L121.5,395ZM0,397.5L0,400C4.94,401.39 9.44,403.72 13.5,407L0,397ZM105,422.5L97,438.5L102.5,435L105,436.5C105.31,432.26 109.12,426.22 105.5,422L105,422.5ZM178,442.5L192.5,447L194,445.5L178,442.5ZM143,459.5L143,471.5L156,480.5L156.5,494L160,497.5L158.5,493L161.5,495L157.5,481L164,482.5L168,477.5L165.5,474L158.5,476L157.5,470L155.5,471L143,459.5ZM12,477.5L10.08,486.42L15.5,504C19.47,494.35 9.05,486.53 12.5,477L12,477.5ZM123,495.5L131.5,512L135,512L123,495.5Z"/>
</svg>