<svg xmlns="http://www.w3.org/2000/svg" width="512" height="512" viewBox="0 0 512 512">
  <rect width="512" height="512" fill="#ca5e5f"/>
  <path fill="#5f1840" stroke="#5f1840" stroke-width="0.5" stroke-linejoin="round" d="M512,6.5L507.5,7L475.5,37C452.41,59.84 434.31,87.06 416,114.5C427.36,152.44 401.08,189.14 371.08,209.58L369,222.5L371.5,233L375.58,235.92L385.58,233.08L390.92,235.58C383.55,252.39 389.46,276.65 375.08,289.58L383.5,328L385.5,325C400.69,282.85 408.02,236.44 429,197.5L437,173.5C445.17,150.11 467.77,133.46 478,110.5L480,106.5C476.01,96.83 482.93,87.11 489,80.5L497.42,78.08L501.5,81L512,71.5L512,6ZM372,94.5L370,95.5L368,129.5L370.5,130L391,114.5L377,95.5L372,94.5ZM287,174.5L288,176.5L285.5,178L283.5,176L271,187.5L272.5,195L288.5,182L290.92,176.58L287,174.5ZM268,189.5L262,195.5L264,198.5L262.5,204L265.92,201.42L268,189.5ZM227,198.5L224,207.5L227.5,210L229.5,208L227,212.5L228,218.5L235,221.5L229.5,222L232.5,236L248.5,218L248.5,211C243.89,210.28 239.22,208.28 234.5,205L227,198.5ZM192,221.5L186,230.5L195,236.5L192.5,242L186.58,244.92C186.83,238.77 188.64,231.85 182.5,227L177.08,230.58L174,237.5C179.7,243.34 171,252.85 178,258.5L175.5,258L174.5,261L172.5,250L168.08,271.42L173,277.5L171,281.5L174,283.5L172.08,287.42L177,292.5L183,308.5L180.5,311L176.5,306L172.5,317L169,318.5L170,320.5L165,329.5L167.5,330L180.5,325L187.5,315C198.39,287.6 214.38,262.74 231,238.5L226.5,232L223.08,234.58L217.5,250L219,240.5L215.08,242.58L215.5,253L212.5,249L213.5,256L209.5,251L212,242.5C205.09,236.7 211.62,222.53 197.42,221.08L192,221.5ZM349,223.5L353,253.5L342,265.5C342.38,275.75 356.8,278.99 354,290.5C342.61,320.63 326.36,349.03 312,377.5L312,387.5L323.5,387L327.08,394.42L344.5,406L345.92,396.58C339.58,388.7 341.75,376.7 346,368.5C333.63,352.4 351.88,341.61 351,327.5L355.5,321L360.5,323C369.14,331.89 361.48,343.93 368,353.5L373.5,357C376.17,334.37 366.08,313.09 366.92,290.58L361.5,288C360.56,281.06 360.89,274.39 362.5,268L365,267.5L365,247.5L362,246.5L358,227.5L349,223.5ZM170,236.5L166,244.5L168.5,248L171.92,244.42L170,236.5ZM135,244.5L131,247.5L139.5,254L139,248.5L140.5,245L135,244.5ZM191.5,252L202,262.5L198.5,264L191.5,252ZM140,258.5L134.5,267L132.5,266L130.5,269L125,270.5L127.5,275L134,272.5L140,263.5L143,260.5L140,258.5ZM140,284.5C132.88,298.27 128.53,320.96 141.5,333L144.5,332L146.5,326L152,328.5L152,333.5L155.42,333.92L160,326.5L158,323.5L161,322.5L159.5,320L155.58,319.92L153.08,314.42L158,299.5C150.68,296.08 148.79,285.35 140.5,284L140,284.5ZM216,294.5L202.08,314.58L201.92,318.42C185.03,333.13 177,355.7 161.08,371.58L162,386.5L170.5,396L173.42,394.92L179.5,385L181.5,385L183.92,395.42C173.74,406.71 181.62,420.31 179.5,433L181.5,432L182,436.5L176,439.5L180.5,442L184.5,443C187.83,435 190.83,429.67 193.5,427L196,427.5C199.28,436.89 200.44,444.39 199.5,450L193.5,450L178.5,444L173,444.5L175.5,454L178,454.5L173.5,467L171.5,466L167,471.5L168,475.5L165,481.5L166.5,489L165,489.5C167.06,499.44 169.89,506.94 173.5,512L175.5,512C176.73,506.9 180.92,502.25 185.5,500L194,492.5L192,489.5L209,451.5C208.27,440.99 220.63,433.67 218.92,422.58L216.08,418.42L216.08,410.58L224.92,394.42C231.17,373.05 194.82,370.48 207.08,350.58L214,343.5L215,334.5C199.69,317.57 223.16,309.8 219,295.5L216,294.5ZM0,355.5L0,392.5L15.42,395.92L18.92,391.42L16,374.5C20.2,367.92 11.12,360.03 7,356.5L0,355ZM512,382.5L497,387.5L494,391.5L498.42,392.92L512,387.5L512,382ZM80,392.5C76,398.5 73.67,403.83 73,408.5L68,424.5L69.5,425C67.89,431.39 67.72,440.89 69,453.5L72,454.5L74,471.5L72,479.5C70.38,489.55 63.68,501.63 68.5,512L82.5,512L88.5,498L96.5,493L102.42,495.92L105.92,491.42C111.28,473.76 98.92,458.19 98,441.5L96,438.5C99.94,433.11 102.25,427.47 102.92,421.58L91.08,410.42L89.5,404L91,401.5L84.42,392.08L80,392.5ZM356,415.5L353,416.5L367.5,453C370.5,434.67 371.83,422.33 371.5,416L356,415.5ZM115,417.5L112.5,425L109.5,423L107.08,426.58C102.95,442.13 122.24,453.53 113.08,470.42L124.5,487L130.5,488L142,472.5L136.5,465L134.5,468L135.5,465L131.08,459.42C132.31,447.53 132.11,439.06 130.5,434L115,417.5ZM0,418.5L0,475L9.42,472.92L11.92,468.42C0.62,459.85 18.62,425.02 0,418.5L0,418ZM26,421.5C25.33,431.5 25.83,440.33 27.5,448L31,441.5L31,426.5L26,421.5ZM413,471.5L411.08,476.42L416.5,479L418,473.5L413,471.5ZM223,474.5L209,486.5L212.42,486.92L223,474.5ZM0,503.5L0,512L10,512L0,503Z"/>
  <path fill="#ab424e" stroke="#ab424e" stroke-width="0.5" stroke-linejoin="round" d="M64,0L62,67.5L65.5,355L66,328.5L70.5,327L76,341.5L72.5,349L87.5,332L86.92,323.58L78.5,317L75,317.5L78,313.5L74.5,307L77.5,309L81.92,300.42C79.01,291.37 83.83,281.12 90.5,275L107,263.5L109,259.5C105.22,245.99 102.49,226.75 115.58,217.08L125.58,220.92L130.92,219.42C126.39,194.14 107.37,169.74 120,141.5L111,132.5C105.7,106.61 113.67,79.16 102,54.5C105.27,36.46 105.55,16.94 97.5,0L64.5,0ZM69.5,55L75.5,59C84.52,77.4 70.7,98.88 80.92,117.58C68.26,155.6 89.08,194.87 77,232.5L77.92,259.42L71.42,269.92L65,267.5L64,84.5C64,71.83 65.67,62.17 69,55.5L69.5,55ZM21,66.5C11.35,73.47 11.04,87.89 0,93.5L0,100C9.32,95.04 10.88,84.98 17.5,78L20.92,80.58C23.17,92.23 13.54,102.59 18.92,114.42C13.97,119.47 7.67,123.33 0,126L0,285L10.5,279C13.5,270 16.5,264 19.5,261L26.92,265.58L28.5,284L27,220.5C21.25,203.66 18.47,184.96 23,167.5L24,156.5L26,153.5L24,151.5L27,113.5L26,72.5L21,66.5ZM320,71.5C311.65,78.5 301.29,67.35 293,74.5L306.5,88C315.28,85.77 325.23,89.99 329,98.5L331.5,122L330,122.5L333.5,126L331,87.5C327.64,82.02 327.1,74.27 320.5,71L320,71.5ZM139,117.5C136.39,122.22 135.08,127.19 135.08,132.42L146.5,143C147.44,138.06 146.25,130.25 142.92,119.58L139,117.5ZM392,171.5C382.23,178.61 368.58,178.7 360,187.5L366.5,192C378.5,188 385.5,185 387.5,183L394.92,176.42L395,172.5L392,171.5ZM340,211.5L346.5,240L348,239.5L340,211.5ZM277,246.5L281.5,257L292,252.5L277,246.5ZM343,251.5L330,254.5C334.28,255.44 339.44,255.28 345.5,254L346,251.5L343,251.5ZM341,280.5L339,281.5L346.5,293L346,283.5L341,280.5ZM226,281.5L224,285.5C216.11,298.08 229.9,309.86 221.92,322.42L217,325.5L216,337.5L223.5,347C227.67,364.11 241.09,376.05 255,385.5L253,386.5L258,385.5L232.5,359C225.8,345.05 218.87,329.39 226.92,313.58C224.16,303.48 223.49,292.28 228,282.5L226,281.5ZM68.5,301L71,302.5L74,312.5L68.5,317L66,315.5L66.08,303.58L68.5,301ZM178,332.5L165,352.5L167.5,355L183,335.5L178,332.5ZM80,342.5L73.5,354L74.5,362L83,343.5L80,342.5ZM26,352.5L21.08,376.42L27.5,389L28,386.5C19.77,375.8 33.55,363.35 26.5,352L26,352.5ZM81,357.5L73,370.5L74.5,372L77.5,366L80.5,368L83.5,358L81,357.5ZM248,387.5L244,389.5L241,403.5L242.5,412C241.14,404.35 241.38,389.13 252,387.5L248,387.5ZM241,412.5C242.87,419.41 241.93,426.72 240,433.5L238,447.5L231.5,469C239.45,464.86 225.57,447.27 241,447.5L241,443.5C242.8,433.28 244.99,422.16 241.5,412L241,412.5ZM495,412.5C485.38,412.97 481.4,424.9 471.58,423.92L468.5,421L463.08,434.58L464.92,446.42C462.47,453.53 458.42,460.25 453,465.5L453.5,467L475.58,455.08L490.5,459C497.5,449.33 504.67,442.5 512,438.5L512,414L495,412.5ZM229,417.5L222.5,436L226.58,432.08L233.92,434.58L234.5,441L233.92,420.58L229,417.5ZM218,445.5L201,484.5L203.5,487L214,481.5L210.08,476.42C210.75,469.86 213.69,460.53 218.92,448.42L218,445.5ZM375,459.5L371.5,464L380.5,461L396,463.5L375,459.5ZM33,470.5L32,477.5L29,479.5L30.5,487C32.11,483.94 33.11,478.28 33.5,470L33,470.5ZM382,476.5L378.08,482.42L389.92,494.58L393,512L400,512L397,500.5L400.58,495.08L414.42,493.92L419.92,489.42L419.5,484L417.42,486.92L404.58,488.92C399.53,486.64 394.67,482.83 390,477.5L382,476.5ZM488,483.5L479.5,495L484.58,492.08L489,493.5L488.5,500L491,494.5L490.92,484.58L488,483.5ZM211,488.5C203.67,492.49 194.85,493.5 189.5,501L186,512L193.5,512C196.83,504 203.33,496.17 213,488.5L211,488.5ZM430,490.5L426,496.5L434.5,505L436,512L442.5,512L440.5,500L430,490.5ZM477,496.5L469.08,507.58L469.5,512L478,498.5L477,496.5Z"/>
  <path fill="#d88c7e" stroke="#d88c7e" stroke-width="0.5" stroke-linejoin="round" d="M402,0L410,14.5L405,0L402.5,0ZM222,45.5L216.5,48C204,64.31 237.89,81.53 227,99.5L228.5,105L237,97.5L233.08,94.42C230.31,79.86 226.64,67.19 222.08,56.42L225,46.5L222,45.5ZM512,97.5C486.92,114.66 471.11,142.99 457,169.5L457,170.5C447.16,185.55 434.18,203.01 438.92,222.42C425.24,234.02 420.02,253.99 424.5,271C435.7,259.54 452.4,267.43 465.5,262L467,256.5C467.94,249.78 467.05,242.9 463,237.5L468.5,232C480.72,238.04 491.49,226.52 503.5,231L512,225.5C511.45,214.46 512,202.73 504.08,193.58L512,190.5L512,184.58L506,180.5L512,176.5L512,97ZM216,113.5C208.87,117.33 202.09,122.7 199,130.5L199,132.5C207.66,142.78 209.7,157.8 221.58,165.92C239.77,164.42 254.98,175.04 272,176.5L271,174.5L281.5,176L282.5,173L286.5,172L292.5,180L300.92,172.42L296.42,166.08C272.11,162.49 250.17,149.94 225.58,146.92L219.08,140.42L214.08,119.58L218,114.5L216,113.5ZM125,145.5L122,165.5L125,169.5C128.28,174.89 131.11,182.39 133.5,192L135,184.5L133,183.5L126,152.5L128,149.5L125,145.5ZM400,158.5L397.5,161L390.58,160.08L382,172.5L384.5,175L400.5,167L401.5,171L404,165.5L400,158.5ZM384,186.5L363.08,196.58L366.5,210L378,199.5L386,186.5L384,186.5ZM135,192.5L135,198.5C137.66,201.6 137.36,206.81 142.5,208L144,205.5L135,192.5ZM43,206.5C33.9,253.68 45.05,302.21 35,348.5C42.75,400.52 37.23,453.28 41,505.5L41,512L60,512L60,500.5L62.92,496.42L61,471.5C59,466.83 58,444.5 58,404.5L62.5,395L60.5,395C57.56,388.61 56.39,381.11 57,372.5L61,360.5L56.08,342.42C54.69,316.47 55,298.83 57,289.5L57,275.5C47.76,255.18 58.99,228.95 45.08,210.42L43,206.5ZM258,218.5L235,243.5L240.42,244.92L246.92,240.42L254.5,225L259,220.5L258,218.5ZM291,224.5C280.81,226.02 274.96,234.88 268,241.5C287.28,245.55 314.33,257.06 306,282.5L307.5,286L308,263.5L306,253.5L295.5,243L296,228.5L291,224.5ZM365,227.5L362,228.5C370.16,251.67 363.88,276.47 369.5,300L375,295.5C368.1,273.51 371.1,249.98 367,227.5L365,227.5ZM113,259.5L107,268.5L111.5,279L116,270.5L116,267.5L112,265.5L113,259.5ZM336,265.5L333,272.5L334.5,274L337.92,271.42L336,265.5ZM508,270.5C469.65,280.86 449.2,324.48 453.5,362L455,350.5C455.88,316.93 475.92,278.65 512,273L512,270L508,270.5ZM279,272.5L273,276.5L277,277.5L272.5,281C265.42,284.79 256.86,282.49 250,287.5L251,299.5L266.58,314.92L271.42,314.92C278.24,303.78 287.99,291.92 283,277.5L279,272.5ZM318,276.5L317,279.5C326.16,288.48 316.19,300.88 320,311.5L321.5,312C328.16,301.27 328.15,286.62 320,276.5L318,276.5ZM415,294.5L408.08,304.58L409.5,315C411.78,313.28 414.58,308.75 417.92,301.42L415,294.5ZM308,299.5L311.5,320L308,299.5ZM184,317.5L182,325.5L189,327.5L185,323.5L188,320.5L196,319.5L184,317.5ZM320,319.5L316.08,326.58L317,334.5L314,345.5L316.5,346L320.92,335.42L320,319.5ZM177,330.5L167,336.5L167.5,339L177,330.5ZM376,368.5L377.5,382L385,371.5L376,368.5ZM291,373.5L284.5,378L285.5,386L293.5,394L293,411.5C300.49,428.79 304.54,448.71 315,464.5L316,465.5C322.12,480.16 331.48,495.23 329,512L342.5,512C340.57,501.71 341.45,487.3 333,479.5C319.66,456.59 317.92,428.11 302.08,406.42L304.08,391.58L310,388.5L306,386.5L301.92,376.58L291,373.5ZM14,421.5L10,432.5L11.5,433L14.5,425L21,431.5C20.94,442.78 20.11,449.94 18.5,453L13.5,451L14.5,463L18.5,458L23.5,465L21,424.5L14,421.5ZM434,468.5L431.5,471L427.5,469L420.08,475.58L420.5,481L425.5,473L431.5,477L434,468.5Z"/>
  <path fill="#c27a77" stroke="#c27a77" stroke-width="0.5" stroke-linejoin="round" d="M219,45.5C205.33,48.5 195.69,52.53 190.08,57.58L190.08,62.42L196.5,72L198.5,72C209.03,82 211.14,97.75 217,110.5L214,113.5L228,103.5L227,99.5C237.89,81.53 203.39,64.31 216.5,48L222,45.5L219,45.5ZM512,73.5C482.98,102.93 458.23,137.15 441,174.5C434.73,185.42 426.68,198.51 428.92,211.42C402.06,251.22 397.31,301.72 381.5,346L379.5,340C379.83,327 378.5,312 375.5,295L369.5,300L368.5,297C368.43,320.71 376.3,343.76 376.08,367.42L385,371.5L377.5,382L376.5,379C378.68,403.05 368.02,426.94 370,450.5L374.58,454.92C391.03,457.51 410.12,459.09 421.5,473C430.09,466.6 420.09,456.2 429,450.5L428.5,439L426.5,444L419.58,445.92L416.08,441.42L419.92,420.58C416.97,415.53 411.83,410 404.5,404L385.08,393.42L388.58,387.08C396.57,383 406.53,391.4 413.5,391L427.42,391.92L437,387.5L446.58,370.08L452.5,373C446.72,331.44 467.16,278.77 512,269.5L512,226L503.5,231C491.49,226.52 480.72,238.04 468.5,232L463,237.5C467.57,242.66 467.51,249.99 467,256.5L465.5,262C452.4,267.43 435.7,259.54 424.5,271C420.02,253.99 425.24,234.02 438.92,222.42C439.02,177.17 477.85,141.01 500.5,105L512,97L512,73ZM200,125.5L192.08,133.58C187.98,151.18 198.77,167.72 207.5,182L222,175.5L220,172.5L229.42,171.08L238.5,173L243.5,181L251,174.5L248,170.5L221.58,165.92C209.7,157.8 207.66,142.78 199,132.5L200,125.5ZM250,170.5L251.58,173.92L262,174.5L250,170.5ZM508,177.5L506,180.5L512,184L512,177L508,177.5ZM289,186.5L270,199.5L268.5,198L266,203.5L269.5,202L271.5,205L289,186.5ZM507,191.5L504.08,193.58L512,216L512,191L507,191.5ZM360,193.5L358,197.5L360,206.5L358.5,207C357.56,211.28 358.56,218.28 361.5,228L366.5,227L367.5,233L368.5,210L366.5,210L364,194.5L367,193.5L360,193.5ZM249,219.5L232.5,239L236.5,238L237.5,240L251,224.5L247.5,226L249,219.5ZM335,263.5L335.5,268L336.5,265L337.92,271.42L333,273.5L325.58,273.92L321,271.5L323,274.5L319.5,276L326.5,290L328,289.5L326.08,279.58L337.5,274L339.92,266.58L335,263.5ZM267,272.5L265,274.5L266.92,279.42L260,282.5L272.5,281L277,277.5L270.5,276L267,272.5ZM106,273.5L98.5,282L96.5,281L95,283.5L96.5,285L110.5,280L111,277.5L106,273.5ZM415.5,294L417.92,301.42C414.58,308.75 411.78,313.28 409.5,315L408.08,304.58L415.5,294ZM154,350.5L149,353.5L147,363.5L150.5,366L154,362.5L154.5,370L157,358.5L153,357.5L156,352.5L154,350.5ZM309,373.5C308.4,377.93 310.62,383.02 306,386.5L308.5,388L310.92,374.58L309,373.5ZM0,403.5L0,414L4,415.5L9,426.5L10.5,444L11.08,423.58L17.42,421.08L21,424.5C23.83,442.46 22.49,460.36 26.5,478L24,427.5L20.5,414C15.39,408.56 8.6,400.74 0,403ZM435,423.5L430,430.5L430.5,433C433.25,429.58 434.34,425.21 439,423.5L435,423.5ZM10,445.5L13,456.5L10,445.5ZM27,478.5C27,489.17 27.83,496.67 29.5,501L27,478.5Z"/>
  <path fill="#d86d67" stroke="#d86d67" stroke-width="0.5" stroke-linejoin="round" d="M57,0C53.89,16.68 55.19,33.59 55.08,50.42L56.92,52.58C55.5,77.58 54.25,102.65 56,127.5L61,198.5L61,0L57.5,0ZM328,0C345.61,40.43 333.33,84.47 337,126.5L335,129.5L341.5,135L345.5,132C345.17,97.67 345.83,78.67 347.5,75L352,77.5C357.31,96.03 357.12,115.63 352.08,133.42L356.5,138L362,135.5L364,93.5L362.08,81.58L365.58,74.08L372,74.5C381.4,85.81 388.44,99.69 396.5,112L411.5,111L415.5,115L439.5,77L435.08,70.42C439,57.27 425.54,47.25 418.42,38.08C400.72,31.07 393.61,61.31 374.5,57L371.5,61L366.5,61C340.51,54.67 340.85,20.15 333.5,0L328.5,0ZM505,0L506.5,6L512,6L512,0L505.5,0ZM204,46.5L190,52.5L190.5,57C195.83,52.33 201.67,49.17 208,47.5L204,46.5ZM25,51.5L19,56.5C15.4,65.43 10.7,79.37 0,82.58L0,88C11.91,82.2 13.87,68.41 21.5,59L26.42,59.08C28.14,62.69 29,73.83 29,92.5L31,132.5L31,311.5C34.26,327.32 19.35,340.9 29,357.5L30,360.5C31.42,385.87 33.38,410.44 33.5,436L35,412.5C31.6,367.92 31.12,324.34 33,279.5L32,159.5C41.23,143.29 25.32,120.41 34,104.5L32,101.5L31.92,54.58L25,51.5ZM196,72.5L198,84.5C194.79,92.41 191.23,100.35 185,106.5L188.5,112L197.42,112.92L210.42,109.08L213.5,114L217,110.5C218.61,97 201.46,93.02 204.92,78.58L196,72.5ZM192,131.5C180.1,132.94 182.37,144.94 176,150.5C172.27,158.72 173.45,170.69 181.58,175.92L187.42,176.08L198.58,183.92L207,182.5C203.4,165.48 183.29,150.27 194,131.5L192,131.5ZM129,145.5L129,152.5L133.5,159L138.92,176.42L136,188.5L144.5,201L147,197.5L146,190.5L142,184.5L145,179.5L144.92,172.58L129,145.5ZM128,246.5L127.5,249L126.5,247L113,258.5L115,260.5L113,264.5L119.5,266L123.5,270L127,265.5L129.5,268L134.5,259L137.5,259L136.5,254L131,253.5L128,246.5ZM264,248.5L263,252.5L269.5,251L272.5,253L274,250.5L264,248.5ZM295,254.5L299.92,271.58L297.5,283L287,277.5L282.5,271L281,273.5L285,276.5L285.5,279C294.81,297.8 271.13,314.62 282.92,332.58L281.5,337L275.58,337.92C256.8,331 246.82,308.23 244.08,289.58L249,282.5C255.33,282.83 261.31,281.81 266.92,279.42L266.5,276L260.5,279L248.5,273L242.5,276L237,284.5C235.77,320.57 249.29,352.71 267.92,382.58C270.71,427.18 225.54,469.59 252.5,512L311,512C318.67,498.85 314.07,482.9 306,471.5L287,420.5C292.08,410.17 290.93,393.7 279,388.5L277,379.5L281,373.5C288.81,368.85 299.75,366.34 308,371.5L311.5,378C316.51,357.68 339.4,341.37 334.08,318.58C340.65,305.19 336.04,288.9 328.5,277L326.08,279.58C335.52,300.09 320.14,318.75 322.92,339.42L317.5,346L306.5,348L295.58,344.92L292.08,338.58L305,330.5L298.5,330L287.08,321.42L289,311.5L296.58,302.08L301.42,302.08L307,309.5L306,312.5L310.5,328L313,325.5C305.97,311.87 310.49,295.86 306,281.5L302,263.5L304,262.5L295,254.5ZM61,347.5L62.5,393L63,363.5L65.5,357L63,356.5L61,347.5ZM272.5,347L298.5,347L304,351.5L291.5,354L289.92,362.42L286.5,365L272.5,364L265,353.5L266.5,348L272.5,347ZM301.5,354L308,354.5L306.5,358L297,355.5L301.5,354ZM65,421.5L64,428.5L66,430.5C64.72,435.22 64.56,441.39 65.5,449L68,442.5L69,429.5L65,427.5L67,421.5L65,421.5ZM428,451.5C425.02,454.39 423.66,459.58 426.5,463L431.92,459.42C430.91,456.79 431.79,452.53 428.5,451L428,451.5ZM34,457.5L34,512L36.5,512L34,457.5Z"/>
  <path fill="#6d234a" stroke="#6d234a" stroke-width="0.5" stroke-linejoin="round" d="M494,78.5L485.5,84L479.08,97.58L480,106.5L478.5,110C484.78,97.89 495.22,89.18 505,80.5L494,78.5ZM370,87.5L369,94.5C365.24,99.88 370.03,107.49 369.5,113L370,95.5L374.5,94L378.5,97L373.5,87L370,87.5ZM458,139.5C451.56,150.93 440.44,160.74 437,173.5L436.5,182L446,160.5L458,139.5ZM276,177.5L270,179.5L271,182.5L267,181.5L267,184.5L264.5,187L266,189.5L253,205.5L255.5,209C257.17,204 259.33,200.17 262,197.5L275.5,179L277.92,177.58L276,177.5ZM228,186.5L226.5,190C217.73,196.13 206.63,199.88 203.5,212L190.5,210L187.92,214.42L180.5,217L179,222.5L174,224.5L155,250.5L156.5,252L162.5,243L163.5,245L165.5,239L166.5,244L171.5,236L172.5,245L177.08,230.58L182.5,227C186.48,231.13 189,238.4 185.08,243.42L189.42,244.92L195,236.5L186,230.5L188.5,224L198,221.5C204.61,228.89 209.44,236.06 212.5,243L213.5,241L213,248.5L215.5,253L215.08,242.58L221.5,236L222.5,238L226,232.5L220.5,230L219.5,233L217,226.5L221.5,225L223.5,230L227,226.5L221.08,216.42L219.5,210L222.5,201L223.5,204L229.5,198L234.5,205C239.22,208.28 243.89,210.28 248.5,211L249.5,217L252.5,210L250.5,211L249.5,200L246.5,202L246,199.5L251,193.5L246.58,192.08L241.5,197L239.5,196L236.5,201L234,198.5L239,186.5L228,186.5ZM428,198.5C423.52,203.32 418.43,211.02 420.5,218L428,198.5ZM223,205.5L227.5,218L227,212.5L229,211.5L223,205.5ZM348,213.5L346,214.5L349.92,241.42L347,249.5L351,251.5L349.5,254L323,261.5L320,265.5L323.5,270L324.5,267L327.5,269L331.5,268L333.5,270L335,262.5L340,264.5L342.5,278L344.5,277C353.16,286.75 345.8,301.16 345.5,312C366.57,294.03 347.79,280.73 342,265.5L352,252.5L349,223.5L358,227.5L362,246.5L365,246.5L363.5,245C359.83,235.93 368.03,224.88 357.5,217L353.5,218L348,213.5ZM369,228.5L368.5,236L369.5,232C366.42,242.26 374.47,251.31 373,261.5L374,265.5L372,267.5L375.5,289L379,286.5C385.68,270.34 386.08,252.35 390.92,235.58L385.58,233.08L380.42,235.92L371.5,233L369,228.5ZM165,244.5L161,252.5L165.42,253.92L170,248.5L165,244.5ZM148,253.5L139,257.5L138.5,261L133.5,260L132,265.5L134.5,267L140.5,258L143,262.5L140,263.5L134,272.5L127.5,275L125.5,273L127.5,277L137,271.5L155,254.5L151.5,253L149.5,255L148,253.5ZM269,254.5L251.5,257L247,260.5L247,266.5L254.5,272L256.5,266L265.5,272L272,267.5L271,263.5L273.5,261L283.5,266L287,263.5L276.5,255L272.5,257L269,254.5ZM365,254.5L365,267.5L362,268.5C360.72,274.56 360.56,281.06 361.5,288L366.5,290L365,254.5ZM151,261.5L137,272.5L139,276.5L137,279.5L140,280.5L138.5,288L143.5,285L158,299.5L154.08,307.58L155.58,319.92L159.5,320L158,323.5L160.5,328L165,319.5L160,315.5L169,299.5L163,300.5L164.5,295L167.5,298L170.5,290L176,292.5L176.5,296L178,291.5L171.5,285C168.11,289.61 164.44,292.94 160.5,295L149,287.5L147.5,283C145.44,279.67 145.44,275.33 147.5,272L151.5,272L157,267.5L157,263.5L154.5,263L150.5,267L153,261.5L151,261.5ZM124,270.5L109,281.5L112,284.5L109,291.5L114.5,296L121.5,284L123.5,287L125.5,284L127.5,285L129,282.5L124,274.5L124,270.5ZM220,289.5L217,294.5L219,302.5L216.08,304.58L218.5,314C220.17,309.67 220.83,301.33 220.5,289L220,289.5ZM133,293.5L133,298.5L131,299.5L130.5,296L129,299.5L132.5,313L135,293.5L133,293.5ZM21,294.5L11.08,307.58L14.92,332.42C11.92,334.75 6.94,336.81 0,338.58L0,354.5C8.75,354.74 19.84,365.67 16,374.5L18.92,391.42L15.42,395.92L0,393L0,396L20,405.5L25.5,424L28.5,421L30.5,426C45.86,409.25 26.57,403.93 25.5,392L23,391.5C19.72,382.78 18.72,373.11 20,362.5L19.08,331.58L25.92,326.42L28,298.5L21,294.5ZM129,311.5L133.5,327L129,311.5ZM355,321.5L351,327.5C351.88,341.61 333.63,352.4 346,368.5C341.75,376.7 339.58,388.7 345.92,396.58L344,406.5L352.58,415.92L371.5,416L372.5,419C373.5,413.33 373.5,406.67 372.5,399C365.75,397.77 361.93,409.67 353.5,401L350,394.5L351,369.5L358.42,367.08L374.5,387L373.5,357L368,353.5C361.48,343.93 369.14,331.89 360.5,323L355,321.5ZM161,329.5L162,333.5L157.5,337L160,331.5L151.5,333L145,345.5L149.5,348L168,330.5L161,329.5ZM109,330.5L100.08,338.58L97.5,349L93.5,344L88,347.5C91.53,354.9 84.28,360.55 85,367.5L88,373.5L81.5,376L77.5,385L79.5,384L78.5,394L84.42,392.08L91.5,405L94.5,400L96.58,405.92L103.92,403.42L103.5,394L107,404.5L102.42,408.92L91.5,407L91.08,410.42C97.03,415.14 101.17,420.33 103.5,426L105.5,416L107.5,426L109.5,423L112.5,425L115.5,417L120.5,419L120,421.5L130.5,434C132.11,439.06 132.31,447.53 131.08,459.42L137.5,464L141,462.5L141.92,455.58L139,450.5L140.5,450C145.83,459.33 150.5,465.67 154.5,469L157,468.5L153.5,464L157.5,467L164.5,467L165,457.5L162,458.5L163,462.5L160.5,463C157.17,459.67 153.19,457.31 148.58,455.92L145.5,449L148,442.5L138.5,432L136.5,433L131.5,424L129.5,427L127,414.5L124,412.5L124.5,405L116.42,410.92L113,410.5L121,402.5C111.09,397.42 113.79,384.65 111,376.5L113,374.5L107,359.5L109.5,360L109,353.5L111.92,351.42C112.58,346.75 111.78,339.61 109.5,330L109,330.5ZM145,331.5L139,332.5L142.5,341L147,331.5L145,331.5ZM215,336.5L214,343.5L207.08,350.58C194.82,370.48 231.17,373.05 224.92,394.42L216.08,410.58L216.08,418.42L218.92,422.58C220.63,433.67 208.27,440.99 209,451.5L192,489.5L194,492.5L187.5,500C193.5,495.33 201.67,491.17 212,487.5L208.5,485L196.5,489L200,476.5C213.75,456.19 220.51,431.63 230.5,410C233.44,414.39 235.61,420.22 237,427.5L237.5,435L238.08,392.58L247,382.5C231.9,371.48 210.68,358.37 215.5,336L215,336.5ZM92.5,357L94,357.5L90.5,371L89,366.5L92.5,357ZM160,372.5L156,381.5L162,387.5L160,372.5ZM311,379.5L311,388.5L326.5,395L326.92,389.58L323.5,387L314.5,389L312,387.5L311,379.5ZM179,385.5L173.42,394.92L168,395.5L177.5,412C181.78,400.94 183.61,392.44 183,386.5L179,385.5ZM74,388.5L71,395.5L72.5,399L77,388.5L74,388.5ZM494,388.5L476.5,407L476,410.5L478.5,411C483.89,406.39 495.06,400.89 512,394.5L512,388L498.42,392.92L494,391.5L496,388.5L494,388.5ZM165,400.5L171.5,412L172.5,410L176.5,424C176.78,419.72 175.78,414.39 173.5,408L165,400.5ZM169,415.5L169,423.5L166,426.5L172.5,434L175,431.5C175.08,425.58 174.62,419.1 169.5,415L169,415.5ZM193,427.5C186.72,430.26 189.69,438.75 185,442.5L195,445.5L185,446.5L199.5,450C200.44,444.39 199.28,436.89 196,427.5L193,427.5ZM106,435.5L103.5,442L102.5,436L98,441.5C98.92,458.19 111.28,473.76 105.92,491.42L102.42,495.92L96.5,493L91,495.5C87.72,499.56 85.22,505.06 83.5,512L106,512L109.5,499L111,500.5L108,512L118.5,512L118.08,490.58L120.5,488L123.5,489L135.5,512L138,512L136.92,503.58L132,494.5L134.5,496L134.5,491C139.32,496.72 142.81,504.38 142,512L162,512L161.5,508L159.5,508L155.5,500L150,495.5L150.92,490.58L147,482.5L150.5,484L150.92,478.58L141.5,470L142,472.5L135.5,483L130.5,488L124.5,487L113.08,470.42C110.97,452.53 108.78,440.72 106.5,435L106,435.5ZM31,438.5L30,446.5L27.5,448L25.5,445L28.5,459L31,457.5L31,438.5ZM68,452.5L70.5,479L74,469.5L72,454.5L68,452.5ZM229,463.5L223.5,474L224.5,478L231,463.5L229,463.5ZM512,463.5L506,469.5C504.14,485.5 492.6,498.01 486,512L506,512L512,505.5L512,463ZM404,468.5L401,472.5L407,481.5L412.5,484L418.92,481.42L418.5,473L416.5,479L411.08,476.42L413.5,471L418,472.5C412.94,469.56 408.44,468.06 404.5,468L404,468.5ZM449,475.5L442,482.5L449.42,486.92L456,477.5L449,475.5ZM161,485.5L161,489.5L164.5,494L167,487.5L161,485.5ZM142.5,487L155,505.5L146,498.5L148,497.5L142.5,487ZM0,488.5L0,503L10.58,512L15.5,512L13.92,499.58L0,488ZM68,489.5L64.5,491L61,500.5L63,507.5C57.55,512 66.21,510.35 67.5,512L68,489.5ZM164,497.5L162,500.5L167.5,503L164,497.5ZM184,500.5C181.53,504.57 175.53,506.32 175.5,512L186,501.5L184,500.5Z"/>
  <path fill="#e0816d" stroke="#e0816d" stroke-width="0.5" stroke-linejoin="round" d="M0,0L0,82L5.5,80C8.13,72.21 19.88,65.86 19,56.5L27.5,51L31.92,54.58L32,101.5L34,104.5C25.32,120.41 41.23,143.29 32,159.5L33,279.5C31.12,324.34 31.6,367.92 35,412.5L37,512L41,512L41,505.5C37.23,453.28 42.75,400.52 35,348.5C42.74,336.13 36.64,321.34 40,308.5L39.08,307.42C37.6,273.7 40.03,240.01 43,206.5C59.66,225.78 47.37,253.79 57,275.5L57,289.5C55,298.83 54.69,316.47 56.08,342.42L61,360.5L57,372.5C56.39,381.11 57.56,388.61 60.5,395L56,127.5C54.15,102.65 55.54,77.57 56.92,52.58L55.08,50.42L56.5,0L0,0ZM334,0C339.52,18.06 341.32,56.11 366.5,61L371.5,61L374.5,57C393.61,61.31 400.72,31.07 418.42,38.08L432,53.5L401.5,0L334.5,0ZM434,58.5L435.08,70.42L439.5,77L444,72.5L434,58.5ZM347,75.5C345.67,78.83 345.17,97.67 345.5,132L341,136.5L345.5,145L357,138.5L352.5,134C356.07,115.97 357.85,96.26 352,77.5L347,75.5ZM127,146.5L126,148.5L128,149.5L130,173.5L134,181.5L133,183.5L134.08,190.42L143.5,204L145,202.5L137,187.5L136,180.5L138.92,172.58L127,146.5ZM249,282.5L244.08,289.58C247,308.05 256.75,331.08 275.58,337.92L281.5,337L282.92,332.58C271.36,315.59 293.61,299.63 285.5,282L283.08,283.58C286,295.63 276.85,305.39 271.42,314.92L266.58,314.92L251,299.5L250,287.5L265,283.5L249,282.5ZM326,290.5C329.31,302.45 317.54,311.48 320,323.5L321.5,334L324,332.5C317.26,317.37 335.37,306.43 328,291.5L326,290.5ZM298,333.5L292.08,338.58L295.58,344.92L297.5,344L297.08,337.58L300,333.5L298,333.5ZM292,369.5L281,373.5L277,379.5L279,388.5C284,392.83 287.31,396.86 288.92,400.58C281.48,422.84 295.96,446.1 303,465.5L306,471.5C314.07,482.9 318.67,498.85 311,512L328.5,512C331.95,495.24 321.96,480.16 316,465.5L315,464.5C304.54,448.71 300.49,428.79 293,411.5L293.5,394L285.5,386L284.08,378.58L291.58,373.08L296.42,373.08L307,382.5L309,380.5L309,372.5C304,370.17 298.5,369 292.5,369L292,369.5ZM61,398.5L58,404.5C58,444.5 59,466.83 61,471.5L61.5,480L64,462.5L66,461.5C64.72,445.56 64.72,435.22 66,430.5L64,428.5L65,421.5L63,417.5L66,416.5L61,398.5ZM430,451.5L431.92,459.42L422,469.5L422.5,472L427.5,469L431.5,471L436.92,462.42L436.92,456.58L430,451.5Z"/>
  <path fill="#bd5156" stroke="#bd5156" stroke-width="0.5" stroke-linejoin="round" d="M61,0L61.5,168L62,42.5L64,0L61.5,0ZM98,0C106.63,17.68 103.4,36.95 102.08,55.42C113.8,79.71 105.65,106.94 111,132.5L118.92,138.58L120.5,145C122.25,131.24 125.09,116.96 132.5,105C137.22,108.98 127.86,116.88 132,121.5L129,136.5C137.14,148.78 141.08,163.53 151.5,174L154,170.5C159.28,163.78 163.92,154.75 167.92,143.42C160.11,125.06 168.48,106.15 177.92,90.42L173.5,73L163.5,67L158.5,68L152.5,76L140.58,78.92L123.08,54.42C130.82,35.84 112.32,18.97 116.5,0L98.5,0ZM308,0L309.92,43.42L302,55.5C294.44,61.99 284.01,57.28 276,62.5L290.5,75L299.5,72L313.42,73.92L320.5,71C327.1,74.27 327.64,82.02 331,87.5L333.5,128L335,114.5C330.51,82.63 340.04,47.49 328,16.5L324,5.5C334.28,0 302.38,11.25 308.5,0ZM423,0C424.54,9.18 429.6,17.15 435,24.5L440,34.5C444.69,43.67 455.13,50.91 454.5,62L455.08,57.58L474.5,36L466,38.5C453.35,28.99 461.73,9.01 447.5,0L423.5,0ZM23,62.5L17.5,70L23.5,66C31.79,80.52 20.86,98.46 27,113.5L24,151.5L26,155.5L24,156.5L23,167.5C18.47,184.96 21.25,203.66 27,220.5L29,251.5L26.92,66.58L23,62.5ZM367,79.5L365,89.5L367,88.5L366.08,84.58L370.5,81L376.5,87L371.42,79.08L367,79.5ZM366,97.5L364,126.5L365.5,127L366,97.5ZM139.5,117L142.92,119.58C146.25,130.25 147.44,138.06 146.5,143L135.08,132.42C135.08,127.19 136.39,122.22 139,117.5L139.5,117ZM149,214.5L144.58,215.08L139.08,222.58L140.5,237L157.5,225L161.5,236L168,228.5L166,225.5L178,222.5L170.5,221L160.5,223L155.5,216L149,214.5ZM115,217.5C102.79,227.44 104.59,246.78 109.5,260C114.5,255.67 118.33,250.83 121,245.5L134.5,242L139,238.5L129.5,221L115,217.5ZM292,252.5L282,255.5L288,263.5L283,269.5L284.5,271L289,268.5L288,260.5L292,252.5ZM63,269.5C61.13,284.04 60.16,301.85 63.5,317L63,269.5ZM90,275.5C81.52,283.18 79.81,296.26 80.5,307L85,303.5L87,294.5L84,293.5L94,280.5L90,275.5ZM232,275.5L228,281.5C223.75,291.67 223.97,303.15 226.92,313.58C218.87,329.39 225.8,345.05 232.5,359L258,385.5C229.39,389.07 248.56,424.24 241,443.5L241,447.5C239.24,462.06 229.35,470.24 222.5,482C211.72,489.84 195.25,496.2 194,512L209.5,512L210.08,506.58C238.8,474.06 247.6,430.72 254,389.5L261,385.5L256,380.5L248.92,365.58C234.6,355.58 229.39,337.73 233,321.5C228.39,306.36 229.68,290.28 232.5,275L232,275.5ZM335,280.5C344.35,289.35 347.17,303.86 342.5,316C347.05,308.1 351.46,288.52 339.5,283L335,280.5ZM28,361.5C26.44,370.28 23.25,380.69 28.5,389L28,361.5ZM442,404.5L439,410.5L445.5,412L447,406.5L442,404.5ZM226,432.5C217.98,445.24 212.14,461.23 210.08,476.42L214.5,481C226.84,469.43 235.1,452.65 234,435.5L226,432.5ZM462,434.5L450.5,469L464.92,446.42L462,434.5ZM33,474.5C37.4,481.12 28.82,483.92 30,489.5L32.5,490L33,474.5ZM420,488.5C416.28,492.11 412.31,494.47 408.08,495.58C408.69,498.86 408,504.33 406,512L435.5,512L434.5,505L426,494.5L428,492.5L423.5,493L420,488.5Z"/>
  <path fill="#e3bfb1" stroke="#e3bfb1" stroke-width="0.5" stroke-linejoin="round" d="M262,58.5C247.73,67.04 262.24,88.23 244.5,95L241,105.5C245.33,109.83 248.5,114.33 250.5,119C260.08,123.82 274.07,145.07 289.5,139C303.28,152.22 322.54,138.35 337,148.5L338,153.5C332.97,169.15 315,170.04 308,183.5L308,185.5C314.94,187.89 320.61,191.56 325,196.5L335.42,199.92C350.68,185.87 377.07,185.19 386,164.5L393.5,152L397.5,151L401.5,156L403.5,155L406.92,164.42L397.08,179.58L398.5,184L401,182.5C412.27,162.75 424.79,136.43 414.5,114L397.58,111.08C383.19,122.03 365.83,133.67 345.5,146C341.5,138 337.5,132.33 333.5,129C326.46,117.2 322.4,101.95 309,95.5C301.8,74.68 280.8,71.71 266.42,58.08L262,58.5ZM324,208.5C314.86,213.29 307.53,223.87 310,234.5L316.58,244.92C323.92,248.25 330.19,249.92 335.42,249.92L342.5,244C348.1,233.81 336.08,227.55 337,218.5C333.61,213.89 329.44,210.39 324.5,208L324,208.5ZM273,263.5L271,271.5L278,271.5L280,268.5L278.5,265L273,263.5ZM314,263.5C310.38,267.5 305.59,273.62 309,279.5L310,295.5C309.82,304.13 312.87,312.03 315.5,320L319.5,320C324.32,302.3 308.23,282.22 318,264.5L314,263.5ZM236,265.5L231,273.5L238.5,266L236,265.5ZM206,298.5L202.5,299L198,312.5L201.5,314L211,300.5L206,298.5ZM512,323.5L502.08,328.58L490.08,351.58L491.58,355.92L512,354.5L512,323ZM158,347.5L156,360.5L164,349.5L162.5,347L158,347.5ZM316,392.5L318.58,398.92L323.5,401L332,419.5C324.55,453.25 350.12,480.85 356,512L383,512C369.38,468.93 368.59,405.92 316.5,392L316,392.5ZM19,503.5L17,504.5L17,512L27,512L26.92,505.58L19,503.5Z"/>
  <path fill="#94374b" stroke="#94374b" stroke-width="0.5" stroke-linejoin="round" d="M69,55.5C65.67,62.17 64,71.83 64,84.5L65,267.5L71.42,269.92L77.92,259.42L77,232.5C89.08,194.87 68.26,155.6 80.92,117.58C70.7,98.88 84.52,77.4 75.5,59L69,55.5ZM17,78.5L0,101.5L0,126C7.67,123.33 13.97,119.47 18.92,114.42C13.25,102.79 22.87,92.84 21,81.5L17,78.5ZM369,84.5L367,91.5L368.5,93L370.5,87L373.5,87L377.5,94L378,91.5L372.42,84.08L369,84.5ZM305,87.5C312.41,100.24 325.45,107.75 331.5,122L332,110.5L329,98.5C325.39,86.97 313.89,88.89 305.5,87L305,87.5ZM345,195.5L335,201.5C341.75,212.73 348.34,225.96 348,239.5L344.5,249L343.5,251L346,251.5L345.5,254L337,255.5L349.5,254L351,251.5L347,249.5L349.92,241.42L346,214.5L349,212.5L342,200.5L343.5,197L345.5,198L345,195.5ZM152,247.5L146,253.5L147.5,255L154,249.5L152,247.5ZM246,260.5L242,265.5L251,269.5L246,260.5ZM19,261.5C16.33,264.17 13.5,270 10.5,279L0,286L0,337L10.42,335.92L14.92,332.42L11.08,307.58L19.58,295.08L24.42,294.08L28,298.5L26.92,265.58L19,261.5ZM104,266.5L95.5,274L98,275.5L108,271.5L104,266.5ZM324,267.5L323,270.5L329.42,272.92L333,270.5L324,267.5ZM340,269.5L337.5,277L335,277.5L339.5,281L341.5,280L346,283.5L347.5,293L347.92,282.58L344.5,277L342.5,278L340,269.5ZM223,285.5L221,289.5C221,301.5 220.17,309.67 218.5,314L216.5,311L215.5,336L217,325.5L221.92,322.42C229.75,309.69 216.36,297.85 223.5,285L223,285.5ZM168,300.5L163.5,312L168.92,306.42L168,300.5ZM68,301.5L66.08,303.58L66,315.5L70.5,317L73,311.5L71,302.5L68,301.5ZM27,323.5L19.08,331.58L20,362.5C18.72,373.11 19.72,382.78 23,391.5L25.5,392C26.34,402.25 41.71,407.28 30.5,421L31,412.5C33.89,399.45 27.11,387.29 21.08,376.42L24.5,368L27,323.5ZM68,327.5L66,328.5L67.5,353L75,340.5L72.92,329.58L68,327.5ZM216,339.5C212.14,360.27 233.17,372 247,382.5L238.08,392.58L237.5,435L235.5,425L235,445.5L229,461.5L231.5,466L240,433.5C241.93,426.72 242.87,419.41 241,412.5L244,389.5L255,385.5C241.65,375.36 227.22,364.87 223.5,347L216,339.5ZM72,354.5L67.5,358L65.5,390L74.5,384L74,387.5L76.5,388L81,369.5L77.5,366L74.5,372L73.08,362.58L72,354.5ZM355,367.5L351,369.5L350,394.5L353.5,401C361.93,408.4 365.75,397.77 372.5,399L374.5,403L374.5,387L358.42,367.08L355,367.5ZM72,389.5L65,396.5L66.5,403L72,397.5L72,389.5ZM506,395.5C497.7,402.55 484.82,400.94 478.5,411L476,410.5L478,405.5L476.5,405L469,422.5L475.42,423.92L495.58,412.08L512,414L512,395L506,395.5ZM10,401.5C14.94,405.22 19.11,410.06 22.5,416L24,413.5L16.5,403L10,401.5ZM230,410.5L222.5,434L229.5,417L231.5,417L234.5,425L234.92,416.58L230,410.5ZM221,434.5C213.39,448.34 209.34,463.69 200,476.5L196.5,489L204,487.5L201,484.5L221,434.5ZM508,439.5C502.06,444.22 496.22,450.72 490.5,459L475.58,455.08C466.6,462.93 451.44,461.74 447,475.5L456,477.5L449.42,486.92L445.58,486.92L441.5,482L432.08,489.58L432.08,492.42L440.5,500L443,512L469,512L469.08,507.58L489.5,483L492,495.5L483,512L485.5,512C499.61,498.11 499.79,476.65 512,462.5L512,439L508,439.5ZM32,451.5L31,457.5L28.5,459L26.5,454C26.22,460.28 27.22,468.61 29.5,479L32,475.5L32,451.5ZM375,461.5L371.08,464.58C370.88,481.41 386.74,494.16 383.5,512L392.5,512L389.92,494.58L378.08,482.42L382.58,476.08L390,477.5C394.53,486.34 405.67,492.23 415.42,487.92L419.5,480L412.5,484L407,481.5L401,472.5L403.5,469L410,467.5L375,461.5ZM11,474.5L0,477.58L0,488L5.5,493L8,492.5L5,490.5C5.67,486.5 8,481.83 12,476.5L11,474.5ZM69,477.5L65.5,490L63.5,484L64.5,491L67.5,491L71,479.5L69,477.5ZM201,491.5C190.65,493.91 182.52,502.79 178,512L185.5,512L189.5,501L205,491.5L201,491.5Z"/>
  <path fill="#d8a497" stroke="#d8a497" stroke-width="0.5" stroke-linejoin="round" d="M227,45.5L223,48.5C216.98,64.97 239.22,76.95 233.08,94.42L237,97.5C233.57,104.44 224.62,104.35 221.5,111L214.08,119.58L219.08,140.42L225.58,146.92C250.17,149.94 272.11,162.49 296.42,166.08L300.92,172.42L290.5,184L293,184.5L266,211.5L267,213.5L262.5,218L263,221.5L260.5,224L259.5,222L252,225.5L246.92,240.42L235.5,244L218,269.5L202,298.5L212.5,299L240.5,266C257.15,251.76 272.22,232.51 292.5,224L295.92,227.58L295.5,243L306,253.5L308.5,280C305.95,273.62 310.17,267.18 314.5,263L319.5,264L331,251.5L318.5,247L310.08,235.42C307.64,224.44 314.4,212.51 324.58,208.08C329.47,210.42 333.61,213.89 337,218.5L341.5,231C343.67,220.71 336.86,210.94 334,201.5L335,200.5C321.78,201.5 321.58,183.64 308,185.5L308,183.5C315,170.04 332.97,169.15 338,153.5L337,148.5C322.54,138.35 303.28,152.22 289.5,139C272.31,142.53 252.58,128.61 247.5,112L241,105.5C240.39,98.18 246.65,91.28 252.5,88C258.24,78.33 249.74,64.42 262.58,58.08L267,57.5C255.28,51.89 243.78,48.06 232.5,46L227,45.5ZM396,151.5L393.5,152L386,162.5L386.5,165L390.58,160.08L397.5,161L401.5,158L404,166.5L401.5,173L406.92,164.42L403.5,155L401.5,156L396,151.5ZM397,177.5C385.03,180.62 384.94,192.18 378,199.5L378.5,203L398,183.5L397,177.5ZM132,191.5C130.1,200.45 137.75,204.7 141.5,211L142,207.5C137.1,206.47 137.64,201.33 135,198.5L135,192.5L132,191.5ZM280,267.5L276.5,272L270.5,270L268,273.5L276.5,276L280,267.5ZM315,272.5L318.5,303L320.92,287.58L315,272.5ZM512,273.5C475.64,278.13 455.99,317.3 455,350.5L455.5,353C460.54,324.89 474.12,278.65 512,284L512,273ZM312,310.5L315,325.5L307,330.5L304.5,334L302.5,332L299.08,342.42C302.67,347.29 309.09,346.66 313.5,344L317,332.5L316.08,326.58L320,320.5L315.5,320L312,310.5ZM199,317.5C191.67,319.5 187,321.5 185,323.5L189,327.5L182.5,341L199,317.5ZM176,332.5L168.5,337L156,346.5L162.5,347L164.5,352L176,332.5ZM181,341.5L169,356.5L170.5,358L181,341.5ZM165,362.5L157,369.5L157.5,377L165,362.5ZM306,389.5L302.08,395.58C297.68,405.97 308.28,413.09 311,421.5C314.31,441.9 327.58,460.09 333,479.5C341.51,487.34 340,501.94 343.5,512L355.5,512C357.78,504.61 351.38,498.31 350,491.5L349,489.5C335.49,477.2 342.76,453.53 330.08,441.42C328.16,427.08 324.19,411.56 313,401.5L314,394.5L317,391.5L306,389.5ZM177,420.5L176.5,425L175,424.5L173,435.5L175.5,438L178.5,428L177,420.5ZM14,425.5C12,430.83 11.67,439.17 13,450.5L18.5,453C20.11,449.94 20.94,442.78 21,431.5L14,425.5ZM18,458.5L14.08,463.58C12.27,479.91 20.96,495.51 16.5,512L17,504.5L25,503.5L28.5,512L31,512C27.53,507.52 31.19,497.68 26,493.5L26,479.5C26.33,471.96 25.75,462.39 18.5,458L18,458.5ZM425,473.5L421.08,476.58L421.5,481L423.58,478.08L430.5,480L432,477.5L425,473.5Z"/>
  <path fill="#efc293" stroke="#efc293" stroke-width="0.5" stroke-linejoin="round" d="M405,0C413.01,25.67 430.21,47.28 442.5,71L452.5,64L453.92,58.58C443.26,39.47 427.98,20.62 422,0L405.5,0ZM128,115.5C118.55,145.61 110.09,183.3 130.92,210.58C128.72,219.66 133.69,227.89 138.5,235C137.98,228.69 136.72,221.8 141.92,216.42C143.01,205.84 129.08,202.81 132,191.5L128,174.5L121.08,164.42L128,115.5ZM503,284.5C455.93,294.23 457.32,354.79 449,391.5C449,400.83 447.64,410.81 444.92,421.42C434.17,425.06 426.73,436.19 429.08,447.42L438,454.5C437.94,459.11 435.44,467.61 430.5,480L422.08,479.58L423,488.5L427.5,490C430.94,483.53 438.03,481.52 443.5,478C459.35,443.49 467.44,386.83 512,382L512,355L491.58,355.92L490.08,351.58C495.42,341.06 498.69,325.83 512,322.5L512,284L503,284.5ZM314,394.5L313,401.5C314.49,406.35 324.49,411.55 324,418.5L331.5,443C335.88,425.5 331.49,403.04 314.5,394L314,394.5Z"/>
  <path fill="#783a6a" stroke="#783a6a" stroke-width="0.5" stroke-linejoin="round" d="M234,174.5L233.5,177L229,178.5L229.5,181L233,182.5C225.11,189.85 211.78,187.12 205.5,197L203.5,196L193,202.5L195,204.5L191.5,211L203.5,212C206.64,199.5 218.29,196.13 227,189.5L230.5,186L239,186.5L234,198.5L236.5,201L239.5,196L241.5,197L246.58,192.08L251,193.5L246,199.5L246.5,202L249.5,200L250.5,211L252.5,210L249,217.5L254,215.5L253,218.5L255.5,219L258.5,214L259.5,216L261,212.5L259.5,208L258.5,212L256.5,207L255.5,209L254,202.5L266,189.5L263,186.5L267,184.5L278,176.5L262.5,176L246,184.5L246.5,186L250,184.5L244.5,190L246,186.5L243,184.5L244,182.5L240.5,183L239,175.5L234,174.5ZM345,194.5L345.5,198L343.5,197L342,200.5L352.5,217L356,211.5L350,207.5L351,203.5L345,194.5ZM222,201.5L221.08,216.42L226,220.5L222.08,211.42L222,201.5ZM221,225.5L217,226.5L219.5,233L220.5,230L227,231.5L223.5,230L221,225.5ZM165,239.5L163.5,245L162.5,243L156.5,252L154.5,248L151,252.5L155,254.5L144.5,266L153,261.5L150.5,267L154.5,263L157,263.5L157,267.5L151.5,272L147.5,272C145.06,275.6 145.42,280.71 149,283.5L148,288.5L154.5,292L156.5,290L162,291.5L157.5,285L162,283.5L160.5,281L157.5,283L160.5,266L162.5,277L166.5,261L167.5,264L172.5,245L165.42,253.92L161,252.5L165.92,243.42L165,239.5ZM107,280.5L101,287.5L108,287.5L94,297.5L95.5,301L100,300.5L90,308.5L91,312.5C88.39,319.22 87.39,327.89 88,338.5L85,360.5L80,370.5L80.5,379L88,371.5L85,367.5C84.36,360.59 90.75,354.72 88,347.5L93.5,344L93,347.5L97.5,349L100.08,338.58L109.5,330C111.78,337.72 112.58,344.86 111.92,351.42L108,362.5L113,367.5L116.5,349L119,350.5C119.72,355.78 121.22,359.94 123.5,363L127.5,361L129.5,366L135,365.5L131,360.5L132.5,359L136.5,360L137.5,363L141,357.5L134,350.5L136.5,351L140,346.5L131,339.5L133,338.5L129.5,331L127.5,337L125.5,336L125.5,326L123.5,329L121,328.5L120,311.5L123,302.5L122.08,296.58L128,285.5L125.5,284L123.5,287L121.5,284L114.5,296L109,291.5L112,284.5L109,281.5L111,280.5L107,280.5ZM117.5,308L108.5,328L107,327.5L117.5,308ZM123,312.5L123.5,324L126,322.5L123,312.5ZM147,332.5L148,335.5L144.5,335L146.5,341L152,332.5L148.5,334L147,332.5ZM139,349.5L139,353.5L142.5,357L148,351.5L146.5,349L145,350.5L139,349.5ZM149,372.5C147.29,376.87 150.79,380.06 151.5,384L156,381.5L155.5,379L151.5,377L149,372.5ZM119,375.5L119.08,385.42L127.58,395.92L133,390.5L125,380.5L127,379.5L119,375.5ZM152,388.5L158.5,396L158.92,392.58L152,388.5ZM103,394.5L105.5,406L108,401.5L103,394.5ZM122,396.5L128.5,402L131,400.5L129.5,405L133,401.5L132.5,399L122,396.5ZM139,396.5C136.33,401.17 132.67,405.17 128,408.5L125,413.5L129.5,427L131.5,424L136.5,433L138.5,432L143.5,440L146.5,435L151.5,439L155,434.5L154,426.5L146,419.5L144.5,414L146,411.5L138,400.5L141,398.5L139,396.5ZM121,402.5L113,410.5L116.42,410.92L124.5,405L125.5,410L128,405.5L121,402.5ZM148,442.5L145.5,449L143.5,447L147.5,452L150.5,452L148,442.5ZM161,451.5L160,453.5L162,454.5L159,456.5L161.5,461L166,453.5L161,451.5ZM154,465.5L157,468.5L154,469.5L159,474.5L164.5,474L166.5,476L164.5,467L154,465.5ZM151,479.5L150.5,484L148,483.5L150.92,490.58L150,495.5L155.5,500L159.5,508L161.5,508L162,512L171.5,512L162,500.5L165,494.5L162.5,492L163,495.5L158.5,499L156.5,494L155.5,497L156,480.5L151,479.5ZM157,481.5L160.5,490L161,485.5L165.5,487L166,485.5L157,481.5ZM8,482.5L5,490.5L8,492.5L6,493.5L13.92,499.58L14.5,507C18.67,500.22 10.96,496.46 12,490.5L8,487.5L8,482.5ZM120,488.5L119,512L122,512L121.08,499.58L124.5,496L120,488.5ZM134,491.5L133,496.5L139,512L142,512C142.81,504.38 139.32,496.72 134.5,491L134,491.5ZM145,493.5L148,497.5L146.5,500L155,505.5L145,493.5ZM125,502.5L125.5,512L131,512L125,502.5Z"/>
  <path fill="#ac5d6a" stroke="#ac5d6a" stroke-width="0.5" stroke-linejoin="round" d="M187,61.5L183,65.5L186.5,72L190.5,70L195.5,74L190,61.5L187,61.5ZM396,169.5L393,170.5L397,172.5L394.5,179L399,169.5L396,169.5ZM223,171.5L220,172.5L222,175.5C213.74,176.81 205.33,181.52 202.08,189.58L202,193.5L191.58,196.08L188.42,199.92L175,203.5L171,207.5L172.92,211.58L172.08,220.42L176.42,221.92L180.5,215L181.5,217L192.92,205.42L193,201.5L196.92,199.58L202.5,199L203.5,196L205.5,197C210.17,193 219.33,188.17 233,182.5L229,178.5L233.5,177L235,173.5L223,171.5ZM360,185.5L346,193.5L350,207.5L356.5,213L360,206.5L358,197.5L360.58,193.08L368,192.5L360,185.5ZM428,201.5L420.5,223L428.92,211.42L428,201.5ZM252,216.5L247.5,226L252,220.5L256,219.5L252,216.5ZM230,233.5L229,235.5L232,240.5L226.5,252L235.5,239L232,237.5L234,236.5L230,233.5ZM160,234.5C156.39,235.56 150.22,240.06 141.5,248L141,254.5L138,255.5L139.5,257L147,254.5L145,252.5L161,236.5L160,234.5ZM317,267.5L316,273.5L323,274.5L321,271.5L323,270.5L318.5,270L317,267.5ZM98,277.5L89.5,290L84,293.5L87,294.5L85,303.5L78.5,310L74.5,307L74,308.5C78.15,313.35 77.53,321.96 86.5,323L91,312.5L90,308.5L94,304.5L91,301.5L98,293.5L92,291.5L103,288.5L101,287.5L104,282.5L96.5,285L95,283.5L96.5,281L98.5,282L100,277.5L98,277.5ZM209,277.5L199.5,294L198.5,292L197.5,298L196.5,296L186,315.5L193.5,318L211,278.5L209,277.5ZM170,291.5L170.5,306L173.5,307L175.5,301L180,302.5L170,291.5ZM180,326.5L178,328.5L180,329.5L178,331.5L182.5,335L187,329.5L180,326.5ZM176,328.5L164,333.5L167.5,335L178,329.5L176,328.5ZM380,328.5L378,341.5L380.5,342L381.5,346L383.5,336L380,328.5ZM86,331.5L80.5,341L83,343.5L74,362.5L74.5,370L82.5,358C84.78,354.28 86.28,347.44 87,337.5L86,331.5ZM161,338.5L154.58,342.08L148,352.5L149,353.5C153.8,353.6 153.73,348.96 156,346.5L161.5,345L163,339.5L161,338.5ZM152,362.5L154.5,375L156,374.5L154.08,372.42L152,362.5ZM446,370.5L437,387.5L427.42,391.92L392.5,386L385.08,390.58L385.08,393.42L404.5,404C411.83,410 416.97,415.53 419.92,420.58L416.08,441.42L419.58,445.92L426.5,444C428.92,437.38 428.57,429.74 433.92,424.42C434.03,419.86 435.75,413.92 439.08,406.58L445.5,402L448.5,404C448.22,395.72 449.36,384.92 451.92,371.58L446,370.5ZM0,397.5L0,402.5C9.26,401.27 16.76,409.26 21.5,416L22,413.5L16,406.5C9.67,401.5 4.33,398.33 0,397ZM375,455.5L371.5,461L375.5,458L416,468.5C405.8,457.7 389.13,457.71 375.5,455L375,455.5ZM67,467.5L65,476.5L63.5,470L65.5,488C67.17,483 67.83,476 67.5,467L67,467.5ZM13,475.5L8,487.5L12,490.5L15.5,504L13,475.5ZM28,479.5L31.5,502L34,499.5L32.5,490L30,489.5L28,479.5ZM484,492.5L470,512L482.5,512L489,493.5L484,492.5ZM400,495.5L397,500.5L400,512L406,512C408,504.33 408.5,498.67 407.5,495L400,495.5Z"/>
  <path fill="#8d5e8c" stroke="#8d5e8c" stroke-width="0.5" stroke-linejoin="round" d="M251,174.5L243.5,181L239.5,178L244,182.5L243,184.5L245.5,186C248.33,177.82 258.49,182.52 262,175.5L251,174.5ZM262,198.5L257.08,206.58L258.5,212L259.5,208L261,212.5L259.5,216L258.5,214L258,216.5L260.5,217L271,203.5L269.5,202L260,205.5L262,198.5ZM225,218.5L229.5,235L231,230.5L227.92,219.58L225,218.5ZM166,261.5L162.5,277L160.5,266L157.5,283L160.5,281L162,283.5L157.5,285L154.5,283L162,291.5L156.5,290L155,291.5L160.42,293.92C165.08,291.92 168.61,289.44 171,286.5L170.5,285L166.5,288L169.5,279L166,261.5ZM126,277.5L130,283.5L135.42,284.92L140,281.5L136.5,278L131.5,281L126,277.5ZM127,286.5L122.08,296.58L124,303.5L121,312.5L121,328.5L123.5,329L125.5,326L127.5,337L129.5,331L133,338.5L131,339.5L138.5,347L134,350.5L136.5,354L139,353.5L139,349.5L146.5,349L147.5,351L149,348.5L144,344.5L146,338.5L142.5,342L128.5,296L131.5,296L137,287.5L125.5,295L130,289.5L127,286.5ZM125.5,298L127,298.5C126.77,308.88 135.73,316.82 134,327.5L132.5,328C125.06,319.21 132.87,307.47 125,298.5L125.5,298ZM123.5,312L126,322.5L123.5,324L123.5,312ZM116,349.5L112,368.5L113,392.5C119.39,399.44 124.39,403.78 128,405.5L125,412.5L127,412.5L128.5,408C132.83,405 136.5,401 139.5,396L141,398.5L138,400.5L146,411.5L144,414.5L151.5,426L154,426.5L151.5,439L146.5,435L144.5,440L146.5,439L149.92,443.58L151.5,453L147,452.5L161,460.5L162,454.5L160,453.5L161.5,451L172.92,461.58L173.5,466L177.5,454L174.5,456L171.5,455L163,445.5L165.5,443L192.5,445L174,442.5L176,440.5L172.5,441L170,435.5L172.5,437L174,434.5L169.58,432.92L165,424.5L168.5,415L172,414.5L167.5,411L166.5,414L161.5,406L166.5,411L168,407.5L162.5,399L165,395.5L159.5,392L158.5,396L156.5,395L155.5,397L156,393.5L152,390.5L155.5,389L158.5,392L162,389.5L154.5,383L151.5,384L152,380.5L149,377.5L149.5,372L151.5,377L153,368.5L147,363.5L147.5,352L142.5,357L139,354.5L141,359.5L137.5,363L136.5,360L131,360.5L135,365.5L129.5,366L127.5,361L123.5,363C121.22,359.94 119.72,355.78 119,350.5L116,349.5ZM119.5,375L127,379.5L125,380.5L133,394.5L127.58,395.92L119.08,385.42L119.5,375ZM121.5,395L124.5,398L132.5,399L133,401.5L129.5,405L121.5,395ZM105,422.5L97,438.5L102.5,435L105,436.5C105.31,432.26 109.12,426.22 105.5,422L105,422.5ZM143,459.5L143,471.5L156,480.5L156.5,494L160,497.5L158.5,493L161.5,495L157.5,481L164,482.5L168,477.5L158.5,476L157.5,470L155.5,471L143,459.5ZM123,495.5L131.5,512L135,512L123,495.5Z"/>
</svg>