<svg xmlns="http://www.w3.org/2000/svg" width="400" height="400" viewBox="0 0 400 400">
  <rect width="400" height="400" fill="#eeeeee"/>
  <path fill="#8f01d0" stroke="#8f01d0" stroke-width="0.5" stroke-linejoin="round" d="M146,7L194,7L194,8L146,8ZM204,7L255,7L255,8L204,8ZM134,11L177,11L177,12L134,12ZM224,11L267,11L267,12L224,12ZM181,71L220,71L220,72L181,72ZM163,75L233,75L233,76L163,76ZM152,79L249,79L249,80L152,80ZM373,84.5L370.08,91.42L377.42,94.92L380.92,87.58L373,84.5ZM96,142.5L93.08,149.42L100.42,152.92L103.92,145.58L96,142.5ZM52,183.5L49,188.5L54.5,192L58,186.5L52,183.5ZM118,196.5L118,201.5L124,201.5L123.5,196L118,196.5ZM168,251L208,251L208,252L168,252ZM157,323L234,323L234,324L157,324ZM171,327L230,327L230,328L171,328ZM162,391L261,391L261,392L162,392ZM154,395.5L155.5,400L245.5,400L247,395.5L154,395.5Z"/>
  <path fill="#4a0281" stroke="#4a0281" stroke-width="0.5" stroke-linejoin="round" d="M177,11L224,11L224,12L177,12ZM155,15L246,15L246,16L155,16ZM141,19L260,19L260,20L141,20ZM172,83L229,83L229,84L172,84ZM199,87L242,87L242,88L199,88ZM115,101.5L115,106.5L121,106.5L120.5,101L115,101.5ZM178,155L223,155L223,156L178,156ZM171,159L230,159L230,160L171,160ZM59,185.5L57.08,190.42L62.42,192.92L64.92,187.58L59,185.5ZM174,243L227,243L227,244L174,244ZM154,311L247,311L247,312L154,312ZM165,315L236,315L236,316L165,316ZM234,318.5L234,330.5L246.5,331L246.5,318L234,318.5ZM0,369.5L0,374.42L6.42,376.92L8.92,371.58L0,369ZM135,379L177,379L177,380L135,380ZM224,379L266,379L266,380L224,380ZM148,383L253,383L253,384L148,384ZM164,387L237,387L237,388L164,388Z"/>
  <path fill="#0000fc" stroke="#0000fc" stroke-width="0.5" stroke-linejoin="round" d="M165,23L236,23L236,24L165,24ZM149,27L252,27L252,28L149,28ZM140,31L178,31L178,32L140,32ZM223,31L264,31L264,32L223,32ZM177,99L222,99L222,100L177,100ZM177,167L224,167L224,168L177,168ZM175,231L226,231L226,232L175,232ZM180,235L221,235L221,236L180,236ZM161,303L229,303L229,304L161,304ZM173,307L228,307L228,308L173,308ZM143,371L258,371L258,372L143,372ZM239,373.5L184,375.5L245,375.5L239,373.5ZM184,379L224,379L224,380L184,380Z"/>
  <path fill="#02fb00" stroke="#02fb00" stroke-width="0.5" stroke-linejoin="round" d="M178,31L223,31L223,32L178,32ZM158,35L243,35L243,36L158,36ZM144,39L257,39L257,40L144,40ZM381,52.5L377.08,56.58L378.08,61.42L384.42,63.92L388.92,56.58L381,52.5ZM177,103L227,103L227,104L177,104ZM163,107L238,107L238,108L163,108ZM179,179L222,179L222,180L179,180ZM181,223L220,223L220,224L181,224ZM158,291L243,291L243,292L158,292ZM168,295L233,295L233,296L168,296ZM139,359L179,359L179,360L139,360ZM222,359L262,359L262,360L222,360ZM191,363L250,363L250,364L191,364ZM190,367L235,367L235,368L190,368Z"/>
  <path fill="#f9fb03" stroke="#f9fb03" stroke-width="0.5" stroke-linejoin="round" d="M152,47L193,47L193,48L152,48ZM205,47L249,47L249,48L205,48ZM170,115L231,115L231,116L170,116ZM160,119L241,119L241,120L160,120ZM180,283L224,283L224,284L180,284ZM180,287L225,287L225,288L180,288ZM108,335.5L108,341.5L118.5,346L119.5,336L134,335.5L108,335.5ZM207,343.5L204,346.5L205,350.5L146,351.5L212,350.5L213,346.5L207,343.5ZM159,355L242,355L242,356L159,356Z"/>
  <path fill="#f87f02" stroke="#f87f02" stroke-width="0.5" stroke-linejoin="round" d="M160,55L241,55L241,56L160,56ZM148,59L253,59L253,60L148,60ZM177,123L224,123L224,124L177,124ZM230,124.5L229.5,127L210,127.5L229.5,128L229.5,131L215,131.5L229.5,132L228,135.5L241.5,135L240.5,124L230,124.5ZM38,142.5L35,147.5L40.5,151L44,145.5L38,142.5ZM389,194.5L389,201.5L400,202L400,194L389,194.5ZM163,271L238,271L238,272L163,272ZM187,275L230,275L230,276L187,276ZM345,330.5L343.08,335.42L348.42,337.92L350.92,332.58L345,330.5ZM154,343L207,343L207,344L154,344ZM225,343.5L227,344.5L224,347.5L226.5,352L233,351.5L232,344.5L247,343.5L225,343.5Z"/>
  <path fill="#fc0100" stroke="#fc0100" stroke-width="0.5" stroke-linejoin="round" d="M169,63L232,63L232,64L169,64ZM155,67L246,67L246,68L155,68ZM116,70.5L112.08,77.42L119.42,81.92L124,75.5L122,71.5L116,70.5ZM173,135L228,135L228,136L173,136ZM165,139L236,139L236,140L165,140ZM169,263L232,263L232,264L169,264ZM179,267L222,267L222,268L179,268ZM150,331L251,331L251,332L150,332ZM162,335L239,335L239,336L162,336ZM180,339L221,339L221,340L180,340Z"/>
  <path fill="#5eb857" stroke="#5eb857" stroke-width="0.5" stroke-linejoin="round" d="M298,13.5L296.08,18.42L301.42,20.92L303.92,15.58L298,13.5ZM115,29.5L111.08,37.42L115.58,41.92L122.5,40L123.92,33.58L115,29.5ZM57,38.5L57,43.5L63,43.5L62.5,38L57,38.5ZM197,40.5L193.08,47.42L197.58,51.92L203.92,49.42L204.92,44.58L197,40.5ZM8,47.5L8,50.5L0,51.5L7.5,52L7.5,55L0,55.5L16,54.5L19,51.5L16,50.5L15.5,47L8,47.5ZM166,93.5L166,103.5L177,103.5L176.5,93L166,93.5ZM55,127.5L55,133.5L62,133.5L61.5,127L55,127.5ZM328,174.5L328,178.5L332.5,179L332.5,174L328,174.5ZM238,194.5L236.08,199.42L241.42,201.92L243.92,196.58L238,194.5ZM211,248.5L208.08,255.42L211.58,258.92L219,255.5L215,251.5L217,249.5L211,248.5ZM266,248.5L266,254.5L272.5,255L272.5,248L266,248.5ZM38,263.5L36,267.5L40.5,270L43,265.5L38,263.5ZM226,278.5L224.08,283.42L229.42,285.92L231.92,280.58L226,278.5ZM45,329.5L42.08,335.42L48.42,338.92L51.92,332.58L45,329.5ZM305,353.5L303,357.5L307.5,360L310,355.5L305,353.5ZM183,359.5L180.08,366.42L183.58,369.92L190.92,366.42L190.92,362.58L183,359.5ZM13,383.5L9.08,390.42L16.42,394.92L20.92,390.42L18.42,384.08L13,383.5Z"/>
  <path fill="#62d6c1" stroke="#62d6c1" stroke-width="0.5" stroke-linejoin="round" d="M194,0L194,10.5L203.5,11L203.5,0L194.5,0ZM222,90.5L222,101.5L233.5,102L233.5,90L222,90.5ZM71,126.5L71,137.5L82.5,138L82.5,126L71,126.5ZM369,175.5L367,179.5L371.5,182L374,177.5L369,175.5ZM133,194.5L133,202.5L142,202.5L141.5,194L133,194.5ZM368,208.5L368,218.5L378.5,219L378.5,208L368,208.5ZM139,223.5L139,233.5L150,233.5L149.5,223L139,223.5ZM19,240.5L19,246.5L26,246.5L25.5,240L19,240.5ZM68,326.5L68.58,333.92L73.92,328.58L68,326.5Z"/>
  <path fill="#bf2d98" stroke="#bf2d98" stroke-width="0.5" stroke-linejoin="round" d="M67,21.5L60,23.5L64.5,24L64.5,27L73.5,27L73.5,24L79,23.5L67,21.5ZM180,272.5L176.5,277L169.5,277L169,287.5L180,287.5L180,282.5L183.42,281.92L186.92,275.58L180,272.5ZM78,321.5L78,326.5L84,326.5L83.5,321L78,321.5ZM263,339.5L263,351.5L276,351.5L275.5,339L263,339.5ZM35,340.5L35,348.5L44,348.5L43.5,340L35,340.5ZM94,356.5L90.08,363.42L97.42,367.92L101.92,363.42L99.42,357.08L94,356.5ZM179,373.5L176,378.5L181.5,382L185,376.5L179,373.5Z"/>
  <path fill="#276cb7" stroke="#276cb7" stroke-width="0.5" stroke-linejoin="round" d="M130,22.5L130.5,32L139.5,32L139.5,22L130,22.5ZM122,64.5L122.5,75L132.5,75L132.5,64L122,64.5ZM192,85.5L188.08,93.42L196.42,97.92L200.92,89.58L192,85.5ZM83,90.5L83,99.5L92.5,100L92.5,90L83,90.5ZM49,111.5L47,115.5L51.5,118L54,113.5L49,111.5ZM229,301.5L229,308.5L237,308.5L236.5,301L229,301.5ZM218,340.5L215.08,346.42L221.42,349.92L224.92,343.58L218,340.5Z"/>
  <path fill="#7b1e3a" stroke="#7b1e3a" stroke-width="0.5" stroke-linejoin="round" d="M142,79.5L142,85.5L149,85.5L148.5,79L142,79.5ZM133,91.5L133,103.5L146,103.5L145.5,91L133,91.5ZM123,139.5L120,144.5L125.5,148L129,142.5L123,139.5ZM16,161.5L16.08,169.42L26,170.5L25.5,161L16,161.5ZM304,239.5L305,242.5L298,251.5L307.42,255.92L311.58,251.08L316.5,251L316.5,239L304,239.5ZM47,324.5L47,328.5L52.5,334L57,333.5L56.5,324L47,324.5ZM342,376.5L342,382.5L349,382.5L348.5,376L342,376.5Z"/>
  <path fill="#c8725f" stroke="#c8725f" stroke-width="0.5" stroke-linejoin="round" d="M281,84.5L281,91.5L288.5,92L288.5,84L281,84.5ZM344,209.5L341,214.5L346.5,218L350,212.5L344,209.5ZM374,303.5L374,310.5L381.5,311L381.5,303L374,303.5ZM356,374.5L356,385.5L367.5,386L367.5,374L356,374.5ZM81,380.5L81,390.5L92,390.5L91.5,380L81,380.5Z"/>
  <path fill="#25393b" stroke="#25393b" stroke-width="0.5" stroke-linejoin="round" d="M145,305.5L145.58,312.92L150.92,307.58L145,305.5ZM29,333.5L25.08,340.42L29.58,344.92L35,343.5L37,337.5L29,333.5ZM43,374.5L43,384.5L59,383.5L54,382.5L53.5,374L43,374.5Z"/>
  <path fill="#c67cd1" stroke="#c67cd1" stroke-width="0.5" stroke-linejoin="round" d="M312,37.5L312,47.5L323,47.5L322.5,37L312,37.5ZM197,142.5L195,152.5L203.5,153L201.5,142L197,142.5ZM370,292.5L370,304.5L382.5,305L382.5,292L370,292.5ZM107,342.5L104,347.5L109.5,351L113,345.5L107,342.5ZM155,385.5L152.08,391.42L158.42,394.92L161.92,391.42L158.42,385.08L155,385.5Z"/>
</svg>